<?xml version="1.0" encoding="us-ascii" standalone="no"?><svg xmlns="http://www.w3.org/2000/svg" xmlns:xlink="http://www.w3.org/1999/xlink" contentStyleType="text/css" height="425px" preserveAspectRatio="none" style="width:446px;height:425px;background:#FFFFFF;" version="1.1" viewBox="0 0 446 425" width="446px" zoomAndPan="magnify"><defs/><g><!--class Shape--><g id="elem_Shape"><rect codeLine="4" fill="#F1F1F1" height="227.2656" id="Shape" rx="2.5" ry="2.5" style="stroke:#181818;stroke-width:0.5;" width="255" x="25.5" y="7"/><ellipse cx="126.75" cy="23" fill="#ADD1B2" rx="11" ry="11" style="stroke:#181818;stroke-width:1.0;"/><path d="M129.7188,28.6406 Q129.1406,28.9375 128.5,29.0781 Q127.8594,29.2344 127.1563,29.2344 Q124.6563,29.2344 123.3281,27.5938 Q122.0156,25.9375 122.0156,22.8125 Q122.0156,19.6875 123.3281,18.0313 Q124.6563,16.375 127.1563,16.375 Q127.8594,16.375 128.5,16.5313 Q129.1563,16.6875 129.7188,16.9844 L129.7188,19.7031 Q129.0938,19.125 128.5,18.8594 Q127.9063,18.5781 127.2813,18.5781 Q125.9375,18.5781 125.25,19.6563 Q124.5625,20.7188 124.5625,22.8125 Q124.5625,24.9063 125.25,25.9844 Q125.9375,27.0469 127.2813,27.0469 Q127.9063,27.0469 128.5,26.7813 Q129.0938,26.5 129.7188,25.9219 L129.7188,28.6406 Z " fill="#000000"/><text fill="#000000" font-family="sans-serif" font-size="14" lengthAdjust="spacing" textLength="44" x="147.25" y="27.8467">Shape</text><line style="stroke:#181818;stroke-width:0.5;" x1="26.5" x2="279.5" y1="39" y2="39"/><text fill="#000000" font-family="sans-serif" font-size="14" lengthAdjust="spacing" textLength="142" x="31.5" y="55.9951">#_name : std::string</text><line style="stroke:#181818;stroke-width:0.5;" x1="26.5" x2="279.5" y1="63.2969" y2="63.2969"/><text fill="#000000" font-family="sans-serif" font-size="14" lengthAdjust="spacing" textLength="236" x="31.5" y="80.292">#name( _name : std::string) : void</text><text fill="#000000" font-family="sans-serif" font-size="14" lengthAdjust="spacing" textLength="66" x="31.5" y="96.5889">+Shape()</text><text fill="#000000" font-family="sans-serif" font-size="14" lengthAdjust="spacing" textLength="180" x="31.5" y="112.8857">+Shape(std::string name)</text><text fill="#000000" font-family="sans-serif" font-size="14" lengthAdjust="spacing" textLength="78" x="31.5" y="129.1826">+~Shape()</text><text fill="#000000" font-family="sans-serif" font-size="14" lengthAdjust="spacing" textLength="145" x="31.5" y="145.4795">+name() : std::string</text><text fill="#000000" font-family="sans-serif" font-size="14" font-style="italic" lengthAdjust="spacing" textLength="165" x="31.5" y="161.7764">+double area() : double</text><text fill="#000000" font-family="sans-serif" font-size="14" font-style="italic" lengthAdjust="spacing" textLength="150" x="31.5" y="178.0732">+perimeter() : double</text><text fill="#000000" font-family="sans-serif" font-size="14" font-style="italic" lengthAdjust="spacing" textLength="166" x="31.5" y="194.3701">+clone() const : Shape*</text><text fill="#000000" font-family="sans-serif" font-size="14" font-style="italic" lengthAdjust="spacing" textLength="243" x="31.5" y="210.667">+display(std::ostream&amp; outs) : void</text><text fill="#000000" font-family="sans-serif" font-size="14" font-style="italic" lengthAdjust="spacing" textLength="239" x="31.5" y="226.9639">+void read(std::istream&amp; ins) :void</text></g><!--class Circle--><g id="elem_Circle"><rect fill="#F1F1F1" height="32" id="Circle" rx="2.5" ry="2.5" style="stroke:#181818;stroke-width:0.5;" width="70" x="7" y="294"/><ellipse cx="22" cy="310" fill="#ADD1B2" rx="11" ry="11" style="stroke:#181818;stroke-width:1.0;"/><path d="M24.9688,315.6406 Q24.3906,315.9375 23.75,316.0781 Q23.1094,316.2344 22.4063,316.2344 Q19.9063,316.2344 18.5781,314.5938 Q17.2656,312.9375 17.2656,309.8125 Q17.2656,306.6875 18.5781,305.0313 Q19.9063,303.375 22.4063,303.375 Q23.1094,303.375 23.75,303.5313 Q24.4063,303.6875 24.9688,303.9844 L24.9688,306.7031 Q24.3438,306.125 23.75,305.8594 Q23.1563,305.5781 22.5313,305.5781 Q21.1875,305.5781 20.5,306.6563 Q19.8125,307.7188 19.8125,309.8125 Q19.8125,311.9063 20.5,312.9844 Q21.1875,314.0469 22.5313,314.0469 Q23.1563,314.0469 23.75,313.7813 Q24.3438,313.5 24.9688,312.9219 L24.9688,315.6406 Z " fill="#000000"/><text fill="#000000" font-family="sans-serif" font-size="14" lengthAdjust="spacing" textLength="38" x="36" y="314.8467">Circle</text></g><!--class Square--><g id="elem_Square"><rect fill="#F1F1F1" height="32" id="Square" rx="2.5" ry="2.5" style="stroke:#181818;stroke-width:0.5;" width="81" x="112.5" y="294"/><ellipse cx="127.5" cy="310" fill="#ADD1B2" rx="11" ry="11" style="stroke:#181818;stroke-width:1.0;"/><path d="M130.4688,315.6406 Q129.8906,315.9375 129.25,316.0781 Q128.6094,316.2344 127.9063,316.2344 Q125.4063,316.2344 124.0781,314.5938 Q122.7656,312.9375 122.7656,309.8125 Q122.7656,306.6875 124.0781,305.0313 Q125.4063,303.375 127.9063,303.375 Q128.6094,303.375 129.25,303.5313 Q129.9063,303.6875 130.4688,303.9844 L130.4688,306.7031 Q129.8438,306.125 129.25,305.8594 Q128.6563,305.5781 128.0313,305.5781 Q126.6875,305.5781 126,306.6563 Q125.3125,307.7188 125.3125,309.8125 Q125.3125,311.9063 126,312.9844 Q126.6875,314.0469 128.0313,314.0469 Q128.6563,314.0469 129.25,313.7813 Q129.8438,313.5 130.4688,312.9219 L130.4688,315.6406 Z " fill="#000000"/><text fill="#000000" font-family="sans-serif" font-size="14" lengthAdjust="spacing" textLength="49" x="141.5" y="314.8467">Square</text></g><!--class Triangle--><g id="elem_Triangle"><rect fill="#F1F1F1" height="32" id="Triangle" rx="2.5" ry="2.5" style="stroke:#181818;stroke-width:0.5;" width="87" x="228.5" y="294"/><ellipse cx="243.5" cy="310" fill="#ADD1B2" rx="11" ry="11" style="stroke:#181818;stroke-width:1.0;"/><path d="M246.4688,315.6406 Q245.8906,315.9375 245.25,316.0781 Q244.6094,316.2344 243.9063,316.2344 Q241.4063,316.2344 240.0781,314.5938 Q238.7656,312.9375 238.7656,309.8125 Q238.7656,306.6875 240.0781,305.0313 Q241.4063,303.375 243.9063,303.375 Q244.6094,303.375 245.25,303.5313 Q245.9063,303.6875 246.4688,303.9844 L246.4688,306.7031 Q245.8438,306.125 245.25,305.8594 Q244.6563,305.5781 244.0313,305.5781 Q242.6875,305.5781 242,306.6563 Q241.3125,307.7188 241.3125,309.8125 Q241.3125,311.9063 242,312.9844 Q242.6875,314.0469 244.0313,314.0469 Q244.6563,314.0469 245.25,313.7813 Q245.8438,313.5 246.4688,312.9219 L246.4688,315.6406 Z " fill="#000000"/><text fill="#000000" font-family="sans-serif" font-size="14" lengthAdjust="spacing" textLength="55" x="257.5" y="314.8467">Triangle</text></g><!--class RightTriangle--><g id="elem_RightTriangle"><rect fill="#F1F1F1" height="32" id="RightTriangle" rx="2.5" ry="2.5" style="stroke:#181818;stroke-width:0.5;" width="123" x="122.5" y="386"/><ellipse cx="137.5" cy="402" fill="#ADD1B2" rx="11" ry="11" style="stroke:#181818;stroke-width:1.0;"/><path d="M140.4688,407.6406 Q139.8906,407.9375 139.25,408.0781 Q138.6094,408.2344 137.9063,408.2344 Q135.4063,408.2344 134.0781,406.5938 Q132.7656,404.9375 132.7656,401.8125 Q132.7656,398.6875 134.0781,397.0313 Q135.4063,395.375 137.9063,395.375 Q138.6094,395.375 139.25,395.5313 Q139.9063,395.6875 140.4688,395.9844 L140.4688,398.7031 Q139.8438,398.125 139.25,397.8594 Q138.6563,397.5781 138.0313,397.5781 Q136.6875,397.5781 136,398.6563 Q135.3125,399.7188 135.3125,401.8125 Q135.3125,403.9063 136,404.9844 Q136.6875,406.0469 138.0313,406.0469 Q138.6563,406.0469 139.25,405.7813 Q139.8438,405.5 140.4688,404.9219 L140.4688,407.6406 Z " fill="#000000"/><text fill="#000000" font-family="sans-serif" font-size="14" lengthAdjust="spacing" textLength="91" x="151.5" y="406.8467">RightTriangle</text></g><!--class EquilateralTriangle--><g id="elem_EquilateralTriangle"><rect fill="#F1F1F1" height="32" id="EquilateralTriangle" rx="2.5" ry="2.5" style="stroke:#181818;stroke-width:0.5;" width="158" x="281" y="386"/><ellipse cx="296" cy="402" fill="#ADD1B2" rx="11" ry="11" style="stroke:#181818;stroke-width:1.0;"/><path d="M298.9688,407.6406 Q298.3906,407.9375 297.75,408.0781 Q297.1094,408.2344 296.4063,408.2344 Q293.9063,408.2344 292.5781,406.5938 Q291.2656,404.9375 291.2656,401.8125 Q291.2656,398.6875 292.5781,397.0313 Q293.9063,395.375 296.4063,395.375 Q297.1094,395.375 297.75,395.5313 Q298.4063,395.6875 298.9688,395.9844 L298.9688,398.7031 Q298.3438,398.125 297.75,397.8594 Q297.1563,397.5781 296.5313,397.5781 Q295.1875,397.5781 294.5,398.6563 Q293.8125,399.7188 293.8125,401.8125 Q293.8125,403.9063 294.5,404.9844 Q295.1875,406.0469 296.5313,406.0469 Q297.1563,406.0469 297.75,405.7813 Q298.3438,405.5 298.9688,404.9219 L298.9688,407.6406 Z " fill="#000000"/><text fill="#000000" font-family="sans-serif" font-size="14" lengthAdjust="spacing" textLength="126" x="310" y="406.8467">EquilateralTriangle</text></g><!--reverse link Shape to Circle--><g id="link_Shape_Circle"><path codeLine="19" d="M77.1789,249.5762 C63.0896,273.3752 59.1702,279.996 50.9182,293.935 " fill="none" id="Shape-backto-Circle" style="stroke:#181818;stroke-width:1.0;"/><polygon fill="none" points="86.3487,234.087,72.0158,246.5196,82.342,252.6328,86.3487,234.087" style="stroke:#181818;stroke-width:1.0;"/></g><!--reverse link Shape to Square--><g id="link_Shape_Square"><path codeLine="20" d="M153,252.087 C153,275.886 153,279.996 153,293.935 " fill="none" id="Shape-backto-Square" style="stroke:#181818;stroke-width:1.0;"/><polygon fill="none" points="153,234.087,147,252.087,159,252.087,153,234.087" style="stroke:#181818;stroke-width:1.0;"/></g><!--reverse link Shape to Triangle--><g id="link_Shape_Triangle"><path codeLine="21" d="M234.1007,249.2844 C249.2057,273.0834 253.592,279.996 262.439,293.935 " fill="none" id="Shape-backto-Triangle" style="stroke:#181818;stroke-width:1.0;"/><polygon fill="none" points="224.455,234.087,229.0348,252.4996,239.1665,246.0692,224.455,234.087" style="stroke:#181818;stroke-width:1.0;"/></g><!--reverse link Triangle to RightTriangle--><g id="link_Triangle_RightTriangle"><path codeLine="22" d="M244.488,339.1375 C228.208,355.7877 214.9,369.3974 198.708,385.9582 " fill="none" id="Triangle-backto-RightTriangle" style="stroke:#181818;stroke-width:1.0;"/><polygon fill="none" points="257.072,326.2673,240.1979,334.9428,248.778,343.3322,257.072,326.2673" style="stroke:#181818;stroke-width:1.0;"/></g><!--reverse link Triangle to EquilateralTriangle--><g id="link_Triangle_EquilateralTriangle"><path codeLine="23" d="M299.512,339.1375 C315.792,355.7877 329.1,369.3974 345.292,385.9582 " fill="none" id="Triangle-backto-EquilateralTriangle" style="stroke:#181818;stroke-width:1.0;"/><polygon fill="none" points="286.928,326.2673,295.222,343.3322,303.8021,334.9428,286.928,326.2673" style="stroke:#181818;stroke-width:1.0;"/></g><!--SRC=[VP5FJyCm3CNl-HIMaD3AD8bpnGKX3bmfT-IsLckHFrsI8eqnFZjkGb47XPxYztxFJjpmmdP0ZmOQZI7SnkYv7YCzDCvM_4PmhNfk2SWCyG26J4q-A9LWg7eS28uAvBk0Puk6e8GGsx8CqiTsy6LDpcODAAHyTTmcRfiRRegpQjbkQZ2x7-Tm6b6iZT_24MiHi8adQDrOQmBqX8dEzMzk8C-68lb_gKOxEqsLPOKeNBhIrSfK3eF6GtwB4vNGN88RO_YnW4LcKa70DgTuJh6TGYbpKahbVt3pljl17Vj6RhbGglqeBrqgJvxHTaBDXom_SjV7Fxpx_SWQPHMelurF]--></g></svg>