<?xml version="1.0" encoding="us-ascii" standalone="no"?><svg xmlns="http://www.w3.org/2000/svg" xmlns:xlink="http://www.w3.org/1999/xlink" contentStyleType="text/css" height="322px" preserveAspectRatio="none" style="width:494px;height:322px;background:#FFFFFF;" version="1.1" viewBox="0 0 494 322" width="494px" zoomAndPan="magnify"><defs/><g><!--class Circle--><g id="elem_Circle"><rect codeLine="4" fill="#F1F1F1" height="32" id="Circle" rx="2.5" ry="2.5" style="stroke:#181818;stroke-width:0.5;" width="70" x="73" y="191"/><ellipse cx="88" cy="207" fill="#ADD1B2" rx="11" ry="11" style="stroke:#181818;stroke-width:1.0;"/><path d="M90.9688,212.6406 Q90.3906,212.9375 89.75,213.0781 Q89.1094,213.2344 88.4063,213.2344 Q85.9063,213.2344 84.5781,211.5938 Q83.2656,209.9375 83.2656,206.8125 Q83.2656,203.6875 84.5781,202.0313 Q85.9063,200.375 88.4063,200.375 Q89.1094,200.375 89.75,200.5313 Q90.4063,200.6875 90.9688,200.9844 L90.9688,203.7031 Q90.3438,203.125 89.75,202.8594 Q89.1563,202.5781 88.5313,202.5781 Q87.1875,202.5781 86.5,203.6563 Q85.8125,204.7188 85.8125,206.8125 Q85.8125,208.9063 86.5,209.9844 Q87.1875,211.0469 88.5313,211.0469 Q89.1563,211.0469 89.75,210.7813 Q90.3438,210.5 90.9688,209.9219 L90.9688,212.6406 Z " fill="#000000"/><text fill="#000000" font-family="sans-serif" font-size="14" lengthAdjust="spacing" textLength="38" x="102" y="211.8467">Circle</text></g><!--class EquilateralTriangle--><g id="elem_EquilateralTriangle"><rect codeLine="9" fill="#F1F1F1" height="32" id="EquilateralTriangle" rx="2.5" ry="2.5" style="stroke:#181818;stroke-width:0.5;" width="158" x="171" y="283"/><ellipse cx="186" cy="299" fill="#ADD1B2" rx="11" ry="11" style="stroke:#181818;stroke-width:1.0;"/><path d="M188.9688,304.6406 Q188.3906,304.9375 187.75,305.0781 Q187.1094,305.2344 186.4063,305.2344 Q183.9063,305.2344 182.5781,303.5938 Q181.2656,301.9375 181.2656,298.8125 Q181.2656,295.6875 182.5781,294.0313 Q183.9063,292.375 186.4063,292.375 Q187.1094,292.375 187.75,292.5313 Q188.4063,292.6875 188.9688,292.9844 L188.9688,295.7031 Q188.3438,295.125 187.75,294.8594 Q187.1563,294.5781 186.5313,294.5781 Q185.1875,294.5781 184.5,295.6563 Q183.8125,296.7188 183.8125,298.8125 Q183.8125,300.9063 184.5,301.9844 Q185.1875,303.0469 186.5313,303.0469 Q187.1563,303.0469 187.75,302.7813 Q188.3438,302.5 188.9688,301.9219 L188.9688,304.6406 Z " fill="#000000"/><text fill="#000000" font-family="sans-serif" font-size="14" lengthAdjust="spacing" textLength="126" x="200" y="303.8467">EquilateralTriangle</text></g><!--class RightTriangle--><g id="elem_RightTriangle"><rect codeLine="13" fill="#F1F1F1" height="32" id="RightTriangle" rx="2.5" ry="2.5" style="stroke:#181818;stroke-width:0.5;" width="123" x="364.5" y="283"/><ellipse cx="379.5" cy="299" fill="#ADD1B2" rx="11" ry="11" style="stroke:#181818;stroke-width:1.0;"/><path d="M382.4688,304.6406 Q381.8906,304.9375 381.25,305.0781 Q380.6094,305.2344 379.9063,305.2344 Q377.4063,305.2344 376.0781,303.5938 Q374.7656,301.9375 374.7656,298.8125 Q374.7656,295.6875 376.0781,294.0313 Q377.4063,292.375 379.9063,292.375 Q380.6094,292.375 381.25,292.5313 Q381.9063,292.6875 382.4688,292.9844 L382.4688,295.7031 Q381.8438,295.125 381.25,294.8594 Q380.6563,294.5781 380.0313,294.5781 Q378.6875,294.5781 378,295.6563 Q377.3125,296.7188 377.3125,298.8125 Q377.3125,300.9063 378,301.9844 Q378.6875,303.0469 380.0313,303.0469 Q380.6563,303.0469 381.25,302.7813 Q381.8438,302.5 382.4688,301.9219 L382.4688,304.6406 Z " fill="#000000"/><text fill="#000000" font-family="sans-serif" font-size="14" lengthAdjust="spacing" textLength="91" x="393.5" y="303.8467">RightTriangle</text></g><!--class Shape--><g id="elem_Shape"><rect codeLine="17" fill="#F1F1F1" height="32" id="Shape" rx="2.5" ry="2.5" style="stroke:#181818;stroke-width:0.5;" width="76" x="181" y="99"/><ellipse cx="196" cy="115" fill="#A9DCDF" rx="11" ry="11" style="stroke:#181818;stroke-width:1.0;"/><path d="M196.1094,110.3438 L194.9531,115.4219 L197.2813,115.4219 L196.1094,110.3438 Z M194.625,108.1094 L197.6094,108.1094 L200.9688,120.5 L198.5156,120.5 L197.75,117.4375 L194.4688,117.4375 L193.7188,120.5 L191.2813,120.5 L194.625,108.1094 Z " fill="#000000"/><text fill="#000000" font-family="sans-serif" font-size="14" font-style="italic" lengthAdjust="spacing" textLength="44" x="210" y="119.8467">Shape</text></g><!--class ShapeFactory--><g id="elem_ShapeFactory"><rect codeLine="21" fill="#F1F1F1" height="32" id="ShapeFactory" rx="2.5" ry="2.5" style="stroke:#181818;stroke-width:0.5;" width="126" x="7" y="7"/><ellipse cx="22" cy="23" fill="#ADD1B2" rx="11" ry="11" style="stroke:#181818;stroke-width:1.0;"/><path d="M24.9688,28.6406 Q24.3906,28.9375 23.75,29.0781 Q23.1094,29.2344 22.4063,29.2344 Q19.9063,29.2344 18.5781,27.5938 Q17.2656,25.9375 17.2656,22.8125 Q17.2656,19.6875 18.5781,18.0313 Q19.9063,16.375 22.4063,16.375 Q23.1094,16.375 23.75,16.5313 Q24.4063,16.6875 24.9688,16.9844 L24.9688,19.7031 Q24.3438,19.125 23.75,18.8594 Q23.1563,18.5781 22.5313,18.5781 Q21.1875,18.5781 20.5,19.6563 Q19.8125,20.7188 19.8125,22.8125 Q19.8125,24.9063 20.5,25.9844 Q21.1875,27.0469 22.5313,27.0469 Q23.1563,27.0469 23.75,26.7813 Q24.3438,26.5 24.9688,25.9219 L24.9688,28.6406 Z " fill="#000000"/><text fill="#000000" font-family="sans-serif" font-size="14" lengthAdjust="spacing" textLength="94" x="36" y="27.8467">ShapeFactory</text></g><!--class ShapePair--><g id="elem_ShapePair"><rect codeLine="26" fill="#F1F1F1" height="32" id="ShapePair" rx="2.5" ry="2.5" style="stroke:#181818;stroke-width:0.5;" width="101" x="168.5" y="7"/><ellipse cx="183.5" cy="23" fill="#ADD1B2" rx="11" ry="11" style="stroke:#181818;stroke-width:1.0;"/><path d="M186.4688,28.6406 Q185.8906,28.9375 185.25,29.0781 Q184.6094,29.2344 183.9063,29.2344 Q181.4063,29.2344 180.0781,27.5938 Q178.7656,25.9375 178.7656,22.8125 Q178.7656,19.6875 180.0781,18.0313 Q181.4063,16.375 183.9063,16.375 Q184.6094,16.375 185.25,16.5313 Q185.9063,16.6875 186.4688,16.9844 L186.4688,19.7031 Q185.8438,19.125 185.25,18.8594 Q184.6563,18.5781 184.0313,18.5781 Q182.6875,18.5781 182,19.6563 Q181.3125,20.7188 181.3125,22.8125 Q181.3125,24.9063 182,25.9844 Q182.6875,27.0469 184.0313,27.0469 Q184.6563,27.0469 185.25,26.7813 Q185.8438,26.5 186.4688,25.9219 L186.4688,28.6406 Z " fill="#000000"/><text fill="#000000" font-family="sans-serif" font-size="14" lengthAdjust="spacing" textLength="69" x="197.5" y="27.8467">ShapePair</text></g><!--class Square--><g id="elem_Square"><rect codeLine="31" fill="#F1F1F1" height="32" id="Square" rx="2.5" ry="2.5" style="stroke:#181818;stroke-width:0.5;" width="81" x="178.5" y="191"/><ellipse cx="193.5" cy="207" fill="#ADD1B2" rx="11" ry="11" style="stroke:#181818;stroke-width:1.0;"/><path d="M196.4688,212.6406 Q195.8906,212.9375 195.25,213.0781 Q194.6094,213.2344 193.9063,213.2344 Q191.4063,213.2344 190.0781,211.5938 Q188.7656,209.9375 188.7656,206.8125 Q188.7656,203.6875 190.0781,202.0313 Q191.4063,200.375 193.9063,200.375 Q194.6094,200.375 195.25,200.5313 Q195.9063,200.6875 196.4688,200.9844 L196.4688,203.7031 Q195.8438,203.125 195.25,202.8594 Q194.6563,202.5781 194.0313,202.5781 Q192.6875,202.5781 192,203.6563 Q191.3125,204.7188 191.3125,206.8125 Q191.3125,208.9063 192,209.9844 Q192.6875,211.0469 194.0313,211.0469 Q194.6563,211.0469 195.25,210.7813 Q195.8438,210.5 196.4688,209.9219 L196.4688,212.6406 Z " fill="#000000"/><text fill="#000000" font-family="sans-serif" font-size="14" lengthAdjust="spacing" textLength="49" x="207.5" y="211.8467">Square</text></g><!--class Triangle--><g id="elem_Triangle"><rect codeLine="35" fill="#F1F1F1" height="32" id="Triangle" rx="2.5" ry="2.5" style="stroke:#181818;stroke-width:0.5;" width="87" x="294.5" y="191"/><ellipse cx="309.5" cy="207" fill="#ADD1B2" rx="11" ry="11" style="stroke:#181818;stroke-width:1.0;"/><path d="M312.4688,212.6406 Q311.8906,212.9375 311.25,213.0781 Q310.6094,213.2344 309.9063,213.2344 Q307.4063,213.2344 306.0781,211.5938 Q304.7656,209.9375 304.7656,206.8125 Q304.7656,203.6875 306.0781,202.0313 Q307.4063,200.375 309.9063,200.375 Q310.6094,200.375 311.25,200.5313 Q311.9063,200.6875 312.4688,200.9844 L312.4688,203.7031 Q311.8438,203.125 311.25,202.8594 Q310.6563,202.5781 310.0313,202.5781 Q308.6875,202.5781 308,203.6563 Q307.3125,204.7188 307.3125,206.8125 Q307.3125,208.9063 308,209.9844 Q308.6875,211.0469 310.0313,211.0469 Q310.6563,211.0469 311.25,210.7813 Q311.8438,210.5 312.4688,209.9219 L312.4688,212.6406 Z " fill="#000000"/><text fill="#000000" font-family="sans-serif" font-size="14" lengthAdjust="spacing" textLength="55" x="323.5" y="211.8467">Triangle</text></g><!--reverse link Shape to Circle--><g id="link_Shape_Circle"><path codeLine="38" d="M186.4392,142.4002 C165.9492,159.0132 147.154,174.254 126.64,190.887 " fill="none" id="Shape-backto-Circle" style="stroke:#181818;stroke-width:1.0;"/><polygon fill="none" points="200.421,131.064,182.6605,137.7396,190.218,147.0608,200.421,131.064" style="stroke:#181818;stroke-width:1.0;"/></g><!--reverse link Shape to Square--><g id="link_Shape_Square"><path codeLine="39" d="M219,149.267 C219,165.917 219,174.397 219,190.958 " fill="none" id="Shape-backto-Square" style="stroke:#181818;stroke-width:1.0;"/><polygon fill="none" points="219,131.267,213,149.267,225,149.267,219,131.267" style="stroke:#181818;stroke-width:1.0;"/></g><!--reverse link Shape to Triangle--><g id="link_Shape_Triangle"><path codeLine="40" d="M253.2747,141.9215 C275.2417,158.5345 296.024,174.254 318.017,190.887 " fill="none" id="Shape-backto-Triangle" style="stroke:#181818;stroke-width:1.0;"/><polygon fill="none" points="238.918,131.064,249.6555,146.7071,256.8938,137.136,238.918,131.064" style="stroke:#181818;stroke-width:1.0;"/></g><!--reverse link Triangle to EquilateralTriangle--><g id="link_Triangle_EquilateralTriangle"><path codeLine="41" d="M310.488,236.1375 C294.208,252.7877 280.9,266.3974 264.708,282.9582 " fill="none" id="Triangle-backto-EquilateralTriangle" style="stroke:#181818;stroke-width:1.0;"/><polygon fill="none" points="323.072,223.2673,306.1979,231.9428,314.778,240.3322,323.072,223.2673" style="stroke:#181818;stroke-width:1.0;"/></g><!--reverse link Triangle to RightTriangle--><g id="link_Triangle_RightTriangle"><path codeLine="42" d="M365.512,236.1375 C381.792,252.7877 395.1,266.3974 411.292,282.9582 " fill="none" id="Triangle-backto-RightTriangle" style="stroke:#181818;stroke-width:1.0;"/><polygon fill="none" points="352.928,223.2673,361.222,240.3322,369.8021,231.9428,352.928,223.2673" style="stroke:#181818;stroke-width:1.0;"/></g><!--link ShapePair to Shape--><g id="link_ShapePair_Shape"><path codeLine="44" d="M219,39.267 C219,55.917 219,82.397 219,98.958 " fill="none" id="ShapePair-Shape" style="stroke:#181818;stroke-width:1.0;"/><text fill="#000000" font-family="sans-serif" font-size="13" lengthAdjust="spacing" textLength="40" x="173.625" y="72.7181">model</text><text fill="#000000" font-family="sans-serif" font-size="13" lengthAdjust="spacing" textLength="8" x="189.625" y="87.8509">1</text></g><!--reverse link ShapeFactory to ShapePair--><g id="link_ShapeFactory_ShapePair"><path codeLine="45" d="M145.15,23 C156.888,23 156.625,23 168.362,23 " fill="none" id="ShapeFactory-backto-ShapePair" style="stroke:#181818;stroke-width:1.0;"/><polygon fill="none" points="133.15,23,139.15,27,145.15,23,139.15,19,133.15,23" style="stroke:#181818;stroke-width:1.0;"/></g><!--SRC=[RK-v3i8m3Dtz5HPxAzXP40A93G4ZYzjQr29fYvCENFzEQRW2RDOx_TnUgeQKBEQ6d9juhvArdXTvNQtbn3Y4KWf6jeq_ecMRiJg0NenJqTmmdW6kyCHcXrOCULOo6nMgThtWpQzaL_elXZBdbN8VVi1rIKriwf5vfwZr-20-cIM9Vi67bZJEY3lJK3A-90ccOKUCXOGOUqR0wteGVqR_QABX0E_7Et9WwuBDjXeDC1H2jBXE4hsxE-NB1ZS0]--></g></svg>