<?xml version="1.0" encoding="us-ascii" standalone="no"?><svg xmlns="http://www.w3.org/2000/svg" xmlns:xlink="http://www.w3.org/1999/xlink" contentStyleType="text/css" height="534px" preserveAspectRatio="none" style="width:601px;height:534px;background:#FFFFFF;" version="1.1" viewBox="0 0 601 534" width="601px" zoomAndPan="magnify"><defs/><g><text fill="#000000" font-family="sans-serif" font-size="14" font-weight="bold" lengthAdjust="spacing" textLength="365" x="119.5" y="27.9951">CPP RunShapes "read" Function With Iterators</text><rect fill="#FFFFFF" height="433.5938" style="stroke:#181818;stroke-width:1.0;" width="10" x="64.5" y="83.5938"/><rect fill="#FFFFFF" height="434.5938" style="stroke:#181818;stroke-width:1.0;" width="10" x="218.5" y="83.5938"/><rect fill="#FFFFFF" height="257.7656" style="stroke:#181818;stroke-width:1.0;" width="10" x="223.5" y="184.1563"/><rect fill="#FFFFFF" height="40.1328" style="stroke:#181818;stroke-width:1.0;" width="10" x="228.5" y="221.2891"/><rect fill="#FFFFFF" height="16.1641" style="stroke:#181818;stroke-width:1.0;" width="10" x="383.5" y="114.7266"/><rect fill="#FFFFFF" height="16" style="stroke:#181818;stroke-width:1.0;" width="10" x="383.5" y="502.1875"/><rect fill="#FFFFFF" height="16.1641" style="stroke:#181818;stroke-width:1.0;" width="10" x="531" y="331.6875"/><rect fill="#FFFFFF" height="14" style="stroke:#181818;stroke-width:1.0;" width="10" x="531" y="376.9844"/><rect fill="none" height="304.0313" style="stroke:#000000;stroke-width:1.5;" width="585" x="10" y="145.8906"/><rect fill="none" height="130.3672" style="stroke:#000000;stroke-width:1.5;" width="428" x="157" y="283.4219"/><rect fill="none" height="46.2656" style="stroke:#000000;stroke-width:1.5;" width="487" x="10" y="463.9219"/><line style="stroke:#181818;stroke-width:0.5;stroke-dasharray:5.0,5.0;" x1="69" x2="69" y1="73.5938" y2="527.1875"/><line style="stroke:#181818;stroke-width:0.5;stroke-dasharray:5.0,5.0;" x1="223" x2="223" y1="73.5938" y2="527.1875"/><line style="stroke:#181818;stroke-width:0.5;stroke-dasharray:5.0,5.0;" x1="388" x2="388" y1="114.2422" y2="527.1875"/><line style="stroke:#181818;stroke-width:0.5;stroke-dasharray:5.0,5.0;" x1="536" x2="536" y1="331.2031" y2="527.1875"/><rect fill="#E2E2F0" height="30.2969" rx="2.5" ry="2.5" style="stroke:#181818;stroke-width:0.5;" width="99" x="20" y="42.2969"/><text fill="#000000" font-family="sans-serif" font-size="14" lengthAdjust="spacing" text-decoration="underline" textLength="85" x="27" y="62.292">:RunShapes</text><rect fill="#E2E2F0" height="30.2969" rx="2.5" ry="2.5" style="stroke:#181818;stroke-width:0.5;" width="113" x="167" y="42.2969"/><text fill="#000000" font-family="sans-serif" font-size="14" lengthAdjust="spacing" text-decoration="underline" textLength="99" x="174" y="62.292">:ShapeFactory</text><rect fill="#FFFFFF" height="433.5938" style="stroke:#181818;stroke-width:1.0;" width="10" x="64.5" y="83.5938"/><rect fill="#FFFFFF" height="434.5938" style="stroke:#181818;stroke-width:1.0;" width="10" x="218.5" y="83.5938"/><rect fill="#FFFFFF" height="257.7656" style="stroke:#181818;stroke-width:1.0;" width="10" x="223.5" y="184.1563"/><rect fill="#FFFFFF" height="40.1328" style="stroke:#181818;stroke-width:1.0;" width="10" x="228.5" y="221.2891"/><rect fill="#FFFFFF" height="16.1641" style="stroke:#181818;stroke-width:1.0;" width="10" x="383.5" y="114.7266"/><rect fill="#FFFFFF" height="16" style="stroke:#181818;stroke-width:1.0;" width="10" x="383.5" y="502.1875"/><rect fill="#FFFFFF" height="16.1641" style="stroke:#181818;stroke-width:1.0;" width="10" x="531" y="331.6875"/><rect fill="#FFFFFF" height="14" style="stroke:#181818;stroke-width:1.0;" width="10" x="531" y="376.9844"/><polygon fill="#181818" points="278,100.7266,288,104.7266,278,108.7266,282,104.7266" style="stroke:#181818;stroke-width:1.0;"/><line style="stroke:#181818;stroke-width:1.0;" x1="74.5" x2="284" y1="104.7266" y2="104.7266"/><text fill="#000000" font-family="sans-serif" font-size="13" lengthAdjust="spacing" textLength="25" x="81.5" y="99.6606">new</text><rect fill="#E2E2F0" height="30.2969" rx="2.5" ry="2.5" style="stroke:#181818;stroke-width:0.5;" width="197" x="290" y="83.5938"/><text fill="#000000" font-family="sans-serif" font-size="14" lengthAdjust="spacing" text-decoration="underline" textLength="183" x="297" y="103.5889">collection:ShapeCollection</text><polygon fill="#181818" points="85.5,126.8906,75.5,130.8906,85.5,134.8906,81.5,130.8906" style="stroke:#181818;stroke-width:1.0;"/><line style="stroke:#181818;stroke-width:1.0;stroke-dasharray:2.0,2.0;" x1="79.5" x2="387.5" y1="130.8906" y2="130.8906"/><path d="M10,145.8906 L87,145.8906 L87,153.0234 L77,163.0234 L10,163.0234 L10,145.8906 " fill="#EEEEEE" style="stroke:#000000;stroke-width:1.5;"/><rect fill="none" height="304.0313" style="stroke:#000000;stroke-width:1.5;" width="585" x="10" y="145.8906"/><text fill="#000000" font-family="sans-serif" font-size="13" font-weight="bold" lengthAdjust="spacing" textLength="32" x="25" y="158.9575">loop</text><text fill="#000000" font-family="sans-serif" font-size="11" font-weight="bold" lengthAdjust="spacing" textLength="195" x="102" y="158.1011">[while input has more shapes]</text><polygon fill="#181818" points="211.5,180.1563,221.5,184.1563,211.5,188.1563,215.5,184.1563" style="stroke:#181818;stroke-width:1.0;"/><line style="stroke:#181818;stroke-width:1.0;" x1="74.5" x2="217.5" y1="184.1563" y2="184.1563"/><text fill="#000000" font-family="sans-serif" font-size="13" lengthAdjust="spacing" textLength="120" x="81.5" y="179.0903">operator&gt;&gt;(ins, s)</text><line style="stroke:#181818;stroke-width:1.0;" x1="233.5" x2="280.5" y1="208.2891" y2="208.2891"/><line style="stroke:#181818;stroke-width:1.0;" x1="280.5" x2="280.5" y1="208.2891" y2="221.2891"/><line style="stroke:#181818;stroke-width:1.0;" x1="239.5" x2="280.5" y1="221.2891" y2="221.2891"/><polygon fill="#181818" points="249.5,217.2891,239.5,221.2891,249.5,225.2891,245.5,221.2891" style="stroke:#181818;stroke-width:1.0;"/><text fill="#000000" font-family="sans-serif" font-size="13" lengthAdjust="spacing" textLength="129" x="245.5" y="203.2231">createShape(name)</text><line style="stroke:#181818;stroke-width:1.0;stroke-dasharray:2.0,2.0;" x1="238.5" x2="280.5" y1="260.4219" y2="260.4219"/><line style="stroke:#181818;stroke-width:1.0;stroke-dasharray:2.0,2.0;" x1="280.5" x2="280.5" y1="260.4219" y2="273.4219"/><line style="stroke:#181818;stroke-width:1.0;stroke-dasharray:2.0,2.0;" x1="233.5" x2="280.5" y1="273.4219" y2="273.4219"/><polygon fill="#181818" points="243.5,269.4219,233.5,273.4219,243.5,277.4219,239.5,273.4219" style="stroke:#181818;stroke-width:1.0;"/><text fill="#000000" font-family="sans-serif" font-size="13" lengthAdjust="spacing" textLength="7" x="245.5" y="255.356">s</text><path d="M157,283.4219 L221,283.4219 L221,290.5547 L211,300.5547 L157,300.5547 L157,283.4219 " fill="#EEEEEE" style="stroke:#000000;stroke-width:1.5;"/><rect fill="none" height="130.3672" style="stroke:#000000;stroke-width:1.5;" width="428" x="157" y="283.4219"/><text fill="#000000" font-family="sans-serif" font-size="13" font-weight="bold" lengthAdjust="spacing" textLength="19" x="172" y="296.4888">alt</text><text fill="#000000" font-family="sans-serif" font-size="11" font-weight="bold" lengthAdjust="spacing" textLength="85" x="236" y="295.6323">[s is not null]</text><polygon fill="#181818" points="485,317.6875,495,321.6875,485,325.6875,489,321.6875" style="stroke:#181818;stroke-width:1.0;"/><line style="stroke:#181818;stroke-width:1.0;" x1="233.5" x2="491" y1="321.6875" y2="321.6875"/><text fill="#000000" font-family="sans-serif" font-size="13" lengthAdjust="spacing" textLength="35" x="240.5" y="316.6216">new()</text><rect fill="#E2E2F0" height="30.2969" rx="2.5" ry="2.5" style="stroke:#181818;stroke-width:0.5;" width="78" x="497" y="300.5547"/><text fill="#000000" font-family="sans-serif" font-size="14" lengthAdjust="spacing" text-decoration="underline" textLength="64" x="504" y="320.5498">s:Shape*</text><polygon fill="#181818" points="244.5,343.8516,234.5,347.8516,244.5,351.8516,240.5,347.8516" style="stroke:#181818;stroke-width:1.0;"/><line style="stroke:#181818;stroke-width:1.0;stroke-dasharray:2.0,2.0;" x1="238.5" x2="535" y1="347.8516" y2="347.8516"/><polygon fill="#181818" points="519,372.9844,529,376.9844,519,380.9844,523,376.9844" style="stroke:#181818;stroke-width:1.0;"/><line style="stroke:#181818;stroke-width:1.0;" x1="233.5" x2="525" y1="376.9844" y2="376.9844"/><text fill="#000000" font-family="sans-serif" font-size="13" lengthAdjust="spacing" textLength="57" x="240.5" y="371.9185">read(ins)</text><polygon fill="#181818" points="244.5,386.9844,234.5,390.9844,244.5,394.9844,240.5,390.9844" style="stroke:#181818;stroke-width:1.0;"/><line style="stroke:#181818;stroke-width:1.0;stroke-dasharray:2.0,2.0;" x1="238.5" x2="535" y1="390.9844" y2="390.9844"/><line style="stroke:#000000;stroke-width:1.0;stroke-dasharray:2.0,2.0;" x1="157" x2="585" y1="399.9844" y2="399.9844"/><text fill="#000000" font-family="sans-serif" font-size="11" font-weight="bold" lengthAdjust="spacing" textLength="302" x="162" y="410.1948">[getline(ins, name) discard the rest of the line]</text><polygon fill="#181818" points="85.5,437.9219,75.5,441.9219,85.5,445.9219,81.5,441.9219" style="stroke:#181818;stroke-width:1.0;"/><line style="stroke:#181818;stroke-width:1.0;stroke-dasharray:2.0,2.0;" x1="79.5" x2="217.5" y1="441.9219" y2="441.9219"/><text fill="#000000" font-family="sans-serif" font-size="13" lengthAdjust="spacing" textLength="7" x="91.5" y="436.856">s</text><path d="M10,463.9219 L80,463.9219 L80,471.0547 L70,481.0547 L10,481.0547 L10,463.9219 " fill="#EEEEEE" style="stroke:#000000;stroke-width:1.5;"/><rect fill="none" height="46.2656" style="stroke:#000000;stroke-width:1.5;" width="487" x="10" y="463.9219"/><text fill="#000000" font-family="sans-serif" font-size="13" font-weight="bold" lengthAdjust="spacing" textLength="25" x="25" y="476.9888">opt</text><text fill="#000000" font-family="sans-serif" font-size="11" font-weight="bold" lengthAdjust="spacing" textLength="85" x="95" y="476.1323">[s is not null]</text><polygon fill="#181818" points="371.5,498.1875,381.5,502.1875,371.5,506.1875,375.5,502.1875" style="stroke:#181818;stroke-width:1.0;"/><line style="stroke:#181818;stroke-width:1.0;" x1="74.5" x2="377.5" y1="502.1875" y2="502.1875"/><text fill="#000000" font-family="sans-serif" font-size="13" lengthAdjust="spacing" textLength="85" x="81.5" y="497.1216">push_back(s)</text><!--SRC=[VLAnJWCn3Dtp5TPDLmG_qA5BfKfi5GoCABtpSH6f7MA7mj-JIzfhgmAP7Fizsy-sJSgsK_Tf5O79ZAv769Xrnrz6tXq56-qU13yIKeTR6zLrBbXIIDHZz8xG67Ng4TRRBJmbUXvjG84cekqRs2JAwPdWnUa8ZuhHAaSn9boaQfOphm4haEDpKxVO0jna0CVl0fVX3C-swNBfR3OTUu-bUkMivt-XdSCc2ZoiBXnB83oOY9eY6UEP0nn6bpNcWII5CRFt77ErqhE1_6eA6PR0eOfShLf7SW-oA83foN02rHvBMotPFPunjIh8xB1UGS0942jGydwEJEyaLgh6kpgHeF4ATIoStKLQkxYA7eN-HPWsEKdvbuHU4DvGfukekeiiw9rqDlQWOzubYW8FnIwNCvEfFquxLpRJpt3uJVNjeaAIyNLdk_SszrUOFLuUpmy0]--></g></svg>