<?xml version="1.0" encoding="us-ascii" standalone="no"?><svg xmlns="http://www.w3.org/2000/svg" xmlns:xlink="http://www.w3.org/1999/xlink" contentStyleType="text/css" height="1216px" preserveAspectRatio="none" style="width:1235px;height:1216px;background:#FFFFFF;" version="1.1" viewBox="0 0 1235 1216" width="1235px" zoomAndPan="magnify"><defs/><g><!--class Circle--><g id="elem_Circle"><rect codeLine="5" fill="#F1F1F1" height="292.4531" id="Circle" rx="2.5" ry="2.5" style="stroke:#181818;stroke-width:0.5;" width="258" x="7" y="540.5"/><ellipse cx="112.75" cy="556.5" fill="#ADD1B2" rx="11" ry="11" style="stroke:#181818;stroke-width:1.0;"/><path d="M115.7188,562.1406 Q115.1406,562.4375 114.5,562.5781 Q113.8594,562.7344 113.1563,562.7344 Q110.6563,562.7344 109.3281,561.0938 Q108.0156,559.4375 108.0156,556.3125 Q108.0156,553.1875 109.3281,551.5313 Q110.6563,549.875 113.1563,549.875 Q113.8594,549.875 114.5,550.0313 Q115.1563,550.1875 115.7188,550.4844 L115.7188,553.2031 Q115.0938,552.625 114.5,552.3594 Q113.9063,552.0781 113.2813,552.0781 Q111.9375,552.0781 111.25,553.1563 Q110.5625,554.2188 110.5625,556.3125 Q110.5625,558.4063 111.25,559.4844 Q111.9375,560.5469 113.2813,560.5469 Q113.9063,560.5469 114.5,560.2813 Q115.0938,560 115.7188,559.4219 L115.7188,562.1406 Z " fill="#000000"/><text fill="#000000" font-family="sans-serif" font-size="14" lengthAdjust="spacing" textLength="38" x="133.25" y="561.3467">Circle</text><line style="stroke:#181818;stroke-width:0.5;" x1="8" x2="264" y1="572.5" y2="572.5"/><text fill="#000000" font-family="sans-serif" font-size="14" lengthAdjust="spacing" textLength="115" x="13" y="589.4951">-_radius : double</text><text fill="#000000" font-family="sans-serif" font-size="14" lengthAdjust="spacing" text-decoration="underline" textLength="117" x="13" y="605.792">-PI :const double</text><text fill="#000000" font-family="sans-serif" font-size="14" lengthAdjust="spacing" text-decoration="underline" textLength="133" x="13" y="622.0889">-TAU :const double</text><line style="stroke:#181818;stroke-width:0.5;" x1="8" x2="264" y1="629.3906" y2="629.3906"/><text fill="#000000" font-family="sans-serif" font-size="14" lengthAdjust="spacing" textLength="60" x="13" y="646.3857">+Circle()</text><text fill="#000000" font-family="sans-serif" font-size="14" lengthAdjust="spacing" textLength="117" x="13" y="662.6826">+Circle(double r)</text><text fill="#000000" font-family="sans-serif" font-size="14" lengthAdjust="spacing" textLength="178" x="13" y="678.9795">+Circle(const Circle&amp; src)</text><text fill="#000000" font-family="sans-serif" font-size="14" lengthAdjust="spacing" textLength="72" x="13" y="695.2764">+~Circle()</text><text fill="#000000" font-family="sans-serif" font-size="14" lengthAdjust="spacing" textLength="124" x="13" y="711.5732">+clone() : Shape*</text><text fill="#000000" font-family="sans-serif" font-size="14" lengthAdjust="spacing" textLength="113" x="13" y="727.8701">+area() : double</text><text fill="#000000" font-family="sans-serif" font-size="14" lengthAdjust="spacing" textLength="144" x="13" y="744.167">+diameter() : double</text><text fill="#000000" font-family="sans-serif" font-size="14" lengthAdjust="spacing" textLength="150" x="13" y="760.4639">+perimeter() : double</text><text fill="#000000" font-family="sans-serif" font-size="14" lengthAdjust="spacing" textLength="125" x="13" y="776.7607">+radius() : double</text><text fill="#000000" font-family="sans-serif" font-size="14" lengthAdjust="spacing" textLength="246" x="13" y="793.0576">+display(std::ostream&amp; outs) : void</text><text fill="#000000" font-family="sans-serif" font-size="14" lengthAdjust="spacing" textLength="162" x="13" y="809.3545">+radius(double r) : void</text><text fill="#000000" font-family="sans-serif" font-size="14" lengthAdjust="spacing" textLength="213" x="13" y="825.6514">+read(std::istream&amp; ins) : void</text></g><!--class EquilateralTriangle--><g id="elem_EquilateralTriangle"><rect codeLine="24" fill="#F1F1F1" height="243.5625" id="EquilateralTriangle" rx="2.5" ry="2.5" style="stroke:#181818;stroke-width:0.5;" width="366" x="403" y="941"/><ellipse cx="518.75" cy="957" fill="#ADD1B2" rx="11" ry="11" style="stroke:#181818;stroke-width:1.0;"/><path d="M521.7188,962.6406 Q521.1406,962.9375 520.5,963.0781 Q519.8594,963.2344 519.1563,963.2344 Q516.6563,963.2344 515.3281,961.5938 Q514.0156,959.9375 514.0156,956.8125 Q514.0156,953.6875 515.3281,952.0313 Q516.6563,950.375 519.1563,950.375 Q519.8594,950.375 520.5,950.5313 Q521.1563,950.6875 521.7188,950.9844 L521.7188,953.7031 Q521.0938,953.125 520.5,952.8594 Q519.9063,952.5781 519.2813,952.5781 Q517.9375,952.5781 517.25,953.6563 Q516.5625,954.7188 516.5625,956.8125 Q516.5625,958.9063 517.25,959.9844 Q517.9375,961.0469 519.2813,961.0469 Q519.9063,961.0469 520.5,960.7813 Q521.0938,960.5 521.7188,959.9219 L521.7188,962.6406 Z " fill="#000000"/><text fill="#000000" font-family="sans-serif" font-size="14" lengthAdjust="spacing" textLength="126" x="539.25" y="961.8467">EquilateralTriangle</text><line style="stroke:#181818;stroke-width:0.5;" x1="404" x2="768" y1="973" y2="973"/><text fill="#000000" font-family="sans-serif" font-size="14" lengthAdjust="spacing" text-decoration="underline" textLength="208" x="409" y="989.9951">-ROOT_3_DIV_4 :const double</text><line style="stroke:#181818;stroke-width:0.5;" x1="404" x2="768" y1="997.2969" y2="997.2969"/><text fill="#000000" font-family="sans-serif" font-size="14" lengthAdjust="spacing" textLength="148" x="409" y="1014.292">+EquilateralTriangle()</text><text fill="#000000" font-family="sans-serif" font-size="14" lengthAdjust="spacing" textLength="229" x="409" y="1030.5889">+EquilateralTriangle(double side)</text><text fill="#000000" font-family="sans-serif" font-size="14" lengthAdjust="spacing" textLength="354" x="409" y="1046.8857">+EquilateralTriangle(const EquilateralTriangle&amp; src)</text><text fill="#000000" font-family="sans-serif" font-size="14" lengthAdjust="spacing" textLength="160" x="409" y="1063.1826">+~EquilateralTriangle()</text><text fill="#000000" font-family="sans-serif" font-size="14" lengthAdjust="spacing" textLength="124" x="409" y="1079.4795">+clone() : Shape*</text><text fill="#000000" font-family="sans-serif" font-size="14" lengthAdjust="spacing" textLength="113" x="409" y="1095.7764">+area() : double</text><text fill="#000000" font-family="sans-serif" font-size="14" lengthAdjust="spacing" textLength="127" x="409" y="1112.0732">+height() : double</text><text fill="#000000" font-family="sans-serif" font-size="14" lengthAdjust="spacing" textLength="112" x="409" y="1128.3701">+side() : double</text><text fill="#000000" font-family="sans-serif" font-size="14" lengthAdjust="spacing" textLength="246" x="409" y="1144.667">+display(std::ostream&amp; outs) : void</text><text fill="#000000" font-family="sans-serif" font-size="14" lengthAdjust="spacing" textLength="213" x="409" y="1160.9639">+read(std::istream&amp; ins) : void</text><text fill="#000000" font-family="sans-serif" font-size="14" lengthAdjust="spacing" textLength="152" x="409" y="1177.2607">+side(double s) : void</text></g><!--class RightTriangle--><g id="elem_RightTriangle"><rect codeLine="40" fill="#F1F1F1" height="292.4531" id="RightTriangle" rx="2.5" ry="2.5" style="stroke:#181818;stroke-width:0.5;" width="424" x="804" y="917"/><ellipse cx="966.25" cy="933" fill="#ADD1B2" rx="11" ry="11" style="stroke:#181818;stroke-width:1.0;"/><path d="M969.2188,938.6406 Q968.6406,938.9375 968,939.0781 Q967.3594,939.2344 966.6563,939.2344 Q964.1563,939.2344 962.8281,937.5938 Q961.5156,935.9375 961.5156,932.8125 Q961.5156,929.6875 962.8281,928.0313 Q964.1563,926.375 966.6563,926.375 Q967.3594,926.375 968,926.5313 Q968.6563,926.6875 969.2188,926.9844 L969.2188,929.7031 Q968.5938,929.125 968,928.8594 Q967.4063,928.5781 966.7813,928.5781 Q965.4375,928.5781 964.75,929.6563 Q964.0625,930.7188 964.0625,932.8125 Q964.0625,934.9063 964.75,935.9844 Q965.4375,937.0469 966.7813,937.0469 Q967.4063,937.0469 968,936.7813 Q968.5938,936.5 969.2188,935.9219 L969.2188,938.6406 Z " fill="#000000"/><text fill="#000000" font-family="sans-serif" font-size="14" lengthAdjust="spacing" textLength="91" x="986.75" y="937.8467">RightTriangle</text><line style="stroke:#181818;stroke-width:0.5;" x1="805" x2="1227" y1="949" y2="949"/><text fill="#000000" font-family="sans-serif" font-size="14" lengthAdjust="spacing" text-decoration="underline" textLength="176" x="810" y="965.9951">-ONE_HALF :const double</text><line style="stroke:#181818;stroke-width:0.5;" x1="805" x2="1227" y1="973.2969" y2="973.2969"/><text fill="#000000" font-family="sans-serif" font-size="14" lengthAdjust="spacing" textLength="113" x="810" y="990.292">+RightTriangle()</text><text fill="#000000" font-family="sans-serif" font-size="14" lengthAdjust="spacing" textLength="303" x="810" y="1006.5889">+RightTriangle(double base, double height)</text><text fill="#000000" font-family="sans-serif" font-size="14" lengthAdjust="spacing" textLength="284" x="810" y="1022.8857">+RightTriangle(const RightTriangle&amp; src)</text><text fill="#000000" font-family="sans-serif" font-size="14" lengthAdjust="spacing" textLength="125" x="810" y="1039.1826">+~RightTriangle()</text><text fill="#000000" font-family="sans-serif" font-size="14" lengthAdjust="spacing" textLength="124" x="810" y="1055.4795">+clone() : Shape*</text><text fill="#000000" font-family="sans-serif" font-size="14" lengthAdjust="spacing" textLength="113" x="810" y="1071.7764">+area() : double</text><text fill="#000000" font-family="sans-serif" font-size="14" lengthAdjust="spacing" textLength="117" x="810" y="1088.0732">+base() : double</text><text fill="#000000" font-family="sans-serif" font-size="14" lengthAdjust="spacing" text-decoration="underline" textLength="412" x="810" y="1104.3701">-computeHypotenuse(double base, double height) : double</text><text fill="#000000" font-family="sans-serif" font-size="14" lengthAdjust="spacing" textLength="127" x="810" y="1120.667">+height() : double</text><text fill="#000000" font-family="sans-serif" font-size="14" lengthAdjust="spacing" textLength="166" x="810" y="1136.9639">+hypotenuse() : double</text><text fill="#000000" font-family="sans-serif" font-size="14" lengthAdjust="spacing" textLength="178" x="810" y="1153.2607">+base(double side) : void</text><text fill="#000000" font-family="sans-serif" font-size="14" lengthAdjust="spacing" textLength="246" x="810" y="1169.5576">+display(std::ostream&amp; outs) : void</text><text fill="#000000" font-family="sans-serif" font-size="14" lengthAdjust="spacing" textLength="188" x="810" y="1185.8545">+height(double side) : void</text><text fill="#000000" font-family="sans-serif" font-size="14" lengthAdjust="spacing" textLength="213" x="810" y="1202.1514">+read(std::istream&amp; ins) : void</text></g><!--class Shape--><g id="elem_Shape"><rect codeLine="59" fill="#F1F1F1" height="259.8594" id="Shape" rx="2.5" ry="2.5" style="stroke:#181818;stroke-width:0.5;" width="258" x="300" y="196"/><ellipse cx="402.75" cy="212" fill="#A9DCDF" rx="11" ry="11" style="stroke:#181818;stroke-width:1.0;"/><path d="M402.8594,207.3438 L401.7031,212.4219 L404.0313,212.4219 L402.8594,207.3438 Z M401.375,205.1094 L404.3594,205.1094 L407.7188,217.5 L405.2656,217.5 L404.5,214.4375 L401.2188,214.4375 L400.4688,217.5 L398.0313,217.5 L401.375,205.1094 Z " fill="#000000"/><text fill="#000000" font-family="sans-serif" font-size="14" font-style="italic" lengthAdjust="spacing" textLength="44" x="423.25" y="216.8467">Shape</text><line style="stroke:#181818;stroke-width:0.5;" x1="301" x2="557" y1="228" y2="228"/><text fill="#000000" font-family="sans-serif" font-size="14" lengthAdjust="spacing" text-decoration="underline" textLength="176" x="306" y="244.9951">#WIDTH_LABEL :const int</text><text fill="#000000" font-family="sans-serif" font-size="14" lengthAdjust="spacing" text-decoration="underline" textLength="178" x="306" y="261.292">#WIDTH_VALUE :const int</text><text fill="#000000" font-family="sans-serif" font-size="14" lengthAdjust="spacing" textLength="142" x="306" y="277.5889">#_name : std::string</text><line style="stroke:#181818;stroke-width:0.5;" x1="301" x2="557" y1="284.8906" y2="284.8906"/><text fill="#000000" font-family="sans-serif" font-size="14" lengthAdjust="spacing" textLength="66" x="306" y="301.8857">+Shape()</text><text fill="#000000" font-family="sans-serif" font-size="14" lengthAdjust="spacing" textLength="180" x="306" y="318.1826">+Shape(std::string name)</text><text fill="#000000" font-family="sans-serif" font-size="14" lengthAdjust="spacing" textLength="78" x="306" y="334.4795">+~Shape()</text><text fill="#000000" font-family="sans-serif" font-size="14" font-style="italic" lengthAdjust="spacing" textLength="124" x="306" y="350.7764">+clone() : Shape*</text><text fill="#000000" font-family="sans-serif" font-size="14" font-style="italic" lengthAdjust="spacing" textLength="113" x="306" y="367.0732">+area() : double</text><text fill="#000000" font-family="sans-serif" font-size="14" font-style="italic" lengthAdjust="spacing" textLength="150" x="306" y="383.3701">+perimeter() : double</text><text fill="#000000" font-family="sans-serif" font-size="14" lengthAdjust="spacing" textLength="145" x="306" y="399.667">+name() : std::string</text><text fill="#000000" font-family="sans-serif" font-size="14" lengthAdjust="spacing" textLength="246" x="306" y="415.9639">+display(std::ostream&amp; outs) : void</text><text fill="#000000" font-family="sans-serif" font-size="14" lengthAdjust="spacing" textLength="223" x="306" y="432.2607">#name(std::string _name) : void</text><text fill="#000000" font-family="sans-serif" font-size="14" font-style="italic" lengthAdjust="spacing" textLength="210" x="306" y="448.5576">+read(std::istream&amp; ins) : void</text></g><!--class ShapeFactory--><g id="elem_ShapeFactory"><rect codeLine="76" fill="#F1F1F1" height="129.4844" id="ShapeFactory" rx="2.5" ry="2.5" style="stroke:#181818;stroke-width:0.5;" width="300" x="626" y="7"/><ellipse cx="724.75" cy="23" fill="#ADD1B2" rx="11" ry="11" style="stroke:#181818;stroke-width:1.0;"/><path d="M727.7188,28.6406 Q727.1406,28.9375 726.5,29.0781 Q725.8594,29.2344 725.1563,29.2344 Q722.6563,29.2344 721.3281,27.5938 Q720.0156,25.9375 720.0156,22.8125 Q720.0156,19.6875 721.3281,18.0313 Q722.6563,16.375 725.1563,16.375 Q725.8594,16.375 726.5,16.5313 Q727.1563,16.6875 727.7188,16.9844 L727.7188,19.7031 Q727.0938,19.125 726.5,18.8594 Q725.9063,18.5781 725.2813,18.5781 Q723.9375,18.5781 723.25,19.6563 Q722.5625,20.7188 722.5625,22.8125 Q722.5625,24.9063 723.25,25.9844 Q723.9375,27.0469 725.2813,27.0469 Q725.9063,27.0469 726.5,26.7813 Q727.0938,26.5 727.7188,25.9219 L727.7188,28.6406 Z " fill="#000000"/><text fill="#000000" font-family="sans-serif" font-size="14" lengthAdjust="spacing" textLength="94" x="745.25" y="27.8467">ShapeFactory</text><line style="stroke:#181818;stroke-width:0.5;" x1="627" x2="925" y1="39" y2="39"/><text fill="#000000" font-family="sans-serif" font-size="14" lengthAdjust="spacing" text-decoration="underline" textLength="194" x="632" y="55.9951">-_known_shapes :ShapePair</text><line style="stroke:#181818;stroke-width:0.5;" x1="627" x2="925" y1="63.2969" y2="63.2969"/><text fill="#000000" font-family="sans-serif" font-size="14" lengthAdjust="spacing" text-decoration="underline" textLength="288" x="632" y="80.292">+createShape(std::string name) : Shape*</text><text fill="#000000" font-family="sans-serif" font-size="14" lengthAdjust="spacing" text-decoration="underline" textLength="237" x="632" y="96.5889">+isKnown(std::string name) : bool</text><text fill="#000000" font-family="sans-serif" font-size="14" lengthAdjust="spacing" text-decoration="underline" textLength="153" x="632" y="112.8857">+numberKnown() : int</text><text fill="#000000" font-family="sans-serif" font-size="14" lengthAdjust="spacing" text-decoration="underline" textLength="265" x="632" y="129.1826">+listKnown(std::ostream&amp; outs) : void</text></g><!--class ShapeFactory::ShapePair--><g id="elem_ShapeFactory::ShapePair"><rect codeLine="86" fill="#F1F1F1" height="129.4844" id="ShapeFactory::ShapePair" rx="2.5" ry="2.5" style="stroke:#181818;stroke-width:0.5;" width="323" x="267.5" y="7"/><ellipse cx="338.25" cy="23" fill="#ADD1B2" rx="11" ry="11" style="stroke:#181818;stroke-width:1.0;"/><path d="M341.2188,28.6406 Q340.6406,28.9375 340,29.0781 Q339.3594,29.2344 338.6563,29.2344 Q336.1563,29.2344 334.8281,27.5938 Q333.5156,25.9375 333.5156,22.8125 Q333.5156,19.6875 334.8281,18.0313 Q336.1563,16.375 338.6563,16.375 Q339.3594,16.375 340,16.5313 Q340.6563,16.6875 341.2188,16.9844 L341.2188,19.7031 Q340.5938,19.125 340,18.8594 Q339.4063,18.5781 338.7813,18.5781 Q337.4375,18.5781 336.75,19.6563 Q336.0625,20.7188 336.0625,22.8125 Q336.0625,24.9063 336.75,25.9844 Q337.4375,27.0469 338.7813,27.0469 Q339.4063,27.0469 340,26.7813 Q340.5938,26.5 341.2188,25.9219 L341.2188,28.6406 Z " fill="#000000"/><text fill="#000000" font-family="sans-serif" font-size="14" lengthAdjust="spacing" textLength="173" x="358.75" y="27.8467">ShapeFactory::ShapePair</text><line style="stroke:#181818;stroke-width:0.5;" x1="268.5" x2="589.5" y1="39" y2="39"/><text fill="#000000" font-family="sans-serif" font-size="14" lengthAdjust="spacing" textLength="126" x="273.5" y="55.9951">+_model : Shape*</text><text fill="#000000" font-family="sans-serif" font-size="14" lengthAdjust="spacing" textLength="142" x="273.5" y="72.292">+_name : std::string</text><line style="stroke:#181818;stroke-width:0.5;" x1="268.5" x2="589.5" y1="79.5938" y2="79.5938"/><text fill="#000000" font-family="sans-serif" font-size="14" lengthAdjust="spacing" textLength="91" x="273.5" y="96.5889">+ShapePair()</text><text fill="#000000" font-family="sans-serif" font-size="14" lengthAdjust="spacing" textLength="311" x="273.5" y="112.8857">+ShapePair(std::string name, Shape* shape)</text><text fill="#000000" font-family="sans-serif" font-size="14" lengthAdjust="spacing" textLength="103" x="273.5" y="129.1826">+~ShapePair()</text></g><!--class Square--><g id="elem_Square"><rect codeLine="96" fill="#F1F1F1" height="243.5625" id="Square" rx="2.5" ry="2.5" style="stroke:#181818;stroke-width:0.5;" width="258" x="300" y="564.5"/><ellipse cx="400.25" cy="580.5" fill="#ADD1B2" rx="11" ry="11" style="stroke:#181818;stroke-width:1.0;"/><path d="M403.2188,586.1406 Q402.6406,586.4375 402,586.5781 Q401.3594,586.7344 400.6563,586.7344 Q398.1563,586.7344 396.8281,585.0938 Q395.5156,583.4375 395.5156,580.3125 Q395.5156,577.1875 396.8281,575.5313 Q398.1563,573.875 400.6563,573.875 Q401.3594,573.875 402,574.0313 Q402.6563,574.1875 403.2188,574.4844 L403.2188,577.2031 Q402.5938,576.625 402,576.3594 Q401.4063,576.0781 400.7813,576.0781 Q399.4375,576.0781 398.75,577.1563 Q398.0625,578.2188 398.0625,580.3125 Q398.0625,582.4063 398.75,583.4844 Q399.4375,584.5469 400.7813,584.5469 Q401.4063,584.5469 402,584.2813 Q402.5938,584 403.2188,583.4219 L403.2188,586.1406 Z " fill="#000000"/><text fill="#000000" font-family="sans-serif" font-size="14" lengthAdjust="spacing" textLength="49" x="420.75" y="585.3467">Square</text><line style="stroke:#181818;stroke-width:0.5;" x1="301" x2="557" y1="596.5" y2="596.5"/><text fill="#000000" font-family="sans-serif" font-size="14" lengthAdjust="spacing" textLength="102" x="306" y="613.4951">-_side : double</text><line style="stroke:#181818;stroke-width:0.5;" x1="301" x2="557" y1="620.7969" y2="620.7969"/><text fill="#000000" font-family="sans-serif" font-size="14" lengthAdjust="spacing" textLength="71" x="306" y="637.792">+Square()</text><text fill="#000000" font-family="sans-serif" font-size="14" lengthAdjust="spacing" textLength="131" x="306" y="654.0889">+Square(double s)</text><text fill="#000000" font-family="sans-serif" font-size="14" lengthAdjust="spacing" textLength="200" x="306" y="670.3857">+Square(const Square&amp; src)</text><text fill="#000000" font-family="sans-serif" font-size="14" lengthAdjust="spacing" textLength="83" x="306" y="686.6826">+~Square()</text><text fill="#000000" font-family="sans-serif" font-size="14" lengthAdjust="spacing" textLength="124" x="306" y="702.9795">+clone() : Shape*</text><text fill="#000000" font-family="sans-serif" font-size="14" lengthAdjust="spacing" textLength="113" x="306" y="719.2764">+area() : double</text><text fill="#000000" font-family="sans-serif" font-size="14" lengthAdjust="spacing" textLength="150" x="306" y="735.5732">+perimeter() : double</text><text fill="#000000" font-family="sans-serif" font-size="14" lengthAdjust="spacing" textLength="112" x="306" y="751.8701">+side() : double</text><text fill="#000000" font-family="sans-serif" font-size="14" lengthAdjust="spacing" textLength="246" x="306" y="768.167">+display(std::ostream&amp; outs) : void</text><text fill="#000000" font-family="sans-serif" font-size="14" lengthAdjust="spacing" textLength="213" x="306" y="784.4639">+read(std::istream&amp; ins) : void</text><text fill="#000000" font-family="sans-serif" font-size="14" lengthAdjust="spacing" textLength="152" x="306" y="800.7607">+side(double s) : void</text></g><!--class Triangle--><g id="elem_Triangle"><rect codeLine="112" fill="#F1F1F1" height="341.3438" id="Triangle" rx="2.5" ry="2.5" style="stroke:#181818;stroke-width:0.5;" width="415" x="593.5" y="516"/><ellipse cx="769.25" cy="532" fill="#ADD1B2" rx="11" ry="11" style="stroke:#181818;stroke-width:1.0;"/><path d="M772.2188,537.6406 Q771.6406,537.9375 771,538.0781 Q770.3594,538.2344 769.6563,538.2344 Q767.1563,538.2344 765.8281,536.5938 Q764.5156,534.9375 764.5156,531.8125 Q764.5156,528.6875 765.8281,527.0313 Q767.1563,525.375 769.6563,525.375 Q770.3594,525.375 771,525.5313 Q771.6563,525.6875 772.2188,525.9844 L772.2188,528.7031 Q771.5938,528.125 771,527.8594 Q770.4063,527.5781 769.7813,527.5781 Q768.4375,527.5781 767.75,528.6563 Q767.0625,529.7188 767.0625,531.8125 Q767.0625,533.9063 767.75,534.9844 Q768.4375,536.0469 769.7813,536.0469 Q770.4063,536.0469 771,535.7813 Q771.5938,535.5 772.2188,534.9219 L772.2188,537.6406 Z " fill="#000000"/><text fill="#000000" font-family="sans-serif" font-size="14" lengthAdjust="spacing" textLength="55" x="789.75" y="536.8467">Triangle</text><line style="stroke:#181818;stroke-width:0.5;" x1="594.5" x2="1007.5" y1="548" y2="548"/><text fill="#000000" font-family="sans-serif" font-size="14" lengthAdjust="spacing" textLength="124" x="599.5" y="564.9951">#_side_a : double</text><text fill="#000000" font-family="sans-serif" font-size="14" lengthAdjust="spacing" textLength="125" x="599.5" y="581.292">#_side_b : double</text><text fill="#000000" font-family="sans-serif" font-size="14" lengthAdjust="spacing" textLength="124" x="599.5" y="597.5889">#_side_c : double</text><line style="stroke:#181818;stroke-width:0.5;" x1="594.5" x2="1007.5" y1="604.8906" y2="604.8906"/><text fill="#000000" font-family="sans-serif" font-size="14" lengthAdjust="spacing" textLength="77" x="599.5" y="621.8857">+Triangle()</text><text fill="#000000" font-family="sans-serif" font-size="14" lengthAdjust="spacing" textLength="403" x="599.5" y="638.1826">+Triangle(double _side_a, double _side_b, double _side_c)</text><text fill="#000000" font-family="sans-serif" font-size="14" lengthAdjust="spacing" textLength="212" x="599.5" y="654.4795">+Triangle(const Triangle&amp; src)</text><text fill="#000000" font-family="sans-serif" font-size="14" lengthAdjust="spacing" textLength="89" x="599.5" y="670.7764">+~Triangle()</text><text fill="#000000" font-family="sans-serif" font-size="14" lengthAdjust="spacing" textLength="124" x="599.5" y="687.0732">+clone() : Shape*</text><text fill="#000000" font-family="sans-serif" font-size="14" lengthAdjust="spacing" textLength="113" x="599.5" y="703.3701">+area() : double</text><text fill="#000000" font-family="sans-serif" font-size="14" lengthAdjust="spacing" textLength="150" x="599.5" y="719.667">+perimeter() : double</text><text fill="#000000" font-family="sans-serif" font-size="14" lengthAdjust="spacing" textLength="121" x="599.5" y="735.9639">+sideA() : double</text><text fill="#000000" font-family="sans-serif" font-size="14" lengthAdjust="spacing" textLength="122" x="599.5" y="752.2607">+sideB() : double</text><text fill="#000000" font-family="sans-serif" font-size="14" lengthAdjust="spacing" textLength="122" x="599.5" y="768.5576">+sideC() : double</text><text fill="#000000" font-family="sans-serif" font-size="14" lengthAdjust="spacing" textLength="246" x="599.5" y="784.8545">+display(std::ostream&amp; outs) : void</text><text fill="#000000" font-family="sans-serif" font-size="14" lengthAdjust="spacing" textLength="213" x="599.5" y="801.1514">+read(std::istream&amp; ins) : void</text><text fill="#000000" font-family="sans-serif" font-size="14" lengthAdjust="spacing" textLength="182" x="599.5" y="817.4482">+sideA(double side) : void</text><text fill="#000000" font-family="sans-serif" font-size="14" lengthAdjust="spacing" textLength="183" x="599.5" y="833.7451">+sideB(double side) : void</text><text fill="#000000" font-family="sans-serif" font-size="14" lengthAdjust="spacing" textLength="183" x="599.5" y="850.042">+sideC(double side) : void</text></g><!--reverse link Shape to Circle--><g id="link_Shape_Circle"><path codeLine="139" d="M312.0365,470.1106 C289.7345,497.3996 277.446,512.434 254.696,540.27 " fill="none" id="Shape-backto-Circle" style="stroke:#181818;stroke-width:1.0;"/><polygon fill="none" points="323.427,456.173,307.3906,466.3137,316.6823,473.9074,323.427,456.173" style="stroke:#181818;stroke-width:1.0;"/></g><!--reverse link Shape to Square--><g id="link_Shape_Square"><path codeLine="142" d="M429,474.173 C429,509.488 429,529.622 429,564.464 " fill="none" id="Shape-backto-Square" style="stroke:#181818;stroke-width:1.0;"/><polygon fill="none" points="429,456.173,423,474.173,435,474.173,429,456.173" style="stroke:#181818;stroke-width:1.0;"/></g><!--reverse link Shape to Triangle--><g id="link_Shape_Triangle"><path codeLine="145" d="M571.0248,463.8707 C592.6388,484.7007 602.428,494.134 624.981,515.869 " fill="none" id="Shape-backto-Triangle" style="stroke:#181818;stroke-width:1.0;"/><polygon fill="none" points="558.064,451.38,566.8613,468.191,575.1884,459.5504,558.064,451.38" style="stroke:#181818;stroke-width:1.0;"/></g><!--reverse link Triangle to EquilateralTriangle--><g id="link_Triangle_EquilateralTriangle"><path codeLine="148" d="M694.6034,872.8286 C678.3824,901.0846 670.814,914.266 655.47,940.992 " fill="none" id="Triangle-backto-EquilateralTriangle" style="stroke:#181818;stroke-width:1.0;"/><polygon fill="none" points="703.565,857.218,689.3999,869.8414,699.8069,875.8158,703.565,857.218" style="stroke:#181818;stroke-width:1.0;"/></g><!--reverse link Triangle to RightTriangle--><g id="link_Triangle_RightTriangle"><path codeLine="151" d="M907.3969,872.8284 C918.8409,892.7624 921.476,897.353 932.702,916.907 " fill="none" id="Triangle-backto-RightTriangle" style="stroke:#181818;stroke-width:1.0;"/><polygon fill="none" points="898.435,857.218,902.1934,875.8157,912.6003,869.8411,898.435,857.218" style="stroke:#181818;stroke-width:1.0;"/></g><!--reverse link ShapeFactory::ShapePair to Shape--><g id="link_ShapeFactory::ShapePair_Shape"><path codeLine="159" d="M429,148.22 C429,166.48 429,175.08 429,195.78 " fill="none" id="ShapeFactory::ShapePair-backto-Shape" style="stroke:#181818;stroke-width:1.0;"/><polygon fill="none" points="429,136.22,425,142.22,429,148.22,433,142.22,429,136.22" style="stroke:#181818;stroke-width:1.0;"/></g><!--SRC=[lLPRJzim57ucly9I9M0RXKdRKxMNK8geLWq4XJr6Jc8r5eaTR6TJnzXldozfR3TEgP2sD_ixz- -S78S_Ob931YkGbP3pM0Y6qqQWUKR97Vw5mCUem3a2gAh56bIeIX7ZKHHfRJ35B2iHU8uEFfZZyJjxp6cJIY5p8EcKYzRg472MATaVnpGhAP4dC05t1QpH- -XWd32OuuPBo3YKMf0Xg9Kw9CUmGW8n7wqHmm7OEFImyJCNKE3i1TpCmSIasPSju_jjeOpCwnAkZxd89nFAXKojEWIq4Lpv_q5nRYDsZ3WI17DZYpUsc5ZJbuxgsLE3IoXhWUMIOKXMBUy1N3CPmjluN3PqICLK5v3OTWr5xFSkqAW2uLKXV4pbCz2Ds-lhPV8fkPW_99_VIFrkWjle6sO2nD-gX3tAFKINxYEjinHoTD9c2qpTVLrJaeTPflk1zk9O1HxWCwDLBR_kgtLD1I8DtvdiQtqhh9TmjEjli-GgNbpsEgSpTAVHjcElfhRPX3tiyKd1L4fW9ipICrpgrkgJPjgSj1kfYyaA4BbYT5kiqlF6aMIstnb7sc-I8molgL57u_VvnV8gMSJdiyM6IKn4N-CXNjpFV8r49IsTEdN8s0hKiNnu7-f7sjQbHOTmw7SAstkvQSekfGrbQzq7Ex3IJA21PdXaRomm_qheJnBKJYajNLtIgFVCw2kv9itER_Ae90bNCUG3f6FTGCnS5wKipGaOfarL6YXrObtQwLCtEu7wjbtAILisq9dPcUnCauhcg7Jf2Gs2czLJ8qVK9A6F9WDpx9QZXSoCcOlTLuvfw25Nt-dkPtpWmUuz4FzfzNjRtzl3sxjUrvR0ReEQUxfrppnJms5_wx-oy4TjB7TLjE7wKFPclkC-TDw7fl-gBV70SZTv3CkcGPcUz2WwEm9pKiYQ1IIP_0z3yZS6oouKkERWw2oAJirByENtU0nEpMzfj8MQ6Tz6DprJU3SrHXJuNGfeUKzzbssyMZ6qqaa6iXrQ9LJdgQxApLy0]--></g></svg>