<?xml version="1.0" encoding="UTF-8" standalone="no"?><svg xmlns="http://www.w3.org/2000/svg" xmlns:xlink="http://www.w3.org/1999/xlink" contentScriptType="application/ecmascript" contentStyleType="text/css" height="696px" preserveAspectRatio="none" style="width:1630px;height:696px;" version="1.1" viewBox="0 0 1630 696" width="1630px" zoomAndPan="magnify"><defs><filter height="300%" id="f188somszr889g" width="300%" x="-1" y="-1"><feGaussianBlur result="blurOut" stdDeviation="2.0"/><feColorMatrix in="blurOut" result="blurOut2" type="matrix" values="0 0 0 0 0 0 0 0 0 0 0 0 0 0 0 0 0 0 .4 0"/><feOffset dx="4.0" dy="4.0" in="blurOut2" result="blurOut3"/><feBlend in="SourceGraphic" in2="blurOut3" mode="normal"/></filter></defs><g><!--cluster Data Structure--><polygon fill="#FFFFFF" filter="url(#f188somszr889g)" points="99.5062,160,220.5062,160,227.5062,182.2969,868.506,182.2969,868.506,530,99.5062,530,99.5062,160" style="stroke: #000000; stroke-width: 1.5;"/><line style="stroke: #000000; stroke-width: 1.5;" x1="99.5062" x2="227.5062" y1="182.2969" y2="182.2969"/><text fill="#000000" font-family="sans-serif" font-size="14" font-weight="bold" lengthAdjust="spacingAndGlyphs" textLength="115" x="103.5062" y="174.9951">Data Structure</text><!--cluster The Actual Problem--><polygon fill="#FFFFFF" filter="url(#f188somszr889g)" points="892.506,24,1052.506,24,1059.506,46.2969,1555.51,46.2969,1555.51,508,892.506,508,892.506,24" style="stroke: #000000; stroke-width: 1.5;"/><line style="stroke: #000000; stroke-width: 1.5;" x1="892.506" x2="1059.506" y1="46.2969" y2="46.2969"/><text fill="#000000" font-family="sans-serif" font-size="14" font-weight="bold" lengthAdjust="spacingAndGlyphs" textLength="154" x="896.506" y="38.9951">The Actual Problem</text><!--cluster std--><polygon fill="#FFFFFF" filter="url(#f188somszr889g)" points="187.506,580,218.506,580,225.506,602.2969,549.506,602.2969,549.506,684,187.506,684,187.506,580" style="stroke: #000000; stroke-width: 1.5;"/><line style="stroke: #000000; stroke-width: 1.5;" x1="187.506" x2="225.506" y1="602.2969" y2="602.2969"/><text fill="#000000" font-family="sans-serif" font-size="14" font-weight="bold" lengthAdjust="spacingAndGlyphs" textLength="25" x="191.506" y="594.9951">std</text><!--class Node--><rect fill="#FEFECE" filter="url(#f188somszr889g)" height="71.5469" id="Node" style="stroke: #A80036; stroke-width: 1.5;" width="100" x="543.506" y="387"/><ellipse cx="558.506" cy="405.9688" fill="#00AAFF" rx="11" ry="11" style="stroke: #A80036; stroke-width: 1.0;"/><path d="M559.3498,412.7188 L556.8966,412.7188 L556.8966,402.4688 L553.756,402.4688 L553.756,400.3281 L562.4904,400.3281 L562.4904,402.4688 L559.3498,402.4688 L559.3498,412.7188 Z "/><text fill="#000000" font-family="sans-serif" font-size="12" font-style="italic" lengthAdjust="spacingAndGlyphs" textLength="72" x="570.506" y="403.1387">«Template»</text><text fill="#000000" font-family="sans-serif" font-size="12" lengthAdjust="spacingAndGlyphs" textLength="33" x="590.006" y="417.1074">Node</text><line style="stroke: #A80036; stroke-width: 1.5;" x1="544.506" x2="642.506" y1="424.9375" y2="424.9375"/><text fill="#000000" font-family="sans-serif" font-size="11" lengthAdjust="spacingAndGlyphs" textLength="49" x="549.506" y="439.1479">+data: T</text><text fill="#000000" font-family="sans-serif" font-size="11" lengthAdjust="spacingAndGlyphs" textLength="76" x="549.506" y="451.9526">+next: Node*</text><!--class LinkedList--><rect fill="#FEFECE" filter="url(#f188somszr889g)" height="181.9844" id="LinkedList" style="stroke: #A80036; stroke-width: 1.5;" width="173" x="679.256" y="332"/><ellipse cx="727.506" cy="350.9688" fill="#00AAFF" rx="11" ry="11" style="stroke: #A80036; stroke-width: 1.0;"/><path d="M728.3498,357.7188 L725.8966,357.7188 L725.8966,347.4688 L722.756,347.4688 L722.756,345.3281 L731.4904,345.3281 L731.4904,347.4688 L728.3498,347.4688 L728.3498,357.7188 Z "/><text fill="#000000" font-family="sans-serif" font-size="12" font-style="italic" lengthAdjust="spacingAndGlyphs" textLength="72" x="746.006" y="348.1387">«Template»</text><text fill="#000000" font-family="sans-serif" font-size="12" lengthAdjust="spacingAndGlyphs" textLength="61" x="751.506" y="362.1074">LinkedList</text><line style="stroke: #A80036; stroke-width: 1.5;" x1="680.256" x2="851.256" y1="369.9375" y2="369.9375"/><text fill="#000000" font-family="sans-serif" font-size="11" lengthAdjust="spacingAndGlyphs" textLength="75" x="685.256" y="384.1479">-head: Node*</text><text fill="#000000" font-family="sans-serif" font-size="11" lengthAdjust="spacingAndGlyphs" textLength="64" x="685.256" y="396.9526">-tail: Node*</text><text fill="#000000" font-family="sans-serif" font-size="11" lengthAdjust="spacingAndGlyphs" textLength="90" x="685.256" y="409.7573">-currentSize: int</text><line style="stroke: #A80036; stroke-width: 1.5;" x1="680.256" x2="851.256" y1="416.3516" y2="416.3516"/><text fill="#000000" font-family="sans-serif" font-size="11" lengthAdjust="spacingAndGlyphs" textLength="161" x="685.256" y="430.562">+push_back(date: T) -&gt; void</text><text fill="#000000" font-family="sans-serif" font-size="11" lengthAdjust="spacingAndGlyphs" textLength="74" x="685.256" y="443.3667">+size() -&gt; int</text><text fill="#000000" font-family="sans-serif" font-size="11" lengthAdjust="spacingAndGlyphs" textLength="0" x="689.256" y="456.1714"/><text fill="#000000" font-family="sans-serif" font-size="11" lengthAdjust="spacingAndGlyphs" textLength="111" x="685.256" y="468.9761">+begin() -&gt; iterator</text><text fill="#000000" font-family="sans-serif" font-size="11" lengthAdjust="spacingAndGlyphs" textLength="101" x="685.256" y="481.7808">+end() -&gt; iterator</text><text fill="#000000" font-family="sans-serif" font-size="11" lengthAdjust="spacingAndGlyphs" textLength="148" x="685.256" y="494.5854">+begin() -&gt; const_iterator</text><text fill="#000000" font-family="sans-serif" font-size="11" lengthAdjust="spacingAndGlyphs" textLength="138" x="685.256" y="507.3901">+end() -&gt; const_iterator</text><!--class NaivePool--><rect fill="#FEFECE" filter="url(#f188somszr889g)" height="156.375" id="NaivePool" style="stroke: #A80036; stroke-width: 1.5;" width="259" x="116.256" y="345"/><ellipse cx="207.506" cy="363.9688" fill="#00AAFF" rx="11" ry="11" style="stroke: #A80036; stroke-width: 1.0;"/><path d="M208.3498,370.7188 L205.8966,370.7188 L205.8966,360.4688 L202.756,360.4688 L202.756,358.3281 L211.4904,358.3281 L211.4904,360.4688 L208.3498,360.4688 L208.3498,370.7188 Z "/><text fill="#000000" font-family="sans-serif" font-size="12" font-style="italic" lengthAdjust="spacingAndGlyphs" textLength="72" x="226.006" y="361.1387">«Template»</text><text fill="#000000" font-family="sans-serif" font-size="12" lengthAdjust="spacingAndGlyphs" textLength="61" x="231.506" y="375.1074">NaivePool</text><line style="stroke: #A80036; stroke-width: 1.5;" x1="117.256" x2="374.256" y1="382.9375" y2="382.9375"/><text fill="#000000" font-family="sans-serif" font-size="11" lengthAdjust="spacingAndGlyphs" textLength="84" x="122.256" y="397.1479">-thePools: T[][]</text><text fill="#000000" font-family="sans-serif" font-size="11" lengthAdjust="spacingAndGlyphs" textLength="82" x="122.256" y="409.9526">-numPools: int</text><text fill="#000000" font-family="sans-serif" font-size="11" lengthAdjust="spacingAndGlyphs" textLength="105" x="122.256" y="422.7573">-blocksPerPool: int</text><text fill="#000000" font-family="sans-serif" font-size="11" lengthAdjust="spacingAndGlyphs" textLength="168" x="122.256" y="435.562">-nextAvailBlock: pair&lt;int, int&gt;</text><line style="stroke: #A80036; stroke-width: 1.5;" x1="117.256" x2="374.256" y1="442.1563" y2="442.1563"/><text fill="#000000" font-family="sans-serif" font-size="11" lengthAdjust="spacingAndGlyphs" textLength="247" x="122.256" y="456.3667">+NaivePool(bSize: int = 8, preAlloc: int = 1)</text><text fill="#000000" font-family="sans-serif" font-size="11" lengthAdjust="spacingAndGlyphs" textLength="81" x="122.256" y="469.1714">+~NaivePool()</text><text fill="#000000" font-family="sans-serif" font-size="11" lengthAdjust="spacingAndGlyphs" textLength="94" x="122.256" y="481.9761">+getNext() -&gt; T*</text><text fill="#000000" font-family="sans-serif" font-size="11" lengthAdjust="spacingAndGlyphs" textLength="81" x="122.256" y="494.7808">-reserveNext()</text><!--class LinkedList::Iterator--><rect fill="#FEFECE" filter="url(#f188somszr889g)" height="37.9375" id="LinkedList::Iterator" style="stroke: #A80036; stroke-width: 1.5;" width="148" x="473.506" y="216"/><ellipse cx="488.506" cy="234.9688" fill="#00AAFF" rx="11" ry="11" style="stroke: #A80036; stroke-width: 1.0;"/><path d="M489.3498,241.7188 L486.8966,241.7188 L486.8966,231.4688 L483.756,231.4688 L483.756,229.3281 L492.4904,229.3281 L492.4904,231.4688 L489.3498,231.4688 L489.3498,241.7188 Z "/><text fill="#000000" font-family="sans-serif" font-size="12" font-style="italic" lengthAdjust="spacingAndGlyphs" textLength="72" x="524.506" y="232.1387">«Template»</text><text fill="#000000" font-family="sans-serif" font-size="12" lengthAdjust="spacingAndGlyphs" textLength="116" x="502.506" y="246.1074">LinkedList::Iterator</text><!--class Room::Flooring--><rect fill="#FEFECE" filter="url(#f188somszr889g)" height="86.4141" id="Room::Flooring" style="stroke: #A80036; stroke-width: 1.5;" width="284" x="1255.51" y="380"/><ellipse cx="1346.76" cy="396" fill="#ADD1B2" rx="11" ry="11" style="stroke: #A80036; stroke-width: 1.0;"/><path d="M1349.7288,401.6406 Q1349.1506,401.9375 1348.51,402.0859 Q1347.8694,402.2344 1347.1663,402.2344 Q1344.6663,402.2344 1343.3459,400.5859 Q1342.0256,398.9375 1342.0256,395.8125 Q1342.0256,392.6875 1343.3459,391.0313 Q1344.6663,389.375 1347.1663,389.375 Q1347.8694,389.375 1348.5178,389.5313 Q1349.1663,389.6875 1349.7288,389.9844 L1349.7288,392.7031 Q1349.1038,392.125 1348.51,391.8516 Q1347.9163,391.5781 1347.2913,391.5781 Q1345.9475,391.5781 1345.26,392.6484 Q1344.5725,393.7188 1344.5725,395.8125 Q1344.5725,397.9063 1345.26,398.9766 Q1345.9475,400.0469 1347.2913,400.0469 Q1347.9163,400.0469 1348.51,399.7734 Q1349.1038,399.5 1349.7288,398.9219 L1349.7288,401.6406 Z "/><text fill="#000000" font-family="sans-serif" font-size="12" lengthAdjust="spacingAndGlyphs" textLength="93" x="1367.26" y="400.1543">Room::Flooring</text><line style="stroke: #A80036; stroke-width: 1.5;" x1="1256.51" x2="1538.51" y1="412" y2="412"/><text fill="#000000" font-family="sans-serif" font-size="11" lengthAdjust="spacingAndGlyphs" textLength="75" x="1261.51" y="426.2104">+type: String</text><text fill="#000000" font-family="sans-serif" font-size="11" lengthAdjust="spacingAndGlyphs" textLength="90" x="1261.51" y="439.0151">+unitCost: Cost</text><line style="stroke: #A80036; stroke-width: 1.5;" x1="1256.51" x2="1538.51" y1="445.6094" y2="445.6094"/><text fill="#000000" font-family="sans-serif" font-size="11" lengthAdjust="spacingAndGlyphs" textLength="272" x="1261.51" y="459.8198">+Flooring(n: String = "Generic", c: Cost = 1.00)</text><!--class Room::DimensionSet--><rect fill="#FEFECE" filter="url(#f188somszr889g)" height="137.6328" id="Room::DimensionSet" style="stroke: #A80036; stroke-width: 1.5;" width="312" x="908.506" y="354"/><ellipse cx="995.756" cy="370" fill="#ADD1B2" rx="11" ry="11" style="stroke: #A80036; stroke-width: 1.0;"/><path d="M998.7248,375.6406 Q998.1466,375.9375 997.506,376.0859 Q996.8654,376.2344 996.1623,376.2344 Q993.6623,376.2344 992.3419,374.5859 Q991.0216,372.9375 991.0216,369.8125 Q991.0216,366.6875 992.3419,365.0313 Q993.6623,363.375 996.1623,363.375 Q996.8654,363.375 997.5138,363.5313 Q998.1623,363.6875 998.7248,363.9844 L998.7248,366.7031 Q998.0998,366.125 997.506,365.8516 Q996.9123,365.5781 996.2873,365.5781 Q994.9435,365.5781 994.256,366.6484 Q993.5685,367.7188 993.5685,369.8125 Q993.5685,371.9063 994.256,372.9766 Q994.9435,374.0469 996.2873,374.0469 Q996.9123,374.0469 997.506,373.7734 Q998.0998,373.5 998.7248,372.9219 L998.7248,375.6406 Z "/><text fill="#000000" font-family="sans-serif" font-size="12" lengthAdjust="spacingAndGlyphs" textLength="129" x="1016.256" y="374.1543">Room::DimensionSet</text><line style="stroke: #A80036; stroke-width: 1.5;" x1="909.506" x2="1219.506" y1="386" y2="386"/><text fill="#000000" font-family="sans-serif" font-size="11" lengthAdjust="spacingAndGlyphs" textLength="107" x="914.506" y="400.2104">-length: Dimension</text><text fill="#000000" font-family="sans-serif" font-size="11" lengthAdjust="spacingAndGlyphs" textLength="102" x="914.506" y="413.0151">-width: Dimension</text><line style="stroke: #A80036; stroke-width: 1.5;" x1="909.506" x2="1219.506" y1="419.6094" y2="419.6094"/><text fill="#000000" font-family="sans-serif" font-size="11" lengthAdjust="spacingAndGlyphs" textLength="300" x="914.506" y="433.8198">+DimensionSet(l: Dimension = 1, w: Dimension = 1)</text><text fill="#000000" font-family="sans-serif" font-size="11" lengthAdjust="spacingAndGlyphs" textLength="147" x="914.506" y="446.6245">+setLength(v: Dimension)</text><text fill="#000000" font-family="sans-serif" font-size="11" lengthAdjust="spacingAndGlyphs" textLength="154" x="914.506" y="459.4292">+getLength() -&gt; Dimension</text><text fill="#000000" font-family="sans-serif" font-size="11" lengthAdjust="spacingAndGlyphs" textLength="139" x="914.506" y="472.2339">+setWidth(v: Dimension)</text><text fill="#000000" font-family="sans-serif" font-size="11" lengthAdjust="spacingAndGlyphs" textLength="146" x="914.506" y="485.0386">+getWidth() -&gt; Dimension</text><!--class Room--><rect fill="#FEFECE" filter="url(#f188somszr889g)" height="32" id="Room" style="stroke: #A80036; stroke-width: 1.5;" width="67" x="1158.26" y="219"/><ellipse cx="1173.26" cy="235" fill="#ADD1B2" rx="11" ry="11" style="stroke: #A80036; stroke-width: 1.0;"/><path d="M1176.2288,240.6406 Q1175.6506,240.9375 1175.01,241.0859 Q1174.3694,241.2344 1173.6663,241.2344 Q1171.1663,241.2344 1169.8459,239.5859 Q1168.5256,237.9375 1168.5256,234.8125 Q1168.5256,231.6875 1169.8459,230.0313 Q1171.1663,228.375 1173.6663,228.375 Q1174.3694,228.375 1175.0178,228.5313 Q1175.6663,228.6875 1176.2288,228.9844 L1176.2288,231.7031 Q1175.6038,231.125 1175.01,230.8516 Q1174.4163,230.5781 1173.7913,230.5781 Q1172.4475,230.5781 1171.76,231.6484 Q1171.0725,232.7188 1171.0725,234.8125 Q1171.0725,236.9063 1171.76,237.9766 Q1172.4475,239.0469 1173.7913,239.0469 Q1174.4163,239.0469 1175.01,238.7734 Q1175.6038,238.5 1176.2288,237.9219 L1176.2288,240.6406 Z "/><text fill="#000000" font-family="sans-serif" font-size="12" lengthAdjust="spacingAndGlyphs" textLength="35" x="1187.26" y="239.1543">Room</text><!--class House--><rect fill="#FEFECE" filter="url(#f188somszr889g)" height="32" id="House" style="stroke: #A80036; stroke-width: 1.5;" width="72" x="1155.51" y="80"/><ellipse cx="1170.51" cy="96" fill="#ADD1B2" rx="11" ry="11" style="stroke: #A80036; stroke-width: 1.0;"/><path d="M1173.4788,101.6406 Q1172.9006,101.9375 1172.26,102.0859 Q1171.6194,102.2344 1170.9163,102.2344 Q1168.4163,102.2344 1167.0959,100.5859 Q1165.7756,98.9375 1165.7756,95.8125 Q1165.7756,92.6875 1167.0959,91.0313 Q1168.4163,89.375 1170.9163,89.375 Q1171.6194,89.375 1172.2678,89.5313 Q1172.9163,89.6875 1173.4788,89.9844 L1173.4788,92.7031 Q1172.8538,92.125 1172.26,91.8516 Q1171.6663,91.5781 1171.0413,91.5781 Q1169.6975,91.5781 1169.01,92.6484 Q1168.3225,93.7188 1168.3225,95.8125 Q1168.3225,97.9063 1169.01,98.9766 Q1169.6975,100.0469 1171.0413,100.0469 Q1171.6663,100.0469 1172.26,99.7734 Q1172.8538,99.5 1173.4788,98.9219 L1173.4788,101.6406 Z "/><text fill="#000000" font-family="sans-serif" font-size="12" lengthAdjust="spacingAndGlyphs" textLength="40" x="1184.51" y="100.1543">House</text><!--class Iterator--><rect fill="#FEFECE" filter="url(#f188somszr889g)" height="32" id="Iterator" style="stroke: #A80036; stroke-width: 1.5;" width="80" x="203.506" y="636"/><ellipse cx="218.506" cy="652" fill="#B4A7E5" rx="11" ry="11" style="stroke: #A80036; stroke-width: 1.0;"/><path d="M214.4279,647.7656 L214.4279,645.6094 L221.8185,645.6094 L221.8185,647.7656 L219.3498,647.7656 L219.3498,655.8438 L221.8185,655.8438 L221.8185,658 L214.4279,658 L214.4279,655.8438 L216.8966,655.8438 L216.8966,647.7656 L214.4279,647.7656 Z "/><text fill="#000000" font-family="sans-serif" font-size="12" font-style="italic" lengthAdjust="spacingAndGlyphs" textLength="48" x="232.506" y="656.1543">Iterator</text><!--class Container--><rect fill="#FEFECE" filter="url(#f188somszr889g)" height="32" id="Container" style="stroke: #A80036; stroke-width: 1.5;" width="93" x="441.256" y="636"/><ellipse cx="456.256" cy="652" fill="#B4A7E5" rx="11" ry="11" style="stroke: #A80036; stroke-width: 1.0;"/><path d="M452.1779,647.7656 L452.1779,645.6094 L459.5685,645.6094 L459.5685,647.7656 L457.0998,647.7656 L457.0998,655.8438 L459.5685,655.8438 L459.5685,658 L452.1779,658 L452.1779,655.8438 L454.6466,655.8438 L454.6466,647.7656 L452.1779,647.7656 Z "/><text fill="#000000" font-family="sans-serif" font-size="12" font-style="italic" lengthAdjust="spacingAndGlyphs" textLength="61" x="470.256" y="656.1543">Container</text><!--class Allocator--><rect fill="#FEFECE" filter="url(#f188somszr889g)" height="32" id="Allocator" style="stroke: #A80036; stroke-width: 1.5;" width="87" x="319.256" y="636"/><ellipse cx="334.256" cy="652" fill="#B4A7E5" rx="11" ry="11" style="stroke: #A80036; stroke-width: 1.0;"/><path d="M330.1779,647.7656 L330.1779,645.6094 L337.5685,645.6094 L337.5685,647.7656 L335.0998,647.7656 L335.0998,655.8438 L337.5685,655.8438 L337.5685,658 L330.1779,658 L330.1779,655.8438 L332.6466,655.8438 L332.6466,647.7656 L330.1779,647.7656 Z "/><text fill="#000000" font-family="sans-serif" font-size="12" font-style="italic" lengthAdjust="spacingAndGlyphs" textLength="55" x="348.256" y="656.1543">Allocator</text><!--link NaivePool to Node--><path d="M375.089,423 C431.355,423 494.261,423 538.06,423 " fill="none" id="NaivePool-&gt;Node" style="stroke: #0000FF; stroke-width: 1.0;"/><polygon fill="#0000FF" points="543.305,423,534.305,419,538.305,423,534.305,427,543.305,423" style="stroke: #0000FF; stroke-width: 1.0;"/><text fill="#000000" font-family="sans-serif" font-size="13" lengthAdjust="spacingAndGlyphs" textLength="131" x="393.006" y="415.0669">handles allocation of</text><!--link NaivePool to LinkedList--><path d="M374.879,359.171 C428.737,335.959 492.774,312.59 553.506,301 C608.514,290.502 629.793,275.22 679.506,301 C692.209,307.587 703.433,317.009 713.226,327.736 " fill="none" id="NaivePool-&gt;LinkedList" style="stroke: #0000FF; stroke-width: 1.0;"/><polygon fill="#0000FF" points="716.769,331.744,713.8048,322.3518,713.4573,327.998,707.8111,327.6505,716.769,331.744" style="stroke: #0000FF; stroke-width: 1.0;"/><text fill="#000000" font-family="sans-serif" font-size="13" lengthAdjust="spacingAndGlyphs" textLength="123" x="554.506" y="297.0669">allocates Nodes for</text><!--reverse link LinkedList to Node--><path d="M665.592,423 C658.248,423 650.905,423 643.561,423 " fill="none" id="LinkedList&lt;-Node" style="stroke: #A80036; stroke-width: 1.0;"/><polygon fill="#FFFFFF" points="678.811,423,672.811,419,666.811,423,672.811,427,678.811,423" style="stroke: #A80036; stroke-width: 1.0;"/><!--link LinkedList::Iterator to Node--><path d="M547.646,254.098 C548.046,267.457 549.226,286.016 552.506,302 C558.126,329.382 568.257,359.122 577.042,382.144 " fill="none" id="LinkedList::Iterator-&gt;Node" style="stroke: #A80036; stroke-width: 1.0;"/><polygon fill="#A80036" points="578.894,386.951,579.3917,377.1147,577.0968,382.2852,571.9264,379.9902,578.894,386.951" style="stroke: #A80036; stroke-width: 1.0;"/><!--reverse link LinkedList::Iterator to LinkedList--><path d="M626.549,252.136 C647.978,259.288 670.052,269.497 687.506,284 C703.17,297.015 716.295,314.037 727.041,331.661 " fill="none" id="LinkedList::Iterator&lt;-LinkedList" style="stroke: #A80036; stroke-width: 1.0;"/><polygon fill="#A80036" points="621.7,250.565,629.0288,257.1444,626.4565,252.1062,631.4947,249.534,621.7,250.565" style="stroke: #A80036; stroke-width: 1.0;"/><text fill="#000000" font-family="sans-serif" font-size="13" lengthAdjust="spacingAndGlyphs" textLength="54" x="704.506" y="297.0669">provides</text><!--link LinkedList::Iterator to Iterator--><path d="M473.329,239.006 C347.095,245.849 98.9406,267.379 45.5062,332 C-12.8373,402.558 -0.4695,458.825 45.5062,538 C75.0913,588.948 137.215,618.8528 184.034,634.9602 " fill="none" id="LinkedList::Iterator-&gt;Iterator" style="stroke: #008000; stroke-width: 1.0; stroke-dasharray: 7.0,7.0;"/><polygon fill="none" points="186.423,628.3749,203.341,641.134,182.159,641.7097,186.423,628.3749" style="stroke: #008000; stroke-width: 1.0;"/><text fill="#000000" font-family="sans-serif" font-size="13" lengthAdjust="spacingAndGlyphs" textLength="50" x="46.5062" y="427.0669">partially</text><!--link LinkedList to Container--><path d="M686.438,514.199 C677.958,522.533 669.234,530.611 660.506,538 C620.054,572.248 568.671,604.6031 532.449,625.8427 " fill="none" id="LinkedList-&gt;Container" style="stroke: #008000; stroke-width: 1.0; stroke-dasharray: 7.0,7.0;"/><polygon fill="none" points="535.849,631.9621,515.026,635.8876,528.857,619.8336,535.849,631.9621" style="stroke: #008000; stroke-width: 1.0;"/><text fill="#000000" font-family="sans-serif" font-size="13" lengthAdjust="spacingAndGlyphs" textLength="50" x="649.506" y="559.0669">partially</text><!--link NaivePool to Allocator--><path d="M285.28,501.169 C305.832,541.043 329.832,587.606 345.555,618.1117 " fill="none" id="NaivePool-&gt;Allocator" style="stroke: #008000; stroke-width: 1.0; stroke-dasharray: 7.0,7.0;"/><polygon fill="none" points="351.833,615.0129,354.774,635.9975,339.389,621.427,351.833,615.0129" style="stroke: #008000; stroke-width: 1.0;"/><text fill="#000000" font-family="sans-serif" font-size="13" lengthAdjust="spacingAndGlyphs" textLength="34" x="315.506" y="559.0669">fakes</text><!--link House to LinkedList--><path d="M1171.81,112.024 C1116.7,154.073 958.251,274.953 856.285,352.744 " fill="none" id="House-&gt;LinkedList" style="stroke: #2F4F4F; stroke-width: 1.0;"/><polygon fill="#2F4F4F" points="852.078,355.953,861.6597,353.6746,856.0534,352.9204,856.8076,347.3141,852.078,355.953" style="stroke: #2F4F4F; stroke-width: 1.0;"/><text fill="#000000" font-family="sans-serif" font-size="13" lengthAdjust="spacingAndGlyphs" textLength="60" x="851.8167" y="342.809">container</text><!--reverse link House to Room--><path d="M1191.51,125.551 C1191.51,153.9 1191.51,196.282 1191.51,218.747 " fill="none" id="House&lt;-Room" style="stroke: #A80036; stroke-width: 1.0;"/><polygon fill="#FFFFFF" points="1191.51,112.185,1187.51,118.185,1191.51,124.185,1195.51,118.185,1191.51,112.185" style="stroke: #A80036; stroke-width: 1.0;"/><!--link House to Container--><path d="M1227.73,107.332 C1305.17,131.62 1485.64,200.458 1557.51,332 C1601.4,412.347 1618.75,469.946 1557.51,538 C1490.13,612.8628 776.869,641.788 553.797,649.044 " fill="none" id="House-&gt;Container" style="stroke: #008000; stroke-width: 1.0; stroke-dasharray: 7.0,7.0;"/><polygon fill="none" points="553.989,656.0413,533.777,649.6793,553.545,642.0483,553.989,656.0413" style="stroke: #008000; stroke-width: 1.0;"/><text fill="#000000" font-family="sans-serif" font-size="13" lengthAdjust="spacingAndGlyphs" textLength="50" x="1538.51" y="297.0669">partially</text><!--reverse link Room to Room::Flooring--><path d="M1218.33,260.223 C1251.84,290.479 1309.74,342.751 1350.63,379.677 " fill="none" id="Room&lt;-Room::Flooring" style="stroke: #A80036; stroke-width: 1.0;"/><polygon fill="#FFFFFF" points="1208.36,251.221,1210.1317,258.2111,1217.2655,259.2642,1215.4938,252.2741,1208.36,251.221" style="stroke: #A80036; stroke-width: 1.0;"/><text fill="#000000" font-family="sans-serif" font-size="13" lengthAdjust="spacingAndGlyphs" textLength="47" x="1293.4844" y="369.0861">flooring</text><!--reverse link Room to Room::DimensionSet--><path d="M1173.68,262.104 C1157.49,285.813 1132.89,321.844 1111.14,353.704 " fill="none" id="Room&lt;-Room::DimensionSet" style="stroke: #A80036; stroke-width: 1.0;"/><polygon fill="#FFFFFF" points="1181.11,251.221,1174.4225,253.9186,1174.3405,261.1292,1181.028,258.4316,1181.11,251.221" style="stroke: #A80036; stroke-width: 1.0;"/><text fill="#000000" font-family="sans-serif" font-size="13" lengthAdjust="spacingAndGlyphs" textLength="73" x="1037.9535" y="342.8645">dimensions</text><!--
@startuml
skinparam classAttributeIconSize 0
hide empty members


package "Data Structure" {
    class Node << (T, #00AAFF) Template >> {
        + data: T
        + next: Node*
    }

    class LinkedList << (T, #00AAFF) Template >> {
        - head: Node*
        - tail: Node*
        - currentSize: int

        + push_back(date: T) -> void
        + size() -> int

        + begin() -> iterator
        + end() -> iterator
        + begin() -> const_iterator
        + end() -> const_iterator
    }

    class NaivePool << (T, #00AAFF) Template >>  {
        - thePools: T[][]
        - numPools: int
        - blocksPerPool: int
        - nextAvailBlock: pair<int, int>

        + NaivePool(bSize: int = 8, preAlloc: int = 1)
        + ~NaivePool()
        + getNext() -> T*
        - reserveNext()
    }

    class LinkedList::Iterator << (T, #00AAFF) Template >>  {

    }
}

package "The Actual Problem" {
    class Room::Flooring {
        + type: String
        + unitCost: Cost

        + Flooring(n: String = "Generic", c: Cost = 1.00)
    }

    class Room::DimensionSet {
        - length: Dimension
        - width: Dimension

        + DimensionSet(l: Dimension = 1, w: Dimension = 1)
        + setLength(v: Dimension)
        + getLength() -> Dimension
        + setWidth(v: Dimension)
        + getWidth() -> Dimension
    }

    class Room {

    }

    class House {

    }
}

package std {
    Interface Iterator {

    }

    Interface Container {

    }

    Interface Allocator {

    }
}

NaivePool -[#blue]> Node: "handles allocation of"
NaivePool -[#blue]> LinkedList: "allocates Nodes for"
LinkedList o-Node

LinkedList::Iterator - -> Node
LinkedList::Iterator <- - LinkedList: "provides"

LinkedList::Iterator .[#green].|> Iterator: "partially"
LinkedList .[#green].|> Container: "partially"

NaivePool .[#green].|> Allocator: "fakes"

House -[#DarkSlateGrey]- -> "container" LinkedList
House o- - Room

House .[#green].|> Container: "partially"

Room o- - "flooring" Room::Flooring
Room o- - "dimensions" Room::DimensionSet 

@enduml

PlantUML version 1.2019.09(Mon Aug 26 12:19:51 EDT 2019)
(GPL source distribution)
Java Runtime: Java(TM) SE Runtime Environment
JVM: Java HotSpot(TM) 64-Bit Server VM
Java Version: 1.8.0_191-b12
Operating System: Linux
OS Version: 4.2.0-35-generic
Default Encoding: UTF-8
Language: en
Country: US
--></g></svg>