<svg xmlns="http://www.w3.org/2000/svg" xmlns:xlink="http://www.w3.org/1999/xlink" contentStyleType="text/css" height="91px" preserveAspectRatio="none" style="width:267px;height:91px;background:#FFFFFF;" version="1.1" viewBox="0 0 267 91" width="267px" zoomAndPan="magnify"><defs/><g><g id="elem_ll"><rect fill="#F1F1F1" height="77.1875" style="stroke:#181818;stroke-width:0.5;" width="121.334" x="7" y="7"/><text fill="#000000" font-family="sans-serif" font-size="14" lengthAdjust="spacing" textLength="7.7793" x="63.7773" y="21.9951">ll</text><line style="stroke:#181818;stroke-width:0.5;" x1="8" x2="127.334" y1="27.2969" y2="27.2969"/><text fill="#000000" font-family="sans-serif" font-size="14" lengthAdjust="spacing" textLength="34.9521" x="13" y="44.292">head</text><text fill="#000000" font-family="sans-serif" font-size="14" lengthAdjust="spacing" textLength="21.8477" x="13" y="60.5889">tail</text><text fill="#000000" font-family="sans-serif" font-size="14" lengthAdjust="spacing" textLength="109.334" x="13" y="76.8857">currentSize = 1</text></g><g id="elem_newNode"><rect fill="#F1F1F1" height="60.8906" style="stroke:#181818;stroke-width:0.5;" width="89.417" x="171" y="15"/><text fill="#000000" font-family="sans-serif" font-size="14" lengthAdjust="spacing" textLength="65.4746" x="182.9712" y="29.9951">newNode</text><line style="stroke:#181818;stroke-width:0.5;" x1="172" x2="259.417" y1="35.2969" y2="35.2969"/><text fill="#000000" font-family="sans-serif" font-size="14" lengthAdjust="spacing" textLength="61.0723" x="177" y="52.292">data = 4</text><text fill="#000000" font-family="sans-serif" font-size="14" lengthAdjust="spacing" textLength="77.417" x="177" y="68.5889">next = null</text></g><!--link ll to newNode--><g id="link_ll_newNode"><path codeLine="93" d="M129.5,39.5 C142.96,45.54 151.7122,48.9952 164.9822,51.7152 " fill="none" id="ll-to-newNode" style="stroke:#181818;stroke-width:1.0;"/><polygon fill="#181818" points="170.86,52.92,162.8465,47.1943,165.9618,51.916,161.2401,55.0313,170.86,52.92" style="stroke:#181818;stroke-width:1.0;"/></g><!--link ll to newNode--><g id="link_ll_newNode"><path codeLine="94" d="M129.5,55.5 C143.02,55.5 151.7148,54.9715 164.9848,53.3415 " fill="none" id="ll-to-newNode-1" style="stroke:#181818;stroke-width:1.0;"/><polygon fill="#181818" points="170.94,52.61,161.5195,49.7371,165.9773,53.2196,162.4948,57.6774,170.94,52.61" style="stroke:#181818;stroke-width:1.0;"/></g><!--SRC=[oq_AIaqkKSZ9KQZcKW22ZDJ4532Z934p1yn8BYqgIiqh2SwiIbMmLJ3agkNYoeTeoaijzyjFIONgJ4aiIGGgC05pyb8hIe2SlDAS7926d1mhAv392hfsC5rWCP0bo680]--></g></svg>