<svg xmlns="http://www.w3.org/2000/svg" xmlns:xlink="http://www.w3.org/1999/xlink" contentStyleType="text/css" height="143px" preserveAspectRatio="none" style="width:402px;height:143px;background:#FFFFFF;" version="1.1" viewBox="0 0 402 143" width="402px" zoomAndPan="magnify"><defs/><g><g id="elem_ll"><rect fill="#F1F1F1" height="77.1875" style="stroke:#181818;stroke-width:0.5;" width="121.334" x="7" y="59.7"/><text fill="#000000" font-family="sans-serif" font-size="14" lengthAdjust="spacing" textLength="7.7793" x="63.7773" y="74.6951">ll</text><line style="stroke:#181818;stroke-width:0.5;" x1="8" x2="127.334" y1="79.9969" y2="79.9969"/><text fill="#000000" font-family="sans-serif" font-size="14" lengthAdjust="spacing" textLength="34.9521" x="13" y="96.992">head</text><text fill="#000000" font-family="sans-serif" font-size="14" lengthAdjust="spacing" textLength="21.8477" x="13" y="113.2889">tail</text><text fill="#000000" font-family="sans-serif" font-size="14" lengthAdjust="spacing" textLength="109.334" x="13" y="129.5857">currentSize = 1</text></g><g id="elem_node_0"><rect fill="#F1F1F1" height="60.8906" style="stroke:#181818;stroke-width:0.5;" width="73.0723" x="179" y="68.2"/><text fill="#000000" font-family="sans-serif" font-size="14" lengthAdjust="spacing" textLength="50.8457" x="190.1133" y="83.1951">node_0</text><line style="stroke:#181818;stroke-width:0.5;" x1="180" x2="251.0723" y1="88.4969" y2="88.4969"/><text fill="#000000" font-family="sans-serif" font-size="14" lengthAdjust="spacing" textLength="61.0723" x="185" y="105.492">data = 4</text><text fill="#000000" font-family="sans-serif" font-size="14" lengthAdjust="spacing" textLength="31.2607" x="185" y="121.7889">next</text></g><g id="elem_newNode"><rect fill="#F1F1F1" height="60.8906" style="stroke:#181818;stroke-width:0.5;" width="99.7939" x="295.5" y="67.7"/><text fill="#000000" font-family="sans-serif" font-size="14" lengthAdjust="spacing" textLength="65.4746" x="312.6597" y="82.6951">newNode</text><line style="stroke:#181818;stroke-width:0.5;" x1="296.5" x2="394.2939" y1="87.9969" y2="87.9969"/><text fill="#000000" font-family="sans-serif" font-size="14" lengthAdjust="spacing" textLength="87.7939" x="301.5" y="104.992">data = 9001</text><text fill="#000000" font-family="sans-serif" font-size="14" lengthAdjust="spacing" textLength="77.417" x="301.5" y="121.2889">next = null</text></g><!--link ll to node_0--><g id="link_ll_node_0"><path codeLine="218" d="M129.5,92.2 C142.96,98.24 151.7122,101.6952 164.9822,104.4152 " fill="none" id="ll-to-node_0" style="stroke:#181818;stroke-width:1.0;"/><polygon fill="#181818" points="170.86,105.62,162.8465,99.8943,165.9618,104.616,161.2401,107.7313,170.86,105.62" style="stroke:#181818;stroke-width:1.0;"/></g><!--link ll to newNode--><g id="link_ll_newNode"><path codeLine="219" d="M129.5,108.2 C155.16,108.2 141.69,78.48 153.5,55.7 C160.61,42 157.61,33.39 171,25.7 C205.3,6 222.87,12.08 260,25.7 C283.02,34.15 299.891,47.5542 315.361,63.3442 " fill="none" id="ll-to-newNode" style="stroke:#181818;stroke-width:1.0;"/><polygon fill="#181818" points="319.56,67.63,316.1187,58.4019,316.0608,64.0585,310.4043,64.0006,319.56,67.63" style="stroke:#181818;stroke-width:1.0;"/></g><!--link node_0 to newNode--><g id="link_node_0_newNode"><path codeLine="221" d="M253.5,116.2 C267.19,121.84 275.8293,123.9643 289.2693,123.2143 " fill="none" id="node_0-to-newNode" style="stroke:#181818;stroke-width:1.0;"/><polygon fill="#181818" points="295.26,122.88,286.0511,119.3877,290.2678,123.1586,286.4968,127.3752,295.26,122.88" style="stroke:#181818;stroke-width:1.0;"/></g><!--SRC=[oq_AIaqkKSZ9KQZcKW22ZDJ4532Z934p1yn8BYqgIiqh2SwiIbMmLJ3agkNYoeTeoijFIOqtW6fCIIn91CgRW3bvgHKbo0fJo_s0Qb5LMXeO6C8L0_bvfJav83qvELPM85SewDf1RG0BWTm35eAOnSK5aREo0cj7aW00]--></g></svg>