<svg xmlns="http://www.w3.org/2000/svg" xmlns:xlink="http://www.w3.org/1999/xlink" contentStyleType="text/css" height="150px" preserveAspectRatio="none" style="width:542px;height:150px;background:#FFFFFF;" version="1.1" viewBox="0 0 542 150" width="542px" zoomAndPan="magnify"><defs/><g><g id="elem_ll"><rect fill="#F1F1F1" height="77.1875" style="stroke:#181818;stroke-width:0.5;" width="121.334" x="7" y="66.45"/><text fill="#000000" font-family="sans-serif" font-size="14" lengthAdjust="spacing" textLength="7.7793" x="63.7773" y="81.4451">ll</text><line style="stroke:#181818;stroke-width:0.5;" x1="8" x2="127.334" y1="86.7469" y2="86.7469"/><text fill="#000000" font-family="sans-serif" font-size="14" lengthAdjust="spacing" textLength="34.9521" x="13" y="103.742">head</text><text fill="#000000" font-family="sans-serif" font-size="14" lengthAdjust="spacing" textLength="21.8477" x="13" y="120.0389">tail</text><text fill="#000000" font-family="sans-serif" font-size="14" lengthAdjust="spacing" textLength="109.334" x="13" y="136.3357">currentSize = 3</text></g><g id="elem_node_0"><rect fill="#F1F1F1" height="60.8906" style="stroke:#181818;stroke-width:0.5;" width="73.0723" x="179" y="74.95"/><text fill="#000000" font-family="sans-serif" font-size="14" lengthAdjust="spacing" textLength="50.8457" x="190.1133" y="89.9451">node_0</text><line style="stroke:#181818;stroke-width:0.5;" x1="180" x2="251.0723" y1="95.2469" y2="95.2469"/><text fill="#000000" font-family="sans-serif" font-size="14" lengthAdjust="spacing" textLength="61.0723" x="185" y="112.242">data = 4</text><text fill="#000000" font-family="sans-serif" font-size="14" lengthAdjust="spacing" textLength="31.2607" x="185" y="128.5389">next</text></g><g id="elem_node_1"><rect fill="#F1F1F1" height="60.8906" style="stroke:#181818;stroke-width:0.5;" width="99.7939" x="303" y="74.95"/><text fill="#000000" font-family="sans-serif" font-size="14" lengthAdjust="spacing" textLength="50.8457" x="327.4741" y="89.9451">node_1</text><line style="stroke:#181818;stroke-width:0.5;" x1="304" x2="401.7939" y1="95.2469" y2="95.2469"/><text fill="#000000" font-family="sans-serif" font-size="14" lengthAdjust="spacing" textLength="87.7939" x="309" y="112.242">data = 9001</text><text fill="#000000" font-family="sans-serif" font-size="14" lengthAdjust="spacing" textLength="31.2607" x="309" y="128.5389">next</text></g><g id="elem_newNode"><rect fill="#F1F1F1" height="60.8906" style="stroke:#181818;stroke-width:0.5;" width="90.8867" x="445" y="74.45"/><text fill="#000000" font-family="sans-serif" font-size="14" lengthAdjust="spacing" textLength="65.4746" x="457.7061" y="89.4451">newNode</text><line style="stroke:#181818;stroke-width:0.5;" x1="446" x2="534.8867" y1="94.7469" y2="94.7469"/><text fill="#000000" font-family="sans-serif" font-size="14" lengthAdjust="spacing" textLength="78.8867" x="451" y="111.742">data = 337</text><text fill="#000000" font-family="sans-serif" font-size="14" lengthAdjust="spacing" textLength="77.417" x="451" y="128.0389">next = null</text></g><!--link ll to node_0--><g id="link_ll_node_0"><path codeLine="409" d="M129.5,98.95 C142.96,104.99 151.7122,108.4452 164.9822,111.1652 " fill="none" id="ll-to-node_0" style="stroke:#181818;stroke-width:1.0;"/><polygon fill="#181818" points="170.86,112.37,162.8465,106.6443,165.9618,111.366,161.2401,114.4813,170.86,112.37" style="stroke:#181818;stroke-width:1.0;"/></g><!--link ll to newNode--><g id="link_ll_newNode"><path codeLine="410" d="M129.5,114.95 C155.16,114.95 141.69,85.23 153.5,62.45 C160.61,48.75 157.61,40.14 171,32.45 C217.05,6 360.42,13.41 410,32.45 C432.12,40.94 447.9179,54.215 462.3679,69.995 " fill="none" id="ll-to-newNode" style="stroke:#181818;stroke-width:1.0;"/><polygon fill="#181818" points="466.42,74.42,463.2919,65.0811,463.0433,70.7325,457.3919,70.4838,466.42,74.42" style="stroke:#181818;stroke-width:1.0;"/></g><!--link node_0 to node_1--><g id="link_node_0_node_1"><path codeLine="412" d="M253.5,122.95 C266.99,128.13 275.3615,130.1937 288.8215,129.8937 " fill="none" id="node_0-to-node_1" style="stroke:#181818;stroke-width:1.0;"/><polygon fill="#181818" points="294.82,129.76,285.7331,125.9615,289.8212,129.8714,285.9114,133.9596,294.82,129.76" style="stroke:#181818;stroke-width:1.0;"/></g><!--link node_1 to newNode--><g id="link_node_1_newNode"><path codeLine="413" d="M403.5,122.95 C417.08,128.86 425.6286,131.012 438.8086,129.972 " fill="none" id="node_1-to-newNode" style="stroke:#181818;stroke-width:1.0;"/><polygon fill="#181818" points="444.79,129.5,435.5032,126.2204,439.8055,129.8933,436.1325,134.1956,444.79,129.5" style="stroke:#181818;stroke-width:1.0;"/></g><!--SRC=[oq_AIaqkKSZ9KQZcKW22ZDJ4532Z934p1yn8BYqgIiqh2SwiIbMmLJ3cgkNYoeTeoijFIOqtW6fCIIn91CgRW3bvgHKbw0eDKHLQ6XWOObMRMku7L8wgsDZO7AuMoCqhpSa1QSd9iR82ELX1rmxg6B0GoEbW8OXHN5mGEIihi7QOMaE8i26IC5Gz0000]--></g></svg>