<svg xmlns="http://www.w3.org/2000/svg" xmlns:xlink="http://www.w3.org/1999/xlink" contentStyleType="text/css" height="143px" preserveAspectRatio="none" style="width:542px;height:143px;background:#FFFFFF;" version="1.1" viewBox="0 0 542 143" width="542px" zoomAndPan="magnify"><defs/><g><g id="elem_ll"><rect fill="#F1F1F1" height="77.1875" style="stroke:#181818;stroke-width:0.5;" width="121.334" x="7" y="59.7"/><text fill="#000000" font-family="sans-serif" font-size="14" lengthAdjust="spacing" textLength="7.7793" x="63.7773" y="74.6951">ll</text><line style="stroke:#181818;stroke-width:0.5;" x1="8" x2="127.334" y1="79.9969" y2="79.9969"/><text fill="#000000" font-family="sans-serif" font-size="14" lengthAdjust="spacing" textLength="34.9521" x="13" y="96.992">head</text><text fill="#000000" font-family="sans-serif" font-size="14" lengthAdjust="spacing" textLength="21.8477" x="13" y="113.2889">tail</text><text fill="#000000" font-family="sans-serif" font-size="14" lengthAdjust="spacing" textLength="109.334" x="13" y="129.5857">currentSize = 2</text></g><g id="elem_node_0"><rect fill="#F1F1F1" height="60.8906" style="stroke:#181818;stroke-width:0.5;" width="73.0723" x="179" y="68.2"/><text fill="#000000" font-family="sans-serif" font-size="14" lengthAdjust="spacing" textLength="50.8457" x="190.1133" y="83.1951">node_0</text><line style="stroke:#181818;stroke-width:0.5;" x1="180" x2="251.0723" y1="88.4969" y2="88.4969"/><text fill="#000000" font-family="sans-serif" font-size="14" lengthAdjust="spacing" textLength="61.0723" x="185" y="105.492">data = 4</text><text fill="#000000" font-family="sans-serif" font-size="14" lengthAdjust="spacing" textLength="31.2607" x="185" y="121.7889">next</text></g><g id="elem_node_1"><rect fill="#F1F1F1" height="60.8906" style="stroke:#181818;stroke-width:0.5;" width="99.7939" x="303" y="68.2"/><text fill="#000000" font-family="sans-serif" font-size="14" lengthAdjust="spacing" textLength="50.8457" x="327.4741" y="83.1951">node_1</text><line style="stroke:#181818;stroke-width:0.5;" x1="304" x2="401.7939" y1="88.4969" y2="88.4969"/><text fill="#000000" font-family="sans-serif" font-size="14" lengthAdjust="spacing" textLength="87.7939" x="309" y="105.492">data = 9001</text><text fill="#000000" font-family="sans-serif" font-size="14" lengthAdjust="spacing" textLength="31.2607" x="309" y="121.7889">next</text></g><g id="elem_newNode"><rect fill="#F1F1F1" height="60.8906" style="stroke:#181818;stroke-width:0.5;" width="90.8867" x="445" y="67.7"/><text fill="#000000" font-family="sans-serif" font-size="14" lengthAdjust="spacing" textLength="65.4746" x="457.7061" y="82.6951">newNode</text><line style="stroke:#181818;stroke-width:0.5;" x1="446" x2="534.8867" y1="87.9969" y2="87.9969"/><text fill="#000000" font-family="sans-serif" font-size="14" lengthAdjust="spacing" textLength="78.8867" x="451" y="104.992">data = 337</text><text fill="#000000" font-family="sans-serif" font-size="14" lengthAdjust="spacing" textLength="77.417" x="451" y="121.2889">next = null</text></g><!--link ll to node_0--><g id="link_ll_node_0"><path codeLine="330" d="M129.5,92.2 C142.96,98.24 151.7122,101.6952 164.9822,104.4152 " fill="none" id="ll-to-node_0" style="stroke:#181818;stroke-width:1.0;"/><polygon fill="#181818" points="170.86,105.62,162.8465,99.8943,165.9618,104.616,161.2401,107.7313,170.86,105.62" style="stroke:#181818;stroke-width:1.0;"/></g><!--link ll to node_1--><g id="link_ll_node_1"><path codeLine="331" d="M129.5,108.2 C155.16,108.2 141.69,78.48 153.5,55.7 C160.61,42 157.61,33.39 171,25.7 C205.3,6 222.61,12.79 260,25.7 C282.57,33.49 299.3828,45.2723 315.8128,60.1523 " fill="none" id="ll-to-node_1" style="stroke:#181818;stroke-width:1.0;"/><polygon fill="#181818" points="320.26,64.18,316.2743,55.1737,316.554,60.8236,310.904,61.1033,320.26,64.18" style="stroke:#181818;stroke-width:1.0;"/></g><!--link node_0 to node_1--><g id="link_node_0_node_1"><path codeLine="333" d="M253.5,116.2 C266.99,121.38 275.3615,123.4437 288.8215,123.1437 " fill="none" id="node_0-to-node_1" style="stroke:#181818;stroke-width:1.0;"/><polygon fill="#181818" points="294.82,123.01,285.7331,119.2115,289.8212,123.1214,285.9114,127.2096,294.82,123.01" style="stroke:#181818;stroke-width:1.0;"/></g><!--link node_1 to newNode--><g id="link_node_1_newNode"><path codeLine="334" d="M403.5,116.2 C417.08,122.11 425.6286,124.262 438.8086,123.222 " fill="none" id="node_1-to-newNode" style="stroke:#181818;stroke-width:1.0;"/><polygon fill="#181818" points="444.79,122.75,435.5032,119.4704,439.8055,123.1433,436.1325,127.4456,444.79,122.75" style="stroke:#181818;stroke-width:1.0;"/></g><!--SRC=[oq_AIaqkKSZ9KQZcKW22ZDJ4532Z934p1yn8BYqgIiqh2SwiIbMmLJ3YgkNYoeTeoijFIOqtW6fCIIn91CgRW3bvgHKbw0eDKHLQ6XWOObMRMku7L8wgsDZO7AuMoCqhpSa1QSd9iR82ELX1rmxg6B0GoEbm8KCkBeYKbHLODq8SGY49Gspc0W00]--></g></svg>