<svg xmlns="http://www.w3.org/2000/svg" xmlns:xlink="http://www.w3.org/1999/xlink" contentStyleType="text/css" height="91px" preserveAspectRatio="none" style="width:402px;height:91px;background:#FFFFFF;" version="1.1" viewBox="0 0 402 91" width="402px" zoomAndPan="magnify"><defs/><g><g id="elem_ll"><rect fill="#F1F1F1" height="77.1875" style="stroke:#181818;stroke-width:0.5;" width="121.334" x="7" y="7"/><text fill="#000000" font-family="sans-serif" font-size="14" lengthAdjust="spacing" textLength="7.7793" x="63.7773" y="21.9951">ll</text><line style="stroke:#181818;stroke-width:0.5;" x1="8" x2="127.334" y1="27.2969" y2="27.2969"/><text fill="#000000" font-family="sans-serif" font-size="14" lengthAdjust="spacing" textLength="34.9521" x="13" y="44.292">head</text><text fill="#000000" font-family="sans-serif" font-size="14" lengthAdjust="spacing" textLength="21.8477" x="13" y="60.5889">tail</text><text fill="#000000" font-family="sans-serif" font-size="14" lengthAdjust="spacing" textLength="109.334" x="13" y="76.8857">currentSize = 1</text></g><g id="elem_node_0"><rect fill="#F1F1F1" height="60.8906" style="stroke:#181818;stroke-width:0.5;" width="73.0723" x="179" y="15.5"/><text fill="#000000" font-family="sans-serif" font-size="14" lengthAdjust="spacing" textLength="50.8457" x="190.1133" y="30.4951">node_0</text><line style="stroke:#181818;stroke-width:0.5;" x1="180" x2="251.0723" y1="35.7969" y2="35.7969"/><text fill="#000000" font-family="sans-serif" font-size="14" lengthAdjust="spacing" textLength="61.0723" x="185" y="52.792">data = 4</text><text fill="#000000" font-family="sans-serif" font-size="14" lengthAdjust="spacing" textLength="31.2607" x="185" y="69.0889">next</text></g><g id="elem_newNode"><rect fill="#F1F1F1" height="60.8906" style="stroke:#181818;stroke-width:0.5;" width="99.7939" x="295.5" y="15"/><text fill="#000000" font-family="sans-serif" font-size="14" lengthAdjust="spacing" textLength="65.4746" x="312.6597" y="29.9951">newNode</text><line style="stroke:#181818;stroke-width:0.5;" x1="296.5" x2="394.2939" y1="35.2969" y2="35.2969"/><text fill="#000000" font-family="sans-serif" font-size="14" lengthAdjust="spacing" textLength="87.7939" x="301.5" y="52.292">data = 9001</text><text fill="#000000" font-family="sans-serif" font-size="14" lengthAdjust="spacing" textLength="77.417" x="301.5" y="68.5889">next = null</text></g><!--link ll to node_0--><g id="link_ll_node_0"><path codeLine="185" d="M129.5,39.5 C142.96,45.54 151.7122,48.9952 164.9822,51.7152 " fill="none" id="ll-to-node_0" style="stroke:#181818;stroke-width:1.0;"/><polygon fill="#181818" points="170.86,52.92,162.8465,47.1943,165.9618,51.916,161.2401,55.0313,170.86,52.92" style="stroke:#181818;stroke-width:1.0;"/></g><!--link ll to node_0--><g id="link_ll_node_0"><path codeLine="186" d="M129.5,55.5 C143.02,55.5 151.7148,54.9715 164.9848,53.3415 " fill="none" id="ll-to-node_0-1" style="stroke:#181818;stroke-width:1.0;"/><polygon fill="#181818" points="170.94,52.61,161.5195,49.7371,165.9773,53.2196,162.4948,57.6774,170.94,52.61" style="stroke:#181818;stroke-width:1.0;"/></g><!--link node_0 to newNode--><g id="link_node_0_newNode"><path codeLine="188" d="M253.5,63.5 C267.19,69.14 275.8293,71.2643 289.2693,70.5143 " fill="none" id="node_0-to-newNode" style="stroke:#181818;stroke-width:1.0;"/><polygon fill="#181818" points="295.26,70.18,286.0511,66.6877,290.2678,70.4586,286.4968,74.6752,295.26,70.18" style="stroke:#181818;stroke-width:1.0;"/></g><!--SRC=[oq_AIaqkKSZ9KQZcKW22ZDJ4532Z934p1yn8BYqgIiqh2SwiIbMmLJ3agkNYoeTeoijFIOqtW6fCIIn91CgRW3bvgHKbo0fJo_s0Qb5LMXeO6C8L0_bvfJav83qvELPM85SewDf1RG0BWTo39CG5eQsimBf1uX0xk000]--></g></svg>