<?xml version="1.0" encoding="us-ascii" standalone="no"?><svg xmlns="http://www.w3.org/2000/svg" xmlns:xlink="http://www.w3.org/1999/xlink" contentStyleType="text/css" height="703px" preserveAspectRatio="none" style="width:1883px;height:703px;background:#FFFFFF;" version="1.1" viewBox="0 0 1883 703" width="1883px" zoomAndPan="magnify"><defs/><g><!--cluster Data Structure--><g id="cluster_Data Structure"><path d="M132.1175,139 L248.1175,139 A3.75,3.75 0 0 1 250.6175,141.5 L257.6175,161.2969 L992.1175,161.2969 A2.5,2.5 0 0 1 994.6175,163.7969 L994.6175,542.5 A2.5,2.5 0 0 1 992.1175,545 L132.1175,545 A2.5,2.5 0 0 1 129.6175,542.5 L129.6175,141.5 A2.5,2.5 0 0 1 132.1175,139 " fill="none" style="stroke:#000000;stroke-width:1.5;"/><line style="stroke:#000000;stroke-width:1.5;" x1="129.6175" x2="257.6175" y1="161.2969" y2="161.2969"/><text fill="#000000" font-family="sans-serif" font-size="14" font-weight="bold" lengthAdjust="spacing" textLength="115" x="133.6175" y="153.9951">Data Structure</text></g><!--cluster The Actual Problem--><g id="cluster_The Actual Problem"><path d="M1021.1175,6 L1176.1175,6 A3.75,3.75 0 0 1 1178.6175,8.5 L1185.6175,28.2969 L1800.1155,28.2969 A2.5,2.5 0 0 1 1802.6155,30.7969 L1802.6155,514 A2.5,2.5 0 0 1 1800.1155,516.5 L1021.1175,516.5 A2.5,2.5 0 0 1 1018.6175,514 L1018.6175,8.5 A2.5,2.5 0 0 1 1021.1175,6 " fill="none" style="stroke:#000000;stroke-width:1.5;"/><line style="stroke:#000000;stroke-width:1.5;" x1="1018.6175" x2="1185.6175" y1="28.2969" y2="28.2969"/><text fill="#000000" font-family="sans-serif" font-size="14" font-weight="bold" lengthAdjust="spacing" textLength="154" x="1022.6175" y="20.9951">The Actual Problem</text></g><!--cluster std--><g id="cluster_std"><path d="M239.1175,594 L265.1175,594 A3.75,3.75 0 0 1 267.6175,596.5 L274.6175,616.2969 L610.1175,616.2969 A2.5,2.5 0 0 1 612.6175,618.7969 L612.6175,693.5 A2.5,2.5 0 0 1 610.1175,696 L239.1175,696 A2.5,2.5 0 0 1 236.6175,693.5 L236.6175,596.5 A2.5,2.5 0 0 1 239.1175,594 " fill="none" style="stroke:#000000;stroke-width:1.5;"/><line style="stroke:#000000;stroke-width:1.5;" x1="236.6175" x2="274.6175" y1="616.2969" y2="616.2969"/><text fill="#000000" font-family="sans-serif" font-size="14" font-weight="bold" lengthAdjust="spacing" textLength="25" x="240.6175" y="608.9951">std</text></g><!--class Node--><g id="elem_Node"><rect codeLine="6" fill="#F1F1F1" height="80.8594" id="Node" rx="2.5" ry="2.5" style="stroke:#181818;stroke-width:0.5;" width="107" x="625.1175" y="379"/><ellipse cx="643.2675" cy="399.1328" fill="#00AAFF" rx="11" ry="11" style="stroke:#181818;stroke-width:1.0;"/><path d="M644.1112,405.8828 L641.6581,405.8828 L641.6581,395.6328 L638.5175,395.6328 L638.5175,393.4922 L647.2519,393.4922 L647.2519,395.6328 L644.1112,395.6328 L644.1112,405.8828 Z " fill="#000000"/><text fill="#000000" font-family="sans-serif" font-size="12" font-style="italic" lengthAdjust="spacing" textLength="72" x="655.9675" y="395.1387">&#171;Template&#187;</text><text fill="#000000" font-family="sans-serif" font-size="14" lengthAdjust="spacing" textLength="37" x="673.4675" y="410.9639">Node</text><line style="stroke:#181818;stroke-width:0.5;" x1="626.1175" x2="731.1175" y1="419.2656" y2="419.2656"/><text fill="#000000" font-family="sans-serif" font-size="14" lengthAdjust="spacing" textLength="60" x="631.1175" y="436.2607">+data: T</text><text fill="#000000" font-family="sans-serif" font-size="14" lengthAdjust="spacing" textLength="95" x="631.1175" y="452.5576">+next: Node*</text></g><!--class LinkedList--><g id="elem_LinkedList"><rect codeLine="11" fill="#F1F1F1" height="219.2344" id="LinkedList" rx="2.5" ry="2.5" style="stroke:#181818;stroke-width:0.5;" width="211" x="767.1175" y="310"/><ellipse cx="834.3675" cy="330.1328" fill="#00AAFF" rx="11" ry="11" style="stroke:#181818;stroke-width:1.0;"/><path d="M835.2113,336.8828 L832.7581,336.8828 L832.7581,326.6328 L829.6175,326.6328 L829.6175,324.4922 L838.3519,324.4922 L838.3519,326.6328 L835.2113,326.6328 L835.2113,336.8828 Z " fill="#000000"/><text fill="#000000" font-family="sans-serif" font-size="12" font-style="italic" lengthAdjust="spacing" textLength="72" x="852.8675" y="326.1387">&#171;Template&#187;</text><text fill="#000000" font-family="sans-serif" font-size="14" lengthAdjust="spacing" textLength="68" x="854.8675" y="341.9639">LinkedList</text><line style="stroke:#181818;stroke-width:0.5;" x1="768.1175" x2="977.1175" y1="350.2656" y2="350.2656"/><text fill="#000000" font-family="sans-serif" font-size="14" lengthAdjust="spacing" textLength="93" x="773.1175" y="367.2607">-head: Node*</text><text fill="#000000" font-family="sans-serif" font-size="14" lengthAdjust="spacing" textLength="77" x="773.1175" y="383.5576">-tail: Node*</text><text fill="#000000" font-family="sans-serif" font-size="14" lengthAdjust="spacing" textLength="110" x="773.1175" y="399.8545">-currentSize: int</text><line style="stroke:#181818;stroke-width:0.5;" x1="768.1175" x2="977.1175" y1="407.1563" y2="407.1563"/><text fill="#000000" font-family="sans-serif" font-size="14" lengthAdjust="spacing" textLength="199" x="773.1175" y="424.1514">+push_back(date: T) -&gt; void</text><text fill="#000000" font-family="sans-serif" font-size="14" lengthAdjust="spacing" textLength="92" x="773.1175" y="440.4482">+size() -&gt; int</text><text fill="#000000" font-family="sans-serif" font-size="14" lengthAdjust="spacing" textLength="4" x="773.1175" y="456.7451">&#160;</text><text fill="#000000" font-family="sans-serif" font-size="14" lengthAdjust="spacing" textLength="135" x="773.1175" y="473.042">+begin() -&gt; iterator</text><text fill="#000000" font-family="sans-serif" font-size="14" lengthAdjust="spacing" textLength="123" x="773.1175" y="489.3389">+end() -&gt; iterator</text><text fill="#000000" font-family="sans-serif" font-size="14" lengthAdjust="spacing" textLength="181" x="773.1175" y="505.6357">+begin() -&gt; const_iterator</text><text fill="#000000" font-family="sans-serif" font-size="14" lengthAdjust="spacing" textLength="169" x="773.1175" y="521.9326">+end() -&gt; const_iterator</text></g><!--class NaivePool--><g id="elem_NaivePool"><rect codeLine="25" fill="#F1F1F1" height="186.6406" id="NaivePool" rx="2.5" ry="2.5" style="stroke:#181818;stroke-width:0.5;" width="312" x="145.6175" y="326"/><ellipse cx="263.3675" cy="346.1328" fill="#00AAFF" rx="11" ry="11" style="stroke:#181818;stroke-width:1.0;"/><path d="M264.2113,352.8828 L261.7581,352.8828 L261.7581,342.6328 L258.6175,342.6328 L258.6175,340.4922 L267.3519,340.4922 L267.3519,342.6328 L264.2113,342.6328 L264.2113,352.8828 Z " fill="#000000"/><text fill="#000000" font-family="sans-serif" font-size="12" font-style="italic" lengthAdjust="spacing" textLength="72" x="281.8675" y="342.1387">&#171;Template&#187;</text><text fill="#000000" font-family="sans-serif" font-size="14" lengthAdjust="spacing" textLength="67" x="284.3675" y="357.9639">NaivePool</text><line style="stroke:#181818;stroke-width:0.5;" x1="146.6175" x2="456.6175" y1="366.2656" y2="366.2656"/><text fill="#000000" font-family="sans-serif" font-size="14" lengthAdjust="spacing" textLength="104" x="151.6175" y="383.2607">-thePools: T[][]</text><text fill="#000000" font-family="sans-serif" font-size="14" lengthAdjust="spacing" textLength="100" x="151.6175" y="399.5576">-numPools: int</text><text fill="#000000" font-family="sans-serif" font-size="14" lengthAdjust="spacing" textLength="129" x="151.6175" y="415.8545">-blocksPerPool: int</text><text fill="#000000" font-family="sans-serif" font-size="14" lengthAdjust="spacing" textLength="203" x="151.6175" y="432.1514">-nextAvailBlock: pair&lt;int, int&gt;</text><line style="stroke:#181818;stroke-width:0.5;" x1="146.6175" x2="456.6175" y1="439.4531" y2="439.4531"/><text fill="#000000" font-family="sans-serif" font-size="14" lengthAdjust="spacing" textLength="300" x="151.6175" y="456.4482">+NaivePool(bSize: int = 8, preAlloc: int = 1)</text><text fill="#000000" font-family="sans-serif" font-size="14" lengthAdjust="spacing" textLength="101" x="151.6175" y="472.7451">+~NaivePool()</text><text fill="#000000" font-family="sans-serif" font-size="14" lengthAdjust="spacing" textLength="117" x="151.6175" y="489.042">+getNext() -&gt; T*</text><text fill="#000000" font-family="sans-serif" font-size="14" lengthAdjust="spacing" textLength="98" x="151.6175" y="505.3389">-reserveNext()</text></g><!--class LinkedList::Iterator--><g id="elem_LinkedList::Iterator"><rect codeLine="37" fill="#F1F1F1" height="40.2656" id="LinkedList::Iterator" rx="2.5" ry="2.5" style="stroke:#181818;stroke-width:0.5;" width="159" x="556.1175" y="193"/><ellipse cx="571.1175" cy="213.1328" fill="#00AAFF" rx="11" ry="11" style="stroke:#181818;stroke-width:1.0;"/><path d="M571.9613,219.8828 L569.5081,219.8828 L569.5081,209.6328 L566.3675,209.6328 L566.3675,207.4922 L575.1019,207.4922 L575.1019,209.6328 L571.9613,209.6328 L571.9613,219.8828 Z " fill="#000000"/><text fill="#000000" font-family="sans-serif" font-size="12" font-style="italic" lengthAdjust="spacing" textLength="72" x="612.6175" y="209.1387">&#171;Template&#187;</text><text fill="#000000" font-family="sans-serif" font-size="14" lengthAdjust="spacing" textLength="127" x="585.1175" y="224.9639">LinkedList::Iterator</text></g><!--class Room::Flooring--><g id="elem_Room::Flooring"><rect codeLine="43" fill="#F1F1F1" height="96.8906" id="Room::Flooring" rx="2.5" ry="2.5" style="stroke:#181818;stroke-width:0.5;" width="339" x="1447.1155" y="371"/><ellipse cx="1559.3655" cy="387" fill="#ADD1B2" rx="11" ry="11" style="stroke:#181818;stroke-width:1.0;"/><path d="M1562.3343,392.6406 Q1561.7561,392.9375 1561.1155,393.0781 Q1560.4749,393.2344 1559.7718,393.2344 Q1557.2718,393.2344 1555.9436,391.5938 Q1554.6311,389.9375 1554.6311,386.8125 Q1554.6311,383.6875 1555.9436,382.0313 Q1557.2718,380.375 1559.7718,380.375 Q1560.4749,380.375 1561.1155,380.5313 Q1561.7718,380.6875 1562.3343,380.9844 L1562.3343,383.7031 Q1561.7093,383.125 1561.1155,382.8594 Q1560.5218,382.5781 1559.8968,382.5781 Q1558.553,382.5781 1557.8655,383.6563 Q1557.178,384.7188 1557.178,386.8125 Q1557.178,388.9063 1557.8655,389.9844 Q1558.553,391.0469 1559.8968,391.0469 Q1560.5218,391.0469 1561.1155,390.7813 Q1561.7093,390.5 1562.3343,389.9219 L1562.3343,392.6406 Z " fill="#000000"/><text fill="#000000" font-family="sans-serif" font-size="14" lengthAdjust="spacing" textLength="106" x="1579.8655" y="391.8467">Room::Flooring</text><line style="stroke:#181818;stroke-width:0.5;" x1="1448.1155" x2="1785.1155" y1="403" y2="403"/><text fill="#000000" font-family="sans-serif" font-size="14" lengthAdjust="spacing" textLength="91" x="1453.1155" y="419.9951">+type: String</text><text fill="#000000" font-family="sans-serif" font-size="14" lengthAdjust="spacing" textLength="111" x="1453.1155" y="436.292">+unitCost: Cost</text><line style="stroke:#181818;stroke-width:0.5;" x1="1448.1155" x2="1785.1155" y1="443.5938" y2="443.5938"/><text fill="#000000" font-family="sans-serif" font-size="14" lengthAdjust="spacing" textLength="327" x="1453.1155" y="460.5889">+Flooring(n: String = "Generic", c: Cost = 1.00)</text></g><!--class Room::DimensionSet--><g id="elem_Room::DimensionSet"><rect codeLine="50" fill="#F1F1F1" height="162.0781" id="Room::DimensionSet" rx="2.5" ry="2.5" style="stroke:#181818;stroke-width:0.5;" width="377" x="1035.1155" y="338.5"/><ellipse cx="1145.3655" cy="354.5" fill="#ADD1B2" rx="11" ry="11" style="stroke:#181818;stroke-width:1.0;"/><path d="M1148.3343,360.1406 Q1147.7561,360.4375 1147.1155,360.5781 Q1146.4749,360.7344 1145.7718,360.7344 Q1143.2718,360.7344 1141.9436,359.0938 Q1140.6311,357.4375 1140.6311,354.3125 Q1140.6311,351.1875 1141.9436,349.5313 Q1143.2718,347.875 1145.7718,347.875 Q1146.4749,347.875 1147.1155,348.0313 Q1147.7718,348.1875 1148.3343,348.4844 L1148.3343,351.2031 Q1147.7093,350.625 1147.1155,350.3594 Q1146.5218,350.0781 1145.8968,350.0781 Q1144.553,350.0781 1143.8655,351.1563 Q1143.178,352.2188 1143.178,354.3125 Q1143.178,356.4063 1143.8655,357.4844 Q1144.553,358.5469 1145.8968,358.5469 Q1146.5218,358.5469 1147.1155,358.2813 Q1147.7093,358 1148.3343,357.4219 L1148.3343,360.1406 Z " fill="#000000"/><text fill="#000000" font-family="sans-serif" font-size="14" lengthAdjust="spacing" textLength="148" x="1165.8655" y="359.3467">Room::DimensionSet</text><line style="stroke:#181818;stroke-width:0.5;" x1="1036.1155" x2="1411.1155" y1="370.5" y2="370.5"/><text fill="#000000" font-family="sans-serif" font-size="14" lengthAdjust="spacing" textLength="132" x="1041.1155" y="387.4951">-length: Dimension</text><text fill="#000000" font-family="sans-serif" font-size="14" lengthAdjust="spacing" textLength="125" x="1041.1155" y="403.792">-width: Dimension</text><line style="stroke:#181818;stroke-width:0.5;" x1="1036.1155" x2="1411.1155" y1="411.0938" y2="411.0938"/><text fill="#000000" font-family="sans-serif" font-size="14" lengthAdjust="spacing" textLength="365" x="1041.1155" y="428.0889">+DimensionSet(l: Dimension = 1, w: Dimension = 1)</text><text fill="#000000" font-family="sans-serif" font-size="14" lengthAdjust="spacing" textLength="182" x="1041.1155" y="444.3857">+setLength(v: Dimension)</text><text fill="#000000" font-family="sans-serif" font-size="14" lengthAdjust="spacing" textLength="192" x="1041.1155" y="460.6826">+getLength() -&gt; Dimension</text><text fill="#000000" font-family="sans-serif" font-size="14" lengthAdjust="spacing" textLength="173" x="1041.1155" y="476.9795">+setWidth(v: Dimension)</text><text fill="#000000" font-family="sans-serif" font-size="14" lengthAdjust="spacing" textLength="183" x="1041.1155" y="493.2764">+getWidth() -&gt; Dimension</text></g><!--class Room--><g id="elem_Room"><rect codeLine="61" fill="#F1F1F1" height="32" id="Room" rx="2.5" ry="2.5" style="stroke:#181818;stroke-width:0.5;" width="73" x="1337.1155" y="197"/><ellipse cx="1352.1155" cy="213" fill="#ADD1B2" rx="11" ry="11" style="stroke:#181818;stroke-width:1.0;"/><path d="M1355.0843,218.6406 Q1354.5061,218.9375 1353.8655,219.0781 Q1353.2249,219.2344 1352.5218,219.2344 Q1350.0218,219.2344 1348.6936,217.5938 Q1347.3811,215.9375 1347.3811,212.8125 Q1347.3811,209.6875 1348.6936,208.0313 Q1350.0218,206.375 1352.5218,206.375 Q1353.2249,206.375 1353.8655,206.5313 Q1354.5218,206.6875 1355.0843,206.9844 L1355.0843,209.7031 Q1354.4593,209.125 1353.8655,208.8594 Q1353.2718,208.5781 1352.6468,208.5781 Q1351.303,208.5781 1350.6155,209.6563 Q1349.928,210.7188 1349.928,212.8125 Q1349.928,214.9063 1350.6155,215.9844 Q1351.303,217.0469 1352.6468,217.0469 Q1353.2718,217.0469 1353.8655,216.7813 Q1354.4593,216.5 1355.0843,215.9219 L1355.0843,218.6406 Z " fill="#000000"/><text fill="#000000" font-family="sans-serif" font-size="14" lengthAdjust="spacing" textLength="41" x="1366.1155" y="217.8467">Room</text></g><!--class House--><g id="elem_House"><rect codeLine="65" fill="#F1F1F1" height="32" id="House" rx="2.5" ry="2.5" style="stroke:#181818;stroke-width:0.5;" width="77" x="1335.1155" y="60"/><ellipse cx="1350.1155" cy="76" fill="#ADD1B2" rx="11" ry="11" style="stroke:#181818;stroke-width:1.0;"/><path d="M1353.0843,81.6406 Q1352.5061,81.9375 1351.8655,82.0781 Q1351.2249,82.2344 1350.5218,82.2344 Q1348.0218,82.2344 1346.6936,80.5938 Q1345.3811,78.9375 1345.3811,75.8125 Q1345.3811,72.6875 1346.6936,71.0313 Q1348.0218,69.375 1350.5218,69.375 Q1351.2249,69.375 1351.8655,69.5313 Q1352.5218,69.6875 1353.0843,69.9844 L1353.0843,72.7031 Q1352.4593,72.125 1351.8655,71.8594 Q1351.2718,71.5781 1350.6468,71.5781 Q1349.303,71.5781 1348.6155,72.6563 Q1347.928,73.7188 1347.928,75.8125 Q1347.928,77.9063 1348.6155,78.9844 Q1349.303,80.0469 1350.6468,80.0469 Q1351.2718,80.0469 1351.8655,79.7813 Q1352.4593,79.5 1353.0843,78.9219 L1353.0843,81.6406 Z " fill="#000000"/><text fill="#000000" font-family="sans-serif" font-size="14" lengthAdjust="spacing" textLength="45" x="1364.1155" y="80.8467">House</text></g><!--class Iterator--><g id="elem_Iterator"><rect codeLine="71" fill="#F1F1F1" height="32" id="Iterator" rx="2.5" ry="2.5" style="stroke:#181818;stroke-width:0.5;" width="82" x="252.6175" y="648"/><ellipse cx="267.6175" cy="664" fill="#B4A7E5" rx="11" ry="11" style="stroke:#181818;stroke-width:1.0;"/><path d="M263.5394,659.7656 L263.5394,657.6094 L270.93,657.6094 L270.93,659.7656 L268.4612,659.7656 L268.4612,667.8438 L270.93,667.8438 L270.93,670 L263.5394,670 L263.5394,667.8438 L266.0081,667.8438 L266.0081,659.7656 L263.5394,659.7656 Z " fill="#000000"/><text fill="#000000" font-family="sans-serif" font-size="14" font-style="italic" lengthAdjust="spacing" textLength="50" x="281.6175" y="668.8467">Iterator</text></g><!--class Container--><g id="elem_Container"><rect codeLine="75" fill="#F1F1F1" height="32" id="Container" rx="2.5" ry="2.5" style="stroke:#181818;stroke-width:0.5;" width="99" x="497.1175" y="648"/><ellipse cx="512.1175" cy="664" fill="#B4A7E5" rx="11" ry="11" style="stroke:#181818;stroke-width:1.0;"/><path d="M508.0394,659.7656 L508.0394,657.6094 L515.43,657.6094 L515.43,659.7656 L512.9613,659.7656 L512.9613,667.8438 L515.43,667.8438 L515.43,670 L508.0394,670 L508.0394,667.8438 L510.5081,667.8438 L510.5081,659.7656 L508.0394,659.7656 Z " fill="#000000"/><text fill="#000000" font-family="sans-serif" font-size="14" font-style="italic" lengthAdjust="spacing" textLength="67" x="526.1175" y="668.8467">Container</text></g><!--class Allocator--><g id="elem_Allocator"><rect codeLine="79" fill="#F1F1F1" height="32" id="Allocator" rx="2.5" ry="2.5" style="stroke:#181818;stroke-width:0.5;" width="92" x="369.6175" y="648"/><ellipse cx="384.6175" cy="664" fill="#B4A7E5" rx="11" ry="11" style="stroke:#181818;stroke-width:1.0;"/><path d="M380.5394,659.7656 L380.5394,657.6094 L387.93,657.6094 L387.93,659.7656 L385.4613,659.7656 L385.4613,667.8438 L387.93,667.8438 L387.93,670 L380.5394,670 L380.5394,667.8438 L383.0081,667.8438 L383.0081,659.7656 L380.5394,659.7656 Z " fill="#000000"/><text fill="#000000" font-family="sans-serif" font-size="14" font-style="italic" lengthAdjust="spacing" textLength="60" x="398.6175" y="668.8467">Allocator</text></g><!--link NaivePool to Node--><g id="link_NaivePool_Node"><path codeLine="84" d="M457.6795,419.5 C517.2345,419.5 575.2435,419.5 618.9545,419.5 " fill="none" id="NaivePool-to-Node" style="stroke:#0000FF;stroke-width:1.0;"/><polygon fill="#0000FF" points="624.9545,419.5,615.9545,415.5,619.9545,419.5,615.9545,423.5,624.9545,419.5" style="stroke:#0000FF;stroke-width:1.0;"/><text fill="#000000" font-family="sans-serif" font-size="13" lengthAdjust="spacing" textLength="131" x="475.8675" y="412.5669">handles allocation of</text></g><!--link NaivePool to LinkedList--><g id="link_NaivePool_LinkedList"><path codeLine="85" d="M458.0285,342.294 C514.6045,318.301 579.8965,295.007 642.1175,283 C696.6665,272.473 717.2485,258.515 767.1175,283 C780.6945,289.666 788.7144,294.8358 799.7544,305.5478 " fill="none" id="NaivePool-to-LinkedList" style="stroke:#0000FF;stroke-width:1.0;"/><polygon fill="#0000FF" points="804.0605,309.726,800.3868,300.588,800.4721,306.2442,794.8159,306.3295,804.0605,309.726" style="stroke:#0000FF;stroke-width:1.0;"/><text fill="#000000" font-family="sans-serif" font-size="13" lengthAdjust="spacing" textLength="123" x="643.1175" y="276.0669">allocates Nodes for</text></g><!--reverse link LinkedList to Node--><g id="link_LinkedList_Node"><path codeLine="86" d="M754.9235,419.5 C743.4235,419.5 743.9225,419.5 732.4225,419.5 " fill="none" id="LinkedList-backto-Node" style="stroke:#181818;stroke-width:1.0;"/><polygon fill="none" points="766.9235,419.5,760.9235,415.5,754.9235,419.5,760.9235,423.5,766.9235,419.5" style="stroke:#181818;stroke-width:1.0;"/></g><!--link LinkedList::Iterator to Node--><g id="link_LinkedList::Iterator_Node"><path codeLine="88" d="M636.0985,233.182 C636.6665,246.417 637.9085,264.375 640.6175,280 C646.4965,313.903 655.3039,345.7688 663.8109,373.2268 " fill="none" id="LinkedList::Iterator-to-Node" style="stroke:#181818;stroke-width:1.0;"/><polygon fill="#181818" points="665.5865,378.958,666.7439,369.1774,664.1068,374.182,659.1022,371.5449,665.5865,378.958" style="stroke:#181818;stroke-width:1.0;"/></g><!--reverse link LinkedList::Iterator to LinkedList--><g id="link_LinkedList::Iterator_LinkedList"><path codeLine="89" d="M721.0076,233.9491 C741.7526,241.2221 757.4195,249.272 774.6175,263 C790.9525,276.04 805.3445,292.586 817.7175,309.992 " fill="none" id="LinkedList::Iterator-backto-LinkedList" style="stroke:#181818;stroke-width:1.0;"/><polygon fill="#181818" points="715.3455,231.964,722.5153,238.7164,720.0639,233.6182,725.162,231.1669,715.3455,231.964" style="stroke:#181818;stroke-width:1.0;"/><text fill="#000000" font-family="sans-serif" font-size="13" lengthAdjust="spacing" textLength="54" x="794.6175" y="276.0669">provides</text></g><!--link LinkedList::Iterator to Iterator--><g id="link_LinkedList::Iterator_Iterator"><path codeLine="91" d="M556.0165,215.54 C416.3385,220.107 136.1415,238.217 75.6175,310 C6,392.568 19.0069,461.026 75.6175,553 C114.1708,615.6368 183.0431,639.9211 234.7451,651.6305 " fill="none" id="LinkedList::Iterator-to-Iterator" style="stroke:#008000;stroke-width:1.0;stroke-dasharray:7.0,7.0;"/><polygon fill="none" points="252.3005,655.6064,236.0704,645.7787,233.4198,657.4823,252.3005,655.6064" style="stroke:#008000;stroke-width:1.0;"/><text fill="#000000" font-family="sans-serif" font-size="13" lengthAdjust="spacing" textLength="50" x="76.6175" y="424.0669">partially</text></g><!--link LinkedList to Container--><g id="link_LinkedList_Container"><path codeLine="92" d="M777.4485,529.208 C768.3805,537.633 759.0435,545.691 749.6175,553 C696.0835,594.511 641.2177,621.8578 598.9247,640.6093 " fill="none" id="LinkedList-to-Container" style="stroke:#008000;stroke-width:1.0;stroke-dasharray:7.0,7.0;"/><polygon fill="none" points="582.4695,647.905,601.3566,646.0943,596.4927,635.1242,582.4695,647.905" style="stroke:#008000;stroke-width:1.0;"/><text fill="#000000" font-family="sans-serif" font-size="13" lengthAdjust="spacing" textLength="50" x="735.6175" y="574.0669">partially</text></g><!--link NaivePool to Allocator--><g id="link_NaivePool_Allocator"><path codeLine="94" d="M345.2045,513.217 C368.9635,563.759 388.3626,605.0232 400.8976,631.6874 " fill="none" id="NaivePool-to-Allocator" style="stroke:#008000;stroke-width:1.0;stroke-dasharray:7.0,7.0;"/><polygon fill="none" points="408.5555,647.9772,406.3275,629.1348,395.4677,634.2401,408.5555,647.9772" style="stroke:#008000;stroke-width:1.0;"/><text fill="#000000" font-family="sans-serif" font-size="13" lengthAdjust="spacing" textLength="34" x="376.6175" y="574.0669">fakes</text></g><!--link House to LinkedList--><g id="link_House_LinkedList"><path codeLine="96" d="M1349.6155,92.071 C1291.8855,128.468 1140.9855,224.484 1018.6175,310 C1005.4165,319.226 996.5273,325.5467 982.9943,335.4157 " fill="none" id="House-to-LinkedList" style="stroke:#2F4F4F;stroke-width:1.0;"/><polygon fill="#2F4F4F" points="978.1465,338.951,987.7751,336.8799,982.1864,336.0049,983.0614,330.4161,978.1465,338.951" style="stroke:#2F4F4F;stroke-width:1.0;"/><text fill="#000000" font-family="sans-serif" font-size="13" lengthAdjust="spacing" textLength="60" x="978.5199" y="327.5783">container</text></g><!--reverse link House to Room--><g id="link_House_Room"><path codeLine="97" d="M1373.6155,104.224 C1373.6155,130.152 1373.6155,170.594 1373.6155,196.625 " fill="none" id="House-backto-Room" style="stroke:#181818;stroke-width:1.0;"/><polygon fill="none" points="1373.6155,92.224,1369.6155,98.224,1373.6155,104.224,1377.6155,98.224,1373.6155,92.224" style="stroke:#181818;stroke-width:1.0;"/></g><!--link House to Container--><g id="link_House_Container"><path codeLine="99" d="M1412.2155,84.268 C1500.4755,103.207 1716.1855,163.184 1803.6155,310 C1858.8755,402.793 1876.5755,473.373 1803.6155,553 C1720.6955,643.4971 837.5012,659.6334 614.3692,662.3023 " fill="none" id="House-to-Container" style="stroke:#008000;stroke-width:1.0;stroke-dasharray:7.0,7.0;"/><polygon fill="none" points="596.3705,662.5176,614.441,668.3019,614.2975,656.3027,596.3705,662.5176" style="stroke:#008000;stroke-width:1.0;"/><text fill="#000000" font-family="sans-serif" font-size="13" lengthAdjust="spacing" textLength="50" x="1782.6155" y="276.0669">partially</text></g><!--reverse link Room to Room::Flooring--><g id="link_Room_Room::Flooring"><path codeLine="101" d="M1400.667,236.7636 C1435.687,266.2346 1505.4855,324.976 1559.9255,370.79 " fill="none" id="Room-backto-Room::Flooring" style="stroke:#181818;stroke-width:1.0;"/><polygon fill="none" points="1391.4855,229.037,1393.5007,235.9608,1400.667,236.7636,1398.6518,229.8398,1391.4855,229.037" style="stroke:#181818;stroke-width:1.0;"/><text fill="#000000" font-family="sans-serif" font-size="13" lengthAdjust="spacing" textLength="47" x="1501.6488" y="359.9694">flooring</text></g><!--reverse link Room to Room::DimensionSet--><g id="link_Room_Room::DimensionSet"><path codeLine="102" d="M1355.49,238.7145 C1338.65,261.6825 1312.4155,297.444 1282.6155,338.065 " fill="none" id="Room-backto-Room::DimensionSet" style="stroke:#181818;stroke-width:1.0;"/><polygon fill="none" points="1362.5855,229.037,1355.8119,231.5106,1355.49,238.7145,1362.2636,236.2409,1362.5855,229.037" style="stroke:#181818;stroke-width:1.0;"/><text fill="#000000" font-family="sans-serif" font-size="13" lengthAdjust="spacing" textLength="73" x="1211.5491" y="327.4914">dimensions</text></g><!--SRC=[ZLN1Rjim3BtxAmZtucvnaTq68mkGjMXNe2YADS0EGL38DXCBiIL3ajDbM_Vjesp7aLCtgmyvaEyzKO-aeZTSb4on0fASQJqpHl6uCdYRIF78Vo6ClOod25YKPWS55Z4gxNbUoP8DMoFuLymmU3IgIaobq8VV7j1NYy6z9EPa0i5y16VZyMnsVNqESvBAcK6OJbkm_Jv2Ia8Hp9s8m9ycgaK-rD4Npz6-usA3wHtNvfqdX90XIrsz9ceOprz7aqef5CPQ404NndFgAYkTFSLaG40rKtf-3k4KjfAd3aWJCwWJH-mOrroq6OEA6QcSB8hqpPp3fEveytIAFu3e-NVF-1OVfCnFsjVppsGrGTED5yl5qic8gcWpzhA7U9pBPACVKDdiSTAsTxObzxzQL0Gbusf2a975JLtBkbg3k6i8V87F8oWLpdAYxqEVpXtQtmFF3Q_HtDFHZKrpj-aADQejDjbJ8nT5jwsn_tElLNbnDcQU8SneMrWE3qh6EHRzhVakPH55rxcKYejrRqVChgJRqxPHmWbNWfjBIMM1_NMTswi4OayZa_mR5AXuueyWQIZMkOlnUE3EJJ5Nl42XEJq9Q7eZaQDOcoo23k3adddQJpbrkO91xe1i9IDuFeguxTDexkfJWws3EcfmYwXR_BgsMkI7BU-KHWCOa7XbqA7FJkARh3GEJe0sQMlYhQ0nMh44ePkdljG1S2a5lLJKjpSHzIBqDGXpsFDmSHRd5IwdzMCNWPynaUQeWJL4wxLS-OCCP_J1R_7OFF0QLbBvdlCUoz36FMzmNyAmENyuEmd3_bcbablw_z7-6t8NYxErGXJBYp_JpaJBOyfmAdJNgwo7xXpjmvtxz-2TlGHViKrTKjDZikcAgSsZNViRXRkblQEVxELzvqOjGz8rxU3i5TvLLprfbkclsgtsZzuA1vBk9rRxGpli_GC0]--></g></svg>