<?xml version="1.0" encoding="us-ascii" standalone="no"?><svg xmlns="http://www.w3.org/2000/svg" xmlns:xlink="http://www.w3.org/1999/xlink" contentStyleType="text/css" height="729px" preserveAspectRatio="none" style="width:1087px;height:729px;background:#FFFFFF;" version="1.1" viewBox="0 0 1087 729" width="1087px" zoomAndPan="magnify"><defs/><g><text fill="#000000" font-family="sans-serif" font-size="14" font-weight="bold" lengthAdjust="spacing" textLength="365" x="362.75" y="27.9951">Java RunShapes "read" Function With Iterators</text><rect fill="#FFFFFF" height="620.6172" style="stroke:#181818;stroke-width:1.0;" width="10" x="74.5" y="83.5938"/><rect fill="#FFFFFF" height="16.1641" style="stroke:#181818;stroke-width:1.0;" width="10" x="400" y="114.7266"/><rect fill="#FFFFFF" height="14" style="stroke:#181818;stroke-width:1.0;" width="10" x="400" y="647.0781"/><rect fill="#FFFFFF" height="16.1641" style="stroke:#181818;stroke-width:1.0;" width="10" x="570" y="170.0234"/><rect fill="#FFFFFF" height="354.3594" style="stroke:#181818;stroke-width:1.0;" width="10" x="570" y="239.4531"/><rect fill="#FFFFFF" height="281.0938" style="stroke:#181818;stroke-width:1.0;" width="10" x="575" y="276.5859"/><rect fill="#FFFFFF" height="83.2656" style="stroke:#181818;stroke-width:1.0;" width="10" x="580" y="432.2813"/><rect fill="#FFFFFF" height="84.4297" style="stroke:#181818;stroke-width:1.0;" width="10" x="907" y="310.7188"/><rect fill="#FFFFFF" height="16.1641" style="stroke:#181818;stroke-width:1.0;" width="10" x="1020" y="349.8516"/><rect fill="#FFFFFF" height="14" style="stroke:#181818;stroke-width:1.0;" width="10" x="1020" y="466.4141"/><rect fill="none" height="474.8906" style="stroke:#000000;stroke-width:1.5;" width="1071.5" x="10" y="201.1875"/><rect fill="none" height="60.2656" style="stroke:#000000;stroke-width:1.5;" width="483" x="20" y="608.8125"/><line style="stroke:#181818;stroke-width:0.5;stroke-dasharray:5.0,5.0;" x1="79" x2="79" y1="73.5938" y2="722.2109"/><line style="stroke:#181818;stroke-width:0.5;stroke-dasharray:5.0,5.0;" x1="223" x2="223" y1="73.5938" y2="722.2109"/><line style="stroke:#181818;stroke-width:0.5;stroke-dasharray:5.0,5.0;" x1="405" x2="405" y1="114.2422" y2="722.2109"/><line style="stroke:#181818;stroke-width:0.5;stroke-dasharray:5.0,5.0;" x1="575" x2="575" y1="169.5391" y2="722.2109"/><line style="stroke:#181818;stroke-width:0.5;stroke-dasharray:5.0,5.0;" x1="911.5" x2="911.5" y1="73.5938" y2="722.2109"/><line style="stroke:#181818;stroke-width:0.5;stroke-dasharray:5.0,5.0;" x1="1024.5" x2="1024.5" y1="349.3672" y2="722.2109"/><rect fill="#E2E2F0" height="30.2969" rx="2.5" ry="2.5" style="stroke:#181818;stroke-width:0.5;" width="99" x="30" y="42.2969"/><text fill="#000000" font-family="sans-serif" font-size="14" lengthAdjust="spacing" text-decoration="underline" textLength="85" x="37" y="62.292">:RunShapes</text><rect fill="#E2E2F0" height="30.2969" rx="2.5" ry="2.5" style="stroke:#181818;stroke-width:0.5;" width="168" x="139" y="42.2969"/><text fill="#000000" font-family="sans-serif" font-size="14" lengthAdjust="spacing" text-decoration="underline" textLength="154" x="146" y="62.292">buffer:BufferedReader</text><rect fill="#E2E2F0" height="30.2969" rx="2.5" ry="2.5" style="stroke:#181818;stroke-width:0.5;" width="113" x="855.5" y="42.2969"/><text fill="#000000" font-family="sans-serif" font-size="14" lengthAdjust="spacing" text-decoration="underline" textLength="99" x="862.5" y="62.292">:ShapeFactory</text><rect fill="#FFFFFF" height="620.6172" style="stroke:#181818;stroke-width:1.0;" width="10" x="74.5" y="83.5938"/><rect fill="#FFFFFF" height="16.1641" style="stroke:#181818;stroke-width:1.0;" width="10" x="400" y="114.7266"/><rect fill="#FFFFFF" height="14" style="stroke:#181818;stroke-width:1.0;" width="10" x="400" y="647.0781"/><rect fill="#FFFFFF" height="16.1641" style="stroke:#181818;stroke-width:1.0;" width="10" x="570" y="170.0234"/><rect fill="#FFFFFF" height="354.3594" style="stroke:#181818;stroke-width:1.0;" width="10" x="570" y="239.4531"/><rect fill="#FFFFFF" height="281.0938" style="stroke:#181818;stroke-width:1.0;" width="10" x="575" y="276.5859"/><rect fill="#FFFFFF" height="83.2656" style="stroke:#181818;stroke-width:1.0;" width="10" x="580" y="432.2813"/><rect fill="#FFFFFF" height="84.4297" style="stroke:#181818;stroke-width:1.0;" width="10" x="907" y="310.7188"/><rect fill="#FFFFFF" height="16.1641" style="stroke:#181818;stroke-width:1.0;" width="10" x="1020" y="349.8516"/><rect fill="#FFFFFF" height="14" style="stroke:#181818;stroke-width:1.0;" width="10" x="1020" y="466.4141"/><polygon fill="#181818" points="305,100.7266,315,104.7266,305,108.7266,309,104.7266" style="stroke:#181818;stroke-width:1.0;"/><line style="stroke:#181818;stroke-width:1.0;" x1="84.5" x2="311" y1="104.7266" y2="104.7266"/><text fill="#000000" font-family="sans-serif" font-size="13" lengthAdjust="spacing" textLength="25" x="91.5" y="99.6606">new</text><rect fill="#E2E2F0" height="30.2969" rx="2.5" ry="2.5" style="stroke:#181818;stroke-width:0.5;" width="176" x="317" y="83.5938"/><text fill="#000000" font-family="sans-serif" font-size="14" lengthAdjust="spacing" text-decoration="underline" textLength="162" x="324" y="103.5889">collection:List&lt;Shape&gt;</text><polygon fill="#181818" points="95.5,126.8906,85.5,130.8906,95.5,134.8906,91.5,130.8906" style="stroke:#181818;stroke-width:1.0;"/><line style="stroke:#181818;stroke-width:1.0;stroke-dasharray:2.0,2.0;" x1="89.5" x2="404" y1="130.8906" y2="130.8906"/><polygon fill="#181818" points="491,156.0234,501,160.0234,491,164.0234,495,160.0234" style="stroke:#181818;stroke-width:1.0;"/><line style="stroke:#181818;stroke-width:1.0;" x1="84.5" x2="497" y1="160.0234" y2="160.0234"/><text fill="#000000" font-family="sans-serif" font-size="13" lengthAdjust="spacing" textLength="164" x="91.5" y="154.9575">new ShapeIterator(buffer)</text><rect fill="#E2E2F0" height="30.2969" rx="2.5" ry="2.5" style="stroke:#181818;stroke-width:0.5;" width="144" x="503" y="138.8906"/><text fill="#000000" font-family="sans-serif" font-size="14" lengthAdjust="spacing" text-decoration="underline" textLength="130" x="510" y="158.8857">it:Iterator&lt;Shape&gt;</text><polygon fill="#181818" points="95.5,182.1875,85.5,186.1875,95.5,190.1875,91.5,186.1875" style="stroke:#181818;stroke-width:1.0;"/><line style="stroke:#181818;stroke-width:1.0;stroke-dasharray:2.0,2.0;" x1="89.5" x2="574" y1="186.1875" y2="186.1875"/><path d="M10,201.1875 L87,201.1875 L87,208.3203 L77,218.3203 L10,218.3203 L10,201.1875 " fill="#EEEEEE" style="stroke:#000000;stroke-width:1.5;"/><rect fill="none" height="474.8906" style="stroke:#000000;stroke-width:1.5;" width="1071.5" x="10" y="201.1875"/><text fill="#000000" font-family="sans-serif" font-size="13" font-weight="bold" lengthAdjust="spacing" textLength="32" x="25" y="214.2544">loop</text><text fill="#000000" font-family="sans-serif" font-size="11" font-weight="bold" lengthAdjust="spacing" textLength="85" x="102" y="213.3979">[it.hasNext()]</text><polygon fill="#181818" points="558,235.4531,568,239.4531,558,243.4531,562,239.4531" style="stroke:#181818;stroke-width:1.0;"/><line style="stroke:#181818;stroke-width:1.0;" x1="84.5" x2="564" y1="239.4531" y2="239.4531"/><text fill="#000000" font-family="sans-serif" font-size="13" lengthAdjust="spacing" textLength="190" x="91.5" y="234.3872">next() [dereference &amp; iterate]</text><line style="stroke:#181818;stroke-width:1.0;" x1="580" x2="627" y1="263.5859" y2="263.5859"/><line style="stroke:#181818;stroke-width:1.0;" x1="627" x2="627" y1="263.5859" y2="276.5859"/><line style="stroke:#181818;stroke-width:1.0;" x1="586" x2="627" y1="276.5859" y2="276.5859"/><polygon fill="#181818" points="596,272.5859,586,276.5859,596,280.5859,592,276.5859" style="stroke:#181818;stroke-width:1.0;"/><text fill="#000000" font-family="sans-serif" font-size="13" lengthAdjust="spacing" textLength="69" x="592" y="258.52">readNext()</text><polygon fill="#181818" points="895,306.7188,905,310.7188,895,314.7188,899,310.7188" style="stroke:#181818;stroke-width:1.0;"/><line style="stroke:#181818;stroke-width:1.0;" x1="585" x2="901" y1="310.7188" y2="310.7188"/><text fill="#000000" font-family="sans-serif" font-size="13" lengthAdjust="spacing" textLength="303" x="592" y="305.6528">createShape(name) [assume "name" is known]</text><polygon fill="#181818" points="966.5,335.8516,976.5,339.8516,966.5,343.8516,970.5,339.8516" style="stroke:#181818;stroke-width:1.0;"/><line style="stroke:#181818;stroke-width:1.0;" x1="917" x2="972.5" y1="339.8516" y2="339.8516"/><text fill="#000000" font-family="sans-serif" font-size="13" lengthAdjust="spacing" textLength="35" x="924" y="334.7856">new()</text><rect fill="#E2E2F0" height="30.2969" rx="2.5" ry="2.5" style="stroke:#181818;stroke-width:0.5;" width="93" x="978.5" y="318.7188"/><text fill="#000000" font-family="sans-serif" font-size="14" lengthAdjust="spacing" text-decoration="underline" textLength="79" x="985.5" y="338.7139">shp: Shape</text><polygon fill="#181818" points="928,362.0156,918,366.0156,928,370.0156,924,366.0156" style="stroke:#181818;stroke-width:1.0;"/><line style="stroke:#181818;stroke-width:1.0;stroke-dasharray:2.0,2.0;" x1="922" x2="1024" y1="366.0156" y2="366.0156"/><polygon fill="#181818" points="596,391.1484,586,395.1484,596,399.1484,592,395.1484" style="stroke:#181818;stroke-width:1.0;"/><line style="stroke:#181818;stroke-width:1.0;stroke-dasharray:2.0,2.0;" x1="590" x2="911" y1="395.1484" y2="395.1484"/><text fill="#000000" font-family="sans-serif" font-size="13" lengthAdjust="spacing" textLength="161" x="602" y="390.0825">shp [assume shp != null]</text><line style="stroke:#181818;stroke-width:1.0;" x1="585" x2="632" y1="419.2813" y2="419.2813"/><line style="stroke:#181818;stroke-width:1.0;" x1="632" x2="632" y1="419.2813" y2="432.2813"/><line style="stroke:#181818;stroke-width:1.0;" x1="591" x2="632" y1="432.2813" y2="432.2813"/><polygon fill="#181818" points="601,428.2813,591,432.2813,601,436.2813,597,432.2813" style="stroke:#181818;stroke-width:1.0;"/><text fill="#000000" font-family="sans-serif" font-size="13" lengthAdjust="spacing" textLength="242" x="597" y="414.2153">initShapeFromDims(shp, lineScanner)</text><polygon fill="#181818" points="1008,462.4141,1018,466.4141,1008,470.4141,1012,466.4141" style="stroke:#181818;stroke-width:1.0;"/><line style="stroke:#181818;stroke-width:1.0;" x1="590" x2="1014" y1="466.4141" y2="466.4141"/><text fill="#000000" font-family="sans-serif" font-size="13" lengthAdjust="spacing" textLength="286" x="597" y="461.3481">createFromDims(dims) ["dims" is a double[]]</text><polygon fill="#181818" points="601,476.4141,591,480.4141,601,484.4141,597,480.4141" style="stroke:#181818;stroke-width:1.0;"/><line style="stroke:#181818;stroke-width:1.0;stroke-dasharray:2.0,2.0;" x1="595" x2="1024" y1="480.4141" y2="480.4141"/><line style="stroke:#181818;stroke-width:1.0;stroke-dasharray:2.0,2.0;" x1="590" x2="632" y1="514.5469" y2="514.5469"/><line style="stroke:#181818;stroke-width:1.0;stroke-dasharray:2.0,2.0;" x1="632" x2="632" y1="514.5469" y2="527.5469"/><line style="stroke:#181818;stroke-width:1.0;stroke-dasharray:2.0,2.0;" x1="585" x2="632" y1="527.5469" y2="527.5469"/><polygon fill="#181818" points="595,523.5469,585,527.5469,595,531.5469,591,527.5469" style="stroke:#181818;stroke-width:1.0;"/><text fill="#000000" font-family="sans-serif" font-size="13" lengthAdjust="spacing" textLength="23" x="597" y="509.481">shp</text><line style="stroke:#181818;stroke-width:1.0;stroke-dasharray:2.0,2.0;" x1="585" x2="627" y1="556.6797" y2="556.6797"/><line style="stroke:#181818;stroke-width:1.0;stroke-dasharray:2.0,2.0;" x1="627" x2="627" y1="556.6797" y2="569.6797"/><line style="stroke:#181818;stroke-width:1.0;stroke-dasharray:2.0,2.0;" x1="580" x2="627" y1="569.6797" y2="569.6797"/><polygon fill="#181818" points="590,565.6797,580,569.6797,590,573.6797,586,569.6797" style="stroke:#181818;stroke-width:1.0;"/><text fill="#000000" font-family="sans-serif" font-size="13" lengthAdjust="spacing" textLength="23" x="592" y="551.6138">shp</text><polygon fill="#181818" points="95.5,589.8125,85.5,593.8125,95.5,597.8125,91.5,593.8125" style="stroke:#181818;stroke-width:1.0;"/><line style="stroke:#181818;stroke-width:1.0;stroke-dasharray:2.0,2.0;" x1="89.5" x2="574" y1="593.8125" y2="593.8125"/><text fill="#000000" font-family="sans-serif" font-size="13" lengthAdjust="spacing" textLength="23" x="101.5" y="588.7466">shp</text><path d="M20,608.8125 L90,608.8125 L90,615.9453 L80,625.9453 L20,625.9453 L20,608.8125 " fill="#EEEEEE" style="stroke:#000000;stroke-width:1.5;"/><rect fill="none" height="60.2656" style="stroke:#000000;stroke-width:1.5;" width="483" x="20" y="608.8125"/><text fill="#000000" font-family="sans-serif" font-size="13" font-weight="bold" lengthAdjust="spacing" textLength="25" x="35" y="621.8794">opt</text><text fill="#000000" font-family="sans-serif" font-size="11" font-weight="bold" lengthAdjust="spacing" textLength="101" x="105" y="621.0229">[shp is not null]</text><polygon fill="#181818" points="388,643.0781,398,647.0781,388,651.0781,392,647.0781" style="stroke:#181818;stroke-width:1.0;"/><line style="stroke:#181818;stroke-width:1.0;" x1="84.5" x2="394" y1="647.0781" y2="647.0781"/><text fill="#000000" font-family="sans-serif" font-size="13" lengthAdjust="spacing" textLength="57" x="91.5" y="642.0122">add(shp)</text><polygon fill="#181818" points="95.5,657.0781,85.5,661.0781,95.5,665.0781,91.5,661.0781" style="stroke:#181818;stroke-width:1.0;"/><line style="stroke:#181818;stroke-width:1.0;stroke-dasharray:2.0,2.0;" x1="89.5" x2="404" y1="661.0781" y2="661.0781"/><polygon fill="#181818" points="563,700.2109,573,704.2109,563,708.2109,567,704.2109" style="stroke:#181818;stroke-width:1.0;"/><line style="stroke:#181818;stroke-width:1.0;" x1="79.5" x2="569" y1="704.2109" y2="704.2109"/><text fill="#000000" font-family="sans-serif" font-size="13" lengthAdjust="spacing" textLength="40" x="86.5" y="699.145">delete</text><line style="stroke:#A80036;stroke-width:2.0;" x1="566" x2="584" y1="695.2109" y2="713.2109"/><line style="stroke:#A80036;stroke-width:2.0;" x1="566" x2="584" y1="713.2109" y2="695.2109"/><!--SRC=[ZLF1Rjim3BthAnWVXWHOzm76biCm55XH34DxsA7mWR5eMAXDUHBLTdy_KMuSDrc12R1bYNoFxr4o9l7OYdj28V1iUcS9Ek_bu5zCV7GyOS0H8lrEn2tzn22kTHEoG69BON1CneYJWU06dn3k4j_tE564AX3Q2guJPtxFyCj93z-50eeFqPXfnLNL2wu2Z93ZYwgBt4FgEWhrrpAHlSjbA1JO736cpQKpichzC52fNj-wA9zBXNr9FOLCY72rNstKmFHi0aaAVE9oKX_5htcSlE9pN75GOiVCxQnejx2zDLrohxDJ7_uKjjWPCtW_PRPFFSOVz2BRdO4yraLq4nwoQT86v6E13pcY5QafoJgSNEqrNKzXnNCAAr_iQfWD5YbRnf4oDSQOnknPbnMu28_idxbvGw3Zs9lOJ_LiV7RHJnUfiTDocfURTAQb-9iRTBcbe4MHVc- -0ATXQCoPdzckOoTpMuCVlxanRZFc8-WzlM-HMG_Z75TapLuMbCslt8bAvz821ElJOQ27fZ7_BToyi_MwNDP-ak8jrs4lnTy9Ud4zqLfrjJF_q41iZJxBhOJDfWPB0maPI-k_wYy0]--></g></svg>