<?xml version="1.0" encoding="us-ascii" standalone="no"?><svg xmlns="http://www.w3.org/2000/svg" xmlns:xlink="http://www.w3.org/1999/xlink" contentStyleType="text/css" height="507px" preserveAspectRatio="none" style="width:935px;height:507px;background:#FFFFFF;" version="1.1" viewBox="0 0 935 507" width="935px" zoomAndPan="magnify"><defs/><g><!--cluster std--><g id="cluster_std"><path d="M393.5,398 L419.5,398 A3.75,3.75 0 0 1 422,400.5 L429,420.2969 L764.5,420.2969 A2.5,2.5 0 0 1 767,422.7969 L767,497.5 A2.5,2.5 0 0 1 764.5,500 L393.5,500 A2.5,2.5 0 0 1 391,497.5 L391,400.5 A2.5,2.5 0 0 1 393.5,398 " fill="none" style="stroke:#000000;stroke-width:1.5;"/><line style="stroke:#000000;stroke-width:1.5;" x1="391" x2="429" y1="420.2969" y2="420.2969"/><text fill="#000000" font-family="sans-serif" font-size="14" font-weight="bold" lengthAdjust="spacing" textLength="25" x="395" y="412.9951">std</text></g><!--class Iterator--><g id="elem_Iterator"><rect codeLine="40" fill="#F1F1F1" height="32" id="Iterator" rx="2.5" ry="2.5" style="stroke:#181818;stroke-width:0.5;" width="82" x="669" y="452"/><ellipse cx="684" cy="468" fill="#B4A7E5" rx="11" ry="11" style="stroke:#181818;stroke-width:1.0;"/><path d="M679.9219,463.7656 L679.9219,461.6094 L687.3125,461.6094 L687.3125,463.7656 L684.8438,463.7656 L684.8438,471.8438 L687.3125,471.8438 L687.3125,474 L679.9219,474 L679.9219,471.8438 L682.3906,471.8438 L682.3906,463.7656 L679.9219,463.7656 Z " fill="#000000"/><text fill="#000000" font-family="sans-serif" font-size="14" font-style="italic" lengthAdjust="spacing" textLength="50" x="698" y="472.8467">Iterator</text></g><!--class Container--><g id="elem_Container"><rect codeLine="44" fill="#F1F1F1" height="32" id="Container" rx="2.5" ry="2.5" style="stroke:#181818;stroke-width:0.5;" width="99" x="534.5" y="452"/><ellipse cx="549.5" cy="468" fill="#B4A7E5" rx="11" ry="11" style="stroke:#181818;stroke-width:1.0;"/><path d="M545.4219,463.7656 L545.4219,461.6094 L552.8125,461.6094 L552.8125,463.7656 L550.3438,463.7656 L550.3438,471.8438 L552.8125,471.8438 L552.8125,474 L545.4219,474 L545.4219,471.8438 L547.8906,471.8438 L547.8906,463.7656 L545.4219,463.7656 Z " fill="#000000"/><text fill="#000000" font-family="sans-serif" font-size="14" font-style="italic" lengthAdjust="spacing" textLength="67" x="563.5" y="472.8467">Container</text></g><!--class Allocator--><g id="elem_Allocator"><rect codeLine="48" fill="#F1F1F1" height="32" id="Allocator" rx="2.5" ry="2.5" style="stroke:#181818;stroke-width:0.5;" width="92" x="407" y="452"/><ellipse cx="422" cy="468" fill="#B4A7E5" rx="11" ry="11" style="stroke:#181818;stroke-width:1.0;"/><path d="M417.9219,463.7656 L417.9219,461.6094 L425.3125,461.6094 L425.3125,463.7656 L422.8438,463.7656 L422.8438,471.8438 L425.3125,471.8438 L425.3125,474 L417.9219,474 L417.9219,471.8438 L420.3906,471.8438 L420.3906,463.7656 L417.9219,463.7656 Z " fill="#000000"/><text fill="#000000" font-family="sans-serif" font-size="14" font-style="italic" lengthAdjust="spacing" textLength="60" x="436" y="472.8467">Allocator</text></g><!--class Node--><g id="elem_Node"><rect codeLine="4" fill="#F1F1F1" height="80.8594" id="Node" rx="2.5" ry="2.5" style="stroke:#181818;stroke-width:0.5;" width="107" x="724.5" y="185"/><ellipse cx="743.55" cy="205.1328" fill="#ADD1B2" rx="11" ry="11" style="stroke:#181818;stroke-width:1.0;"/><path d="M746.5188,210.7734 Q745.9406,211.0703 745.3,211.2109 Q744.6594,211.3672 743.9563,211.3672 Q741.4563,211.3672 740.1281,209.7266 Q738.8156,208.0703 738.8156,204.9453 Q738.8156,201.8203 740.1281,200.1641 Q741.4563,198.5078 743.9563,198.5078 Q744.6594,198.5078 745.3,198.6641 Q745.9563,198.8203 746.5188,199.1172 L746.5188,201.8359 Q745.8938,201.2578 745.3,200.9922 Q744.7063,200.7109 744.0813,200.7109 Q742.7375,200.7109 742.05,201.7891 Q741.3625,202.8516 741.3625,204.9453 Q741.3625,207.0391 742.05,208.1172 Q742.7375,209.1797 744.0813,209.1797 Q744.7063,209.1797 745.3,208.9141 Q745.8938,208.6328 746.5188,208.0547 L746.5188,210.7734 Z " fill="#000000"/><text fill="#000000" font-family="sans-serif" font-size="12" font-style="italic" lengthAdjust="spacing" textLength="70" x="756.45" y="201.1387">&#171;template&#187;</text><text fill="#000000" font-family="sans-serif" font-size="14" lengthAdjust="spacing" textLength="37" x="772.95" y="216.9639">Node</text><line style="stroke:#181818;stroke-width:0.5;" x1="725.5" x2="830.5" y1="225.2656" y2="225.2656"/><text fill="#000000" font-family="sans-serif" font-size="14" lengthAdjust="spacing" textLength="60" x="730.5" y="242.2607">+data: T</text><text fill="#000000" font-family="sans-serif" font-size="14" lengthAdjust="spacing" textLength="95" x="730.5" y="258.5576">+next: Node*</text></g><!--class LinkedList--><g id="elem_LinkedList"><rect codeLine="9" fill="#F1F1F1" height="219.2344" id="LinkedList" rx="2.5" ry="2.5" style="stroke:#181818;stroke-width:0.5;" width="211" x="478.5" y="116"/><ellipse cx="545.75" cy="136.1328" fill="#ADD1B2" rx="11" ry="11" style="stroke:#181818;stroke-width:1.0;"/><path d="M548.7188,141.7734 Q548.1406,142.0703 547.5,142.2109 Q546.8594,142.3672 546.1563,142.3672 Q543.6563,142.3672 542.3281,140.7266 Q541.0156,139.0703 541.0156,135.9453 Q541.0156,132.8203 542.3281,131.1641 Q543.6563,129.5078 546.1563,129.5078 Q546.8594,129.5078 547.5,129.6641 Q548.1563,129.8203 548.7188,130.1172 L548.7188,132.8359 Q548.0938,132.2578 547.5,131.9922 Q546.9063,131.7109 546.2813,131.7109 Q544.9375,131.7109 544.25,132.7891 Q543.5625,133.8516 543.5625,135.9453 Q543.5625,138.0391 544.25,139.1172 Q544.9375,140.1797 546.2813,140.1797 Q546.9063,140.1797 547.5,139.9141 Q548.0938,139.6328 548.7188,139.0547 L548.7188,141.7734 Z " fill="#000000"/><text fill="#000000" font-family="sans-serif" font-size="12" font-style="italic" lengthAdjust="spacing" textLength="70" x="565.25" y="132.1387">&#171;template&#187;</text><text fill="#000000" font-family="sans-serif" font-size="14" lengthAdjust="spacing" textLength="68" x="566.25" y="147.9639">LinkedList</text><line style="stroke:#181818;stroke-width:0.5;" x1="479.5" x2="688.5" y1="156.2656" y2="156.2656"/><text fill="#000000" font-family="sans-serif" font-size="14" lengthAdjust="spacing" textLength="93" x="484.5" y="173.2607">-head: Node*</text><text fill="#000000" font-family="sans-serif" font-size="14" lengthAdjust="spacing" textLength="77" x="484.5" y="189.5576">-tail: Node*</text><text fill="#000000" font-family="sans-serif" font-size="14" lengthAdjust="spacing" textLength="110" x="484.5" y="205.8545">-currentSize: int</text><line style="stroke:#181818;stroke-width:0.5;" x1="479.5" x2="688.5" y1="213.1563" y2="213.1563"/><text fill="#000000" font-family="sans-serif" font-size="14" lengthAdjust="spacing" textLength="199" x="484.5" y="230.1514">+push_back(date: T) -&gt; void</text><text fill="#000000" font-family="sans-serif" font-size="14" lengthAdjust="spacing" textLength="92" x="484.5" y="246.4482">+size() -&gt; int</text><text fill="#000000" font-family="sans-serif" font-size="14" lengthAdjust="spacing" textLength="4" x="484.5" y="262.7451">&#160;</text><text fill="#000000" font-family="sans-serif" font-size="14" lengthAdjust="spacing" textLength="135" x="484.5" y="279.042">+begin() -&gt; iterator</text><text fill="#000000" font-family="sans-serif" font-size="14" lengthAdjust="spacing" textLength="123" x="484.5" y="295.3389">+end() -&gt; iterator</text><text fill="#000000" font-family="sans-serif" font-size="14" lengthAdjust="spacing" textLength="181" x="484.5" y="311.6357">+begin() -&gt; const_iterator</text><text fill="#000000" font-family="sans-serif" font-size="14" lengthAdjust="spacing" textLength="169" x="484.5" y="327.9326">+end() -&gt; const_iterator</text></g><!--class NaivePool--><g id="elem_NaivePool"><rect codeLine="23" fill="#F1F1F1" height="186.6406" id="NaivePool" rx="2.5" ry="2.5" style="stroke:#181818;stroke-width:0.5;" width="312" x="7" y="132"/><ellipse cx="125.25" cy="152.1328" fill="#ADD1B2" rx="11" ry="11" style="stroke:#181818;stroke-width:1.0;"/><path d="M128.2188,157.7734 Q127.6406,158.0703 127,158.2109 Q126.3594,158.3672 125.6563,158.3672 Q123.1563,158.3672 121.8281,156.7266 Q120.5156,155.0703 120.5156,151.9453 Q120.5156,148.8203 121.8281,147.1641 Q123.1563,145.5078 125.6563,145.5078 Q126.3594,145.5078 127,145.6641 Q127.6563,145.8203 128.2188,146.1172 L128.2188,148.8359 Q127.5938,148.2578 127,147.9922 Q126.4063,147.7109 125.7813,147.7109 Q124.4375,147.7109 123.75,148.7891 Q123.0625,149.8516 123.0625,151.9453 Q123.0625,154.0391 123.75,155.1172 Q124.4375,156.1797 125.7813,156.1797 Q126.4063,156.1797 127,155.9141 Q127.5938,155.6328 128.2188,155.0547 L128.2188,157.7734 Z " fill="#000000"/><text fill="#000000" font-family="sans-serif" font-size="12" font-style="italic" lengthAdjust="spacing" textLength="70" x="144.25" y="148.1387">&#171;template&#187;</text><text fill="#000000" font-family="sans-serif" font-size="14" lengthAdjust="spacing" textLength="67" x="145.75" y="163.9639">NaivePool</text><line style="stroke:#181818;stroke-width:0.5;" x1="8" x2="318" y1="172.2656" y2="172.2656"/><text fill="#000000" font-family="sans-serif" font-size="14" lengthAdjust="spacing" textLength="104" x="13" y="189.2607">-thePools: T[][]</text><text fill="#000000" font-family="sans-serif" font-size="14" lengthAdjust="spacing" textLength="100" x="13" y="205.5576">-numPools: int</text><text fill="#000000" font-family="sans-serif" font-size="14" lengthAdjust="spacing" textLength="129" x="13" y="221.8545">-blocksPerPool: int</text><text fill="#000000" font-family="sans-serif" font-size="14" lengthAdjust="spacing" textLength="203" x="13" y="238.1514">-nextAvailBlock: pair&lt;int, int&gt;</text><line style="stroke:#181818;stroke-width:0.5;" x1="8" x2="318" y1="245.4531" y2="245.4531"/><text fill="#000000" font-family="sans-serif" font-size="14" lengthAdjust="spacing" textLength="300" x="13" y="262.4482">+NaivePool(bSize: int = 8, preAlloc: int = 1)</text><text fill="#000000" font-family="sans-serif" font-size="14" lengthAdjust="spacing" textLength="101" x="13" y="278.7451">+~NaivePool()</text><text fill="#000000" font-family="sans-serif" font-size="14" lengthAdjust="spacing" textLength="117" x="13" y="295.042">+getNext() -&gt; T*</text><text fill="#000000" font-family="sans-serif" font-size="14" lengthAdjust="spacing" textLength="98" x="13" y="311.3389">-reserveNext()</text></g><!--class LinkedList::Iterator--><g id="elem_LinkedList::Iterator"><rect codeLine="35" fill="#F1F1F1" height="32" id="LinkedList::Iterator" rx="2.5" ry="2.5" style="stroke:#181818;stroke-width:0.5;" width="159" x="698.5" y="7"/><ellipse cx="713.5" cy="23" fill="#ADD1B2" rx="11" ry="11" style="stroke:#181818;stroke-width:1.0;"/><path d="M716.4688,28.6406 Q715.8906,28.9375 715.25,29.0781 Q714.6094,29.2344 713.9063,29.2344 Q711.4063,29.2344 710.0781,27.5938 Q708.7656,25.9375 708.7656,22.8125 Q708.7656,19.6875 710.0781,18.0313 Q711.4063,16.375 713.9063,16.375 Q714.6094,16.375 715.25,16.5313 Q715.9063,16.6875 716.4688,16.9844 L716.4688,19.7031 Q715.8438,19.125 715.25,18.8594 Q714.6563,18.5781 714.0313,18.5781 Q712.6875,18.5781 712,19.6563 Q711.3125,20.7188 711.3125,22.8125 Q711.3125,24.9063 712,25.9844 Q712.6875,27.0469 714.0313,27.0469 Q714.6563,27.0469 715.25,26.7813 Q715.8438,26.5 716.4688,25.9219 L716.4688,28.6406 Z " fill="#000000"/><text fill="#000000" font-family="sans-serif" font-size="14" lengthAdjust="spacing" textLength="127" x="727.5" y="27.8467">LinkedList::Iterator</text></g><!--link NaivePool to Node--><g id="link_NaivePool_Node"><path codeLine="53" d="M298.984,131.998 C328.886,115.901 361.279,101.601 393.5,93 C460.991,74.984 647.858,78.827 707,116 C732.417,131.975 747.9405,155.3408 759.5145,179.3838 " fill="none" id="NaivePool-to-Node" style="stroke:#0000FF;stroke-width:1.0;"/><polygon fill="#0000FF" points="762.117,184.79,761.8174,174.9457,759.9483,180.2848,754.6091,178.4157,762.117,184.79" style="stroke:#0000FF;stroke-width:1.0;"/><text fill="#000000" font-family="sans-serif" font-size="13" lengthAdjust="spacing" textLength="131" x="394.5" y="82.0669">handles allocation of</text></g><!--link NaivePool to LinkedList--><g id="link_NaivePool_LinkedList"><path codeLine="54" d="M319.167,225.5 C372.17,225.5 424.106,225.5 472.238,225.5 " fill="none" id="NaivePool-to-LinkedList" style="stroke:#0000FF;stroke-width:1.0;"/><polygon fill="#0000FF" points="478.238,225.5,469.238,221.5,473.238,225.5,469.238,229.5,478.238,225.5" style="stroke:#0000FF;stroke-width:1.0;"/><text fill="#000000" font-family="sans-serif" font-size="13" lengthAdjust="spacing" textLength="123" x="337.25" y="218.5669">allocates Nodes for</text></g><!--reverse link LinkedList to Node--><g id="link_LinkedList_Node"><path codeLine="55" d="M701.715,225.5 C713.21,225.5 712.706,225.5 724.201,225.5 " fill="none" id="LinkedList-backto-Node" style="stroke:#181818;stroke-width:1.0;"/><polygon fill="none" points="689.715,225.5,695.715,229.5,701.715,225.5,695.715,221.5,689.715,225.5" style="stroke:#181818;stroke-width:1.0;"/></g><!--link LinkedList::Iterator to Node--><g id="link_LinkedList::Iterator_Node"><path codeLine="57" d="M778,39.07 C778,69.67 778,133.966 778,178.678 " fill="none" id="LinkedList::Iterator-to-Node" style="stroke:#181818;stroke-width:1.0;"/><polygon fill="#181818" points="778,184.678,782,175.678,778,179.678,774,175.678,778,184.678" style="stroke:#181818;stroke-width:1.0;"/></g><!--reverse link LinkedList::Iterator to LinkedList--><g id="link_LinkedList::Iterator_LinkedList"><path codeLine="58" d="M748.4534,42.3551 C736.0404,50.5051 726.096,57.874 714,69 C698.461,83.293 683.065,99.428 668.598,115.756 " fill="none" id="LinkedList::Iterator-backto-LinkedList" style="stroke:#181818;stroke-width:1.0;"/><polygon fill="#181818" points="753.469,39.062,743.7503,40.6579,749.2894,41.8062,748.141,47.3453,753.469,39.062" style="stroke:#181818;stroke-width:1.0;"/><text fill="#000000" font-family="sans-serif" font-size="13" lengthAdjust="spacing" textLength="54" x="715" y="82.0669">provides</text></g><!--link LinkedList::Iterator to Iterator--><g id="link_LinkedList::Iterator_Iterator"><path codeLine="60" d="M795.1,39.28 C812.504,56.087 838.386,84.874 849,116 C880.414,208.124 887.406,245.564 849,335 C825.954,388.667 784.384,421.1527 750.957,442.3364 " fill="none" id="LinkedList::Iterator-to-Iterator" style="stroke:#008000;stroke-width:1.0;stroke-dasharray:7.0,7.0;"/><polygon fill="none" points="735.753,451.9716,754.1688,447.4044,747.7453,437.2684,735.753,451.9716" style="stroke:#008000;stroke-width:1.0;"/><text fill="#000000" font-family="sans-serif" font-size="13" lengthAdjust="spacing" textLength="50" x="877" y="230.0669">partially</text></g><!--link LinkedList to Container--><g id="link_LinkedList_Container"><path codeLine="61" d="M584,335.14 C584,380.452 584,409.982 584,433.6744 " fill="none" id="LinkedList-to-Container" style="stroke:#008000;stroke-width:1.0;stroke-dasharray:7.0,7.0;"/><polygon fill="none" points="584,451.6744,590,433.6744,578,433.6744,584,451.6744" style="stroke:#008000;stroke-width:1.0;"/><text fill="#000000" font-family="sans-serif" font-size="13" lengthAdjust="spacing" textLength="50" x="585" y="378.0669">partially</text></g><!--link NaivePool to Allocator--><g id="link_NaivePool_Allocator"><path codeLine="63" d="M274.707,319.14 C334.701,368.893 388.8775,413.8232 420.7875,440.2859 " fill="none" id="NaivePool-to-Allocator" style="stroke:#008000;stroke-width:1.0;stroke-dasharray:7.0,7.0;"/><polygon fill="none" points="434.643,451.7761,424.6176,435.6674,416.9574,444.9044,434.643,451.7761" style="stroke:#008000;stroke-width:1.0;"/><text fill="#000000" font-family="sans-serif" font-size="13" lengthAdjust="spacing" textLength="34" x="344" y="378.0669">fakes</text></g><!--SRC=[TLDDRwCm4BtxLupe9TsMQlUsGYbIsbEaAghKtAAeCZ095c0Zsw1skztVlcCm52h2ZVVXcNbZcqB8ccjUGLfoOpRMQf4q5hUfaY_Y3y9FbeiC0QlQlaE5LOBQCDQ9OQU8MQyjaIMt6CVmmO2-6yYuvH7i_P_4DnjrwX_iSp0_2LbWzYICNJeYX1nvDfXwn79Hpf6qqHgbTOr68AHblc3TcFmruMcneaQ8sbz364EhHEO5XXoh3fou4ZmBwL6BcbkbFOCoMyGd3ihBsDTBlc_i6CAEYnQVbIgNCx1vHngQu70y73qgcygZhlaUIqgL5kOPjMEcXCj-qr9o3quHGSs5NXDzwpJnCFhOnoePmuHx-7qBjSPDITO1-dNjBV- -F0DqHhkZSlt8-s596Wtg5djcQVzHjFN1qE1EKDFc-1d1sCn7iPMaEF4KOIfrp2Vx9dXKaYwAnCkARfxv6QJvMaLuk4hA1eznTzSY278kin8DyDueb0Hr2XOTawaWy7hiNug1az81cznx5JgSiSKemh2llyokmt1UgzQgfOTgWWl7tHskpXfH7k_-ncE8piUr5TJe-wopcNfCT2wVp3-JZ_6I_CGBrz9_]--></g></svg>