<?xml version="1.0" encoding="UTF-8" standalone="yes"?><svg xmlns="http://www.w3.org/2000/svg" xmlns:xlink="http://www.w3.org/1999/xlink" height="595px" style="width:650px;height:595px;" version="1.1" viewBox="0 0 650 595" width="650px"><defs><filter height="300%" id="f1" width="300%" x="-1" y="-1"><feGaussianBlur result="blurOut" stdDeviation="2.0"/><feColorMatrix in="blurOut" result="blurOut2" type="matrix" values="0 0 0 0 0 0 0 0 0 0 0 0 0 0 0 0 0 0 .4 0"/><feOffset dx="4.0" dy="4.0" in="blurOut2" result="blurOut3"/><feBlend in="SourceGraphic" in2="blurOut3" mode="normal"/></filter></defs><g><rect fill="#FEFECE" filter="url(#f1)" height="150.4375" style="stroke: #A80036; stroke-width: 1.5;" width="325" x="6" y="78.5"/><ellipse cx="145.75" cy="94.5" fill="#ADD1B2" rx="11" ry="11" style="stroke: #A80036; stroke-width: 1.0;"/><path d="M148.7188,100.1406 Q148.1406,100.4375 147.5,100.5859 Q146.8594,100.7344 146.1563,100.7344 Q143.6563,100.7344 142.3359,99.0859 Q141.0156,97.4375 141.0156,94.3125 Q141.0156,91.1875 142.3359,89.5313 Q143.6563,87.875 146.1563,87.875 Q146.8594,87.875 147.5078,88.0313 Q148.1563,88.1875 148.7188,88.4844 L148.7188,91.2031 Q148.0938,90.625 147.5,90.3516 Q146.9063,90.0781 146.2813,90.0781 Q144.9375,90.0781 144.25,91.1484 Q143.5625,92.2188 143.5625,94.3125 Q143.5625,96.4063 144.25,97.4766 Q144.9375,98.5469 146.2813,98.5469 Q146.9063,98.5469 147.5,98.2734 Q148.0938,98 148.7188,97.4219 L148.7188,100.1406 Z "/><text fill="#000000" font-family="sans-serif" font-size="12" lengthAdjust="spacingAndGlyphs" textLength="37" x="166.25" y="98.6543">Board</text><line style="stroke: #A80036; stroke-width: 1.5;" x1="7" x2="330" y1="110.5" y2="110.5"/><text fill="#000000" font-family="sans-serif" font-size="11" lengthAdjust="spacingAndGlyphs" textLength="209" x="12" y="124.7104">-theBoard : std::array&lt;CellValue, 9&gt;</text><text fill="#000000" font-family="sans-serif" font-size="11" lengthAdjust="spacingAndGlyphs" textLength="105" x="12" y="137.5151">+CellTriple : using</text><line style="stroke: #A80036; stroke-width: 1.5;" x1="7" x2="330" y1="144.1094" y2="144.1094"/><text fill="#000000" font-family="sans-serif" font-size="11" lengthAdjust="spacingAndGlyphs" textLength="51" x="12" y="158.3198">+Board()</text><text fill="#000000" font-family="sans-serif" font-size="11" lengthAdjust="spacingAndGlyphs" textLength="313" x="12" y="171.1245">+get3Cells(int cell1Id, int cell2Id, int cell3Id) : CellTriple</text><text fill="#000000" font-family="sans-serif" font-size="11" lengthAdjust="spacingAndGlyphs" textLength="148" x="12" y="183.9292">+getCell(int id) : CellValue</text><text fill="#000000" font-family="sans-serif" font-size="11" lengthAdjust="spacingAndGlyphs" textLength="82" x="12" y="196.7339">+isFull() : bool</text><text fill="#000000" font-family="sans-serif" font-size="11" lengthAdjust="spacingAndGlyphs" textLength="205" x="12" y="209.5386">+display(std::ostream&amp; outs) : void</text><text fill="#000000" font-family="sans-serif" font-size="11" lengthAdjust="spacingAndGlyphs" textLength="237" x="12" y="222.3433">+setCell(int id, CellValue newValue) : void</text><rect fill="#FEFECE" filter="url(#f1)" height="291.2891" style="stroke: #A80036; stroke-width: 1.5;" width="203" x="366" y="8"/><ellipse cx="445.25" cy="24" fill="#ADD1B2" rx="11" ry="11" style="stroke: #A80036; stroke-width: 1.0;"/><path d="M448.2188,29.6406 Q447.6406,29.9375 447,30.0859 Q446.3594,30.2344 445.6563,30.2344 Q443.1563,30.2344 441.8359,28.5859 Q440.5156,26.9375 440.5156,23.8125 Q440.5156,20.6875 441.8359,19.0313 Q443.1563,17.375 445.6563,17.375 Q446.3594,17.375 447.0078,17.5313 Q447.6563,17.6875 448.2188,17.9844 L448.2188,20.7031 Q447.5938,20.125 447,19.8516 Q446.4063,19.5781 445.7813,19.5781 Q444.4375,19.5781 443.75,20.6484 Q443.0625,21.7188 443.0625,23.8125 Q443.0625,25.9063 443.75,26.9766 Q444.4375,28.0469 445.7813,28.0469 Q446.4063,28.0469 447,27.7734 Q447.5938,27.5 448.2188,26.9219 L448.2188,29.6406 Z "/><text fill="#000000" font-family="sans-serif" font-size="12" lengthAdjust="spacingAndGlyphs" textLength="36" x="465.75" y="28.1543">Game</text><line style="stroke: #A80036; stroke-width: 1.5;" x1="367" x2="568" y1="40" y2="40"/><text fill="#000000" font-family="sans-serif" font-size="11" lengthAdjust="spacingAndGlyphs" textLength="83" x="372" y="54.2104">-board : Board</text><text fill="#000000" font-family="sans-serif" font-size="11" lengthAdjust="spacingAndGlyphs" textLength="103" x="372" y="67.0151">-player1 : Player&amp;</text><text fill="#000000" font-family="sans-serif" font-size="11" lengthAdjust="spacingAndGlyphs" textLength="103" x="372" y="79.8198">-player2 : Player&amp;</text><text fill="#000000" font-family="sans-serif" font-size="11" lengthAdjust="spacingAndGlyphs" textLength="95" x="372" y="92.6245">-winner : Player*</text><text fill="#000000" font-family="sans-serif" font-size="11" lengthAdjust="spacingAndGlyphs" textLength="76" x="372" y="105.4292">-ref : Referee</text><text fill="#000000" font-family="sans-serif" font-size="11" lengthAdjust="spacingAndGlyphs" textLength="121" x="372" y="118.2339">-numMovesMade : int</text><line style="stroke: #A80036; stroke-width: 1.5;" x1="367" x2="568" y1="124.8281" y2="124.8281"/><text fill="#000000" font-family="sans-serif" font-size="11" lengthAdjust="spacingAndGlyphs" textLength="51" x="372" y="139.0386">+Game()</text><text fill="#000000" font-family="sans-serif" font-size="11" lengthAdjust="spacingAndGlyphs" textLength="185" x="372" y="151.8433">+Game(Player&amp; p1, Player&amp; p2)</text><text fill="#000000" font-family="sans-serif" font-size="11" lengthAdjust="spacingAndGlyphs" textLength="125" x="372" y="164.6479">+getBoard() : Board&amp;</text><text fill="#000000" font-family="sans-serif" font-size="11" lengthAdjust="spacingAndGlyphs" textLength="124" x="372" y="177.4526">+getLoser() : Player&amp;</text><text fill="#000000" font-family="sans-serif" font-size="11" lengthAdjust="spacingAndGlyphs" textLength="134" x="372" y="190.2573">+getPlayer1() : Player&amp;</text><text fill="#000000" font-family="sans-serif" font-size="11" lengthAdjust="spacingAndGlyphs" textLength="134" x="372" y="203.062">+getPlayer2() : Player&amp;</text><text fill="#000000" font-family="sans-serif" font-size="11" lengthAdjust="spacingAndGlyphs" textLength="130" x="372" y="215.8667">+getWinner() : Player&amp;</text><text fill="#000000" font-family="sans-serif" font-size="11" lengthAdjust="spacingAndGlyphs" textLength="169" x="372" y="228.6714">+endedWithStalemate() : bool</text><text fill="#000000" font-family="sans-serif" font-size="11" lengthAdjust="spacingAndGlyphs" textLength="130" x="372" y="241.4761">+endedWithWin() : bool</text><text fill="#000000" font-family="sans-serif" font-size="11" lengthAdjust="spacingAndGlyphs" textLength="109" x="372" y="254.2808">+isNotOver() : bool</text><text fill="#000000" font-family="sans-serif" font-size="11" lengthAdjust="spacingAndGlyphs" textLength="90" x="372" y="267.0854">+isOver() : bool</text><text fill="#000000" font-family="sans-serif" font-size="11" lengthAdjust="spacingAndGlyphs" textLength="111" x="372" y="279.8901">+playRound() : bool</text><text fill="#000000" font-family="sans-serif" font-size="11" lengthAdjust="spacingAndGlyphs" textLength="191" x="372" y="292.6948">-roundTurn(Player&amp; player) : bool</text><rect fill="#FEFECE" filter="url(#f1)" height="176.0469" style="stroke: #A80036; stroke-width: 1.5;" width="312" x="12.5" y="384.5"/><ellipse cx="117.75" cy="400.5" fill="#ADD1B2" rx="11" ry="11" style="stroke: #A80036; stroke-width: 1.0;"/><path d="M120.7188,406.1406 Q120.1406,406.4375 119.5,406.5859 Q118.8594,406.7344 118.1563,406.7344 Q115.6563,406.7344 114.3359,405.0859 Q113.0156,403.4375 113.0156,400.3125 Q113.0156,397.1875 114.3359,395.5313 Q115.6563,393.875 118.1563,393.875 Q118.8594,393.875 119.5078,394.0313 Q120.1563,394.1875 120.7188,394.4844 L120.7188,397.2031 Q120.0938,396.625 119.5,396.3516 Q118.9063,396.0781 118.2813,396.0781 Q116.9375,396.0781 116.25,397.1484 Q115.5625,398.2188 115.5625,400.3125 Q115.5625,402.4063 116.25,403.4766 Q116.9375,404.5469 118.2813,404.5469 Q118.9063,404.5469 119.5,404.2734 Q120.0938,404 120.7188,403.4219 L120.7188,406.1406 Z "/><text fill="#000000" font-family="sans-serif" font-size="12" lengthAdjust="spacingAndGlyphs" textLength="93" x="138.25" y="404.6543">Game::Referee</text><line style="stroke: #A80036; stroke-width: 1.5;" x1="13.5" x2="323.5" y1="416.5" y2="416.5"/><text fill="#000000" font-family="sans-serif" font-size="11" lengthAdjust="spacingAndGlyphs" textLength="146" x="18.5" y="430.7104">-boardRef : const Board&amp;</text><line style="stroke: #A80036; stroke-width: 1.5;" x1="13.5" x2="323.5" y1="437.3047" y2="437.3047"/><text fill="#000000" font-family="sans-serif" font-size="11" lengthAdjust="spacingAndGlyphs" textLength="61" x="18.5" y="451.5151">+Referee()</text><text fill="#000000" font-family="sans-serif" font-size="11" lengthAdjust="spacingAndGlyphs" textLength="151" x="18.5" y="464.3198">+Referee(const Board&amp; b)</text><text fill="#000000" font-family="sans-serif" font-size="11" lengthAdjust="spacingAndGlyphs" textLength="300" x="18.5" y="477.1245">-allThreeMatch(const Board::CellTriple&amp; triple) : bool</text><text fill="#000000" font-family="sans-serif" font-size="11" lengthAdjust="spacingAndGlyphs" textLength="216" x="18.5" y="489.9292">+selectedCellIsEmpty(int move) : bool</text><text fill="#000000" font-family="sans-serif" font-size="11" lengthAdjust="spacingAndGlyphs" textLength="156" x="18.5" y="502.7339">-checkForDiagonalWin() : int</text><text fill="#000000" font-family="sans-serif" font-size="11" lengthAdjust="spacingAndGlyphs" textLength="163" x="18.5" y="515.5386">-checkForHorizontalWin() : int</text><text fill="#000000" font-family="sans-serif" font-size="11" lengthAdjust="spacingAndGlyphs" textLength="149" x="18.5" y="528.3433">-checkForVerticalWin() : int</text><text fill="#000000" font-family="sans-serif" font-size="11" lengthAdjust="spacingAndGlyphs" textLength="112" x="18.5" y="541.1479">+checkForWin() : int</text><text fill="#000000" font-family="sans-serif" font-size="11" lengthAdjust="spacingAndGlyphs" textLength="223" x="18.5" y="553.9526">-playerNumFromSymbol(char sym) : int</text><rect fill="#FEFECE" filter="url(#f1)" height="227.2656" style="stroke: #A80036; stroke-width: 1.5;" width="282" x="359.5" y="359"/><ellipse cx="477.25" cy="375" fill="#ADD1B2" rx="11" ry="11" style="stroke: #A80036; stroke-width: 1.0;"/><path d="M480.2188,380.6406 Q479.6406,380.9375 479,381.0859 Q478.3594,381.2344 477.6563,381.2344 Q475.1563,381.2344 473.8359,379.5859 Q472.5156,377.9375 472.5156,374.8125 Q472.5156,371.6875 473.8359,370.0313 Q475.1563,368.375 477.6563,368.375 Q478.3594,368.375 479.0078,368.5313 Q479.6563,368.6875 480.2188,368.9844 L480.2188,371.7031 Q479.5938,371.125 479,370.8516 Q478.4063,370.5781 477.7813,370.5781 Q476.4375,370.5781 475.75,371.6484 Q475.0625,372.7188 475.0625,374.8125 Q475.0625,376.9063 475.75,377.9766 Q476.4375,379.0469 477.7813,379.0469 Q478.4063,379.0469 479,378.7734 Q479.5938,378.5 480.2188,377.9219 L480.2188,380.6406 Z "/><text fill="#000000" font-family="sans-serif" font-size="12" lengthAdjust="spacingAndGlyphs" textLength="38" x="497.75" y="379.1543">Player</text><line style="stroke: #A80036; stroke-width: 1.5;" x1="360.5" x2="640.5" y1="391" y2="391"/><text fill="#000000" font-family="sans-serif" font-size="11" lengthAdjust="spacingAndGlyphs" textLength="82" x="365.5" y="405.2104">-symbol : char</text><text fill="#000000" font-family="sans-serif" font-size="11" lengthAdjust="spacingAndGlyphs" text-decoration="underline" textLength="212" x="365.5" y="418.0151">+referenceCylon : static const Player</text><line style="stroke: #000000; stroke-width: 1.0;" x1="365.5" x2="577.5" y1="420.0151" y2="420.0151"/><text fill="#000000" font-family="sans-serif" font-size="11" lengthAdjust="spacingAndGlyphs" text-decoration="underline" textLength="188" x="365.5" y="430.8198">-PROMPT_MSG : static std::string</text><line style="stroke: #000000; stroke-width: 1.0;" x1="365.5" x2="553.5" y1="432.8198" y2="432.8198"/><text fill="#000000" font-family="sans-serif" font-size="11" lengthAdjust="spacingAndGlyphs" textLength="107" x="365.5" y="443.6245">-name : std::string</text><line style="stroke: #A80036; stroke-width: 1.5;" x1="360.5" x2="640.5" y1="450.2188" y2="450.2188"/><text fill="#000000" font-family="sans-serif" font-size="11" lengthAdjust="spacingAndGlyphs" textLength="52" x="365.5" y="464.4292">+Player()</text><text fill="#000000" font-family="sans-serif" font-size="11" lengthAdjust="spacingAndGlyphs" textLength="122" x="365.5" y="477.2339">+Player(std::string n)</text><text fill="#000000" font-family="sans-serif" font-size="11" lengthAdjust="spacingAndGlyphs" textLength="119" x="365.5" y="490.0386">+isComputer() : bool</text><text fill="#000000" font-family="sans-serif" font-size="11" lengthAdjust="spacingAndGlyphs" text-decoration="underline" textLength="270" x="365.5" y="502.8433">+isGeneric(const Player&amp; possibleCylon) : bool</text><line style="stroke: #000000; stroke-width: 1.0;" x1="365.5" x2="635.5" y1="504.8433" y2="504.8433"/><text fill="#000000" font-family="sans-serif" font-size="11" lengthAdjust="spacingAndGlyphs" textLength="103" x="365.5" y="515.6479">+isHuman() : bool</text><text fill="#000000" font-family="sans-serif" font-size="11" lengthAdjust="spacingAndGlyphs" textLength="114" x="365.5" y="528.4526">+getSymbol() : char</text><text fill="#000000" font-family="sans-serif" font-size="11" lengthAdjust="spacingAndGlyphs" textLength="96" x="365.5" y="541.2573">+nextMove() : int</text><text fill="#000000" font-family="sans-serif" font-size="11" lengthAdjust="spacingAndGlyphs" textLength="139" x="365.5" y="554.062">+getName() : std::string</text><text fill="#000000" font-family="sans-serif" font-size="11" lengthAdjust="spacingAndGlyphs" textLength="173" x="365.5" y="566.8667">+setName(std::string n) : void</text><text fill="#000000" font-family="sans-serif" font-size="11" lengthAdjust="spacingAndGlyphs" textLength="206" x="365.5" y="579.6714">+setSymbol(char newSymbol) : void</text></g></svg>