<?xml version="1.0" encoding="UTF-8" standalone="no"?><svg xmlns="http://www.w3.org/2000/svg" xmlns:xlink="http://www.w3.org/1999/xlink" contentScriptType="application/ecmascript" contentStyleType="text/css" height="878px" preserveAspectRatio="none" style="width:1260px;height:878px;" version="1.1" viewBox="0 0 1260 878" width="1260px" zoomAndPan="magnify"><defs><filter height="300%" id="fqxjs33yywm5a" width="300%" x="-1" y="-1"><feGaussianBlur result="blurOut" stdDeviation="2.0"/><feColorMatrix in="blurOut" result="blurOut2" type="matrix" values="0 0 0 0 0 0 0 0 0 0 0 0 0 0 0 0 0 0 .4 0"/><feOffset dx="4.0" dy="4.0" in="blurOut2" result="blurOut3"/><feBlend in="SourceGraphic" in2="blurOut3" mode="normal"/></filter></defs><g><text fill="#000000" font-family="sans-serif" font-size="14" font-weight="bold" lengthAdjust="spacingAndGlyphs" textLength="365" x="448.75" y="22.9951">CPP RunShapes "read" Function With Iterators</text><rect fill="#FFFFFF" filter="url(#fqxjs33yywm5a)" height="770.0156" style="stroke: #A80036; stroke-width: 1.0;" width="10" x="69.5" y="78.5938"/><rect fill="#FFFFFF" filter="url(#fqxjs33yywm5a)" height="20.1641" style="stroke: #A80036; stroke-width: 1.0;" width="10" x="231.5" y="109.7266"/><rect fill="#FFFFFF" filter="url(#fqxjs33yywm5a)" height="73.2969" style="stroke: #A80036; stroke-width: 1.0;" width="10" x="231.5" y="666.9141"/><rect fill="#FFFFFF" filter="url(#fqxjs33yywm5a)" height="20.1641" style="stroke: #A80036; stroke-width: 1.0;" width="10" x="448.5" y="169.0234"/><rect fill="#FFFFFF" filter="url(#fqxjs33yywm5a)" height="304.8984" style="stroke: #A80036; stroke-width: 1.0;" width="10" x="448.5" y="301.75"/><rect fill="#FFFFFF" filter="url(#fqxjs33yywm5a)" height="14" style="stroke: #A80036; stroke-width: 1.0;" width="10" x="448.5" y="769.3438"/><rect fill="#FFFFFF" filter="url(#fqxjs33yywm5a)" height="20.1641" style="stroke: #A80036; stroke-width: 1.0;" width="10" x="681" y="228.3203"/><rect fill="#FFFFFF" filter="url(#fqxjs33yywm5a)" height="246.6328" style="stroke: #A80036; stroke-width: 1.0;" width="10" x="865.5" y="330.8828"/><rect fill="#FFFFFF" filter="url(#fqxjs33yywm5a)" height="40.1328" style="stroke: #A80036; stroke-width: 1.0;" width="10" x="870.5" y="368.0156"/><rect fill="#FFFFFF" filter="url(#fqxjs33yywm5a)" height="20.1641" style="stroke: #A80036; stroke-width: 1.0;" width="10" x="1018.5" y="478.4141"/><rect fill="#FFFFFF" filter="url(#fqxjs33yywm5a)" height="14" style="stroke: #A80036; stroke-width: 1.0;" width="10" x="1018.5" y="527.7109"/><rect fill="#FFFFFF" filter="url(#fqxjs33yywm5a)" height="20.1641" style="stroke: #A80036; stroke-width: 1.0;" width="10" x="1152" y="706.0469"/><rect fill="#FEFECE" filter="url(#fqxjs33yywm5a)" height="30.2969" style="stroke: #A80036; stroke-width: 1.5;" width="197" x="136" y="78.5938"/><text fill="#000000" font-family="sans-serif" font-size="14" lengthAdjust="spacingAndGlyphs" text-decoration="underline" textLength="183" x="143" y="98.5889">collection:ShapeCollection</text><rect fill="#FEFECE" filter="url(#fqxjs33yywm5a)" height="30.2969" style="stroke: #A80036; stroke-width: 1.5;" width="209" x="347" y="137.8906"/><text fill="#000000" font-family="sans-serif" font-size="14" lengthAdjust="spacingAndGlyphs" text-decoration="underline" textLength="195" x="354" y="157.8857">it:istream_iterator&lt;Shape*&gt;</text><rect fill="#FEFECE" filter="url(#fqxjs33yywm5a)" height="30.2969" style="stroke: #A80036; stroke-width: 1.5;" width="228" x="570" y="197.1875"/><text fill="#000000" font-family="sans-serif" font-size="14" lengthAdjust="spacingAndGlyphs" text-decoration="underline" textLength="214" x="577" y="217.1826">end:istream_iterator&lt;Shape*&gt;</text><rect fill="#FFFFFF" filter="url(#fqxjs33yywm5a)" height="351.1641" style="stroke: #000000; stroke-width: 2.0;" width="1071.5" x="13" y="263.4844"/><rect fill="#FFFFFF" filter="url(#fqxjs33yywm5a)" height="134.3672" style="stroke: #000000; stroke-width: 2.0;" width="272.5" x="802" y="430.1484"/><rect fill="#FEFECE" filter="url(#fqxjs33yywm5a)" height="30.2969" style="stroke: #A80036; stroke-width: 1.5;" width="78" x="982.5" y="447.2813"/><text fill="#000000" font-family="sans-serif" font-size="14" lengthAdjust="spacingAndGlyphs" text-decoration="underline" textLength="64" x="989.5" y="467.2764">s:Shape*</text><rect fill="#FFFFFF" height="14.8047" style="stroke: none; stroke-width: 1.0;" width="272.5" x="802" y="549.7109"/><rect fill="#FFFFFF" filter="url(#fqxjs33yywm5a)" height="162.6953" style="stroke: #000000; stroke-width: 2.0;" width="1236.5" x="13" y="628.6484"/><rect fill="#FEFECE" filter="url(#fqxjs33yywm5a)" height="30.2969" style="stroke: #A80036; stroke-width: 1.5;" width="161" x="1074.5" y="674.9141"/><text fill="#000000" font-family="sans-serif" font-size="14" lengthAdjust="spacingAndGlyphs" text-decoration="underline" textLength="147" x="1081.5" y="694.9092">:unique_ptr&lt;Shape&gt;</text><line style="stroke: #A80036; stroke-width: 1.0; stroke-dasharray: 5.0,5.0;" x1="74" x2="74" y1="68.5938" y2="866.6094"/><line style="stroke: #A80036; stroke-width: 1.0; stroke-dasharray: 5.0,5.0;" x1="236" x2="236" y1="111.2422" y2="866.6094"/><line style="stroke: #A80036; stroke-width: 1.0; stroke-dasharray: 5.0,5.0;" x1="453" x2="453" y1="170.5391" y2="866.6094"/><line style="stroke: #A80036; stroke-width: 1.0; stroke-dasharray: 5.0,5.0;" x1="686" x2="686" y1="229.8359" y2="866.6094"/><line style="stroke: #A80036; stroke-width: 1.0; stroke-dasharray: 5.0,5.0;" x1="870" x2="870" y1="68.5938" y2="866.6094"/><line style="stroke: #A80036; stroke-width: 1.0; stroke-dasharray: 5.0,5.0;" x1="1023.5" x2="1023.5" y1="479.9297" y2="866.6094"/><line style="stroke: #A80036; stroke-width: 1.0; stroke-dasharray: 5.0,5.0;" x1="1156.5" x2="1156.5" y1="707.5625" y2="866.6094"/><rect fill="#FEFECE" filter="url(#fqxjs33yywm5a)" height="30.2969" style="stroke: #A80036; stroke-width: 1.5;" width="99" x="23" y="33.2969"/><text fill="#000000" font-family="sans-serif" font-size="14" lengthAdjust="spacingAndGlyphs" text-decoration="underline" textLength="85" x="30" y="53.292">:RunShapes</text><rect fill="#FEFECE" filter="url(#fqxjs33yywm5a)" height="30.2969" style="stroke: #A80036; stroke-width: 1.5;" width="113" x="812" y="33.2969"/><text fill="#000000" font-family="sans-serif" font-size="14" lengthAdjust="spacingAndGlyphs" text-decoration="underline" textLength="99" x="819" y="53.292">:ShapeFactory</text><rect fill="#FFFFFF" filter="url(#fqxjs33yywm5a)" height="770.0156" style="stroke: #A80036; stroke-width: 1.0;" width="10" x="69.5" y="78.5938"/><rect fill="#FFFFFF" filter="url(#fqxjs33yywm5a)" height="20.1641" style="stroke: #A80036; stroke-width: 1.0;" width="10" x="231.5" y="109.7266"/><rect fill="#FFFFFF" filter="url(#fqxjs33yywm5a)" height="73.2969" style="stroke: #A80036; stroke-width: 1.0;" width="10" x="231.5" y="666.9141"/><rect fill="#FFFFFF" filter="url(#fqxjs33yywm5a)" height="20.1641" style="stroke: #A80036; stroke-width: 1.0;" width="10" x="448.5" y="169.0234"/><rect fill="#FFFFFF" filter="url(#fqxjs33yywm5a)" height="304.8984" style="stroke: #A80036; stroke-width: 1.0;" width="10" x="448.5" y="301.75"/><rect fill="#FFFFFF" filter="url(#fqxjs33yywm5a)" height="14" style="stroke: #A80036; stroke-width: 1.0;" width="10" x="448.5" y="769.3438"/><rect fill="#FFFFFF" filter="url(#fqxjs33yywm5a)" height="20.1641" style="stroke: #A80036; stroke-width: 1.0;" width="10" x="681" y="228.3203"/><rect fill="#FFFFFF" filter="url(#fqxjs33yywm5a)" height="246.6328" style="stroke: #A80036; stroke-width: 1.0;" width="10" x="865.5" y="330.8828"/><rect fill="#FFFFFF" filter="url(#fqxjs33yywm5a)" height="40.1328" style="stroke: #A80036; stroke-width: 1.0;" width="10" x="870.5" y="368.0156"/><rect fill="#FFFFFF" filter="url(#fqxjs33yywm5a)" height="20.1641" style="stroke: #A80036; stroke-width: 1.0;" width="10" x="1018.5" y="478.4141"/><rect fill="#FFFFFF" filter="url(#fqxjs33yywm5a)" height="14" style="stroke: #A80036; stroke-width: 1.0;" width="10" x="1018.5" y="527.7109"/><rect fill="#FFFFFF" filter="url(#fqxjs33yywm5a)" height="20.1641" style="stroke: #A80036; stroke-width: 1.0;" width="10" x="1152" y="706.0469"/><polygon fill="#A80036" points="124,95.7266,134,99.7266,124,103.7266,128,99.7266" style="stroke: #A80036; stroke-width: 1.0;"/><line style="stroke: #A80036; stroke-width: 1.0;" x1="79.5" x2="130" y1="99.7266" y2="99.7266"/><text fill="#000000" font-family="sans-serif" font-size="13" lengthAdjust="spacingAndGlyphs" textLength="25" x="86.5" y="94.6606">new</text><rect fill="#FEFECE" filter="url(#fqxjs33yywm5a)" height="30.2969" style="stroke: #A80036; stroke-width: 1.5;" width="197" x="136" y="78.5938"/><text fill="#000000" font-family="sans-serif" font-size="14" lengthAdjust="spacingAndGlyphs" text-decoration="underline" textLength="183" x="143" y="98.5889">collection:ShapeCollection</text><polygon fill="#A80036" points="90.5,125.8906,80.5,129.8906,90.5,133.8906,86.5,129.8906" style="stroke: #A80036; stroke-width: 1.0;"/><line style="stroke: #A80036; stroke-width: 1.0; stroke-dasharray: 2.0,2.0;" x1="84.5" x2="235.5" y1="129.8906" y2="129.8906"/><polygon fill="#A80036" points="335,155.0234,345,159.0234,335,163.0234,339,159.0234" style="stroke: #A80036; stroke-width: 1.0;"/><line style="stroke: #A80036; stroke-width: 1.0;" x1="79.5" x2="341" y1="159.0234" y2="159.0234"/><text fill="#000000" font-family="sans-serif" font-size="13" lengthAdjust="spacingAndGlyphs" textLength="53" x="86.5" y="153.9575">new(ins)</text><rect fill="#FEFECE" filter="url(#fqxjs33yywm5a)" height="30.2969" style="stroke: #A80036; stroke-width: 1.5;" width="209" x="347" y="137.8906"/><text fill="#000000" font-family="sans-serif" font-size="14" lengthAdjust="spacingAndGlyphs" text-decoration="underline" textLength="195" x="354" y="157.8857">it:istream_iterator&lt;Shape*&gt;</text><polygon fill="#A80036" points="90.5,185.1875,80.5,189.1875,90.5,193.1875,86.5,189.1875" style="stroke: #A80036; stroke-width: 1.0;"/><line style="stroke: #A80036; stroke-width: 1.0; stroke-dasharray: 2.0,2.0;" x1="84.5" x2="452.5" y1="189.1875" y2="189.1875"/><polygon fill="#A80036" points="558,214.3203,568,218.3203,558,222.3203,562,218.3203" style="stroke: #A80036; stroke-width: 1.0;"/><line style="stroke: #A80036; stroke-width: 1.0;" x1="79.5" x2="564" y1="218.3203" y2="218.3203"/><text fill="#000000" font-family="sans-serif" font-size="13" lengthAdjust="spacingAndGlyphs" textLength="53" x="86.5" y="213.2544">new(ins)</text><rect fill="#FEFECE" filter="url(#fqxjs33yywm5a)" height="30.2969" style="stroke: #A80036; stroke-width: 1.5;" width="228" x="570" y="197.1875"/><text fill="#000000" font-family="sans-serif" font-size="14" lengthAdjust="spacingAndGlyphs" text-decoration="underline" textLength="214" x="577" y="217.1826">end:istream_iterator&lt;Shape*&gt;</text><polygon fill="#A80036" points="90.5,244.4844,80.5,248.4844,90.5,252.4844,86.5,248.4844" style="stroke: #A80036; stroke-width: 1.0;"/><line style="stroke: #A80036; stroke-width: 1.0; stroke-dasharray: 2.0,2.0;" x1="84.5" x2="685" y1="248.4844" y2="248.4844"/><path d="M13,263.4844 L90,263.4844 L90,270.4844 L80,280.4844 L13,280.4844 L13,263.4844 " fill="#EEEEEE" style="stroke: #000000; stroke-width: 1.0;"/><rect fill="none" height="351.1641" style="stroke: #000000; stroke-width: 2.0;" width="1071.5" x="13" y="263.4844"/><text fill="#000000" font-family="sans-serif" font-size="13" font-weight="bold" lengthAdjust="spacingAndGlyphs" textLength="32" x="28" y="276.5513">loop</text><text fill="#000000" font-family="sans-serif" font-size="11" font-weight="bold" lengthAdjust="spacingAndGlyphs" textLength="65" x="105" y="275.6948">[it != end]</text><polygon fill="#A80036" points="436.5,297.75,446.5,301.75,436.5,305.75,440.5,301.75" style="stroke: #A80036; stroke-width: 1.0;"/><line style="stroke: #A80036; stroke-width: 1.0;" x1="79.5" x2="442.5" y1="301.75" y2="301.75"/><text fill="#000000" font-family="sans-serif" font-size="13" lengthAdjust="spacingAndGlyphs" textLength="163" x="86.5" y="296.6841">operator*() [dereference]</text><polygon fill="#A80036" points="853.5,326.8828,863.5,330.8828,853.5,334.8828,857.5,330.8828" style="stroke: #A80036; stroke-width: 1.0;"/><line style="stroke: #A80036; stroke-width: 1.0;" x1="458.5" x2="859.5" y1="330.8828" y2="330.8828"/><text fill="#000000" font-family="sans-serif" font-size="13" lengthAdjust="spacingAndGlyphs" textLength="120" x="465.5" y="325.8169">operator&gt;&gt;(ins, s)</text><line style="stroke: #A80036; stroke-width: 1.0;" x1="875.5" x2="922.5" y1="355.0156" y2="355.0156"/><line style="stroke: #A80036; stroke-width: 1.0;" x1="922.5" x2="922.5" y1="355.0156" y2="368.0156"/><line style="stroke: #A80036; stroke-width: 1.0;" x1="881.5" x2="922.5" y1="368.0156" y2="368.0156"/><polygon fill="#A80036" points="891.5,364.0156,881.5,368.0156,891.5,372.0156,887.5,368.0156" style="stroke: #A80036; stroke-width: 1.0;"/><text fill="#000000" font-family="sans-serif" font-size="13" lengthAdjust="spacingAndGlyphs" textLength="129" x="887.5" y="349.9497">createShape(name)</text><line style="stroke: #A80036; stroke-width: 1.0; stroke-dasharray: 2.0,2.0;" x1="880.5" x2="922.5" y1="407.1484" y2="407.1484"/><line style="stroke: #A80036; stroke-width: 1.0; stroke-dasharray: 2.0,2.0;" x1="922.5" x2="922.5" y1="407.1484" y2="420.1484"/><line style="stroke: #A80036; stroke-width: 1.0; stroke-dasharray: 2.0,2.0;" x1="875.5" x2="922.5" y1="420.1484" y2="420.1484"/><polygon fill="#A80036" points="885.5,416.1484,875.5,420.1484,885.5,424.1484,881.5,420.1484" style="stroke: #A80036; stroke-width: 1.0;"/><text fill="#000000" font-family="sans-serif" font-size="13" lengthAdjust="spacingAndGlyphs" textLength="7" x="887.5" y="402.0825">s</text><path d="M802,430.1484 L866,430.1484 L866,437.1484 L856,447.1484 L802,447.1484 L802,430.1484 " fill="#EEEEEE" style="stroke: #000000; stroke-width: 1.0;"/><rect fill="none" height="134.3672" style="stroke: #000000; stroke-width: 2.0;" width="272.5" x="802" y="430.1484"/><text fill="#000000" font-family="sans-serif" font-size="13" font-weight="bold" lengthAdjust="spacingAndGlyphs" textLength="19" x="817" y="443.2153">alt</text><text fill="#000000" font-family="sans-serif" font-size="11" font-weight="bold" lengthAdjust="spacingAndGlyphs" textLength="85" x="881" y="442.3589">[s is not null]</text><polygon fill="#A80036" points="970.5,464.4141,980.5,468.4141,970.5,472.4141,974.5,468.4141" style="stroke: #A80036; stroke-width: 1.0;"/><line style="stroke: #A80036; stroke-width: 1.0;" x1="875.5" x2="976.5" y1="468.4141" y2="468.4141"/><text fill="#000000" font-family="sans-serif" font-size="13" lengthAdjust="spacingAndGlyphs" textLength="35" x="882.5" y="463.3481">new()</text><rect fill="#FEFECE" filter="url(#fqxjs33yywm5a)" height="30.2969" style="stroke: #A80036; stroke-width: 1.5;" width="78" x="982.5" y="447.2813"/><text fill="#000000" font-family="sans-serif" font-size="14" lengthAdjust="spacingAndGlyphs" text-decoration="underline" textLength="64" x="989.5" y="467.2764">s:Shape*</text><polygon fill="#A80036" points="886.5,494.5781,876.5,498.5781,886.5,502.5781,882.5,498.5781" style="stroke: #A80036; stroke-width: 1.0;"/><line style="stroke: #A80036; stroke-width: 1.0; stroke-dasharray: 2.0,2.0;" x1="880.5" x2="1022.5" y1="498.5781" y2="498.5781"/><polygon fill="#A80036" points="1006.5,523.7109,1016.5,527.7109,1006.5,531.7109,1010.5,527.7109" style="stroke: #A80036; stroke-width: 1.0;"/><line style="stroke: #A80036; stroke-width: 1.0;" x1="875.5" x2="1012.5" y1="527.7109" y2="527.7109"/><text fill="#000000" font-family="sans-serif" font-size="13" lengthAdjust="spacingAndGlyphs" textLength="57" x="882.5" y="522.645">read(ins)</text><polygon fill="#A80036" points="886.5,537.7109,876.5,541.7109,886.5,545.7109,882.5,541.7109" style="stroke: #A80036; stroke-width: 1.0;"/><line style="stroke: #A80036; stroke-width: 1.0; stroke-dasharray: 2.0,2.0;" x1="880.5" x2="1022.5" y1="541.7109" y2="541.7109"/><line style="stroke: #000000; stroke-width: 1.0; stroke-dasharray: 2.0,2.0;" x1="802" x2="1074.5" y1="550.7109" y2="550.7109"/><text fill="#000000" font-family="sans-serif" font-size="11" font-weight="bold" lengthAdjust="spacingAndGlyphs" textLength="181" x="807" y="560.9214">[discard the rest of the line]</text><polygon fill="#A80036" points="469.5,573.5156,459.5,577.5156,469.5,581.5156,465.5,577.5156" style="stroke: #A80036; stroke-width: 1.0;"/><line style="stroke: #A80036; stroke-width: 1.0; stroke-dasharray: 2.0,2.0;" x1="463.5" x2="869.5" y1="577.5156" y2="577.5156"/><polygon fill="#A80036" points="90.5,602.6484,80.5,606.6484,90.5,610.6484,86.5,606.6484" style="stroke: #A80036; stroke-width: 1.0;"/><line style="stroke: #A80036; stroke-width: 1.0; stroke-dasharray: 2.0,2.0;" x1="84.5" x2="452.5" y1="606.6484" y2="606.6484"/><text fill="#000000" font-family="sans-serif" font-size="13" lengthAdjust="spacingAndGlyphs" textLength="7" x="96.5" y="601.5825">s</text><path d="M13,628.6484 L83,628.6484 L83,635.6484 L73,645.6484 L13,645.6484 L13,628.6484 " fill="#EEEEEE" style="stroke: #000000; stroke-width: 1.0;"/><rect fill="none" height="162.6953" style="stroke: #000000; stroke-width: 2.0;" width="1236.5" x="13" y="628.6484"/><text fill="#000000" font-family="sans-serif" font-size="13" font-weight="bold" lengthAdjust="spacingAndGlyphs" textLength="25" x="28" y="641.7153">opt</text><text fill="#000000" font-family="sans-serif" font-size="11" font-weight="bold" lengthAdjust="spacingAndGlyphs" textLength="85" x="98" y="640.8589">[s is not null]</text><polygon fill="#A80036" points="219.5,662.9141,229.5,666.9141,219.5,670.9141,223.5,666.9141" style="stroke: #A80036; stroke-width: 1.0;"/><line style="stroke: #A80036; stroke-width: 1.0;" x1="79.5" x2="225.5" y1="666.9141" y2="666.9141"/><text fill="#000000" font-family="sans-serif" font-size="13" lengthAdjust="spacingAndGlyphs" textLength="109" x="86.5" y="661.8481">emplace_back(s)</text><polygon fill="#A80036" points="1062.5,692.0469,1072.5,696.0469,1062.5,700.0469,1066.5,696.0469" style="stroke: #A80036; stroke-width: 1.0;"/><line style="stroke: #A80036; stroke-width: 1.0;" x1="241.5" x2="1068.5" y1="696.0469" y2="696.0469"/><text fill="#000000" font-family="sans-serif" font-size="13" lengthAdjust="spacingAndGlyphs" textLength="42" x="248.5" y="690.981">new(s)</text><rect fill="#FEFECE" filter="url(#fqxjs33yywm5a)" height="30.2969" style="stroke: #A80036; stroke-width: 1.5;" width="161" x="1074.5" y="674.9141"/><text fill="#000000" font-family="sans-serif" font-size="14" lengthAdjust="spacingAndGlyphs" text-decoration="underline" textLength="147" x="1081.5" y="694.9092">:unique_ptr&lt;Shape&gt;</text><polygon fill="#A80036" points="252.5,722.2109,242.5,726.2109,252.5,730.2109,248.5,726.2109" style="stroke: #A80036; stroke-width: 1.0;"/><line style="stroke: #A80036; stroke-width: 1.0; stroke-dasharray: 2.0,2.0;" x1="246.5" x2="1156" y1="726.2109" y2="726.2109"/><polygon fill="#A80036" points="90.5,736.2109,80.5,740.2109,90.5,744.2109,86.5,740.2109" style="stroke: #A80036; stroke-width: 1.0;"/><line style="stroke: #A80036; stroke-width: 1.0; stroke-dasharray: 2.0,2.0;" x1="84.5" x2="235.5" y1="740.2109" y2="740.2109"/><polygon fill="#A80036" points="436.5,765.3438,446.5,769.3438,436.5,773.3438,440.5,769.3438" style="stroke: #A80036; stroke-width: 1.0;"/><line style="stroke: #A80036; stroke-width: 1.0;" x1="79.5" x2="442.5" y1="769.3438" y2="769.3438"/><text fill="#000000" font-family="sans-serif" font-size="13" lengthAdjust="spacingAndGlyphs" textLength="198" x="86.5" y="764.2778">operator++() [post increment]</text><polygon fill="#A80036" points="90.5,779.3438,80.5,783.3438,90.5,787.3438,86.5,783.3438" style="stroke: #A80036; stroke-width: 1.0;"/><line style="stroke: #A80036; stroke-width: 1.0; stroke-dasharray: 2.0,2.0;" x1="84.5" x2="452.5" y1="783.3438" y2="783.3438"/><polygon fill="#A80036" points="441.5,815.4766,451.5,819.4766,441.5,823.4766,445.5,819.4766" style="stroke: #A80036; stroke-width: 1.0;"/><line style="stroke: #A80036; stroke-width: 1.0;" x1="79.5" x2="447.5" y1="819.4766" y2="819.4766"/><text fill="#000000" font-family="sans-serif" font-size="13" lengthAdjust="spacingAndGlyphs" textLength="40" x="86.5" y="814.4106">delete</text><line style="stroke: #A80036; stroke-width: 2.0;" x1="444.5" x2="462.5" y1="810.4766" y2="828.4766"/><line style="stroke: #A80036; stroke-width: 2.0;" x1="444.5" x2="462.5" y1="828.4766" y2="810.4766"/><polygon fill="#A80036" points="674,844.6094,684,848.6094,674,852.6094,678,848.6094" style="stroke: #A80036; stroke-width: 1.0;"/><line style="stroke: #A80036; stroke-width: 1.0;" x1="74.5" x2="680" y1="848.6094" y2="848.6094"/><text fill="#000000" font-family="sans-serif" font-size="13" lengthAdjust="spacingAndGlyphs" textLength="40" x="81.5" y="843.5435">delete</text><line style="stroke: #A80036; stroke-width: 2.0;" x1="677" x2="695" y1="839.6094" y2="857.6094"/><line style="stroke: #A80036; stroke-width: 2.0;" x1="677" x2="695" y1="857.6094" y2="839.6094"/><!--
@startuml
autoactivate on
hide footbox
skinparam sequenceParticipant underline

title CPP RunShapes "read" Function With Iterators

participant ":RunShapes" as rs

activate rs

create "collection:ShapeCollection" as collection
rs -> collection: new
return

create "it:istream_iterator<Shape*>"
rs -> "it:istream_iterator<Shape*>": new(ins)
return

create "end:istream_iterator<Shape*>"
rs -> "end:istream_iterator<Shape*>": new(ins)
return

participant ":ShapeFactory" as sf

loop it != end
rs -> "it:istream_iterator<Shape*>": operator*() [dereference]
    "it:istream_iterator<Shape*>" -> sf: operator>>(ins, s)
        sf -> sf: createShape(name)
        return s
        alt s is not null
            create "s:Shape*" as sptr
            sf -> sptr: new()
            return
            sf -> sptr: read(ins)
            return
        else discard the rest of the line
        end
    return
return  s
end

opt s is not null
    rs -> collection: emplace_back(s)
    create ":unique_ptr<Shape>"
        collection -> ":unique_ptr<Shape>": new(s)
        return
    return
    rs -> "it:istream_iterator<Shape*>": operator++() [post increment]
    return
end

rs -> "it:istream_iterator<Shape*>" !!: delete
rs -> "end:istream_iterator<Shape*>" !!: delete

deactivate rs

@enduml

PlantUML version 1.2019.09(Mon Aug 26 12:19:51 EDT 2019)
(GPL source distribution)
Java Runtime: Java(TM) SE Runtime Environment
JVM: Java HotSpot(TM) 64-Bit Server VM
Java Version: 1.8.0_191-b12
Operating System: Linux
OS Version: 4.2.0-35-generic
Default Encoding: UTF-8
Language: en
Country: US
--></g></svg>