<?xml version="1.0" encoding="us-ascii" standalone="no"?><svg xmlns="http://www.w3.org/2000/svg" xmlns:xlink="http://www.w3.org/1999/xlink" contentStyleType="text/css" height="858px" preserveAspectRatio="none" style="width:1228px;height:858px;background:#FFFFFF;" version="1.1" viewBox="0 0 1228 858" width="1228px" zoomAndPan="magnify"><defs/><g><text fill="#000000" font-family="sans-serif" font-size="14" font-weight="bold" lengthAdjust="spacing" textLength="365" x="433.25" y="27.9951">CPP RunShapes "read" Function With Iterators</text><rect fill="#FFFFFF" height="750.0156" style="stroke:#181818;stroke-width:1.0;" width="10" x="64.5" y="83.5938"/><rect fill="#FFFFFF" height="16.1641" style="stroke:#181818;stroke-width:1.0;" width="10" x="222.5" y="114.7266"/><rect fill="#FFFFFF" height="69.2969" style="stroke:#181818;stroke-width:1.0;" width="10" x="222.5" y="655.9141"/><rect fill="#FFFFFF" height="16.1641" style="stroke:#181818;stroke-width:1.0;" width="10" x="435.5" y="170.0234"/><rect fill="#FFFFFF" height="300.8984" style="stroke:#181818;stroke-width:1.0;" width="10" x="435.5" y="294.75"/><rect fill="#FFFFFF" height="14" style="stroke:#181818;stroke-width:1.0;" width="10" x="435.5" y="754.3438"/><rect fill="#FFFFFF" height="16.1641" style="stroke:#181818;stroke-width:1.0;" width="10" x="664" y="225.3203"/><rect fill="#FFFFFF" height="242.6328" style="stroke:#181818;stroke-width:1.0;" width="10" x="844.5" y="323.8828"/><rect fill="#FFFFFF" height="40.1328" style="stroke:#181818;stroke-width:1.0;" width="10" x="849.5" y="361.0156"/><rect fill="#FFFFFF" height="16.1641" style="stroke:#181818;stroke-width:1.0;" width="10" x="997.5" y="471.4141"/><rect fill="#FFFFFF" height="14" style="stroke:#181818;stroke-width:1.0;" width="10" x="997.5" y="516.7109"/><rect fill="#FFFFFF" height="16.1641" style="stroke:#181818;stroke-width:1.0;" width="10" x="1127" y="695.0469"/><rect fill="none" height="347.1641" style="stroke:#000000;stroke-width:1.5;" width="1051.5" x="10" y="256.4844"/><rect fill="none" height="130.3672" style="stroke:#000000;stroke-width:1.5;" width="268.5" x="783" y="423.1484"/><rect fill="none" height="158.6953" style="stroke:#000000;stroke-width:1.5;" width="1212.5" x="10" y="617.6484"/><line style="stroke:#181818;stroke-width:0.5;stroke-dasharray:5.0,5.0;" x1="69" x2="69" y1="73.5938" y2="851.6094"/><line style="stroke:#181818;stroke-width:0.5;stroke-dasharray:5.0,5.0;" x1="227" x2="227" y1="114.2422" y2="851.6094"/><line style="stroke:#181818;stroke-width:0.5;stroke-dasharray:5.0,5.0;" x1="440" x2="440" y1="169.5391" y2="851.6094"/><line style="stroke:#181818;stroke-width:0.5;stroke-dasharray:5.0,5.0;" x1="669" x2="669" y1="224.8359" y2="851.6094"/><line style="stroke:#181818;stroke-width:0.5;stroke-dasharray:5.0,5.0;" x1="849" x2="849" y1="73.5938" y2="851.6094"/><line style="stroke:#181818;stroke-width:0.5;stroke-dasharray:5.0,5.0;" x1="1002.5" x2="1002.5" y1="470.9297" y2="851.6094"/><line style="stroke:#181818;stroke-width:0.5;stroke-dasharray:5.0,5.0;" x1="1131.5" x2="1131.5" y1="694.5625" y2="851.6094"/><rect fill="#E2E2F0" height="30.2969" rx="2.5" ry="2.5" style="stroke:#181818;stroke-width:0.5;" width="99" x="20" y="42.2969"/><text fill="#000000" font-family="sans-serif" font-size="14" lengthAdjust="spacing" text-decoration="underline" textLength="85" x="27" y="62.292">:RunShapes</text><rect fill="#E2E2F0" height="30.2969" rx="2.5" ry="2.5" style="stroke:#181818;stroke-width:0.5;" width="113" x="793" y="42.2969"/><text fill="#000000" font-family="sans-serif" font-size="14" lengthAdjust="spacing" text-decoration="underline" textLength="99" x="800" y="62.292">:ShapeFactory</text><rect fill="#FFFFFF" height="750.0156" style="stroke:#181818;stroke-width:1.0;" width="10" x="64.5" y="83.5938"/><rect fill="#FFFFFF" height="16.1641" style="stroke:#181818;stroke-width:1.0;" width="10" x="222.5" y="114.7266"/><rect fill="#FFFFFF" height="69.2969" style="stroke:#181818;stroke-width:1.0;" width="10" x="222.5" y="655.9141"/><rect fill="#FFFFFF" height="16.1641" style="stroke:#181818;stroke-width:1.0;" width="10" x="435.5" y="170.0234"/><rect fill="#FFFFFF" height="300.8984" style="stroke:#181818;stroke-width:1.0;" width="10" x="435.5" y="294.75"/><rect fill="#FFFFFF" height="14" style="stroke:#181818;stroke-width:1.0;" width="10" x="435.5" y="754.3438"/><rect fill="#FFFFFF" height="16.1641" style="stroke:#181818;stroke-width:1.0;" width="10" x="664" y="225.3203"/><rect fill="#FFFFFF" height="242.6328" style="stroke:#181818;stroke-width:1.0;" width="10" x="844.5" y="323.8828"/><rect fill="#FFFFFF" height="40.1328" style="stroke:#181818;stroke-width:1.0;" width="10" x="849.5" y="361.0156"/><rect fill="#FFFFFF" height="16.1641" style="stroke:#181818;stroke-width:1.0;" width="10" x="997.5" y="471.4141"/><rect fill="#FFFFFF" height="14" style="stroke:#181818;stroke-width:1.0;" width="10" x="997.5" y="516.7109"/><rect fill="#FFFFFF" height="16.1641" style="stroke:#181818;stroke-width:1.0;" width="10" x="1127" y="695.0469"/><polygon fill="#181818" points="117,100.7266,127,104.7266,117,108.7266,121,104.7266" style="stroke:#181818;stroke-width:1.0;"/><line style="stroke:#181818;stroke-width:1.0;" x1="74.5" x2="123" y1="104.7266" y2="104.7266"/><text fill="#000000" font-family="sans-serif" font-size="13" lengthAdjust="spacing" textLength="25" x="81.5" y="99.6606">new</text><rect fill="#E2E2F0" height="30.2969" rx="2.5" ry="2.5" style="stroke:#181818;stroke-width:0.5;" width="197" x="129" y="83.5938"/><text fill="#000000" font-family="sans-serif" font-size="14" lengthAdjust="spacing" text-decoration="underline" textLength="183" x="136" y="103.5889">collection:ShapeCollection</text><polygon fill="#181818" points="85.5,126.8906,75.5,130.8906,85.5,134.8906,81.5,130.8906" style="stroke:#181818;stroke-width:1.0;"/><line style="stroke:#181818;stroke-width:1.0;stroke-dasharray:2.0,2.0;" x1="79.5" x2="226.5" y1="130.8906" y2="130.8906"/><polygon fill="#181818" points="324,156.0234,334,160.0234,324,164.0234,328,160.0234" style="stroke:#181818;stroke-width:1.0;"/><line style="stroke:#181818;stroke-width:1.0;" x1="74.5" x2="330" y1="160.0234" y2="160.0234"/><text fill="#000000" font-family="sans-serif" font-size="13" lengthAdjust="spacing" textLength="53" x="81.5" y="154.9575">new(ins)</text><rect fill="#E2E2F0" height="30.2969" rx="2.5" ry="2.5" style="stroke:#181818;stroke-width:0.5;" width="209" x="336" y="138.8906"/><text fill="#000000" font-family="sans-serif" font-size="14" lengthAdjust="spacing" text-decoration="underline" textLength="195" x="343" y="158.8857">it:istream_iterator&lt;Shape*&gt;</text><polygon fill="#181818" points="85.5,182.1875,75.5,186.1875,85.5,190.1875,81.5,186.1875" style="stroke:#181818;stroke-width:1.0;"/><line style="stroke:#181818;stroke-width:1.0;stroke-dasharray:2.0,2.0;" x1="79.5" x2="439.5" y1="186.1875" y2="186.1875"/><polygon fill="#181818" points="543,211.3203,553,215.3203,543,219.3203,547,215.3203" style="stroke:#181818;stroke-width:1.0;"/><line style="stroke:#181818;stroke-width:1.0;" x1="74.5" x2="549" y1="215.3203" y2="215.3203"/><text fill="#000000" font-family="sans-serif" font-size="13" lengthAdjust="spacing" textLength="53" x="81.5" y="210.2544">new(ins)</text><rect fill="#E2E2F0" height="30.2969" rx="2.5" ry="2.5" style="stroke:#181818;stroke-width:0.5;" width="228" x="555" y="194.1875"/><text fill="#000000" font-family="sans-serif" font-size="14" lengthAdjust="spacing" text-decoration="underline" textLength="214" x="562" y="214.1826">end:istream_iterator&lt;Shape*&gt;</text><polygon fill="#181818" points="85.5,237.4844,75.5,241.4844,85.5,245.4844,81.5,241.4844" style="stroke:#181818;stroke-width:1.0;"/><line style="stroke:#181818;stroke-width:1.0;stroke-dasharray:2.0,2.0;" x1="79.5" x2="668" y1="241.4844" y2="241.4844"/><path d="M10,256.4844 L87,256.4844 L87,263.6172 L77,273.6172 L10,273.6172 L10,256.4844 " fill="#EEEEEE" style="stroke:#000000;stroke-width:1.5;"/><rect fill="none" height="347.1641" style="stroke:#000000;stroke-width:1.5;" width="1051.5" x="10" y="256.4844"/><text fill="#000000" font-family="sans-serif" font-size="13" font-weight="bold" lengthAdjust="spacing" textLength="32" x="25" y="269.5513">loop</text><text fill="#000000" font-family="sans-serif" font-size="11" font-weight="bold" lengthAdjust="spacing" textLength="65" x="102" y="268.6948">[it != end]</text><polygon fill="#181818" points="423.5,290.75,433.5,294.75,423.5,298.75,427.5,294.75" style="stroke:#181818;stroke-width:1.0;"/><line style="stroke:#181818;stroke-width:1.0;" x1="74.5" x2="429.5" y1="294.75" y2="294.75"/><text fill="#000000" font-family="sans-serif" font-size="13" lengthAdjust="spacing" textLength="163" x="81.5" y="289.6841">operator*() [dereference]</text><polygon fill="#181818" points="832.5,319.8828,842.5,323.8828,832.5,327.8828,836.5,323.8828" style="stroke:#181818;stroke-width:1.0;"/><line style="stroke:#181818;stroke-width:1.0;" x1="445.5" x2="838.5" y1="323.8828" y2="323.8828"/><text fill="#000000" font-family="sans-serif" font-size="13" lengthAdjust="spacing" textLength="120" x="452.5" y="318.8169">operator&gt;&gt;(ins, s)</text><line style="stroke:#181818;stroke-width:1.0;" x1="854.5" x2="901.5" y1="348.0156" y2="348.0156"/><line style="stroke:#181818;stroke-width:1.0;" x1="901.5" x2="901.5" y1="348.0156" y2="361.0156"/><line style="stroke:#181818;stroke-width:1.0;" x1="860.5" x2="901.5" y1="361.0156" y2="361.0156"/><polygon fill="#181818" points="870.5,357.0156,860.5,361.0156,870.5,365.0156,866.5,361.0156" style="stroke:#181818;stroke-width:1.0;"/><text fill="#000000" font-family="sans-serif" font-size="13" lengthAdjust="spacing" textLength="129" x="866.5" y="342.9497">createShape(name)</text><line style="stroke:#181818;stroke-width:1.0;stroke-dasharray:2.0,2.0;" x1="859.5" x2="901.5" y1="400.1484" y2="400.1484"/><line style="stroke:#181818;stroke-width:1.0;stroke-dasharray:2.0,2.0;" x1="901.5" x2="901.5" y1="400.1484" y2="413.1484"/><line style="stroke:#181818;stroke-width:1.0;stroke-dasharray:2.0,2.0;" x1="854.5" x2="901.5" y1="413.1484" y2="413.1484"/><polygon fill="#181818" points="864.5,409.1484,854.5,413.1484,864.5,417.1484,860.5,413.1484" style="stroke:#181818;stroke-width:1.0;"/><text fill="#000000" font-family="sans-serif" font-size="13" lengthAdjust="spacing" textLength="7" x="866.5" y="395.0825">s</text><path d="M783,423.1484 L847,423.1484 L847,430.2813 L837,440.2813 L783,440.2813 L783,423.1484 " fill="#EEEEEE" style="stroke:#000000;stroke-width:1.5;"/><rect fill="none" height="130.3672" style="stroke:#000000;stroke-width:1.5;" width="268.5" x="783" y="423.1484"/><text fill="#000000" font-family="sans-serif" font-size="13" font-weight="bold" lengthAdjust="spacing" textLength="19" x="798" y="436.2153">alt</text><text fill="#000000" font-family="sans-serif" font-size="11" font-weight="bold" lengthAdjust="spacing" textLength="85" x="862" y="435.3589">[s is not null]</text><polygon fill="#181818" points="951.5,457.4141,961.5,461.4141,951.5,465.4141,955.5,461.4141" style="stroke:#181818;stroke-width:1.0;"/><line style="stroke:#181818;stroke-width:1.0;" x1="854.5" x2="957.5" y1="461.4141" y2="461.4141"/><text fill="#000000" font-family="sans-serif" font-size="13" lengthAdjust="spacing" textLength="35" x="861.5" y="456.3481">new()</text><rect fill="#E2E2F0" height="30.2969" rx="2.5" ry="2.5" style="stroke:#181818;stroke-width:0.5;" width="78" x="963.5" y="440.2813"/><text fill="#000000" font-family="sans-serif" font-size="14" lengthAdjust="spacing" text-decoration="underline" textLength="64" x="970.5" y="460.2764">s:Shape*</text><polygon fill="#181818" points="865.5,483.5781,855.5,487.5781,865.5,491.5781,861.5,487.5781" style="stroke:#181818;stroke-width:1.0;"/><line style="stroke:#181818;stroke-width:1.0;stroke-dasharray:2.0,2.0;" x1="859.5" x2="1001.5" y1="487.5781" y2="487.5781"/><polygon fill="#181818" points="985.5,512.7109,995.5,516.7109,985.5,520.7109,989.5,516.7109" style="stroke:#181818;stroke-width:1.0;"/><line style="stroke:#181818;stroke-width:1.0;" x1="854.5" x2="991.5" y1="516.7109" y2="516.7109"/><text fill="#000000" font-family="sans-serif" font-size="13" lengthAdjust="spacing" textLength="57" x="861.5" y="511.645">read(ins)</text><polygon fill="#181818" points="865.5,526.7109,855.5,530.7109,865.5,534.7109,861.5,530.7109" style="stroke:#181818;stroke-width:1.0;"/><line style="stroke:#181818;stroke-width:1.0;stroke-dasharray:2.0,2.0;" x1="859.5" x2="1001.5" y1="530.7109" y2="530.7109"/><line style="stroke:#000000;stroke-width:1.0;stroke-dasharray:2.0,2.0;" x1="783" x2="1051.5" y1="539.7109" y2="539.7109"/><text fill="#000000" font-family="sans-serif" font-size="11" font-weight="bold" lengthAdjust="spacing" textLength="181" x="788" y="549.9214">[discard the rest of the line]</text><polygon fill="#181818" points="456.5,562.5156,446.5,566.5156,456.5,570.5156,452.5,566.5156" style="stroke:#181818;stroke-width:1.0;"/><line style="stroke:#181818;stroke-width:1.0;stroke-dasharray:2.0,2.0;" x1="450.5" x2="848.5" y1="566.5156" y2="566.5156"/><polygon fill="#181818" points="85.5,591.6484,75.5,595.6484,85.5,599.6484,81.5,595.6484" style="stroke:#181818;stroke-width:1.0;"/><line style="stroke:#181818;stroke-width:1.0;stroke-dasharray:2.0,2.0;" x1="79.5" x2="439.5" y1="595.6484" y2="595.6484"/><text fill="#000000" font-family="sans-serif" font-size="13" lengthAdjust="spacing" textLength="7" x="91.5" y="590.5825">s</text><path d="M10,617.6484 L80,617.6484 L80,624.7813 L70,634.7813 L10,634.7813 L10,617.6484 " fill="#EEEEEE" style="stroke:#000000;stroke-width:1.5;"/><rect fill="none" height="158.6953" style="stroke:#000000;stroke-width:1.5;" width="1212.5" x="10" y="617.6484"/><text fill="#000000" font-family="sans-serif" font-size="13" font-weight="bold" lengthAdjust="spacing" textLength="25" x="25" y="630.7153">opt</text><text fill="#000000" font-family="sans-serif" font-size="11" font-weight="bold" lengthAdjust="spacing" textLength="85" x="95" y="629.8589">[s is not null]</text><polygon fill="#181818" points="210.5,651.9141,220.5,655.9141,210.5,659.9141,214.5,655.9141" style="stroke:#181818;stroke-width:1.0;"/><line style="stroke:#181818;stroke-width:1.0;" x1="74.5" x2="216.5" y1="655.9141" y2="655.9141"/><text fill="#000000" font-family="sans-serif" font-size="13" lengthAdjust="spacing" textLength="109" x="81.5" y="650.8481">emplace_back(s)</text><polygon fill="#181818" points="1039.5,681.0469,1049.5,685.0469,1039.5,689.0469,1043.5,685.0469" style="stroke:#181818;stroke-width:1.0;"/><line style="stroke:#181818;stroke-width:1.0;" x1="232.5" x2="1045.5" y1="685.0469" y2="685.0469"/><text fill="#000000" font-family="sans-serif" font-size="13" lengthAdjust="spacing" textLength="42" x="239.5" y="679.981">new(s)</text><rect fill="#E2E2F0" height="30.2969" rx="2.5" ry="2.5" style="stroke:#181818;stroke-width:0.5;" width="161" x="1051.5" y="663.9141"/><text fill="#000000" font-family="sans-serif" font-size="14" lengthAdjust="spacing" text-decoration="underline" textLength="147" x="1058.5" y="683.9092">:unique_ptr&lt;Shape&gt;</text><polygon fill="#181818" points="243.5,707.2109,233.5,711.2109,243.5,715.2109,239.5,711.2109" style="stroke:#181818;stroke-width:1.0;"/><line style="stroke:#181818;stroke-width:1.0;stroke-dasharray:2.0,2.0;" x1="237.5" x2="1131" y1="711.2109" y2="711.2109"/><polygon fill="#181818" points="85.5,721.2109,75.5,725.2109,85.5,729.2109,81.5,725.2109" style="stroke:#181818;stroke-width:1.0;"/><line style="stroke:#181818;stroke-width:1.0;stroke-dasharray:2.0,2.0;" x1="79.5" x2="226.5" y1="725.2109" y2="725.2109"/><polygon fill="#181818" points="423.5,750.3438,433.5,754.3438,423.5,758.3438,427.5,754.3438" style="stroke:#181818;stroke-width:1.0;"/><line style="stroke:#181818;stroke-width:1.0;" x1="74.5" x2="429.5" y1="754.3438" y2="754.3438"/><text fill="#000000" font-family="sans-serif" font-size="13" lengthAdjust="spacing" textLength="198" x="81.5" y="749.2778">operator++() [post increment]</text><polygon fill="#181818" points="85.5,764.3438,75.5,768.3438,85.5,772.3438,81.5,768.3438" style="stroke:#181818;stroke-width:1.0;"/><line style="stroke:#181818;stroke-width:1.0;stroke-dasharray:2.0,2.0;" x1="79.5" x2="439.5" y1="768.3438" y2="768.3438"/><polygon fill="#181818" points="428.5,800.4766,438.5,804.4766,428.5,808.4766,432.5,804.4766" style="stroke:#181818;stroke-width:1.0;"/><line style="stroke:#181818;stroke-width:1.0;" x1="74.5" x2="434.5" y1="804.4766" y2="804.4766"/><text fill="#000000" font-family="sans-serif" font-size="13" lengthAdjust="spacing" textLength="40" x="81.5" y="799.4106">delete</text><line style="stroke:#A80036;stroke-width:2.0;" x1="431.5" x2="449.5" y1="795.4766" y2="813.4766"/><line style="stroke:#A80036;stroke-width:2.0;" x1="431.5" x2="449.5" y1="813.4766" y2="795.4766"/><polygon fill="#181818" points="657,829.6094,667,833.6094,657,837.6094,661,833.6094" style="stroke:#181818;stroke-width:1.0;"/><line style="stroke:#181818;stroke-width:1.0;" x1="69.5" x2="663" y1="833.6094" y2="833.6094"/><text fill="#000000" font-family="sans-serif" font-size="13" lengthAdjust="spacing" textLength="40" x="76.5" y="828.5435">delete</text><line style="stroke:#A80036;stroke-width:2.0;" x1="660" x2="678" y1="824.6094" y2="842.6094"/><line style="stroke:#A80036;stroke-width:2.0;" x1="660" x2="678" y1="842.6094" y2="824.6094"/><!--SRC=[bLJ1Rjim3BthAnYVahJx0QFBfK21tOBki4DH1AfD8q9bIXFfTVlxqhBZE6sMPG82IEBZ2zyZPTj9i9MuNrOG0fczgn6Q4EGb_3RywYZQP5jW_DaXLRYrILpbeYM1ZcfCtX4Q8quymlrs2uyTVT_RY0n5GbiNyD2HqWU27qxsy4qmMGc9ZOapggASyWgm37rygge_L4gcsw8AtcFcApFyVZhdl6FO98Olczb52OHl9g5qYOvyJah7eeTsvyRIxZBnUbEC51SncNNfY5UVg97gVtDV19qXFpKj0n_Kg93-PFtS6ED3YE045bz1sQyJ4U9mjLwku4cxYet-jDtF1dHTJExPkJbIR3PznRUWHSEuk3c01czowf9iYqVC811ukh1UWC4nK12Wplifqg-3oJnui1xKHqadgF6FzNgmSdKI7JtzMq8_leFv5vBGCqBjkBAf1jdhi28BX2RlyzkOaDgB6S6eLmNt0HFYERMVPnZRw6s5knTRlIx7qWvUb1qvVQKxhNxeZexPvDV4aQVX37HmY3zsn7pS_iyutTpqynI3Mk98osoHv7dEcBLVGGcBHGarUXIywkNCyQR6-QVa7G00]--></g></svg>