<?xml version="1.0" encoding="us-ascii" standalone="no"?><svg xmlns="http://www.w3.org/2000/svg" xmlns:xlink="http://www.w3.org/1999/xlink" contentStyleType="text/css" height="770px" preserveAspectRatio="none" style="width:1041px;height:770px;background:#FFFFFF;" version="1.1" viewBox="0 0 1041 770" width="1041px" zoomAndPan="magnify"><defs/><g><!--cluster shapes--><g id="cluster_shapes"><path d="M8.5,192 L66.5,192 A3.75,3.75 0 0 1 69,194.5 L76,214.2969 L1031.5,214.2969 A2.5,2.5 0 0 1 1034,216.7969 L1034,760.5 A2.5,2.5 0 0 1 1031.5,763 L8.5,763 A2.5,2.5 0 0 1 6,760.5 L6,194.5 A2.5,2.5 0 0 1 8.5,192 " fill="none" style="stroke:#000000;stroke-width:1.5;"/><line style="stroke:#000000;stroke-width:1.5;" x1="6" x2="76" y1="214.2969" y2="214.2969"/><text fill="#000000" font-family="sans-serif" font-size="14" font-weight="bold" lengthAdjust="spacing" textLength="57" x="10" y="206.9951">shapes</text></g><!--cluster factory--><g id="cluster_factory"><path d="M306.5,349 L363.5,349 A3.75,3.75 0 0 1 366,351.5 L373,371.2969 L588.5,371.2969 A2.5,2.5 0 0 1 591,373.7969 L591,518.5 A2.5,2.5 0 0 1 588.5,521 L306.5,521 A2.5,2.5 0 0 1 304,518.5 L304,351.5 A2.5,2.5 0 0 1 306.5,349 " fill="none" style="stroke:#000000;stroke-width:1.5;"/><line style="stroke:#000000;stroke-width:1.5;" x1="304" x2="373" y1="371.2969" y2="371.2969"/><text fill="#000000" font-family="sans-serif" font-size="14" font-weight="bold" lengthAdjust="spacing" textLength="56" x="308" y="363.9951">factory</text></g><!--cluster circle--><g id="cluster_circle"><path d="M32.5,599 L76.5,599 A3.75,3.75 0 0 1 79,601.5 L86,621.2969 L237.5,621.2969 A2.5,2.5 0 0 1 240,623.7969 L240,728.5 A2.5,2.5 0 0 1 237.5,731 L32.5,731 A2.5,2.5 0 0 1 30,728.5 L30,601.5 A2.5,2.5 0 0 1 32.5,599 " fill="none" style="stroke:#000000;stroke-width:1.5;"/><line style="stroke:#000000;stroke-width:1.5;" x1="30" x2="86" y1="621.2969" y2="621.2969"/><text fill="#000000" font-family="sans-serif" font-size="14" font-weight="bold" lengthAdjust="spacing" textLength="43" x="34" y="613.9951">circle</text></g><!--cluster square--><g id="cluster_square"><path d="M266.5,611.5 L322.5,611.5 A3.75,3.75 0 0 1 325,614 L332,633.7969 L377.5,633.7969 A2.5,2.5 0 0 1 380,636.2969 L380,716 A2.5,2.5 0 0 1 377.5,718.5 L266.5,718.5 A2.5,2.5 0 0 1 264,716 L264,614 A2.5,2.5 0 0 1 266.5,611.5 " fill="none" style="stroke:#000000;stroke-width:1.5;"/><line style="stroke:#000000;stroke-width:1.5;" x1="264" x2="332" y1="633.7969" y2="633.7969"/><text fill="#000000" font-family="sans-serif" font-size="14" font-weight="bold" lengthAdjust="spacing" textLength="55" x="268" y="626.4951">square</text></g><!--cluster triangle--><g id="cluster_triangle"><path d="M406.5,595 L467.5,595 A3.75,3.75 0 0 1 470,597.5 L477,617.2969 L533.5,617.2969 A2.5,2.5 0 0 1 536,619.7969 L536,732.5 A2.5,2.5 0 0 1 533.5,735 L406.5,735 A2.5,2.5 0 0 1 404,732.5 L404,597.5 A2.5,2.5 0 0 1 406.5,595 " fill="none" style="stroke:#000000;stroke-width:1.5;"/><line style="stroke:#000000;stroke-width:1.5;" x1="404" x2="477" y1="617.2969" y2="617.2969"/><text fill="#000000" font-family="sans-serif" font-size="14" font-weight="bold" lengthAdjust="spacing" textLength="60" x="408" y="609.9951">triangle</text></g><!--cluster right_triangle--><g id="cluster_right_triangle"><path d="M562.5,591 L667.5,591 A3.75,3.75 0 0 1 670,593.5 L677,613.2969 L789.5,613.2969 A2.5,2.5 0 0 1 792,615.7969 L792,736.5 A2.5,2.5 0 0 1 789.5,739 L562.5,739 A2.5,2.5 0 0 1 560,736.5 L560,593.5 A2.5,2.5 0 0 1 562.5,591 " fill="none" style="stroke:#000000;stroke-width:1.5;"/><line style="stroke:#000000;stroke-width:1.5;" x1="560" x2="677" y1="613.2969" y2="613.2969"/><text fill="#000000" font-family="sans-serif" font-size="14" font-weight="bold" lengthAdjust="spacing" textLength="104" x="564" y="605.9951">right_triangle</text></g><!--cluster equilateral_triangle--><g id="cluster_equilateral_triangle"><path d="M818.5,599 L969.5,599 A3.75,3.75 0 0 1 972,601.5 L979,621.2969 L1007.5,621.2969 A2.5,2.5 0 0 1 1010,623.7969 L1010,728.5 A2.5,2.5 0 0 1 1007.5,731 L818.5,731 A2.5,2.5 0 0 1 816,728.5 L816,601.5 A2.5,2.5 0 0 1 818.5,599 " fill="none" style="stroke:#000000;stroke-width:1.5;"/><line style="stroke:#000000;stroke-width:1.5;" x1="816" x2="979" y1="621.2969" y2="621.2969"/><text fill="#000000" font-family="sans-serif" font-size="14" font-weight="bold" lengthAdjust="spacing" textLength="150" x="820" y="613.9951">equilateral_triangle</text></g><!--cluster std::fmt--><g id="cluster_std::fmt"><path d="M557.5,6 L621.5,6 A3.75,3.75 0 0 1 624,8.5 L631,28.2969 L840.5,28.2969 A2.5,2.5 0 0 1 843,30.7969 L843,119.5 A2.5,2.5 0 0 1 840.5,122 L557.5,122 A2.5,2.5 0 0 1 555,119.5 L555,8.5 A2.5,2.5 0 0 1 557.5,6 " fill="none" style="stroke:#000000;stroke-width:1.5;"/><line style="stroke:#000000;stroke-width:1.5;" x1="555" x2="631" y1="28.2969" y2="28.2969"/><text fill="#000000" font-family="sans-serif" font-size="14" font-weight="bold" lengthAdjust="spacing" textLength="63" x="559" y="20.9951">std::fmt</text></g><!--class Shape--><g id="elem_Shape"><rect codeLine="5" fill="#F1F1F1" height="97.1563" id="Shape" rx="2.5" ry="2.5" style="stroke:#181818;stroke-width:0.5;" width="137" x="159.5" y="227"/><ellipse cx="201.95" cy="247.1328" fill="#FF7700" rx="11" ry="11" style="stroke:#181818;stroke-width:1.0;"/><path d="M202.7938,253.8828 L200.3406,253.8828 L200.3406,243.6328 L197.2,243.6328 L197.2,241.4922 L205.9344,241.4922 L205.9344,243.6328 L202.7938,243.6328 L202.7938,253.8828 Z " fill="#000000"/><text fill="#000000" font-family="sans-serif" font-size="12" font-style="italic" lengthAdjust="spacing" textLength="42" x="223.05" y="243.1387">&#171;Trait&#187;</text><text fill="#000000" font-family="sans-serif" font-size="14" lengthAdjust="spacing" textLength="44" x="222.05" y="258.9639">Shape</text><line style="stroke:#181818;stroke-width:0.5;" x1="160.5" x2="295.5" y1="267.2656" y2="267.2656"/><text fill="#000000" font-family="sans-serif" font-size="14" lengthAdjust="spacing" textLength="97" x="165.5" y="284.2607">+name(&amp;self)</text><text fill="#000000" font-family="sans-serif" font-size="14" lengthAdjust="spacing" textLength="88" x="165.5" y="300.5576">+area(&amp;self)</text><text fill="#000000" font-family="sans-serif" font-size="14" lengthAdjust="spacing" textLength="125" x="165.5" y="316.8545">+perimeter(&amp;self)</text></g><!--class KnownShape--><g id="elem_KnownShape"><rect codeLine="12" fill="#F1F1F1" height="121.4844" id="KnownShape" rx="2.5" ry="2.5" style="stroke:#181818;stroke-width:0.5;" width="138" x="320" y="384"/><ellipse cx="341.75" cy="400" fill="#EB937F" rx="11" ry="11" style="stroke:#181818;stroke-width:1.0;"/><path d="M345.8594,406 L338.1406,406 L338.1406,393.6094 L345.8594,393.6094 L345.8594,395.7656 L340.5938,395.7656 L340.5938,398.4375 L345.3594,398.4375 L345.3594,400.5938 L340.5938,400.5938 L340.5938,403.8438 L345.8594,403.8438 L345.8594,406 Z " fill="#000000"/><text fill="#000000" font-family="sans-serif" font-size="14" lengthAdjust="spacing" textLength="91" x="357.25" y="404.8467">KnownShape</text><line style="stroke:#181818;stroke-width:0.5;" x1="321" x2="457" y1="416" y2="416"/><text fill="#000000" font-family="sans-serif" font-size="14" lengthAdjust="spacing" textLength="38" x="326" y="432.9951">Circle</text><text fill="#000000" font-family="sans-serif" font-size="14" lengthAdjust="spacing" textLength="49" x="326" y="449.292">Square</text><text fill="#000000" font-family="sans-serif" font-size="14" lengthAdjust="spacing" textLength="55" x="326" y="465.5889">Triangle</text><text fill="#000000" font-family="sans-serif" font-size="14" lengthAdjust="spacing" textLength="91" x="326" y="481.8857">RightTriangle</text><text fill="#000000" font-family="sans-serif" font-size="14" lengthAdjust="spacing" textLength="126" x="326" y="498.1826">EquilateralTriangle</text></g><!--class Factory--><g id="elem_Factory"><rect codeLine="20" fill="#F1F1F1" height="32" id="Factory" rx="2.5" ry="2.5" style="stroke:#181818;stroke-width:0.5;" width="82" x="493" y="428.5"/><ellipse cx="508" cy="444.5" fill="#ADD1B2" rx="11" ry="11" style="stroke:#181818;stroke-width:1.0;"/><path d="M510.9688,450.1406 Q510.3906,450.4375 509.75,450.5781 Q509.1094,450.7344 508.4063,450.7344 Q505.9063,450.7344 504.5781,449.0938 Q503.2656,447.4375 503.2656,444.3125 Q503.2656,441.1875 504.5781,439.5313 Q505.9063,437.875 508.4063,437.875 Q509.1094,437.875 509.75,438.0313 Q510.4063,438.1875 510.9688,438.4844 L510.9688,441.2031 Q510.3438,440.625 509.75,440.3594 Q509.1563,440.0781 508.5313,440.0781 Q507.1875,440.0781 506.5,441.1563 Q505.8125,442.2188 505.8125,444.3125 Q505.8125,446.4063 506.5,447.4844 Q507.1875,448.5469 508.5313,448.5469 Q509.1563,448.5469 509.75,448.2813 Q510.3438,448 510.9688,447.4219 L510.9688,450.1406 Z " fill="#000000"/><text fill="#000000" font-family="sans-serif" font-size="14" lengthAdjust="spacing" textLength="50" x="522" y="449.3467">Factory</text></g><!--class Circle--><g id="elem_Circle"><rect codeLine="26" fill="#F1F1F1" height="80.5938" id="Circle" rx="2.5" ry="2.5" style="stroke:#181818;stroke-width:0.5;" width="178" x="46" y="634"/><ellipse cx="111.75" cy="650" fill="#ADD1B2" rx="11" ry="11" style="stroke:#181818;stroke-width:1.0;"/><path d="M114.7188,655.6406 Q114.1406,655.9375 113.5,656.0781 Q112.8594,656.2344 112.1563,656.2344 Q109.6563,656.2344 108.3281,654.5938 Q107.0156,652.9375 107.0156,649.8125 Q107.0156,646.6875 108.3281,645.0313 Q109.6563,643.375 112.1563,643.375 Q112.8594,643.375 113.5,643.5313 Q114.1563,643.6875 114.7188,643.9844 L114.7188,646.7031 Q114.0938,646.125 113.5,645.8594 Q112.9063,645.5781 112.2813,645.5781 Q110.9375,645.5781 110.25,646.6563 Q109.5625,647.7188 109.5625,649.8125 Q109.5625,651.9063 110.25,652.9844 Q110.9375,654.0469 112.2813,654.0469 Q112.9063,654.0469 113.5,653.7813 Q114.0938,653.5 114.7188,652.9219 L114.7188,655.6406 Z " fill="#000000"/><text fill="#000000" font-family="sans-serif" font-size="14" lengthAdjust="spacing" textLength="38" x="132.25" y="654.8467">Circle</text><line style="stroke:#181818;stroke-width:0.5;" x1="47" x2="223" y1="666" y2="666"/><text fill="#000000" font-family="sans-serif" font-size="14" lengthAdjust="spacing" textLength="85" x="52" y="682.9951">+radius: f64</text><line style="stroke:#181818;stroke-width:0.5;" x1="47" x2="223" y1="690.2969" y2="690.2969"/><text fill="#000000" font-family="sans-serif" font-size="14" lengthAdjust="spacing" textLength="166" x="52" y="707.292">+diameter(&amp;self) -&gt; f64</text></g><!--class Square--><g id="elem_Square"><rect codeLine="33" fill="#F1F1F1" height="56.2969" id="Square" rx="2.5" ry="2.5" style="stroke:#181818;stroke-width:0.5;" width="84" x="280" y="646.5"/><ellipse cx="296.35" cy="662.5" fill="#ADD1B2" rx="11" ry="11" style="stroke:#181818;stroke-width:1.0;"/><path d="M299.3188,668.1406 Q298.7406,668.4375 298.1,668.5781 Q297.4594,668.7344 296.7563,668.7344 Q294.2563,668.7344 292.9281,667.0938 Q291.6156,665.4375 291.6156,662.3125 Q291.6156,659.1875 292.9281,657.5313 Q294.2563,655.875 296.7563,655.875 Q297.4594,655.875 298.1,656.0313 Q298.7563,656.1875 299.3188,656.4844 L299.3188,659.2031 Q298.6938,658.625 298.1,658.3594 Q297.5063,658.0781 296.8813,658.0781 Q295.5375,658.0781 294.85,659.1563 Q294.1625,660.2188 294.1625,662.3125 Q294.1625,664.4063 294.85,665.4844 Q295.5375,666.5469 296.8813,666.5469 Q297.5063,666.5469 298.1,666.2813 Q298.6938,666 299.3188,665.4219 L299.3188,668.1406 Z " fill="#000000"/><text fill="#000000" font-family="sans-serif" font-size="14" lengthAdjust="spacing" textLength="49" x="310.65" y="667.3467">Square</text><line style="stroke:#181818;stroke-width:0.5;" x1="281" x2="363" y1="678.5" y2="678.5"/><text fill="#000000" font-family="sans-serif" font-size="14" lengthAdjust="spacing" textLength="72" x="286" y="695.4951">+side: f64</text></g><!--class Triangle--><g id="elem_Triangle"><rect codeLine="39" fill="#F1F1F1" height="88.8906" id="Triangle" rx="2.5" ry="2.5" style="stroke:#181818;stroke-width:0.5;" width="100" x="420" y="630"/><ellipse cx="440.85" cy="646" fill="#ADD1B2" rx="11" ry="11" style="stroke:#181818;stroke-width:1.0;"/><path d="M443.8188,651.6406 Q443.2406,651.9375 442.6,652.0781 Q441.9594,652.2344 441.2563,652.2344 Q438.7563,652.2344 437.4281,650.5938 Q436.1156,648.9375 436.1156,645.8125 Q436.1156,642.6875 437.4281,641.0313 Q438.7563,639.375 441.2563,639.375 Q441.9594,639.375 442.6,639.5313 Q443.2563,639.6875 443.8188,639.9844 L443.8188,642.7031 Q443.1938,642.125 442.6,641.8594 Q442.0063,641.5781 441.3813,641.5781 Q440.0375,641.5781 439.35,642.6563 Q438.6625,643.7188 438.6625,645.8125 Q438.6625,647.9063 439.35,648.9844 Q440.0375,650.0469 441.3813,650.0469 Q442.0063,650.0469 442.6,649.7813 Q443.1938,649.5 443.8188,648.9219 L443.8188,651.6406 Z " fill="#000000"/><text fill="#000000" font-family="sans-serif" font-size="14" lengthAdjust="spacing" textLength="55" x="456.15" y="650.8467">Triangle</text><line style="stroke:#181818;stroke-width:0.5;" x1="421" x2="519" y1="662" y2="662"/><text fill="#000000" font-family="sans-serif" font-size="14" lengthAdjust="spacing" textLength="87" x="426" y="678.9951">+side_a: f64</text><text fill="#000000" font-family="sans-serif" font-size="14" lengthAdjust="spacing" textLength="88" x="426" y="695.292">+side_b: f64</text><text fill="#000000" font-family="sans-serif" font-size="14" lengthAdjust="spacing" textLength="87" x="426" y="711.5889">+side_c: f64</text></g><!--class RightTriangle--><g id="elem_RightTriangle"><rect codeLine="47" fill="#F1F1F1" height="96.8906" id="RightTriangle" rx="2.5" ry="2.5" style="stroke:#181818;stroke-width:0.5;" width="200" x="576" y="626"/><ellipse cx="626.25" cy="642" fill="#ADD1B2" rx="11" ry="11" style="stroke:#181818;stroke-width:1.0;"/><path d="M629.2188,647.6406 Q628.6406,647.9375 628,648.0781 Q627.3594,648.2344 626.6563,648.2344 Q624.1563,648.2344 622.8281,646.5938 Q621.5156,644.9375 621.5156,641.8125 Q621.5156,638.6875 622.8281,637.0313 Q624.1563,635.375 626.6563,635.375 Q627.3594,635.375 628,635.5313 Q628.6563,635.6875 629.2188,635.9844 L629.2188,638.7031 Q628.5938,638.125 628,637.8594 Q627.4063,637.5781 626.7813,637.5781 Q625.4375,637.5781 624.75,638.6563 Q624.0625,639.7188 624.0625,641.8125 Q624.0625,643.9063 624.75,644.9844 Q625.4375,646.0469 626.7813,646.0469 Q627.4063,646.0469 628,645.7813 Q628.5938,645.5 629.2188,644.9219 L629.2188,647.6406 Z " fill="#000000"/><text fill="#000000" font-family="sans-serif" font-size="14" lengthAdjust="spacing" textLength="91" x="646.75" y="646.8467">RightTriangle</text><line style="stroke:#181818;stroke-width:0.5;" x1="577" x2="775" y1="658" y2="658"/><text fill="#000000" font-family="sans-serif" font-size="14" lengthAdjust="spacing" textLength="77" x="582" y="674.9951">+base: f64</text><text fill="#000000" font-family="sans-serif" font-size="14" lengthAdjust="spacing" textLength="87" x="582" y="691.292">+height: f64</text><line style="stroke:#181818;stroke-width:0.5;" x1="577" x2="775" y1="698.5938" y2="698.5938"/><text fill="#000000" font-family="sans-serif" font-size="14" lengthAdjust="spacing" textLength="188" x="582" y="715.5889">+hypotenuse(&amp;self) -&gt; f64</text></g><!--class EquilateralTriangle--><g id="elem_EquilateralTriangle"><rect codeLine="55" fill="#F1F1F1" height="80.5938" id="EquilateralTriangle" rx="2.5" ry="2.5" style="stroke:#181818;stroke-width:0.5;" width="161" x="832.5" y="634"/><ellipse cx="848.85" cy="650" fill="#ADD1B2" rx="11" ry="11" style="stroke:#181818;stroke-width:1.0;"/><path d="M851.8188,655.6406 Q851.2406,655.9375 850.6,656.0781 Q849.9594,656.2344 849.2563,656.2344 Q846.7563,656.2344 845.4281,654.5938 Q844.1156,652.9375 844.1156,649.8125 Q844.1156,646.6875 845.4281,645.0313 Q846.7563,643.375 849.2563,643.375 Q849.9594,643.375 850.6,643.5313 Q851.2563,643.6875 851.8188,643.9844 L851.8188,646.7031 Q851.1938,646.125 850.6,645.8594 Q850.0063,645.5781 849.3813,645.5781 Q848.0375,645.5781 847.35,646.6563 Q846.6625,647.7188 846.6625,649.8125 Q846.6625,651.9063 847.35,652.9844 Q848.0375,654.0469 849.3813,654.0469 Q850.0063,654.0469 850.6,653.7813 Q851.1938,653.5 851.8188,652.9219 L851.8188,655.6406 Z " fill="#000000"/><text fill="#000000" font-family="sans-serif" font-size="14" lengthAdjust="spacing" textLength="126" x="863.15" y="654.8467">EquilateralTriangle</text><line style="stroke:#181818;stroke-width:0.5;" x1="833.5" x2="992.5" y1="666" y2="666"/><text fill="#000000" font-family="sans-serif" font-size="14" lengthAdjust="spacing" textLength="72" x="838.5" y="682.9951">+side: f64</text><line style="stroke:#181818;stroke-width:0.5;" x1="833.5" x2="992.5" y1="690.2969" y2="690.2969"/><text fill="#000000" font-family="sans-serif" font-size="14" lengthAdjust="spacing" textLength="149" x="838.5" y="707.292">+height(&amp;self) -&gt; f64</text></g><!--class Display--><g id="elem_Display"><rect codeLine="63" fill="#F1F1F1" height="64.5625" id="Display" rx="2.5" ry="2.5" style="stroke:#181818;stroke-width:0.5;" width="255" x="571.5" y="41"/><ellipse cx="670.25" cy="61.1328" fill="#FF7700" rx="11" ry="11" style="stroke:#181818;stroke-width:1.0;"/><path d="M671.0938,67.8828 L668.6406,67.8828 L668.6406,57.6328 L665.5,57.6328 L665.5,55.4922 L674.2344,55.4922 L674.2344,57.6328 L671.0938,57.6328 L671.0938,67.8828 Z " fill="#000000"/><text fill="#000000" font-family="sans-serif" font-size="12" font-style="italic" lengthAdjust="spacing" textLength="42" x="694.25" y="57.1387">&#171;Trait&#187;</text><text fill="#000000" font-family="sans-serif" font-size="14" lengthAdjust="spacing" textLength="49" x="690.75" y="72.9639">Display</text><line style="stroke:#181818;stroke-width:0.5;" x1="572.5" x2="825.5" y1="81.2656" y2="81.2656"/><text fill="#000000" font-family="sans-serif" font-size="14" lengthAdjust="spacing" textLength="243" x="577.5" y="98.2607">+fmt(&amp;self, f: &amp;mut fmt::Formatter)</text></g><!--reverse link Shape to Circle--><g id="link_Shape_Circle"><path codeLine="68" d="M163.4556,338.6212 C159.5056,343.9612 166.72,335.13 164,341 C118.78,438.51 123.87,569.29 130.1,633.92 " fill="none" id="Shape-backto-Circle" style="stroke:#181818;stroke-width:1.0;stroke-dasharray:7.0,7.0;"/><polygon fill="none" points="174.16,324.15,158.6319,335.0531,168.2794,342.1894,174.16,324.15" style="stroke:#181818;stroke-width:1.0;"/></g><!--reverse link Shape to Square--><g id="link_Shape_Square"><path codeLine="69" d="M199.9873,340.991 C175.9973,402.261 152.94,492.63 201,566 C211.36,581.82 224.64,571.97 240,583 C264.45,600.56 287.01,626.49 302.25,646.09 " fill="none" id="Shape-backto-Square" style="stroke:#181818;stroke-width:1.0;stroke-dasharray:7.0,7.0;"/><polygon fill="none" points="206.55,324.23,194.4003,338.8034,205.5743,343.1786,206.55,324.23" style="stroke:#181818;stroke-width:1.0;"/></g><!--reverse link Shape to Triangle--><g id="link_Shape_Triangle"><path codeLine="70" d="M220.7174,342.1415 C213.4474,415.1915 206.7,531.93 238,566 C259.5,589.4 351.43,569.07 380,583 C402.11,593.78 421.96,612.23 437.37,629.66 " fill="none" id="Shape-backto-Triangle" style="stroke:#181818;stroke-width:1.0;stroke-dasharray:7.0,7.0;"/><polygon fill="none" points="222.5,324.23,214.7469,341.5473,226.6879,342.7357,222.5,324.23" style="stroke:#181818;stroke-width:1.0;"/></g><!--reverse link Shape to RightTriangle--><g id="link_Shape_RightTriangle"><path codeLine="71" d="M229.3857,342.2308 C231.7457,415.9808 240.23,534.42 275,566 C296.51,585.54 508.41,573.87 536,583 C564.71,592.5 593.31,609.32 617.11,625.91 " fill="none" id="Shape-backto-RightTriangle" style="stroke:#181818;stroke-width:1.0;stroke-dasharray:7.0,7.0;"/><polygon fill="none" points="228.81,324.24,223.3888,342.4227,235.3826,342.0389,228.81,324.24" style="stroke:#181818;stroke-width:1.0;"/></g><!--reverse link Shape to EquilateralTriangle--><g id="link_Shape_EquilateralTriangle"><path codeLine="72" d="M251.2864,341.3041 C277.6564,424.0141 237.78,472.87 304,529 C387.23,599.55 690.52,542.92 792,583 C821.28,594.56 849.69,615.17 871.62,633.81 " fill="none" id="Shape-backto-EquilateralTriangle" style="stroke:#181818;stroke-width:1.0;stroke-dasharray:7.0,7.0;"/><polygon fill="none" points="245.44,324.28,245.6117,343.2529,256.9611,339.3553,245.44,324.28" style="stroke:#181818;stroke-width:1.0;"/></g><!--reverse link Shape to KnownShape--><g id="link_Shape_KnownShape"><path codeLine="74" d="M310.453,334.8433 C317.263,340.4933 310.01,334.93 316,341 C328.66,353.83 340.74,369.04 351.3,383.76 " fill="none" id="Shape-backto-KnownShape" style="stroke:#181818;stroke-width:1.0;stroke-dasharray:7.0,7.0;"/><polygon fill="none" points="296.6,323.35,306.6219,339.4609,314.2841,330.2256,296.6,323.35" style="stroke:#181818;stroke-width:1.0;"/></g><!--reverse link Display to Circle--><g id="link_Display_Circle"><path codeLine="76" d="M671.5208,121.9713 C650.4908,160.4113 628,212.05 628,274.5 C628,274.5 628,274.5 628,445.5 C628,499.94 646.93,530.11 606,566 C577.39,591.09 299.99,570.65 264,583 C232.43,593.84 201.66,614.9 178.08,633.98 " fill="none" id="Display-backto-Circle" style="stroke:#0000FF;stroke-width:1.0;stroke-dasharray:7.0,7.0;"/><polygon fill="none" points="680.16,106.18,666.2571,119.0915,676.7846,124.851,680.16,106.18" style="stroke:#0000FF;stroke-width:1.0;"/></g><!--reverse link Display to Square--><g id="link_Display_Square"><path codeLine="77" d="M699,124.02 C699,163.43 699,214.95 699,274.5 C699,274.5 699,274.5 699,445.5 C699,502.67 699.83,531.83 654,566 C609.36,599.28 454.11,558.72 404,583 C375.76,596.68 352.77,624.79 338.39,646.08 " fill="none" id="Display-backto-Square" style="stroke:#0000FF;stroke-width:1.0;stroke-dasharray:7.0,7.0;"/><polygon fill="none" points="699,106.02,693,124.02,705,124.02,699,106.02" style="stroke:#0000FF;stroke-width:1.0;"/></g><!--reverse link Display to Triangle--><g id="link_Display_Triangle"><path codeLine="78" d="M726.4792,121.9713 C747.5092,160.4113 770,212.05 770,274.5 C770,274.5 770,274.5 770,445.5 C770,502.67 770.23,531.04 725,566 C695.84,588.54 593.26,567.12 560,583 C537.6,593.69 517.58,612.35 502.13,629.96 " fill="none" id="Display-backto-Triangle" style="stroke:#0000FF;stroke-width:1.0;stroke-dasharray:7.0,7.0;"/><polygon fill="none" points="717.84,106.18,721.2154,124.851,731.7429,119.0915,717.84,106.18" style="stroke:#0000FF;stroke-width:1.0;"/></g><!--reverse link Display to RightTriangle--><g id="link_Display_RightTriangle"><path codeLine="79" d="M754.1378,117.7295 C796.0578,153.5295 841,204.45 841,274.5 C841,274.5 841,274.5 841,445.5 C841,502.67 828.23,518.78 796,566 C780.94,588.06 760.42,608.63 740.6,625.74 " fill="none" id="Display-backto-RightTriangle" style="stroke:#0000FF;stroke-width:1.0;stroke-dasharray:7.0,7.0;"/><polygon fill="none" points="740.45,106.04,750.2413,122.2921,758.0343,113.1669,740.45,106.04" style="stroke:#0000FF;stroke-width:1.0;"/></g><!--reverse link Display to EquilateralTriangle--><g id="link_Display_EquilateralTriangle"><path codeLine="80" d="M787.3438,114.5133 C849.0938,146.9633 912,195.49 912,274.5 C912,274.5 912,274.5 912,445.5 C912,511.6 912.43,588.49 912.72,633.96 " fill="none" id="Display-backto-EquilateralTriangle" style="stroke:#0000FF;stroke-width:1.0;stroke-dasharray:7.0,7.0;"/><polygon fill="none" points="771.41,106.14,784.5527,119.8246,790.135,109.2021,771.41,106.14" style="stroke:#0000FF;stroke-width:1.0;"/></g><!--reverse link Display to KnownShape--><g id="link_Display_KnownShape"><path codeLine="81" d="M625.1916,115.3983 C592.8716,134.8683 568.93,152.78 540,184 C484.47,243.93 440.33,327.76 414.45,383.75 " fill="none" id="Display-backto-KnownShape" style="stroke:#0000FF;stroke-width:1.0;stroke-dasharray:7.0,7.0;"/><polygon fill="none" points="640.61,106.11,622.0955,110.2588,628.2877,120.5377,640.61,106.11" style="stroke:#0000FF;stroke-width:1.0;"/></g><!--reverse link Display to Factory--><g id="link_Display_Factory"><path codeLine="82" d="M641.5396,117.8283 C622.5496,133.7583 615.4,143 602,166 C549.7,255.79 537.46,384.47 534.74,428.25 " fill="none" id="Display-backto-Factory" style="stroke:#0000FF;stroke-width:1.0;stroke-dasharray:7.0,7.0;"/><polygon fill="none" points="655.33,106.26,637.6835,113.2315,645.3957,122.4251,655.33,106.26" style="stroke:#0000FF;stroke-width:1.0;"/></g><!--SRC=[bPHTQy8m58Rl-oiE2ABCYHTZGX5Xk0bZTzExCUIqdcgmQMkICjpqlwzVsgIDpEMcyBudUPzydCeTYn8KoC4FKSedfGJpKaMlVXmjs3V1oDcoDG7nH1s04_T8ICT9qD_XXa1kCI49FmvaerW15ha4amdqbeFEV3uUZqPzM0fa2gRJgZ8VTn0XfrvNKXZqDHK5OLjDI31EYeHkdPpYSuO9q5UnE6WP5AKStgBuAogfQYSVCoRya0nfiK-pV4DQ2eRHfb7tpZPRPNLUzYaBCGF5iELNlFLPpI_4MerbPtv1gk6NqsTDkJmhWMkMIXU2nuU6isQe7oBSJuqYQxOiZgILlMZAPOBC7elxzwAgEfhMiiksKI-yGjkc2iUxwlWtu8ZyEbTNeOpRRf5vACcMlgLycjKv9B7AtgQa_rm4rI-hYLfYMfwUqM_jkpb3MZ3E22UjsTNQTGEkZD1d9fCG3pSrV3QtJ1f0u4ANfogNN7SU2uug0-_NeTLlv3ZCnhbJ3QrgLKExT9oXcirgMBPkrIgqVuVZN7Pw77vql32bJmtDRbQCTlCIQBTDQdkD3TzUgMt4Nb3zYfnV]--></g></svg>