<?xml version="1.0" encoding="us-ascii" standalone="no"?><svg xmlns="http://www.w3.org/2000/svg" xmlns:xlink="http://www.w3.org/1999/xlink" contentStyleType="text/css" height="464px" preserveAspectRatio="none" style="width:1831px;height:464px;background:#FFFFFF;" version="1.1" viewBox="0 0 1831 464" width="1831px" zoomAndPan="magnify"><defs/><g><!--cluster shapes--><g id="cluster_shapes"><path d="M196.5,6 L254.5,6 A3.75,3.75 0 0 1 257,8.5 L264,28.2969 L1219.5,28.2969 A2.5,2.5 0 0 1 1222,30.7969 L1222,454.5 A2.5,2.5 0 0 1 1219.5,457 L196.5,457 A2.5,2.5 0 0 1 194,454.5 L194,8.5 A2.5,2.5 0 0 1 196.5,6 " fill="none" style="stroke:#000000;stroke-width:1.5;"/><line style="stroke:#000000;stroke-width:1.5;" x1="194" x2="264" y1="28.2969" y2="28.2969"/><text fill="#000000" font-family="sans-serif" font-size="14" font-weight="bold" lengthAdjust="spacing" textLength="57" x="198" y="20.9951">shapes</text></g><!--cluster circle--><g id="cluster_circle"><path d="M438.5,293 L482.5,293 A3.75,3.75 0 0 1 485,295.5 L492,315.2969 L643.5,315.2969 A2.5,2.5 0 0 1 646,317.7969 L646,422.5 A2.5,2.5 0 0 1 643.5,425 L438.5,425 A2.5,2.5 0 0 1 436,422.5 L436,295.5 A2.5,2.5 0 0 1 438.5,293 " fill="none" style="stroke:#000000;stroke-width:1.5;"/><line style="stroke:#000000;stroke-width:1.5;" x1="436" x2="492" y1="315.2969" y2="315.2969"/><text fill="#000000" font-family="sans-serif" font-size="14" font-weight="bold" lengthAdjust="spacing" textLength="43" x="440" y="307.9951">circle</text></g><!--cluster square--><g id="cluster_square"><path d="M672.5,305.5 L728.5,305.5 A3.75,3.75 0 0 1 731,308 L738,327.7969 L783.5,327.7969 A2.5,2.5 0 0 1 786,330.2969 L786,410 A2.5,2.5 0 0 1 783.5,412.5 L672.5,412.5 A2.5,2.5 0 0 1 670,410 L670,308 A2.5,2.5 0 0 1 672.5,305.5 " fill="none" style="stroke:#000000;stroke-width:1.5;"/><line style="stroke:#000000;stroke-width:1.5;" x1="670" x2="738" y1="327.7969" y2="327.7969"/><text fill="#000000" font-family="sans-serif" font-size="14" font-weight="bold" lengthAdjust="spacing" textLength="55" x="674" y="320.4951">square</text></g><!--cluster triangle--><g id="cluster_triangle"><path d="M812.5,289 L873.5,289 A3.75,3.75 0 0 1 876,291.5 L883,311.2969 L939.5,311.2969 A2.5,2.5 0 0 1 942,313.7969 L942,426.5 A2.5,2.5 0 0 1 939.5,429 L812.5,429 A2.5,2.5 0 0 1 810,426.5 L810,291.5 A2.5,2.5 0 0 1 812.5,289 " fill="none" style="stroke:#000000;stroke-width:1.5;"/><line style="stroke:#000000;stroke-width:1.5;" x1="810" x2="883" y1="311.2969" y2="311.2969"/><text fill="#000000" font-family="sans-serif" font-size="14" font-weight="bold" lengthAdjust="spacing" textLength="60" x="814" y="303.9951">triangle</text></g><!--cluster right_triangle--><g id="cluster_right_triangle"><path d="M968.5,285 L1073.5,285 A3.75,3.75 0 0 1 1076,287.5 L1083,307.2969 L1195.5,307.2969 A2.5,2.5 0 0 1 1198,309.7969 L1198,430.5 A2.5,2.5 0 0 1 1195.5,433 L968.5,433 A2.5,2.5 0 0 1 966,430.5 L966,287.5 A2.5,2.5 0 0 1 968.5,285 " fill="none" style="stroke:#000000;stroke-width:1.5;"/><line style="stroke:#000000;stroke-width:1.5;" x1="966" x2="1083" y1="307.2969" y2="307.2969"/><text fill="#000000" font-family="sans-serif" font-size="14" font-weight="bold" lengthAdjust="spacing" textLength="104" x="970" y="299.9951">right_triangle</text></g><!--cluster equilateral_triangle--><g id="cluster_equilateral_triangle"><path d="M220.5,293 L371.5,293 A3.75,3.75 0 0 1 374,295.5 L381,315.2969 L409.5,315.2969 A2.5,2.5 0 0 1 412,317.7969 L412,422.5 A2.5,2.5 0 0 1 409.5,425 L220.5,425 A2.5,2.5 0 0 1 218,422.5 L218,295.5 A2.5,2.5 0 0 1 220.5,293 " fill="none" style="stroke:#000000;stroke-width:1.5;"/><line style="stroke:#000000;stroke-width:1.5;" x1="218" x2="381" y1="315.2969" y2="315.2969"/><text fill="#000000" font-family="sans-serif" font-size="14" font-weight="bold" lengthAdjust="spacing" textLength="150" x="222" y="307.9951">equilateral_triangle</text></g><!--cluster std::fmt--><g id="cluster_std::fmt"><path d="M1248.5,301 L1312.5,301 A3.75,3.75 0 0 1 1315,303.5 L1322,323.2969 L1821.5,323.2969 A2.5,2.5 0 0 1 1824,325.7969 L1824,414.5 A2.5,2.5 0 0 1 1821.5,417 L1248.5,417 A2.5,2.5 0 0 1 1246,414.5 L1246,303.5 A2.5,2.5 0 0 1 1248.5,301 " fill="none" style="stroke:#000000;stroke-width:1.5;"/><line style="stroke:#000000;stroke-width:1.5;" x1="1246" x2="1322" y1="323.2969" y2="323.2969"/><text fill="#000000" font-family="sans-serif" font-size="14" font-weight="bold" lengthAdjust="spacing" textLength="63" x="1250" y="315.9951">std::fmt</text></g><!--cluster std::clone--><g id="cluster_std::clone"><path d="M1442.5,22 L1523.5,22 A3.75,3.75 0 0 1 1526,24.5 L1533,44.2969 L1627.5,44.2969 A2.5,2.5 0 0 1 1630,46.7969 L1630,135.5 A2.5,2.5 0 0 1 1627.5,138 L1442.5,138 A2.5,2.5 0 0 1 1440,135.5 L1440,24.5 A2.5,2.5 0 0 1 1442.5,22 " fill="none" style="stroke:#000000;stroke-width:1.5;"/><line style="stroke:#000000;stroke-width:1.5;" x1="1440" x2="1533" y1="44.2969" y2="44.2969"/><text fill="#000000" font-family="sans-serif" font-size="14" font-weight="bold" lengthAdjust="spacing" textLength="80" x="1444" y="36.9951">std::clone</text></g><!--cluster std::defailt--><g id="cluster_std::defailt"><path d="M8.5,22 L95.5,22 A3.75,3.75 0 0 1 98,24.5 L105,44.2969 L167.5,44.2969 A2.5,2.5 0 0 1 170,46.7969 L170,135.5 A2.5,2.5 0 0 1 167.5,138 L8.5,138 A2.5,2.5 0 0 1 6,135.5 L6,24.5 A2.5,2.5 0 0 1 8.5,22 " fill="none" style="stroke:#000000;stroke-width:1.5;"/><line style="stroke:#000000;stroke-width:1.5;" x1="6" x2="105" y1="44.2969" y2="44.2969"/><text fill="#000000" font-family="sans-serif" font-size="14" font-weight="bold" lengthAdjust="spacing" textLength="86" x="10" y="36.9951">std::defailt</text></g><!--class Shape--><g id="elem_Shape"><rect codeLine="5" fill="#F1F1F1" height="97.1563" id="Shape" rx="2.5" ry="2.5" style="stroke:#181818;stroke-width:0.5;" width="137" x="807.5" y="41"/><ellipse cx="849.95" cy="61.1328" fill="#FF7700" rx="11" ry="11" style="stroke:#181818;stroke-width:1.0;"/><path d="M850.7938,67.8828 L848.3406,67.8828 L848.3406,57.6328 L845.2,57.6328 L845.2,55.4922 L853.9344,55.4922 L853.9344,57.6328 L850.7938,57.6328 L850.7938,67.8828 Z " fill="#000000"/><text fill="#000000" font-family="sans-serif" font-size="12" font-style="italic" lengthAdjust="spacing" textLength="42" x="871.05" y="57.1387">&#171;Trait&#187;</text><text fill="#000000" font-family="sans-serif" font-size="14" lengthAdjust="spacing" textLength="44" x="870.05" y="72.9639">Shape</text><line style="stroke:#181818;stroke-width:0.5;" x1="808.5" x2="943.5" y1="81.2656" y2="81.2656"/><text fill="#000000" font-family="sans-serif" font-size="14" lengthAdjust="spacing" textLength="97" x="813.5" y="98.2607">+name(&amp;self)</text><text fill="#000000" font-family="sans-serif" font-size="14" lengthAdjust="spacing" textLength="88" x="813.5" y="114.5576">+area(&amp;self)</text><text fill="#000000" font-family="sans-serif" font-size="14" lengthAdjust="spacing" textLength="125" x="813.5" y="130.8545">+perimeter(&amp;self)</text></g><path d="M455.5,63 L512.5,63 A3.75,3.75 0 0 1 515,65.5 L522,85.2969 L526.5,85.2969 A2.5,2.5 0 0 1 529,87.7969 L529,113.0938 A2.5,2.5 0 0 1 526.5,115.5938 L455.5,115.5938 A2.5,2.5 0 0 1 453,113.0938 L453,65.5 A2.5,2.5 0 0 1 455.5,63 " fill="#F1F1F1" style="stroke:#181818;stroke-width:0.5;"/><line style="stroke:#181818;stroke-width:0.5;" x1="453" x2="522" y1="85.2969" y2="85.2969"/><text fill="#000000" font-family="sans-serif" font-size="14" font-weight="bold" lengthAdjust="spacing" textLength="56" x="457" y="77.9951">factory</text><!--class Circle--><g id="elem_Circle"><rect codeLine="15" fill="#F1F1F1" height="80.5938" id="Circle" rx="2.5" ry="2.5" style="stroke:#181818;stroke-width:0.5;" width="178" x="452" y="328"/><ellipse cx="517.75" cy="344" fill="#ADD1B2" rx="11" ry="11" style="stroke:#181818;stroke-width:1.0;"/><path d="M520.7188,349.6406 Q520.1406,349.9375 519.5,350.0781 Q518.8594,350.2344 518.1563,350.2344 Q515.6563,350.2344 514.3281,348.5938 Q513.0156,346.9375 513.0156,343.8125 Q513.0156,340.6875 514.3281,339.0313 Q515.6563,337.375 518.1563,337.375 Q518.8594,337.375 519.5,337.5313 Q520.1563,337.6875 520.7188,337.9844 L520.7188,340.7031 Q520.0938,340.125 519.5,339.8594 Q518.9063,339.5781 518.2813,339.5781 Q516.9375,339.5781 516.25,340.6563 Q515.5625,341.7188 515.5625,343.8125 Q515.5625,345.9063 516.25,346.9844 Q516.9375,348.0469 518.2813,348.0469 Q518.9063,348.0469 519.5,347.7813 Q520.0938,347.5 520.7188,346.9219 L520.7188,349.6406 Z " fill="#000000"/><text fill="#000000" font-family="sans-serif" font-size="14" lengthAdjust="spacing" textLength="38" x="538.25" y="348.8467">Circle</text><line style="stroke:#181818;stroke-width:0.5;" x1="453" x2="629" y1="360" y2="360"/><text fill="#000000" font-family="sans-serif" font-size="14" lengthAdjust="spacing" textLength="85" x="458" y="376.9951">+radius: f64</text><line style="stroke:#181818;stroke-width:0.5;" x1="453" x2="629" y1="384.2969" y2="384.2969"/><text fill="#000000" font-family="sans-serif" font-size="14" lengthAdjust="spacing" textLength="166" x="458" y="401.292">+diameter(&amp;self) -&gt; f64</text></g><!--class Square--><g id="elem_Square"><rect codeLine="22" fill="#F1F1F1" height="56.2969" id="Square" rx="2.5" ry="2.5" style="stroke:#181818;stroke-width:0.5;" width="84" x="686" y="340.5"/><ellipse cx="702.35" cy="356.5" fill="#ADD1B2" rx="11" ry="11" style="stroke:#181818;stroke-width:1.0;"/><path d="M705.3188,362.1406 Q704.7406,362.4375 704.1,362.5781 Q703.4594,362.7344 702.7563,362.7344 Q700.2563,362.7344 698.9281,361.0938 Q697.6156,359.4375 697.6156,356.3125 Q697.6156,353.1875 698.9281,351.5313 Q700.2563,349.875 702.7563,349.875 Q703.4594,349.875 704.1,350.0313 Q704.7563,350.1875 705.3188,350.4844 L705.3188,353.2031 Q704.6938,352.625 704.1,352.3594 Q703.5063,352.0781 702.8813,352.0781 Q701.5375,352.0781 700.85,353.1563 Q700.1625,354.2188 700.1625,356.3125 Q700.1625,358.4063 700.85,359.4844 Q701.5375,360.5469 702.8813,360.5469 Q703.5063,360.5469 704.1,360.2813 Q704.6938,360 705.3188,359.4219 L705.3188,362.1406 Z " fill="#000000"/><text fill="#000000" font-family="sans-serif" font-size="14" lengthAdjust="spacing" textLength="49" x="716.65" y="361.3467">Square</text><line style="stroke:#181818;stroke-width:0.5;" x1="687" x2="769" y1="372.5" y2="372.5"/><text fill="#000000" font-family="sans-serif" font-size="14" lengthAdjust="spacing" textLength="72" x="692" y="389.4951">+side: f64</text></g><!--class Triangle--><g id="elem_Triangle"><rect codeLine="28" fill="#F1F1F1" height="88.8906" id="Triangle" rx="2.5" ry="2.5" style="stroke:#181818;stroke-width:0.5;" width="100" x="826" y="324"/><ellipse cx="846.85" cy="340" fill="#ADD1B2" rx="11" ry="11" style="stroke:#181818;stroke-width:1.0;"/><path d="M849.8188,345.6406 Q849.2406,345.9375 848.6,346.0781 Q847.9594,346.2344 847.2563,346.2344 Q844.7563,346.2344 843.4281,344.5938 Q842.1156,342.9375 842.1156,339.8125 Q842.1156,336.6875 843.4281,335.0313 Q844.7563,333.375 847.2563,333.375 Q847.9594,333.375 848.6,333.5313 Q849.2563,333.6875 849.8188,333.9844 L849.8188,336.7031 Q849.1938,336.125 848.6,335.8594 Q848.0063,335.5781 847.3813,335.5781 Q846.0375,335.5781 845.35,336.6563 Q844.6625,337.7188 844.6625,339.8125 Q844.6625,341.9063 845.35,342.9844 Q846.0375,344.0469 847.3813,344.0469 Q848.0063,344.0469 848.6,343.7813 Q849.1938,343.5 849.8188,342.9219 L849.8188,345.6406 Z " fill="#000000"/><text fill="#000000" font-family="sans-serif" font-size="14" lengthAdjust="spacing" textLength="55" x="862.15" y="344.8467">Triangle</text><line style="stroke:#181818;stroke-width:0.5;" x1="827" x2="925" y1="356" y2="356"/><text fill="#000000" font-family="sans-serif" font-size="14" lengthAdjust="spacing" textLength="87" x="832" y="372.9951">+side_a: f64</text><text fill="#000000" font-family="sans-serif" font-size="14" lengthAdjust="spacing" textLength="88" x="832" y="389.292">+side_b: f64</text><text fill="#000000" font-family="sans-serif" font-size="14" lengthAdjust="spacing" textLength="87" x="832" y="405.5889">+side_c: f64</text></g><!--class RightTriangle--><g id="elem_RightTriangle"><rect codeLine="36" fill="#F1F1F1" height="96.8906" id="RightTriangle" rx="2.5" ry="2.5" style="stroke:#181818;stroke-width:0.5;" width="200" x="982" y="320"/><ellipse cx="1032.25" cy="336" fill="#ADD1B2" rx="11" ry="11" style="stroke:#181818;stroke-width:1.0;"/><path d="M1035.2188,341.6406 Q1034.6406,341.9375 1034,342.0781 Q1033.3594,342.2344 1032.6563,342.2344 Q1030.1563,342.2344 1028.8281,340.5938 Q1027.5156,338.9375 1027.5156,335.8125 Q1027.5156,332.6875 1028.8281,331.0313 Q1030.1563,329.375 1032.6563,329.375 Q1033.3594,329.375 1034,329.5313 Q1034.6563,329.6875 1035.2188,329.9844 L1035.2188,332.7031 Q1034.5938,332.125 1034,331.8594 Q1033.4063,331.5781 1032.7813,331.5781 Q1031.4375,331.5781 1030.75,332.6563 Q1030.0625,333.7188 1030.0625,335.8125 Q1030.0625,337.9063 1030.75,338.9844 Q1031.4375,340.0469 1032.7813,340.0469 Q1033.4063,340.0469 1034,339.7813 Q1034.5938,339.5 1035.2188,338.9219 L1035.2188,341.6406 Z " fill="#000000"/><text fill="#000000" font-family="sans-serif" font-size="14" lengthAdjust="spacing" textLength="91" x="1052.75" y="340.8467">RightTriangle</text><line style="stroke:#181818;stroke-width:0.5;" x1="983" x2="1181" y1="352" y2="352"/><text fill="#000000" font-family="sans-serif" font-size="14" lengthAdjust="spacing" textLength="77" x="988" y="368.9951">+base: f64</text><text fill="#000000" font-family="sans-serif" font-size="14" lengthAdjust="spacing" textLength="87" x="988" y="385.292">+height: f64</text><line style="stroke:#181818;stroke-width:0.5;" x1="983" x2="1181" y1="392.5938" y2="392.5938"/><text fill="#000000" font-family="sans-serif" font-size="14" lengthAdjust="spacing" textLength="188" x="988" y="409.5889">+hypotenuse(&amp;self) -&gt; f64</text></g><!--class EquilateralTriangle--><g id="elem_EquilateralTriangle"><rect codeLine="44" fill="#F1F1F1" height="80.5938" id="EquilateralTriangle" rx="2.5" ry="2.5" style="stroke:#181818;stroke-width:0.5;" width="161" x="234.5" y="328"/><ellipse cx="250.85" cy="344" fill="#ADD1B2" rx="11" ry="11" style="stroke:#181818;stroke-width:1.0;"/><path d="M253.8188,349.6406 Q253.2406,349.9375 252.6,350.0781 Q251.9594,350.2344 251.2563,350.2344 Q248.7563,350.2344 247.4281,348.5938 Q246.1156,346.9375 246.1156,343.8125 Q246.1156,340.6875 247.4281,339.0313 Q248.7563,337.375 251.2563,337.375 Q251.9594,337.375 252.6,337.5313 Q253.2563,337.6875 253.8188,337.9844 L253.8188,340.7031 Q253.1938,340.125 252.6,339.8594 Q252.0063,339.5781 251.3813,339.5781 Q250.0375,339.5781 249.35,340.6563 Q248.6625,341.7188 248.6625,343.8125 Q248.6625,345.9063 249.35,346.9844 Q250.0375,348.0469 251.3813,348.0469 Q252.0063,348.0469 252.6,347.7813 Q253.1938,347.5 253.8188,346.9219 L253.8188,349.6406 Z " fill="#000000"/><text fill="#000000" font-family="sans-serif" font-size="14" lengthAdjust="spacing" textLength="126" x="265.15" y="348.8467">EquilateralTriangle</text><line style="stroke:#181818;stroke-width:0.5;" x1="235.5" x2="394.5" y1="360" y2="360"/><text fill="#000000" font-family="sans-serif" font-size="14" lengthAdjust="spacing" textLength="72" x="240.5" y="376.9951">+side: f64</text><line style="stroke:#181818;stroke-width:0.5;" x1="235.5" x2="394.5" y1="384.2969" y2="384.2969"/><text fill="#000000" font-family="sans-serif" font-size="14" lengthAdjust="spacing" textLength="149" x="240.5" y="401.292">+height(&amp;self) -&gt; f64</text></g><!--class Display--><g id="elem_Display"><rect codeLine="52" fill="#F1F1F1" height="64.5625" id="Display" rx="2.5" ry="2.5" style="stroke:#181818;stroke-width:0.5;" width="255" x="1262.5" y="336"/><ellipse cx="1361.25" cy="356.1328" fill="#FF7700" rx="11" ry="11" style="stroke:#181818;stroke-width:1.0;"/><path d="M1362.0938,362.8828 L1359.6406,362.8828 L1359.6406,352.6328 L1356.5,352.6328 L1356.5,350.4922 L1365.2344,350.4922 L1365.2344,352.6328 L1362.0938,352.6328 L1362.0938,362.8828 Z " fill="#000000"/><text fill="#000000" font-family="sans-serif" font-size="12" font-style="italic" lengthAdjust="spacing" textLength="42" x="1385.25" y="352.1387">&#171;Trait&#187;</text><text fill="#000000" font-family="sans-serif" font-size="14" lengthAdjust="spacing" textLength="49" x="1381.75" y="367.9639">Display</text><line style="stroke:#181818;stroke-width:0.5;" x1="1263.5" x2="1516.5" y1="376.2656" y2="376.2656"/><text fill="#000000" font-family="sans-serif" font-size="14" lengthAdjust="spacing" textLength="243" x="1268.5" y="393.2607">+fmt(&amp;self, f: &amp;mut fmt::Formatter)</text></g><!--class Debug--><g id="elem_Debug"><rect codeLine="56" fill="#F1F1F1" height="64.5625" id="Debug" rx="2.5" ry="2.5" style="stroke:#181818;stroke-width:0.5;" width="255" x="1552.5" y="336"/><ellipse cx="1652.25" cy="356.1328" fill="#FF7700" rx="11" ry="11" style="stroke:#181818;stroke-width:1.0;"/><path d="M1653.0938,362.8828 L1650.6406,362.8828 L1650.6406,352.6328 L1647.5,352.6328 L1647.5,350.4922 L1656.2344,350.4922 L1656.2344,352.6328 L1653.0938,352.6328 L1653.0938,362.8828 Z " fill="#000000"/><text fill="#000000" font-family="sans-serif" font-size="12" font-style="italic" lengthAdjust="spacing" textLength="42" x="1675.25" y="352.1387">&#171;Trait&#187;</text><text fill="#000000" font-family="sans-serif" font-size="14" lengthAdjust="spacing" textLength="47" x="1672.75" y="367.9639">Debug</text><line style="stroke:#181818;stroke-width:0.5;" x1="1553.5" x2="1806.5" y1="376.2656" y2="376.2656"/><text fill="#000000" font-family="sans-serif" font-size="14" lengthAdjust="spacing" textLength="243" x="1558.5" y="393.2607">+fmt(&amp;self, f: &amp;mut fmt::Formatter)</text></g><!--class Clone--><g id="elem_Clone"><rect codeLine="62" fill="#F1F1F1" height="64.5625" id="Clone" rx="2.5" ry="2.5" style="stroke:#181818;stroke-width:0.5;" width="158" x="1456" y="57"/><ellipse cx="1510.75" cy="77.1328" fill="#FF7700" rx="11" ry="11" style="stroke:#181818;stroke-width:1.0;"/><path d="M1511.5938,83.8828 L1509.1406,83.8828 L1509.1406,73.6328 L1506,73.6328 L1506,71.4922 L1514.7344,71.4922 L1514.7344,73.6328 L1511.5938,73.6328 L1511.5938,83.8828 Z " fill="#000000"/><text fill="#000000" font-family="sans-serif" font-size="12" font-style="italic" lengthAdjust="spacing" textLength="42" x="1530.25" y="73.1387">&#171;Trait&#187;</text><text fill="#000000" font-family="sans-serif" font-size="14" lengthAdjust="spacing" textLength="40" x="1531.25" y="88.9639">Clone</text><line style="stroke:#181818;stroke-width:0.5;" x1="1457" x2="1613" y1="97.2656" y2="97.2656"/><text fill="#000000" font-family="sans-serif" font-size="14" lengthAdjust="spacing" textLength="146" x="1462" y="114.2607">+clone(&amp;self) -&gt; Self</text></g><!--class Default--><g id="elem_Default"><rect codeLine="68" fill="#F1F1F1" height="64.5625" id="Default" rx="2.5" ry="2.5" style="stroke:#181818;stroke-width:0.5;" width="131" x="22.5" y="57"/><ellipse cx="60" cy="77.1328" fill="#FF7700" rx="11" ry="11" style="stroke:#181818;stroke-width:1.0;"/><path d="M60.8438,83.8828 L58.3906,83.8828 L58.3906,73.6328 L55.25,73.6328 L55.25,71.4922 L63.9844,71.4922 L63.9844,73.6328 L60.8438,73.6328 L60.8438,83.8828 Z " fill="#000000"/><text fill="#000000" font-family="sans-serif" font-size="12" font-style="italic" lengthAdjust="spacing" textLength="42" x="82.5" y="73.1387">&#171;Trait&#187;</text><text fill="#000000" font-family="sans-serif" font-size="14" lengthAdjust="spacing" textLength="49" x="79" y="88.9639">Default</text><line style="stroke:#181818;stroke-width:0.5;" x1="23.5" x2="152.5" y1="97.2656" y2="97.2656"/><text fill="#000000" font-family="sans-serif" font-size="14" lengthAdjust="spacing" textLength="119" x="28.5" y="114.2607">+default() -&gt; Self</text></g><!--link Shape to Display--><g id="link_Shape_Display"><path codeLine="74" d="M944.521,127.427 C1046.33,182.294 1219.9547,275.8593 1315.6347,327.4253 " fill="none" id="Shape-to-Display" style="stroke:#0000FF;stroke-width:1.0;stroke-dasharray:7.0,7.0;"/><polygon fill="none" points="1331.48,335.965,1318.4813,322.1435,1312.7881,332.7071,1331.48,335.965" style="stroke:#0000FF;stroke-width:1.0;"/></g><!--link Shape to Debug--><g id="link_Shape_Debug"><path codeLine="75" d="M944.595,103.247 C1066.87,127.408 1328.98,185.764 1535,277 C1571.09,292.981 1593.9728,306.5929 1621.9028,325.7769 " fill="none" id="Shape-to-Debug" style="stroke:#0000FF;stroke-width:1.0;stroke-dasharray:7.0,7.0;"/><polygon fill="none" points="1636.74,335.968,1625.2998,320.8312,1618.5058,330.7227,1636.74,335.968" style="stroke:#0000FF;stroke-width:1.0;"/></g><!--reverse link Default to Circle--><g id="link_Default_Circle"><path codeLine="77" d="M139.3329,133.6332 C186.2319,171.8702 256.586,224.046 339,260 C369.533,273.321 381.586,263.408 412,277 C441.223,290.06 470.679,310.086 494.052,327.982 " fill="none" id="Default-backto-Circle" style="stroke:#0000FF;stroke-width:1.0;stroke-dasharray:7.0,7.0;"/><polygon fill="none" points="125.382,122.259,135.5415,138.2835,143.1243,128.9829,125.382,122.259" style="stroke:#0000FF;stroke-width:1.0;"/></g><!--reverse link Default to Square--><g id="link_Default_Square"><path codeLine="78" d="M163.8488,130.4098 C178.8768,138.2728 179.035,138.308 194,146 C294.058,197.426 311.61,229.87 420,260 C468.524,273.489 600.757,254.873 646,277 C674.189,290.786 697.191,318.88 711.582,340.13 " fill="none" id="Default-backto-Square" style="stroke:#0000FF;stroke-width:1.0;stroke-dasharray:7.0,7.0;"/><polygon fill="none" points="147.9,122.065,161.0672,135.7261,166.6304,125.0935,147.9,122.065" style="stroke:#0000FF;stroke-width:1.0;"/></g><!--reverse link Default to Triangle--><g id="link_Default_Triangle"><path codeLine="79" d="M161.0858,130.3818 C176.7398,138.5748 177.89,138.774 194,146 C259.451,175.358 425.839,245.064 496,260 C559.14,273.441 727.144,250.479 786,277 C808.829,287.287 829.039,306.125 844.495,323.962 " fill="none" id="Default-backto-Triangle" style="stroke:#0000FF;stroke-width:1.0;stroke-dasharray:7.0,7.0;"/><polygon fill="none" points="145.138,122.035,158.3035,135.6977,163.868,125.0658,145.138,122.035" style="stroke:#0000FF;stroke-width:1.0;"/></g><!--reverse link Default to RightTriangle--><g id="link_Default_RightTriangle"><path codeLine="80" d="M160.0342,130.4622 C175.9092,138.7892 177.44,139.026 194,146 C212.847,153.937 523.876,256.363 544,260 C631.114,275.743 857.648,250.14 942,277 C970.956,286.22 999.71,303.102 1023.56,319.809 " fill="none" id="Default-backto-RightTriangle" style="stroke:#0000FF;stroke-width:1.0;stroke-dasharray:7.0,7.0;"/><polygon fill="none" points="144.094,122.101,157.2471,135.7756,162.8213,125.1488,144.094,122.101" style="stroke:#0000FF;stroke-width:1.0;"/></g><!--reverse link Default to EquilateralTriangle--><g id="link_Default_EquilateralTriangle"><path codeLine="81" d="M125.2283,135.9282 C166.7133,186.5502 236.747,272.01 282.256,327.544 " fill="none" id="Default-backto-EquilateralTriangle" style="stroke:#0000FF;stroke-width:1.0;stroke-dasharray:7.0,7.0;"/><polygon fill="none" points="113.819,122.006,120.5876,139.7313,129.869,132.1251,113.819,122.006" style="stroke:#0000FF;stroke-width:1.0;"/></g><!--reverse link Shape to Circle--><g id="link_Shape_Circle"><path codeLine="83" d="M804.5391,149.5884 C739.7191,203.1864 649.451,277.826 588.899,327.894 " fill="none" id="Shape-backto-Circle" style="stroke:#181818;stroke-width:1.0;stroke-dasharray:7.0,7.0;"/><polygon fill="none" points="818.411,138.118,800.7156,144.9644,808.3625,154.2123,818.411,138.118" style="stroke:#181818;stroke-width:1.0;"/></g><!--reverse link Shape to Square--><g id="link_Shape_Square"><path codeLine="84" d="M842.0755,153.994 C810.9175,212.31 767.679,293.237 742.57,340.231 " fill="none" id="Shape-backto-Square" style="stroke:#181818;stroke-width:1.0;stroke-dasharray:7.0,7.0;"/><polygon fill="none" points="850.558,138.118,836.7835,151.1665,847.3675,156.8215,850.558,138.118" style="stroke:#181818;stroke-width:1.0;"/></g><!--reverse link Shape to Triangle--><g id="link_Shape_Triangle"><path codeLine="85" d="M876,156.118 C876,208.247 876,273.128 876,323.696 " fill="none" id="Shape-backto-Triangle" style="stroke:#181818;stroke-width:1.0;stroke-dasharray:7.0,7.0;"/><polygon fill="none" points="876,138.118,870,156.118,882,156.118,876,138.118" style="stroke:#181818;stroke-width:1.0;"/></g><!--reverse link Shape to RightTriangle--><g id="link_Shape_RightTriangle"><path codeLine="86" d="M922.1544,152.5617 C959.8854,203.2977 1008.54,268.723 1046.36,319.576 " fill="none" id="Shape-backto-RightTriangle" style="stroke:#181818;stroke-width:1.0;stroke-dasharray:7.0,7.0;"/><polygon fill="none" points="911.413,138.118,917.3398,156.1422,926.969,148.9813,911.413,138.118" style="stroke:#181818;stroke-width:1.0;"/></g><!--reverse link Shape to EquilateralTriangle--><g id="link_Shape_EquilateralTriangle"><path codeLine="87" d="M790.2788,119.7733 C701.5748,151.1073 560.811,205.282 436,277 C410.412,291.703 383.946,310.961 362.315,327.931 " fill="none" id="Shape-backto-EquilateralTriangle" style="stroke:#181818;stroke-width:1.0;stroke-dasharray:7.0,7.0;"/><polygon fill="none" points="807.251,113.778,788.2803,114.1159,792.2772,125.4307,807.251,113.778" style="stroke:#181818;stroke-width:1.0;"/></g><!--SRC=[hLHDIyD04BtdLmm8Kh6M7iH2A0LH2rvjRo9baapQnTqaxiUXQl-xco_DfXkiO2u9xytEUpEJMVNAiW8b2eWvAdMhjMIHqVGOvzcAlHDCWnrB24WKUW-2H4HI1K61yIjk2TGE2rBm4O1zgWomAY6Ops6q7fyjbxFPT7e1QubCmsBHH9RF9MGeQ7IkYASN7HGbuJ5Qa6I2DCakTGYgLsicnLZdSjzezCYOoPXJHxzsUzU7Qpc92JCgXFJckiSa3Bi-u6hX11ryskhDsAgEj5Tzk5PGjj_Xxqdje33RUafQ7nC_YJVeAwfYea4cFi6EPDkTtWoQUYhfGMSHAlAfxwWyvcNsHQufCuh-CWXwCuoZdHxoljNQviDFWCUiRpQjIO-DriAXioyw2SDKQ4Vqdgc2u_wadR5dQwKnf26S2wDBA0oNkHIehN5dCvhy59dj_sRlbnJpF7CxULSX9uXMHplTMzcF0PM4KcIyrpoB6OkTe9JKeIEFJ53VMfFdiuWRUfbC9f-BTYv-hknf47ohVtRevb8P8Ekj7o3Rdsw0ThPe8CRp2xVbsS2EFGThN3dOzt47TJqub4_w2m00]--></g></svg>