<?xml version="1.0" encoding="us-ascii" standalone="no"?><svg xmlns="http://www.w3.org/2000/svg" xmlns:xlink="http://www.w3.org/1999/xlink" contentStyleType="text/css" height="464px" preserveAspectRatio="none" style="width:1643px;height:464px;background:#FFFFFF;" version="1.1" viewBox="0 0 1643 464" width="1643px" zoomAndPan="magnify"><defs/><g><!--cluster shapes--><g id="cluster_shapes"><path d="M8.5,6 L66.5,6 A3.75,3.75 0 0 1 69,8.5 L76,28.2969 L1031.5,28.2969 A2.5,2.5 0 0 1 1034,30.7969 L1034,454.5 A2.5,2.5 0 0 1 1031.5,457 L8.5,457 A2.5,2.5 0 0 1 6,454.5 L6,8.5 A2.5,2.5 0 0 1 8.5,6 " fill="none" style="stroke:#000000;stroke-width:1.5;"/><line style="stroke:#000000;stroke-width:1.5;" x1="6" x2="76" y1="28.2969" y2="28.2969"/><text fill="#000000" font-family="sans-serif" font-size="14" font-weight="bold" lengthAdjust="spacing" textLength="57" x="10" y="20.9951">shapes</text></g><!--cluster circle--><g id="cluster_circle"><path d="M32.5,293 L76.5,293 A3.75,3.75 0 0 1 79,295.5 L86,315.2969 L237.5,315.2969 A2.5,2.5 0 0 1 240,317.7969 L240,422.5 A2.5,2.5 0 0 1 237.5,425 L32.5,425 A2.5,2.5 0 0 1 30,422.5 L30,295.5 A2.5,2.5 0 0 1 32.5,293 " fill="none" style="stroke:#000000;stroke-width:1.5;"/><line style="stroke:#000000;stroke-width:1.5;" x1="30" x2="86" y1="315.2969" y2="315.2969"/><text fill="#000000" font-family="sans-serif" font-size="14" font-weight="bold" lengthAdjust="spacing" textLength="43" x="34" y="307.9951">circle</text></g><!--cluster square--><g id="cluster_square"><path d="M266.5,305.5 L322.5,305.5 A3.75,3.75 0 0 1 325,308 L332,327.7969 L377.5,327.7969 A2.5,2.5 0 0 1 380,330.2969 L380,410 A2.5,2.5 0 0 1 377.5,412.5 L266.5,412.5 A2.5,2.5 0 0 1 264,410 L264,308 A2.5,2.5 0 0 1 266.5,305.5 " fill="none" style="stroke:#000000;stroke-width:1.5;"/><line style="stroke:#000000;stroke-width:1.5;" x1="264" x2="332" y1="327.7969" y2="327.7969"/><text fill="#000000" font-family="sans-serif" font-size="14" font-weight="bold" lengthAdjust="spacing" textLength="55" x="268" y="320.4951">square</text></g><!--cluster triangle--><g id="cluster_triangle"><path d="M406.5,289 L467.5,289 A3.75,3.75 0 0 1 470,291.5 L477,311.2969 L533.5,311.2969 A2.5,2.5 0 0 1 536,313.7969 L536,426.5 A2.5,2.5 0 0 1 533.5,429 L406.5,429 A2.5,2.5 0 0 1 404,426.5 L404,291.5 A2.5,2.5 0 0 1 406.5,289 " fill="none" style="stroke:#000000;stroke-width:1.5;"/><line style="stroke:#000000;stroke-width:1.5;" x1="404" x2="477" y1="311.2969" y2="311.2969"/><text fill="#000000" font-family="sans-serif" font-size="14" font-weight="bold" lengthAdjust="spacing" textLength="60" x="408" y="303.9951">triangle</text></g><!--cluster right_triangle--><g id="cluster_right_triangle"><path d="M562.5,285 L667.5,285 A3.75,3.75 0 0 1 670,287.5 L677,307.2969 L789.5,307.2969 A2.5,2.5 0 0 1 792,309.7969 L792,430.5 A2.5,2.5 0 0 1 789.5,433 L562.5,433 A2.5,2.5 0 0 1 560,430.5 L560,287.5 A2.5,2.5 0 0 1 562.5,285 " fill="none" style="stroke:#000000;stroke-width:1.5;"/><line style="stroke:#000000;stroke-width:1.5;" x1="560" x2="677" y1="307.2969" y2="307.2969"/><text fill="#000000" font-family="sans-serif" font-size="14" font-weight="bold" lengthAdjust="spacing" textLength="104" x="564" y="299.9951">right_triangle</text></g><!--cluster equilateral_triangle--><g id="cluster_equilateral_triangle"><path d="M818.5,293 L969.5,293 A3.75,3.75 0 0 1 972,295.5 L979,315.2969 L1007.5,315.2969 A2.5,2.5 0 0 1 1010,317.7969 L1010,422.5 A2.5,2.5 0 0 1 1007.5,425 L818.5,425 A2.5,2.5 0 0 1 816,422.5 L816,295.5 A2.5,2.5 0 0 1 818.5,293 " fill="none" style="stroke:#000000;stroke-width:1.5;"/><line style="stroke:#000000;stroke-width:1.5;" x1="816" x2="979" y1="315.2969" y2="315.2969"/><text fill="#000000" font-family="sans-serif" font-size="14" font-weight="bold" lengthAdjust="spacing" textLength="150" x="820" y="307.9951">equilateral_triangle</text></g><!--cluster std::fmt--><g id="cluster_std::fmt"><path d="M1060.5,301 L1124.5,301 A3.75,3.75 0 0 1 1127,303.5 L1134,323.2969 L1633.5,323.2969 A2.5,2.5 0 0 1 1636,325.7969 L1636,414.5 A2.5,2.5 0 0 1 1633.5,417 L1060.5,417 A2.5,2.5 0 0 1 1058,414.5 L1058,303.5 A2.5,2.5 0 0 1 1060.5,301 " fill="none" style="stroke:#000000;stroke-width:1.5;"/><line style="stroke:#000000;stroke-width:1.5;" x1="1058" x2="1134" y1="323.2969" y2="323.2969"/><text fill="#000000" font-family="sans-serif" font-size="14" font-weight="bold" lengthAdjust="spacing" textLength="63" x="1062" y="315.9951">std::fmt</text></g><!--cluster std::clone--><g id="cluster_std::clone"><path d="M1254.5,22 L1335.5,22 A3.75,3.75 0 0 1 1338,24.5 L1345,44.2969 L1439.5,44.2969 A2.5,2.5 0 0 1 1442,46.7969 L1442,135.5 A2.5,2.5 0 0 1 1439.5,138 L1254.5,138 A2.5,2.5 0 0 1 1252,135.5 L1252,24.5 A2.5,2.5 0 0 1 1254.5,22 " fill="none" style="stroke:#000000;stroke-width:1.5;"/><line style="stroke:#000000;stroke-width:1.5;" x1="1252" x2="1345" y1="44.2969" y2="44.2969"/><text fill="#000000" font-family="sans-serif" font-size="14" font-weight="bold" lengthAdjust="spacing" textLength="80" x="1256" y="36.9951">std::clone</text></g><!--class Shape--><g id="elem_Shape"><rect codeLine="5" fill="#F1F1F1" height="97.1563" id="Shape" rx="2.5" ry="2.5" style="stroke:#181818;stroke-width:0.5;" width="137" x="607.5" y="41"/><ellipse cx="649.95" cy="61.1328" fill="#FF7700" rx="11" ry="11" style="stroke:#181818;stroke-width:1.0;"/><path d="M650.7938,67.8828 L648.3406,67.8828 L648.3406,57.6328 L645.2,57.6328 L645.2,55.4922 L653.9344,55.4922 L653.9344,57.6328 L650.7938,57.6328 L650.7938,67.8828 Z " fill="#000000"/><text fill="#000000" font-family="sans-serif" font-size="12" font-style="italic" lengthAdjust="spacing" textLength="42" x="671.05" y="57.1387">&#171;Trait&#187;</text><text fill="#000000" font-family="sans-serif" font-size="14" lengthAdjust="spacing" textLength="44" x="670.05" y="72.9639">Shape</text><line style="stroke:#181818;stroke-width:0.5;" x1="608.5" x2="743.5" y1="81.2656" y2="81.2656"/><text fill="#000000" font-family="sans-serif" font-size="14" lengthAdjust="spacing" textLength="97" x="613.5" y="98.2607">+name(&amp;self)</text><text fill="#000000" font-family="sans-serif" font-size="14" lengthAdjust="spacing" textLength="88" x="613.5" y="114.5576">+area(&amp;self)</text><text fill="#000000" font-family="sans-serif" font-size="14" lengthAdjust="spacing" textLength="125" x="613.5" y="130.8545">+perimeter(&amp;self)</text></g><path d="M261.5,63 L318.5,63 A3.75,3.75 0 0 1 321,65.5 L328,85.2969 L332.5,85.2969 A2.5,2.5 0 0 1 335,87.7969 L335,113.0938 A2.5,2.5 0 0 1 332.5,115.5938 L261.5,115.5938 A2.5,2.5 0 0 1 259,113.0938 L259,65.5 A2.5,2.5 0 0 1 261.5,63 " fill="#F1F1F1" style="stroke:#181818;stroke-width:0.5;"/><line style="stroke:#181818;stroke-width:0.5;" x1="259" x2="328" y1="85.2969" y2="85.2969"/><text fill="#000000" font-family="sans-serif" font-size="14" font-weight="bold" lengthAdjust="spacing" textLength="56" x="263" y="77.9951">factory</text><!--class Circle--><g id="elem_Circle"><rect codeLine="15" fill="#F1F1F1" height="80.5938" id="Circle" rx="2.5" ry="2.5" style="stroke:#181818;stroke-width:0.5;" width="178" x="46" y="328"/><ellipse cx="111.75" cy="344" fill="#ADD1B2" rx="11" ry="11" style="stroke:#181818;stroke-width:1.0;"/><path d="M114.7188,349.6406 Q114.1406,349.9375 113.5,350.0781 Q112.8594,350.2344 112.1563,350.2344 Q109.6563,350.2344 108.3281,348.5938 Q107.0156,346.9375 107.0156,343.8125 Q107.0156,340.6875 108.3281,339.0313 Q109.6563,337.375 112.1563,337.375 Q112.8594,337.375 113.5,337.5313 Q114.1563,337.6875 114.7188,337.9844 L114.7188,340.7031 Q114.0938,340.125 113.5,339.8594 Q112.9063,339.5781 112.2813,339.5781 Q110.9375,339.5781 110.25,340.6563 Q109.5625,341.7188 109.5625,343.8125 Q109.5625,345.9063 110.25,346.9844 Q110.9375,348.0469 112.2813,348.0469 Q112.9063,348.0469 113.5,347.7813 Q114.0938,347.5 114.7188,346.9219 L114.7188,349.6406 Z " fill="#000000"/><text fill="#000000" font-family="sans-serif" font-size="14" lengthAdjust="spacing" textLength="38" x="132.25" y="348.8467">Circle</text><line style="stroke:#181818;stroke-width:0.5;" x1="47" x2="223" y1="360" y2="360"/><text fill="#000000" font-family="sans-serif" font-size="14" lengthAdjust="spacing" textLength="85" x="52" y="376.9951">+radius: f64</text><line style="stroke:#181818;stroke-width:0.5;" x1="47" x2="223" y1="384.2969" y2="384.2969"/><text fill="#000000" font-family="sans-serif" font-size="14" lengthAdjust="spacing" textLength="166" x="52" y="401.292">+diameter(&amp;self) -&gt; f64</text></g><!--class Square--><g id="elem_Square"><rect codeLine="22" fill="#F1F1F1" height="56.2969" id="Square" rx="2.5" ry="2.5" style="stroke:#181818;stroke-width:0.5;" width="84" x="280" y="340.5"/><ellipse cx="296.35" cy="356.5" fill="#ADD1B2" rx="11" ry="11" style="stroke:#181818;stroke-width:1.0;"/><path d="M299.3188,362.1406 Q298.7406,362.4375 298.1,362.5781 Q297.4594,362.7344 296.7563,362.7344 Q294.2563,362.7344 292.9281,361.0938 Q291.6156,359.4375 291.6156,356.3125 Q291.6156,353.1875 292.9281,351.5313 Q294.2563,349.875 296.7563,349.875 Q297.4594,349.875 298.1,350.0313 Q298.7563,350.1875 299.3188,350.4844 L299.3188,353.2031 Q298.6938,352.625 298.1,352.3594 Q297.5063,352.0781 296.8813,352.0781 Q295.5375,352.0781 294.85,353.1563 Q294.1625,354.2188 294.1625,356.3125 Q294.1625,358.4063 294.85,359.4844 Q295.5375,360.5469 296.8813,360.5469 Q297.5063,360.5469 298.1,360.2813 Q298.6938,360 299.3188,359.4219 L299.3188,362.1406 Z " fill="#000000"/><text fill="#000000" font-family="sans-serif" font-size="14" lengthAdjust="spacing" textLength="49" x="310.65" y="361.3467">Square</text><line style="stroke:#181818;stroke-width:0.5;" x1="281" x2="363" y1="372.5" y2="372.5"/><text fill="#000000" font-family="sans-serif" font-size="14" lengthAdjust="spacing" textLength="72" x="286" y="389.4951">+side: f64</text></g><!--class Triangle--><g id="elem_Triangle"><rect codeLine="28" fill="#F1F1F1" height="88.8906" id="Triangle" rx="2.5" ry="2.5" style="stroke:#181818;stroke-width:0.5;" width="100" x="420" y="324"/><ellipse cx="440.85" cy="340" fill="#ADD1B2" rx="11" ry="11" style="stroke:#181818;stroke-width:1.0;"/><path d="M443.8188,345.6406 Q443.2406,345.9375 442.6,346.0781 Q441.9594,346.2344 441.2563,346.2344 Q438.7563,346.2344 437.4281,344.5938 Q436.1156,342.9375 436.1156,339.8125 Q436.1156,336.6875 437.4281,335.0313 Q438.7563,333.375 441.2563,333.375 Q441.9594,333.375 442.6,333.5313 Q443.2563,333.6875 443.8188,333.9844 L443.8188,336.7031 Q443.1938,336.125 442.6,335.8594 Q442.0063,335.5781 441.3813,335.5781 Q440.0375,335.5781 439.35,336.6563 Q438.6625,337.7188 438.6625,339.8125 Q438.6625,341.9063 439.35,342.9844 Q440.0375,344.0469 441.3813,344.0469 Q442.0063,344.0469 442.6,343.7813 Q443.1938,343.5 443.8188,342.9219 L443.8188,345.6406 Z " fill="#000000"/><text fill="#000000" font-family="sans-serif" font-size="14" lengthAdjust="spacing" textLength="55" x="456.15" y="344.8467">Triangle</text><line style="stroke:#181818;stroke-width:0.5;" x1="421" x2="519" y1="356" y2="356"/><text fill="#000000" font-family="sans-serif" font-size="14" lengthAdjust="spacing" textLength="87" x="426" y="372.9951">+side_a: f64</text><text fill="#000000" font-family="sans-serif" font-size="14" lengthAdjust="spacing" textLength="88" x="426" y="389.292">+side_b: f64</text><text fill="#000000" font-family="sans-serif" font-size="14" lengthAdjust="spacing" textLength="87" x="426" y="405.5889">+side_c: f64</text></g><!--class RightTriangle--><g id="elem_RightTriangle"><rect codeLine="36" fill="#F1F1F1" height="96.8906" id="RightTriangle" rx="2.5" ry="2.5" style="stroke:#181818;stroke-width:0.5;" width="200" x="576" y="320"/><ellipse cx="626.25" cy="336" fill="#ADD1B2" rx="11" ry="11" style="stroke:#181818;stroke-width:1.0;"/><path d="M629.2188,341.6406 Q628.6406,341.9375 628,342.0781 Q627.3594,342.2344 626.6563,342.2344 Q624.1563,342.2344 622.8281,340.5938 Q621.5156,338.9375 621.5156,335.8125 Q621.5156,332.6875 622.8281,331.0313 Q624.1563,329.375 626.6563,329.375 Q627.3594,329.375 628,329.5313 Q628.6563,329.6875 629.2188,329.9844 L629.2188,332.7031 Q628.5938,332.125 628,331.8594 Q627.4063,331.5781 626.7813,331.5781 Q625.4375,331.5781 624.75,332.6563 Q624.0625,333.7188 624.0625,335.8125 Q624.0625,337.9063 624.75,338.9844 Q625.4375,340.0469 626.7813,340.0469 Q627.4063,340.0469 628,339.7813 Q628.5938,339.5 629.2188,338.9219 L629.2188,341.6406 Z " fill="#000000"/><text fill="#000000" font-family="sans-serif" font-size="14" lengthAdjust="spacing" textLength="91" x="646.75" y="340.8467">RightTriangle</text><line style="stroke:#181818;stroke-width:0.5;" x1="577" x2="775" y1="352" y2="352"/><text fill="#000000" font-family="sans-serif" font-size="14" lengthAdjust="spacing" textLength="77" x="582" y="368.9951">+base: f64</text><text fill="#000000" font-family="sans-serif" font-size="14" lengthAdjust="spacing" textLength="87" x="582" y="385.292">+height: f64</text><line style="stroke:#181818;stroke-width:0.5;" x1="577" x2="775" y1="392.5938" y2="392.5938"/><text fill="#000000" font-family="sans-serif" font-size="14" lengthAdjust="spacing" textLength="188" x="582" y="409.5889">+hypotenuse(&amp;self) -&gt; f64</text></g><!--class EquilateralTriangle--><g id="elem_EquilateralTriangle"><rect codeLine="44" fill="#F1F1F1" height="80.5938" id="EquilateralTriangle" rx="2.5" ry="2.5" style="stroke:#181818;stroke-width:0.5;" width="161" x="832.5" y="328"/><ellipse cx="848.85" cy="344" fill="#ADD1B2" rx="11" ry="11" style="stroke:#181818;stroke-width:1.0;"/><path d="M851.8188,349.6406 Q851.2406,349.9375 850.6,350.0781 Q849.9594,350.2344 849.2563,350.2344 Q846.7563,350.2344 845.4281,348.5938 Q844.1156,346.9375 844.1156,343.8125 Q844.1156,340.6875 845.4281,339.0313 Q846.7563,337.375 849.2563,337.375 Q849.9594,337.375 850.6,337.5313 Q851.2563,337.6875 851.8188,337.9844 L851.8188,340.7031 Q851.1938,340.125 850.6,339.8594 Q850.0063,339.5781 849.3813,339.5781 Q848.0375,339.5781 847.35,340.6563 Q846.6625,341.7188 846.6625,343.8125 Q846.6625,345.9063 847.35,346.9844 Q848.0375,348.0469 849.3813,348.0469 Q850.0063,348.0469 850.6,347.7813 Q851.1938,347.5 851.8188,346.9219 L851.8188,349.6406 Z " fill="#000000"/><text fill="#000000" font-family="sans-serif" font-size="14" lengthAdjust="spacing" textLength="126" x="863.15" y="348.8467">EquilateralTriangle</text><line style="stroke:#181818;stroke-width:0.5;" x1="833.5" x2="992.5" y1="360" y2="360"/><text fill="#000000" font-family="sans-serif" font-size="14" lengthAdjust="spacing" textLength="72" x="838.5" y="376.9951">+side: f64</text><line style="stroke:#181818;stroke-width:0.5;" x1="833.5" x2="992.5" y1="384.2969" y2="384.2969"/><text fill="#000000" font-family="sans-serif" font-size="14" lengthAdjust="spacing" textLength="149" x="838.5" y="401.292">+height(&amp;self) -&gt; f64</text></g><!--class Display--><g id="elem_Display"><rect codeLine="52" fill="#F1F1F1" height="64.5625" id="Display" rx="2.5" ry="2.5" style="stroke:#181818;stroke-width:0.5;" width="255" x="1074.5" y="336"/><ellipse cx="1173.25" cy="356.1328" fill="#FF7700" rx="11" ry="11" style="stroke:#181818;stroke-width:1.0;"/><path d="M1174.0938,362.8828 L1171.6406,362.8828 L1171.6406,352.6328 L1168.5,352.6328 L1168.5,350.4922 L1177.2344,350.4922 L1177.2344,352.6328 L1174.0938,352.6328 L1174.0938,362.8828 Z " fill="#000000"/><text fill="#000000" font-family="sans-serif" font-size="12" font-style="italic" lengthAdjust="spacing" textLength="42" x="1197.25" y="352.1387">&#171;Trait&#187;</text><text fill="#000000" font-family="sans-serif" font-size="14" lengthAdjust="spacing" textLength="49" x="1193.75" y="367.9639">Display</text><line style="stroke:#181818;stroke-width:0.5;" x1="1075.5" x2="1328.5" y1="376.2656" y2="376.2656"/><text fill="#000000" font-family="sans-serif" font-size="14" lengthAdjust="spacing" textLength="243" x="1080.5" y="393.2607">+fmt(&amp;self, f: &amp;mut fmt::Formatter)</text></g><!--class Debug--><g id="elem_Debug"><rect codeLine="56" fill="#F1F1F1" height="64.5625" id="Debug" rx="2.5" ry="2.5" style="stroke:#181818;stroke-width:0.5;" width="255" x="1364.5" y="336"/><ellipse cx="1464.25" cy="356.1328" fill="#FF7700" rx="11" ry="11" style="stroke:#181818;stroke-width:1.0;"/><path d="M1465.0938,362.8828 L1462.6406,362.8828 L1462.6406,352.6328 L1459.5,352.6328 L1459.5,350.4922 L1468.2344,350.4922 L1468.2344,352.6328 L1465.0938,352.6328 L1465.0938,362.8828 Z " fill="#000000"/><text fill="#000000" font-family="sans-serif" font-size="12" font-style="italic" lengthAdjust="spacing" textLength="42" x="1487.25" y="352.1387">&#171;Trait&#187;</text><text fill="#000000" font-family="sans-serif" font-size="14" lengthAdjust="spacing" textLength="47" x="1484.75" y="367.9639">Debug</text><line style="stroke:#181818;stroke-width:0.5;" x1="1365.5" x2="1618.5" y1="376.2656" y2="376.2656"/><text fill="#000000" font-family="sans-serif" font-size="14" lengthAdjust="spacing" textLength="243" x="1370.5" y="393.2607">+fmt(&amp;self, f: &amp;mut fmt::Formatter)</text></g><!--class Clone--><g id="elem_Clone"><rect codeLine="62" fill="#F1F1F1" height="64.5625" id="Clone" rx="2.5" ry="2.5" style="stroke:#181818;stroke-width:0.5;" width="158" x="1268" y="57"/><ellipse cx="1322.75" cy="77.1328" fill="#FF7700" rx="11" ry="11" style="stroke:#181818;stroke-width:1.0;"/><path d="M1323.5938,83.8828 L1321.1406,83.8828 L1321.1406,73.6328 L1318,73.6328 L1318,71.4922 L1326.7344,71.4922 L1326.7344,73.6328 L1323.5938,73.6328 L1323.5938,83.8828 Z " fill="#000000"/><text fill="#000000" font-family="sans-serif" font-size="12" font-style="italic" lengthAdjust="spacing" textLength="42" x="1342.25" y="73.1387">&#171;Trait&#187;</text><text fill="#000000" font-family="sans-serif" font-size="14" lengthAdjust="spacing" textLength="40" x="1343.25" y="88.9639">Clone</text><line style="stroke:#181818;stroke-width:0.5;" x1="1269" x2="1425" y1="97.2656" y2="97.2656"/><text fill="#000000" font-family="sans-serif" font-size="14" lengthAdjust="spacing" textLength="146" x="1274" y="114.2607">+clone(&amp;self) -&gt; Self</text></g><!--link Shape to Display--><g id="link_Shape_Display"><path codeLine="68" d="M744.765,126.713 C848.636,181.413 1027.9031,275.8204 1126.2431,327.6034 " fill="none" id="Shape-to-Display" style="stroke:#0000FF;stroke-width:1.0;stroke-dasharray:7.0,7.0;"/><polygon fill="none" points="1142.17,335.99,1129.0387,322.2944,1123.4476,332.9123,1142.17,335.99" style="stroke:#0000FF;stroke-width:1.0;"/></g><!--link Shape to Debug--><g id="link_Shape_Debug"><path codeLine="69" d="M744.874,102.847 C868.965,126.559 1136.73,184.473 1347,277 C1383.12,292.896 1406.0219,306.4977 1433.9319,325.7047 " fill="none" id="Shape-to-Debug" style="stroke:#0000FF;stroke-width:1.0;stroke-dasharray:7.0,7.0;"/><polygon fill="none" points="1448.76,335.909,1437.3334,320.762,1430.5305,330.6474,1448.76,335.909" style="stroke:#0000FF;stroke-width:1.0;"/></g><!--reverse link Shape to Circle--><g id="link_Shape_Circle"><path codeLine="71" d="M590.6468,123.619 C507.2768,156.799 380.108,210.765 264,277 C237.504,292.115 209.618,311.231 186.578,327.996 " fill="none" id="Shape-backto-Circle" style="stroke:#181818;stroke-width:1.0;stroke-dasharray:7.0,7.0;"/><polygon fill="none" points="607.371,116.963,588.4282,118.0442,592.8655,129.1937,607.371,116.963" style="stroke:#181818;stroke-width:1.0;"/></g><!--reverse link Shape to Square--><g id="link_Shape_Square"><path codeLine="72" d="M592.1161,140.7204 C535.1051,176.0284 468.475,220.697 404,277 C381.802,296.385 359.534,321.4 343.818,340.216 " fill="none" id="Shape-backto-Square" style="stroke:#181818;stroke-width:1.0;stroke-dasharray:7.0,7.0;"/><polygon fill="none" points="607.419,131.243,588.957,135.6194,595.2752,145.8214,607.419,131.243" style="stroke:#181818;stroke-width:1.0;"/></g><!--reverse link Shape to Triangle--><g id="link_Shape_Triangle"><path codeLine="73" d="M629.8456,152.5617 C591.0786,204.6907 540.183,273.128 502.576,323.696 " fill="none" id="Shape-backto-Triangle" style="stroke:#181818;stroke-width:1.0;stroke-dasharray:7.0,7.0;"/><polygon fill="none" points="640.587,138.118,625.031,148.9813,634.6601,156.1422,640.587,138.118" style="stroke:#181818;stroke-width:1.0;"/></g><!--reverse link Shape to RightTriangle--><g id="link_Shape_RightTriangle"><path codeLine="74" d="M676,156.118 C676,206.854 676,268.723 676,319.576 " fill="none" id="Shape-backto-RightTriangle" style="stroke:#181818;stroke-width:1.0;stroke-dasharray:7.0,7.0;"/><polygon fill="none" points="676,138.118,670,156.118,682,156.118,676,138.118" style="stroke:#181818;stroke-width:1.0;"/></g><!--reverse link Shape to EquilateralTriangle--><g id="link_Shape_EquilateralTriangle"><path codeLine="75" d="M728.444,151.7951 C774.236,205.3161 836.062,277.577 878.927,327.677 " fill="none" id="Shape-backto-EquilateralTriangle" style="stroke:#181818;stroke-width:1.0;stroke-dasharray:7.0,7.0;"/><polygon fill="none" points="716.742,138.118,723.885,155.6958,733.003,147.8944,716.742,138.118" style="stroke:#181818;stroke-width:1.0;"/></g><!--SRC=[hLJ1QeD04Btx5GE5aD1KSYWDI11Asa2lJMwbX577kCHLixiUqYR_tbKZSSs6fb0lodixyzxCx2YtB2jG88SmHIcVbH8iA1MzXNcsP5y44oTX4G7nGks14mz8ICSfCDpYXa0cM924RmVqKsU0PGN1R0R3rVXkiPXE9vCHh0Go1Rv_Ebazzv0Xf-50KXgFEYWAmakq8C4uAH9TwkZKhzPCZA7AnVwaqID39iAKElgDstaVRkG4HgoK7iHFZpqcOjZr0G- -SUXeqvQxKbTreRtimus2rFtsVa-g1uNPnbBIwf8u9rwZhQYQ2QuouGrs1DiaQdtLr7j5NtKMe2IRUa9Lc9NP5xcYh9Jqbq7GhcGfwkbXshVQs7mz7x2OjSscDMcnqLeuTlP5HPuNSsM8lZ1PfBY_QMTqRACqXjY30IzL1NdU8XSSbJPkRCOfFmNbvd-pzqiAqpmpEpclaHj4wz1EzvRwuwpYDByJz-CkI4lwT5ttuBSDitDLiMtOxA11zxJa9jOiducr8pTHu-gQbEMwE3y0]--></g></svg>