<svg xmlns="http://www.w3.org/2000/svg" xmlns:xlink="http://www.w3.org/1999/xlink" contentStyleType="text/css" height="464px" preserveAspectRatio="none" style="width:1860px;height:464px;background:#FFFFFF;" version="1.1" viewBox="0 0 1860 464" width="1860px" zoomAndPan="magnify"><defs/><g><!--cluster shapes--><g id="cluster_shapes"><path d="M200.5,6 L257.0967,6 A3.75,3.75 0 0 1 259.5967,8.5 L266.5967,28.2969 L1231.5,28.2969 A2.5,2.5 0 0 1 1234,30.7969 L1234,454.5 A2.5,2.5 0 0 1 1231.5,457 L200.5,457 A2.5,2.5 0 0 1 198,454.5 L198,8.5 A2.5,2.5 0 0 1 200.5,6 " fill="none" style="stroke:#000000;stroke-width:1.5;"/><line style="stroke:#000000;stroke-width:1.5;" x1="198" x2="266.5967" y1="28.2969" y2="28.2969"/><text fill="#000000" font-family="sans-serif" font-size="14" font-weight="bold" lengthAdjust="spacing" textLength="55.5967" x="202" y="20.9951">shapes</text></g><!--cluster circle--><g id="cluster_circle"><path d="M444.5,293 L488.0947,293 A3.75,3.75 0 0 1 490.5947,295.5 L497.5947,315.2969 L653.5,315.2969 A2.5,2.5 0 0 1 656,317.7969 L656,422.5 A2.5,2.5 0 0 1 653.5,425 L444.5,425 A2.5,2.5 0 0 1 442,422.5 L442,295.5 A2.5,2.5 0 0 1 444.5,293 " fill="none" style="stroke:#000000;stroke-width:1.5;"/><line style="stroke:#000000;stroke-width:1.5;" x1="442" x2="497.5947" y1="315.2969" y2="315.2969"/><text fill="#000000" font-family="sans-serif" font-size="14" font-weight="bold" lengthAdjust="spacing" textLength="42.5947" x="446" y="307.9951">circle</text></g><!--cluster square--><g id="cluster_square"><path d="M682.5,305.5 L737.668,305.5 A3.75,3.75 0 0 1 740.168,308 L747.168,327.7969 L793.5,327.7969 A2.5,2.5 0 0 1 796,330.2969 L796,410 A2.5,2.5 0 0 1 793.5,412.5 L682.5,412.5 A2.5,2.5 0 0 1 680,410 L680,308 A2.5,2.5 0 0 1 682.5,305.5 " fill="none" style="stroke:#000000;stroke-width:1.5;"/><line style="stroke:#000000;stroke-width:1.5;" x1="680" x2="747.168" y1="327.7969" y2="327.7969"/><text fill="#000000" font-family="sans-serif" font-size="14" font-weight="bold" lengthAdjust="spacing" textLength="54.168" x="684" y="320.4951">square</text></g><!--cluster triangle--><g id="cluster_triangle"><path d="M822.5,289 L885.625,289 A3.75,3.75 0 0 1 888.125,291.5 L895.125,311.2969 L949.5,311.2969 A2.5,2.5 0 0 1 952,313.7969 L952,426.5 A2.5,2.5 0 0 1 949.5,429 L822.5,429 A2.5,2.5 0 0 1 820,426.5 L820,291.5 A2.5,2.5 0 0 1 822.5,289 " fill="none" style="stroke:#000000;stroke-width:1.5;"/><line style="stroke:#000000;stroke-width:1.5;" x1="820" x2="895.125" y1="311.2969" y2="311.2969"/><text fill="#000000" font-family="sans-serif" font-size="14" font-weight="bold" lengthAdjust="spacing" textLength="62.125" x="824" y="303.9951">triangle</text></g><!--cluster right_triangle--><g id="cluster_right_triangle"><path d="M978.5,285 L1087.0088,285 A3.75,3.75 0 0 1 1089.5088,287.5 L1096.5088,307.2969 L1207.5,307.2969 A2.5,2.5 0 0 1 1210,309.7969 L1210,430.5 A2.5,2.5 0 0 1 1207.5,433 L978.5,433 A2.5,2.5 0 0 1 976,430.5 L976,287.5 A2.5,2.5 0 0 1 978.5,285 " fill="none" style="stroke:#000000;stroke-width:1.5;"/><line style="stroke:#000000;stroke-width:1.5;" x1="976" x2="1096.5088" y1="307.2969" y2="307.2969"/><text fill="#000000" font-family="sans-serif" font-size="14" font-weight="bold" lengthAdjust="spacing" textLength="107.5088" x="980" y="299.9951">right_triangle</text></g><!--cluster equilateral_triangle--><g id="cluster_equilateral_triangle"><path d="M224.5,293 L380.4912,293 A3.75,3.75 0 0 1 382.9912,295.5 L389.9912,315.2969 L415.5,315.2969 A2.5,2.5 0 0 1 418,317.7969 L418,422.5 A2.5,2.5 0 0 1 415.5,425 L224.5,425 A2.5,2.5 0 0 1 222,422.5 L222,295.5 A2.5,2.5 0 0 1 224.5,293 " fill="none" style="stroke:#000000;stroke-width:1.5;"/><line style="stroke:#000000;stroke-width:1.5;" x1="222" x2="389.9912" y1="315.2969" y2="315.2969"/><text fill="#000000" font-family="sans-serif" font-size="14" font-weight="bold" lengthAdjust="spacing" textLength="154.9912" x="226" y="307.9951">equilateral_triangle</text></g><!--cluster std::fmt--><g id="cluster_std::fmt"><path d="M1260.5,301 L1325.1152,301 A3.75,3.75 0 0 1 1327.6152,303.5 L1334.6152,323.2969 L1850.5,323.2969 A2.5,2.5 0 0 1 1853,325.7969 L1853,414.5 A2.5,2.5 0 0 1 1850.5,417 L1260.5,417 A2.5,2.5 0 0 1 1258,414.5 L1258,303.5 A2.5,2.5 0 0 1 1260.5,301 " fill="none" style="stroke:#000000;stroke-width:1.5;"/><line style="stroke:#000000;stroke-width:1.5;" x1="1258" x2="1334.6152" y1="323.2969" y2="323.2969"/><text fill="#000000" font-family="sans-serif" font-size="14" font-weight="bold" lengthAdjust="spacing" textLength="63.6152" x="1262" y="315.9951">std::fmt</text></g><!--cluster std::clone--><g id="cluster_std::clone"><path d="M1461.5,22 L1540.9219,22 A3.75,3.75 0 0 1 1543.4219,24.5 L1550.4219,44.2969 L1648.5,44.2969 A2.5,2.5 0 0 1 1651,46.7969 L1651,135.5 A2.5,2.5 0 0 1 1648.5,138 L1461.5,138 A2.5,2.5 0 0 1 1459,135.5 L1459,24.5 A2.5,2.5 0 0 1 1461.5,22 " fill="none" style="stroke:#000000;stroke-width:1.5;"/><line style="stroke:#000000;stroke-width:1.5;" x1="1459" x2="1550.4219" y1="44.2969" y2="44.2969"/><text fill="#000000" font-family="sans-serif" font-size="14" font-weight="bold" lengthAdjust="spacing" textLength="78.4219" x="1463" y="36.9951">std::clone</text></g><!--cluster std::default--><g id="cluster_std::default"><path d="M8.5,22 L102.2568,22 A3.75,3.75 0 0 1 104.7568,24.5 L111.7568,44.2969 L171.5,44.2969 A2.5,2.5 0 0 1 174,46.7969 L174,135.5 A2.5,2.5 0 0 1 171.5,138 L8.5,138 A2.5,2.5 0 0 1 6,135.5 L6,24.5 A2.5,2.5 0 0 1 8.5,22 " fill="none" style="stroke:#000000;stroke-width:1.5;"/><line style="stroke:#000000;stroke-width:1.5;" x1="6" x2="111.7568" y1="44.2969" y2="44.2969"/><text fill="#000000" font-family="sans-serif" font-size="14" font-weight="bold" lengthAdjust="spacing" textLength="92.7568" x="10" y="36.9951">std::default</text></g><!--class Shape--><g id="elem_Shape"><rect codeLine="5" fill="#F1F1F1" height="97.1563" id="Shape" rx="2.5" ry="2.5" style="stroke:#181818;stroke-width:0.5;" width="139.5518" x="816" y="41"/><ellipse cx="859.6708" cy="61.1328" fill="#FF7700" rx="11" ry="11" style="stroke:#181818;stroke-width:1.0;"/><path d="M860.5146,67.8828 L858.0614,67.8828 L858.0614,57.6328 L854.9208,57.6328 L854.9208,55.4922 L863.6552,55.4922 L863.6552,57.6328 L860.5146,57.6328 L860.5146,67.8828 Z " fill="#000000"/><text fill="#000000" font-family="sans-serif" font-size="12" font-style="italic" lengthAdjust="spacing" textLength="42.4688" x="880.7271" y="57.1387">&#171;Trait&#187;</text><text fill="#000000" font-family="sans-serif" font-size="14" lengthAdjust="spacing" textLength="43.8389" x="880.0421" y="72.9639">Shape</text><line style="stroke:#181818;stroke-width:0.5;" x1="817" x2="954.5518" y1="81.2656" y2="81.2656"/><text fill="#000000" font-family="sans-serif" font-size="14" lengthAdjust="spacing" textLength="98" x="822" y="98.2607">+name(&amp;self)</text><text fill="#000000" font-family="sans-serif" font-size="14" lengthAdjust="spacing" textLength="89.8242" x="822" y="114.5576">+area(&amp;self)</text><text fill="#000000" font-family="sans-serif" font-size="14" lengthAdjust="spacing" textLength="127.5518" x="822" y="130.8545">+perimeter(&amp;self)</text></g><path d="M462.5,63 L519.6777,63 A3.75,3.75 0 0 1 522.1777,65.5 L529.1777,85.2969 L533.6777,85.2969 A2.5,2.5 0 0 1 536.1777,87.7969 L536.1777,113.0938 A2.5,2.5 0 0 1 533.6777,115.5938 L462.5,115.5938 A2.5,2.5 0 0 1 460,113.0938 L460,65.5 A2.5,2.5 0 0 1 462.5,63 " fill="#F1F1F1" style="stroke:#181818;stroke-width:0.5;"/><line style="stroke:#181818;stroke-width:0.5;" x1="460" x2="529.1777" y1="85.2969" y2="85.2969"/><text fill="#000000" font-family="sans-serif" font-size="14" font-weight="bold" lengthAdjust="spacing" textLength="56.1777" x="464" y="77.9951">factory</text><!--class Circle--><g id="elem_Circle"><rect codeLine="15" fill="#F1F1F1" height="80.5938" id="Circle" rx="2.5" ry="2.5" style="stroke:#181818;stroke-width:0.5;" width="182.1875" x="458" y="328"/><ellipse cx="525.0332" cy="344" fill="#ADD1B2" rx="11" ry="11" style="stroke:#181818;stroke-width:1.0;"/><path d="M528.002,349.6406 Q527.4238,349.9375 526.7832,350.0781 Q526.1426,350.2344 525.4395,350.2344 Q522.9395,350.2344 521.6113,348.5938 Q520.2988,346.9375 520.2988,343.8125 Q520.2988,340.6875 521.6113,339.0313 Q522.9395,337.375 525.4395,337.375 Q526.1426,337.375 526.7832,337.5313 Q527.4395,337.6875 528.002,337.9844 L528.002,340.7031 Q527.377,340.125 526.7832,339.8594 Q526.1895,339.5781 525.5645,339.5781 Q524.2207,339.5781 523.5332,340.6563 Q522.8457,341.7188 522.8457,343.8125 Q522.8457,345.9063 523.5332,346.9844 Q524.2207,348.0469 525.5645,348.0469 Q526.1895,348.0469 526.7832,347.7813 Q527.377,347.5 528.002,346.9219 L528.002,349.6406 Z " fill="#000000"/><text fill="#000000" font-family="sans-serif" font-size="14" lengthAdjust="spacing" textLength="39.6211" x="545.5332" y="348.8467">Circle</text><line style="stroke:#181818;stroke-width:0.5;" x1="459" x2="639.1875" y1="360" y2="360"/><text fill="#000000" font-family="sans-serif" font-size="14" lengthAdjust="spacing" textLength="86.9189" x="464" y="376.9951">+radius: f64</text><line style="stroke:#181818;stroke-width:0.5;" x1="459" x2="639.1875" y1="384.2969" y2="384.2969"/><text fill="#000000" font-family="sans-serif" font-size="14" lengthAdjust="spacing" textLength="170.1875" x="464" y="401.292">+diameter(&amp;self) -&gt; f64</text></g><!--class Square--><g id="elem_Square"><rect codeLine="22" fill="#F1F1F1" height="56.2969" id="Square" rx="2.5" ry="2.5" style="stroke:#181818;stroke-width:0.5;" width="84.3242" x="696" y="340.5"/><ellipse cx="712.2283" cy="356.5" fill="#ADD1B2" rx="11" ry="11" style="stroke:#181818;stroke-width:1.0;"/><path d="M715.197,362.1406 Q714.6189,362.4375 713.9783,362.5781 Q713.3376,362.7344 712.6345,362.7344 Q710.1345,362.7344 708.8064,361.0938 Q707.4939,359.4375 707.4939,356.3125 Q707.4939,353.1875 708.8064,351.5313 Q710.1345,349.875 712.6345,349.875 Q713.3376,349.875 713.9783,350.0313 Q714.6345,350.1875 715.197,350.4844 L715.197,353.2031 Q714.572,352.625 713.9783,352.3594 Q713.3845,352.0781 712.7595,352.0781 Q711.4158,352.0781 710.7283,353.1563 Q710.0408,354.2188 710.0408,356.3125 Q710.0408,358.4063 710.7283,359.4844 Q711.4158,360.5469 712.7595,360.5469 Q713.3845,360.5469 713.9783,360.2813 Q714.572,360 715.197,359.4219 L715.197,362.1406 Z " fill="#000000"/><text fill="#000000" font-family="sans-serif" font-size="14" lengthAdjust="spacing" textLength="49.5947" x="726.5012" y="361.3467">Square</text><line style="stroke:#181818;stroke-width:0.5;" x1="697" x2="779.3242" y1="372.5" y2="372.5"/><text fill="#000000" font-family="sans-serif" font-size="14" lengthAdjust="spacing" textLength="72.3242" x="702" y="389.4951">+side: f64</text></g><!--class Triangle--><g id="elem_Triangle"><rect codeLine="28" fill="#F1F1F1" height="88.8906" id="Triangle" rx="2.5" ry="2.5" style="stroke:#181818;stroke-width:0.5;" width="100.2109" x="836" y="324"/><ellipse cx="856.0273" cy="340" fill="#ADD1B2" rx="11" ry="11" style="stroke:#181818;stroke-width:1.0;"/><path d="M858.9961,345.6406 Q858.418,345.9375 857.7773,346.0781 Q857.1367,346.2344 856.4336,346.2344 Q853.9336,346.2344 852.6055,344.5938 Q851.293,342.9375 851.293,339.8125 Q851.293,336.6875 852.6055,335.0313 Q853.9336,333.375 856.4336,333.375 Q857.1367,333.375 857.7773,333.5313 Q858.4336,333.6875 858.9961,333.9844 L858.9961,336.7031 Q858.3711,336.125 857.7773,335.8594 Q857.1836,335.5781 856.5586,335.5781 Q855.2148,335.5781 854.5273,336.6563 Q853.8398,337.7188 853.8398,339.8125 Q853.8398,341.9063 854.5273,342.9844 Q855.2148,344.0469 856.5586,344.0469 Q857.1836,344.0469 857.7773,343.7813 Q858.3711,343.5 858.9961,342.9219 L858.9961,345.6406 Z " fill="#000000"/><text fill="#000000" font-family="sans-serif" font-size="14" lengthAdjust="spacing" textLength="57.0391" x="871.1445" y="344.8467">Triangle</text><line style="stroke:#181818;stroke-width:0.5;" x1="837" x2="935.2109" y1="356" y2="356"/><text fill="#000000" font-family="sans-serif" font-size="14" lengthAdjust="spacing" textLength="87.9033" x="842" y="372.9951">+side_a: f64</text><text fill="#000000" font-family="sans-serif" font-size="14" lengthAdjust="spacing" textLength="88.2109" x="842" y="389.292">+side_b: f64</text><text fill="#000000" font-family="sans-serif" font-size="14" lengthAdjust="spacing" textLength="87.0215" x="842" y="405.5889">+side_c: f64</text></g><!--class RightTriangle--><g id="elem_RightTriangle"><rect codeLine="36" fill="#F1F1F1" height="96.8906" id="RightTriangle" rx="2.5" ry="2.5" style="stroke:#181818;stroke-width:0.5;" width="201.0889" x="992.5" y="320"/><ellipse cx="1041.8418" cy="336" fill="#ADD1B2" rx="11" ry="11" style="stroke:#181818;stroke-width:1.0;"/><path d="M1044.8105,341.6406 Q1044.2324,341.9375 1043.5918,342.0781 Q1042.9512,342.2344 1042.248,342.2344 Q1039.748,342.2344 1038.4199,340.5938 Q1037.1074,338.9375 1037.1074,335.8125 Q1037.1074,332.6875 1038.4199,331.0313 Q1039.748,329.375 1042.248,329.375 Q1042.9512,329.375 1043.5918,329.5313 Q1044.248,329.6875 1044.8105,329.9844 L1044.8105,332.7031 Q1044.1855,332.125 1043.5918,331.8594 Q1042.998,331.5781 1042.373,331.5781 Q1041.0293,331.5781 1040.3418,332.6563 Q1039.6543,333.7188 1039.6543,335.8125 Q1039.6543,337.9063 1040.3418,338.9844 Q1041.0293,340.0469 1042.373,340.0469 Q1042.998,340.0469 1043.5918,339.7813 Q1044.1855,339.5 1044.8105,338.9219 L1044.8105,341.6406 Z " fill="#000000"/><text fill="#000000" font-family="sans-serif" font-size="14" lengthAdjust="spacing" textLength="93.9053" x="1062.3418" y="340.8467">RightTriangle</text><line style="stroke:#181818;stroke-width:0.5;" x1="993.5" x2="1192.5889" y1="352" y2="352"/><text fill="#000000" font-family="sans-serif" font-size="14" lengthAdjust="spacing" textLength="77.0137" x="998.5" y="368.9951">+base: f64</text><text fill="#000000" font-family="sans-serif" font-size="14" lengthAdjust="spacing" textLength="88.2656" x="998.5" y="385.292">+height: f64</text><line style="stroke:#181818;stroke-width:0.5;" x1="993.5" x2="1192.5889" y1="392.5938" y2="392.5938"/><text fill="#000000" font-family="sans-serif" font-size="14" lengthAdjust="spacing" textLength="189.0889" x="998.5" y="409.5889">+hypotenuse(&amp;self) -&gt; f64</text></g><!--class EquilateralTriangle--><g id="elem_EquilateralTriangle"><rect codeLine="44" fill="#F1F1F1" height="80.5938" id="EquilateralTriangle" rx="2.5" ry="2.5" style="stroke:#181818;stroke-width:0.5;" width="164.3301" x="238" y="328"/><ellipse cx="253" cy="344" fill="#ADD1B2" rx="11" ry="11" style="stroke:#181818;stroke-width:1.0;"/><path d="M255.9688,349.6406 Q255.3906,349.9375 254.75,350.0781 Q254.1094,350.2344 253.4063,350.2344 Q250.9063,350.2344 249.5781,348.5938 Q248.2656,346.9375 248.2656,343.8125 Q248.2656,340.6875 249.5781,339.0313 Q250.9063,337.375 253.4063,337.375 Q254.1094,337.375 254.75,337.5313 Q255.4063,337.6875 255.9688,337.9844 L255.9688,340.7031 Q255.3438,340.125 254.75,339.8594 Q254.1563,339.5781 253.5313,339.5781 Q252.1875,339.5781 251.5,340.6563 Q250.8125,341.7188 250.8125,343.8125 Q250.8125,345.9063 251.5,346.9844 Q252.1875,348.0469 253.5313,348.0469 Q254.1563,348.0469 254.75,347.7813 Q255.3438,347.5 255.9688,346.9219 L255.9688,349.6406 Z " fill="#000000"/><text fill="#000000" font-family="sans-serif" font-size="14" lengthAdjust="spacing" textLength="132.3301" x="267" y="348.8467">EquilateralTriangle</text><line style="stroke:#181818;stroke-width:0.5;" x1="239" x2="401.3301" y1="360" y2="360"/><text fill="#000000" font-family="sans-serif" font-size="14" lengthAdjust="spacing" textLength="72.3242" x="244" y="376.9951">+side: f64</text><line style="stroke:#181818;stroke-width:0.5;" x1="239" x2="401.3301" y1="384.2969" y2="384.2969"/><text fill="#000000" font-family="sans-serif" font-size="14" lengthAdjust="spacing" textLength="151.3477" x="244" y="401.292">+height(&amp;self) -&gt; f64</text></g><!--class Display--><g id="elem_Display"><rect codeLine="52" fill="#F1F1F1" height="64.5625" id="Display" rx="2.5" ry="2.5" style="stroke:#181818;stroke-width:0.5;" width="264.1436" x="1274" y="336"/><ellipse cx="1376.0195" cy="356.1328" fill="#FF7700" rx="11" ry="11" style="stroke:#181818;stroke-width:1.0;"/><path d="M1376.8633,362.8828 L1374.4102,362.8828 L1374.4102,352.6328 L1371.2695,352.6328 L1371.2695,350.4922 L1380.0039,350.4922 L1380.0039,352.6328 L1376.8633,352.6328 L1376.8633,362.8828 Z " fill="#000000"/><text fill="#000000" font-family="sans-serif" font-size="12" font-style="italic" lengthAdjust="spacing" textLength="42.4688" x="1401.0874" y="352.1387">&#171;Trait&#187;</text><text fill="#000000" font-family="sans-serif" font-size="14" lengthAdjust="spacing" textLength="51.6045" x="1396.5195" y="367.9639">Display</text><line style="stroke:#181818;stroke-width:0.5;" x1="1275" x2="1537.1436" y1="376.2656" y2="376.2656"/><text fill="#000000" font-family="sans-serif" font-size="14" lengthAdjust="spacing" textLength="252.1436" x="1280" y="393.2607">+fmt(&amp;self, f: &amp;mut fmt::Formatter)</text></g><!--class Debug--><g id="elem_Debug"><rect codeLine="56" fill="#F1F1F1" height="64.5625" id="Debug" rx="2.5" ry="2.5" style="stroke:#181818;stroke-width:0.5;" width="264.1436" x="1573" y="336"/><ellipse cx="1677.8018" cy="356.1328" fill="#FF7700" rx="11" ry="11" style="stroke:#181818;stroke-width:1.0;"/><path d="M1678.6455,362.8828 L1676.1924,362.8828 L1676.1924,352.6328 L1673.0518,352.6328 L1673.0518,350.4922 L1681.7861,350.4922 L1681.7861,352.6328 L1678.6455,352.6328 L1678.6455,362.8828 Z " fill="#000000"/><text fill="#000000" font-family="sans-serif" font-size="12" font-style="italic" lengthAdjust="spacing" textLength="42.4688" x="1700.0874" y="352.1387">&#171;Trait&#187;</text><text fill="#000000" font-family="sans-serif" font-size="14" lengthAdjust="spacing" textLength="46.04" x="1698.3018" y="367.9639">Debug</text><line style="stroke:#181818;stroke-width:0.5;" x1="1574" x2="1836.1436" y1="376.2656" y2="376.2656"/><text fill="#000000" font-family="sans-serif" font-size="14" lengthAdjust="spacing" textLength="252.1436" x="1579" y="393.2607">+fmt(&amp;self, f: &amp;mut fmt::Formatter)</text></g><!--class Clone--><g id="elem_Clone"><rect codeLine="62" fill="#F1F1F1" height="64.5625" id="Clone" rx="2.5" ry="2.5" style="stroke:#181818;stroke-width:0.5;" width="159.9365" x="1475" y="57"/><ellipse cx="1530.8599" cy="77.1328" fill="#FF7700" rx="11" ry="11" style="stroke:#181818;stroke-width:1.0;"/><path d="M1531.7036,83.8828 L1529.2505,83.8828 L1529.2505,73.6328 L1526.1099,73.6328 L1526.1099,71.4922 L1534.8442,71.4922 L1534.8442,73.6328 L1531.7036,73.6328 L1531.7036,83.8828 Z " fill="#000000"/><text fill="#000000" font-family="sans-serif" font-size="12" font-style="italic" lengthAdjust="spacing" textLength="42.4688" x="1549.9839" y="73.1387">&#171;Trait&#187;</text><text fill="#000000" font-family="sans-serif" font-size="14" lengthAdjust="spacing" textLength="39.7168" x="1551.3599" y="88.9639">Clone</text><line style="stroke:#181818;stroke-width:0.5;" x1="1476" x2="1633.9365" y1="97.2656" y2="97.2656"/><text fill="#000000" font-family="sans-serif" font-size="14" lengthAdjust="spacing" textLength="147.9365" x="1481" y="114.2607">+clone(&amp;self) -&gt; Self</text></g><!--class Default--><g id="elem_Default"><rect codeLine="68" fill="#F1F1F1" height="64.5625" id="Default" rx="2.5" ry="2.5" style="stroke:#181818;stroke-width:0.5;" width="135.915" x="22" y="57"/><ellipse cx="60.7428" cy="77.1328" fill="#FF7700" rx="11" ry="11" style="stroke:#181818;stroke-width:1.0;"/><path d="M61.5865,83.8828 L59.1334,83.8828 L59.1334,73.6328 L55.9928,73.6328 L55.9928,71.4922 L64.7271,71.4922 L64.7271,73.6328 L61.5865,73.6328 L61.5865,83.8828 Z " fill="#000000"/><text fill="#000000" font-family="sans-serif" font-size="12" font-style="italic" lengthAdjust="spacing" textLength="42.4688" x="84.3612" y="73.1387">&#171;Trait&#187;</text><text fill="#000000" font-family="sans-serif" font-size="14" lengthAdjust="spacing" textLength="51.1533" x="80.0189" y="88.9639">Default</text><line style="stroke:#181818;stroke-width:0.5;" x1="23" x2="156.915" y1="97.2656" y2="97.2656"/><text fill="#000000" font-family="sans-serif" font-size="14" lengthAdjust="spacing" textLength="123.915" x="28" y="114.2607">+default() -&gt; Self</text></g><!--link Shape to Display--><g id="link_Shape_Display"><path codeLine="74" d="M956.13,127.86 C1059.26,182.79 1234.1232,275.9478 1330.7332,327.4078 " fill="none" id="Shape-to-Display" style="stroke:#0000FF;stroke-width:1.0;stroke-dasharray:7.0,7.0;"/><polygon fill="none" points="1346.62,335.87,1333.5539,322.1122,1327.9124,332.7034,1346.62,335.87" style="stroke:#0000FF;stroke-width:1.0;"/></g><!--link Shape to Debug--><g id="link_Shape_Debug"><path codeLine="75" d="M956.13,103.41 C1080.49,127.73 1346.31,186.2 1556,277 C1592.94,293 1616.7379,306.8082 1645.4779,325.9882 " fill="none" id="Shape-to-Debug" style="stroke:#0000FF;stroke-width:1.0;stroke-dasharray:7.0,7.0;"/><polygon fill="none" points="1660.45,335.98,1648.8085,320.9975,1642.1473,330.9789,1660.45,335.98" style="stroke:#0000FF;stroke-width:1.0;"/></g><!--reverse link Default to Circle--><g id="link_Default_Circle"><path codeLine="77" d="M141.6767,133.6602 C188.9567,171.9602 259.96,224.25 343,260 C374.39,273.52 386.7,263.26 418,277 C447.61,290 477.52,310.02 501.27,327.93 " fill="none" id="Default-backto-Circle" style="stroke:#0000FF;stroke-width:1.0;stroke-dasharray:7.0,7.0;"/><polygon fill="none" points="127.69,122.33,137.9,138.3224,145.4534,128.9979,127.69,122.33" style="stroke:#0000FF;stroke-width:1.0;"/></g><!--reverse link Default to Square--><g id="link_Default_Square"><path codeLine="78" d="M151.1518,131.9161 C212.4318,172.0161 310.48,229.76 418,260 C469.04,274.35 608.32,253.79 656,277 C684.21,290.73 707.21,318.83 721.6,340.1 " fill="none" id="Default-backto-Square" style="stroke:#0000FF;stroke-width:1.0;stroke-dasharray:7.0,7.0;"/><polygon fill="none" points="136.09,122.06,147.8665,136.9367,154.4372,126.8954,136.09,122.06" style="stroke:#0000FF;stroke-width:1.0;"/></g><!--reverse link Default to Triangle--><g id="link_Default_Triangle"><path codeLine="79" d="M164.612,130.2329 C180.482,138.3829 181.76,138.69 198,146 C325.42,203.34 354.44,230.41 491,260 C557.34,274.37 734.07,249.2 796,277 C818.84,287.25 839.06,306.09 854.51,323.93 " fill="none" id="Default-backto-Triangle" style="stroke:#0000FF;stroke-width:1.0;stroke-dasharray:7.0,7.0;"/><polygon fill="none" points="148.6,122.01,161.871,135.5702,167.353,124.8956,148.6,122.01" style="stroke:#0000FF;stroke-width:1.0;"/></g><!--reverse link Default to RightTriangle--><g id="link_Default_RightTriangle"><path codeLine="80" d="M163.5272,130.3423 C179.6272,138.6223 181.29,138.96 198,146 C234.82,161.51 499.71,252.77 539,260 C629.34,276.62 864.41,249.34 952,277 C981.12,286.2 1010.08,303.07 1034.1,319.78 " fill="none" id="Default-backto-RightTriangle" style="stroke:#0000FF;stroke-width:1.0;stroke-dasharray:7.0,7.0;"/><polygon fill="none" points="147.52,122.11,160.7831,135.678,166.2713,125.0065,147.52,122.11" style="stroke:#0000FF;stroke-width:1.0;"/></g><!--reverse link Default to EquilateralTriangle--><g id="link_Default_EquilateralTriangle"><path codeLine="81" d="M127.6585,135.8586 C169.6885,186.4786 240.71,272.01 286.82,327.54 " fill="none" id="Default-backto-EquilateralTriangle" style="stroke:#0000FF;stroke-width:1.0;stroke-dasharray:7.0,7.0;"/><polygon fill="none" points="116.16,122.01,123.0423,139.6914,132.2747,132.0257,116.16,122.01" style="stroke:#0000FF;stroke-width:1.0;"/></g><!--reverse link Shape to Circle--><g id="link_Shape_Circle"><path codeLine="83" d="M814.1646,149.5497 C748.9546,203.1497 658.1,277.83 597.19,327.89 " fill="none" id="Shape-backto-Circle" style="stroke:#181818;stroke-width:1.0;stroke-dasharray:7.0,7.0;"/><polygon fill="none" points="828.07,138.12,810.3546,144.9146,817.9745,154.1849,828.07,138.12" style="stroke:#181818;stroke-width:1.0;"/></g><!--reverse link Shape to Square--><g id="link_Shape_Square"><path codeLine="84" d="M852.0764,153.9954 C820.9164,212.3054 777.68,293.24 752.57,340.23 " fill="none" id="Shape-backto-Square" style="stroke:#181818;stroke-width:1.0;stroke-dasharray:7.0,7.0;"/><polygon fill="none" points="860.56,138.12,846.7846,151.1676,857.3682,156.8233,860.56,138.12" style="stroke:#181818;stroke-width:1.0;"/></g><!--reverse link Shape to Triangle--><g id="link_Shape_Triangle"><path codeLine="85" d="M886,156.12 C886,208.25 886,273.13 886,323.7 " fill="none" id="Shape-backto-Triangle" style="stroke:#181818;stroke-width:1.0;stroke-dasharray:7.0,7.0;"/><polygon fill="none" points="886,138.12,880,156.12,892,156.12,886,138.12" style="stroke:#181818;stroke-width:1.0;"/></g><!--reverse link Shape to RightTriangle--><g id="link_Shape_RightTriangle"><path codeLine="86" d="M932.3568,152.5374 C970.2768,203.2674 1019.18,268.72 1057.19,319.58 " fill="none" id="Shape-backto-RightTriangle" style="stroke:#181818;stroke-width:1.0;stroke-dasharray:7.0,7.0;"/><polygon fill="none" points="921.58,138.12,927.551,156.1296,937.1626,148.9451,921.58,138.12" style="stroke:#181818;stroke-width:1.0;"/></g><!--reverse link Shape to EquilateralTriangle--><g id="link_Shape_EquilateralTriangle"><path codeLine="87" d="M798.8905,119.9662 C709.2605,151.3362 567.67,205.39 442,277 C416.22,291.69 389.54,310.94 367.73,327.92 " fill="none" id="Shape-backto-EquilateralTriangle" style="stroke:#181818;stroke-width:1.0;stroke-dasharray:7.0,7.0;"/><polygon fill="none" points="815.88,114.02,796.9084,114.3031,800.8726,125.6294,815.88,114.02" style="stroke:#181818;stroke-width:1.0;"/></g><!--SRC=[hLHDIyD04BtdLmm8Kh6M7iH2A0LH2rvjRo9baapQnTqaxiUXQl-xco_DfXkiO2ujxytCUpEJYNfbMO4I1SGSbRhLMhB8Q7gCysp5tWccmOub12GAlGT18YAfWg30-1Mt16g71Idu2C0-LGLObH3Cvp1QZy-MozbiEhs0jKIcOR5e8ild4Z8KD3fNnDEB3egIy1WjI391ccINEWJLJsicnLZdSjzezCYOoPXJHxzsUzU7Qpc92JCgXFJckiSa3Bi-u6hX11ryskhDsAwEj5Tzk5PGTjxXxqNjeZ3RUbfQ7nC_XJVeQwfYea4cFi6EPDkTtWoQUYhfGMSHAlAfxwXCypBx8jUK6KL_MGIz6SRHRWzvtsfjy-4dm6FMjvlMfCT6Q-7GkHUTX64gj2DwprJ1SN_IpTZSMcaCQGZdmkWI2iDbBWLgQzovZAO-HMRxlzNxBSKypzn9tbN82Q9LQcTwA_jdG2MX50tl3Q_1Jb1gqaSUcQ3-QasUpo9kw6KocNmkshtukNAcGV2j_jcXcu_A05bV_G3PldG3j7D50p6ULxXjpmPsx3bOuyh1ljCTrFNWK3xfBm00]--></g></svg>