<?xml version="1.0" encoding="UTF-8" standalone="no"?><svg xmlns="http://www.w3.org/2000/svg" xmlns:xlink="http://www.w3.org/1999/xlink" contentScriptType="application/ecmascript" contentStyleType="text/css" height="480px" preserveAspectRatio="none" style="width:831px;height:480px;" version="1.1" viewBox="0 0 831 480" width="831px" zoomAndPan="magnify"><defs><filter height="300%" id="fvw5wufzw8a7g" width="300%" x="-1" y="-1"><feGaussianBlur result="blurOut" stdDeviation="2.0"/><feColorMatrix in="blurOut" result="blurOut2" type="matrix" values="0 0 0 0 0 0 0 0 0 0 0 0 0 0 0 0 0 0 .4 0"/><feOffset dx="4.0" dy="4.0" in="blurOut2" result="blurOut3"/><feBlend in="SourceGraphic" in2="blurOut3" mode="normal"/></filter></defs><g><!--cluster std--><polygon fill="#FFFFFF" filter="url(#fvw5wufzw8a7g)" points="327.25,364,358.25,364,365.25,386.2969,690.25,386.2969,690.25,468,327.25,468,327.25,364" style="stroke: #000000; stroke-width: 1.5;"/><line style="stroke: #000000; stroke-width: 1.5;" x1="327.25" x2="365.25" y1="386.2969" y2="386.2969"/><text fill="#000000" font-family="sans-serif" font-size="14" font-weight="bold" lengthAdjust="spacingAndGlyphs" textLength="25" x="331.25" y="378.9951">std</text><!--class Iterator--><rect fill="#FEFECE" filter="url(#fvw5wufzw8a7g)" height="32" id="Iterator" style="stroke: #A80036; stroke-width: 1.5;" width="80" x="594.25" y="420"/><ellipse cx="609.25" cy="436" fill="#B4A7E5" rx="11" ry="11" style="stroke: #A80036; stroke-width: 1.0;"/><path d="M605.1719,431.7656 L605.1719,429.6094 L612.5625,429.6094 L612.5625,431.7656 L610.0938,431.7656 L610.0938,439.8438 L612.5625,439.8438 L612.5625,442 L605.1719,442 L605.1719,439.8438 L607.6406,439.8438 L607.6406,431.7656 L605.1719,431.7656 Z "/><text fill="#000000" font-family="sans-serif" font-size="12" font-style="italic" lengthAdjust="spacingAndGlyphs" textLength="48" x="623.25" y="440.1543">Iterator</text><!--class Container--><rect fill="#FEFECE" filter="url(#fvw5wufzw8a7g)" height="32" id="Container" style="stroke: #A80036; stroke-width: 1.5;" width="93" x="466" y="420"/><ellipse cx="481" cy="436" fill="#B4A7E5" rx="11" ry="11" style="stroke: #A80036; stroke-width: 1.0;"/><path d="M476.9219,431.7656 L476.9219,429.6094 L484.3125,429.6094 L484.3125,431.7656 L481.8438,431.7656 L481.8438,439.8438 L484.3125,439.8438 L484.3125,442 L476.9219,442 L476.9219,439.8438 L479.3906,439.8438 L479.3906,431.7656 L476.9219,431.7656 Z "/><text fill="#000000" font-family="sans-serif" font-size="12" font-style="italic" lengthAdjust="spacingAndGlyphs" textLength="61" x="495" y="440.1543">Container</text><!--class Allocator--><rect fill="#FEFECE" filter="url(#fvw5wufzw8a7g)" height="32" id="Allocator" style="stroke: #A80036; stroke-width: 1.5;" width="87" x="344" y="420"/><ellipse cx="359" cy="436" fill="#B4A7E5" rx="11" ry="11" style="stroke: #A80036; stroke-width: 1.0;"/><path d="M354.9219,431.7656 L354.9219,429.6094 L362.3125,429.6094 L362.3125,431.7656 L359.8438,431.7656 L359.8438,439.8438 L362.3125,439.8438 L362.3125,442 L354.9219,442 L354.9219,439.8438 L357.3906,439.8438 L357.3906,431.7656 L354.9219,431.7656 Z "/><text fill="#000000" font-family="sans-serif" font-size="12" font-style="italic" lengthAdjust="spacingAndGlyphs" textLength="55" x="373" y="440.1543">Allocator</text><!--class Node--><rect fill="#FEFECE" filter="url(#fvw5wufzw8a7g)" height="71.5469" id="Node" style="stroke: #A80036; stroke-width: 1.5;" width="98" x="634.75" y="173"/><ellipse cx="649.75" cy="191.9688" fill="#ADD1B2" rx="11" ry="11" style="stroke: #A80036; stroke-width: 1.0;"/><path d="M652.7188,197.6094 Q652.1406,197.9063 651.5,198.0547 Q650.8594,198.2031 650.1563,198.2031 Q647.6563,198.2031 646.3359,196.5547 Q645.0156,194.9063 645.0156,191.7813 Q645.0156,188.6563 646.3359,187 Q647.6563,185.3438 650.1563,185.3438 Q650.8594,185.3438 651.5078,185.5 Q652.1563,185.6563 652.7188,185.9531 L652.7188,188.6719 Q652.0938,188.0938 651.5,187.8203 Q650.9063,187.5469 650.2813,187.5469 Q648.9375,187.5469 648.25,188.6172 Q647.5625,189.6875 647.5625,191.7813 Q647.5625,193.875 648.25,194.9453 Q648.9375,196.0156 650.2813,196.0156 Q650.9063,196.0156 651.5,195.7422 Q652.0938,195.4688 652.7188,194.8906 L652.7188,197.6094 Z "/><text fill="#000000" font-family="sans-serif" font-size="12" font-style="italic" lengthAdjust="spacingAndGlyphs" textLength="70" x="661.75" y="189.1387">«template»</text><text fill="#000000" font-family="sans-serif" font-size="12" lengthAdjust="spacingAndGlyphs" textLength="33" x="680.25" y="203.1074">Node</text><line style="stroke: #A80036; stroke-width: 1.5;" x1="635.75" x2="731.75" y1="210.9375" y2="210.9375"/><text fill="#000000" font-family="sans-serif" font-size="11" lengthAdjust="spacingAndGlyphs" textLength="49" x="640.75" y="225.1479">+data: T</text><text fill="#000000" font-family="sans-serif" font-size="11" lengthAdjust="spacingAndGlyphs" textLength="76" x="640.75" y="237.9526">+next: Node*</text><!--class LinkedList--><rect fill="#FEFECE" filter="url(#fvw5wufzw8a7g)" height="181.9844" id="LinkedList" style="stroke: #A80036; stroke-width: 1.5;" width="173" x="426" y="118"/><ellipse cx="475.25" cy="136.9688" fill="#ADD1B2" rx="11" ry="11" style="stroke: #A80036; stroke-width: 1.0;"/><path d="M478.2188,142.6094 Q477.6406,142.9063 477,143.0547 Q476.3594,143.2031 475.6563,143.2031 Q473.1563,143.2031 471.8359,141.5547 Q470.5156,139.9063 470.5156,136.7813 Q470.5156,133.6563 471.8359,132 Q473.1563,130.3438 475.6563,130.3438 Q476.3594,130.3438 477.0078,130.5 Q477.6563,130.6563 478.2188,130.9531 L478.2188,133.6719 Q477.5938,133.0938 477,132.8203 Q476.4063,132.5469 475.7813,132.5469 Q474.4375,132.5469 473.75,133.6172 Q473.0625,134.6875 473.0625,136.7813 Q473.0625,138.875 473.75,139.9453 Q474.4375,141.0156 475.7813,141.0156 Q476.4063,141.0156 477,140.7422 Q477.5938,140.4688 478.2188,139.8906 L478.2188,142.6094 Z "/><text fill="#000000" font-family="sans-serif" font-size="12" font-style="italic" lengthAdjust="spacingAndGlyphs" textLength="70" x="493.75" y="134.1387">«template»</text><text fill="#000000" font-family="sans-serif" font-size="12" lengthAdjust="spacingAndGlyphs" textLength="61" x="498.25" y="148.1074">LinkedList</text><line style="stroke: #A80036; stroke-width: 1.5;" x1="427" x2="598" y1="155.9375" y2="155.9375"/><text fill="#000000" font-family="sans-serif" font-size="11" lengthAdjust="spacingAndGlyphs" textLength="75" x="432" y="170.1479">-head: Node*</text><text fill="#000000" font-family="sans-serif" font-size="11" lengthAdjust="spacingAndGlyphs" textLength="64" x="432" y="182.9526">-tail: Node*</text><text fill="#000000" font-family="sans-serif" font-size="11" lengthAdjust="spacingAndGlyphs" textLength="90" x="432" y="195.7573">-currentSize: int</text><line style="stroke: #A80036; stroke-width: 1.5;" x1="427" x2="598" y1="202.3516" y2="202.3516"/><text fill="#000000" font-family="sans-serif" font-size="11" lengthAdjust="spacingAndGlyphs" textLength="161" x="432" y="216.562">+push_back(date: T) -&gt; void</text><text fill="#000000" font-family="sans-serif" font-size="11" lengthAdjust="spacingAndGlyphs" textLength="74" x="432" y="229.3667">+size() -&gt; int</text><text fill="#000000" font-family="sans-serif" font-size="11" lengthAdjust="spacingAndGlyphs" textLength="0" x="436" y="242.1714"/><text fill="#000000" font-family="sans-serif" font-size="11" lengthAdjust="spacingAndGlyphs" textLength="111" x="432" y="254.9761">+begin() -&gt; iterator</text><text fill="#000000" font-family="sans-serif" font-size="11" lengthAdjust="spacingAndGlyphs" textLength="101" x="432" y="267.7808">+end() -&gt; iterator</text><text fill="#000000" font-family="sans-serif" font-size="11" lengthAdjust="spacingAndGlyphs" textLength="148" x="432" y="280.5854">+begin() -&gt; const_iterator</text><text fill="#000000" font-family="sans-serif" font-size="11" lengthAdjust="spacingAndGlyphs" textLength="138" x="432" y="293.3901">+end() -&gt; const_iterator</text><!--class NaivePool--><rect fill="#FEFECE" filter="url(#fvw5wufzw8a7g)" height="156.375" id="NaivePool" style="stroke: #A80036; stroke-width: 1.5;" width="259" x="6" y="131"/><ellipse cx="98.25" cy="149.9688" fill="#ADD1B2" rx="11" ry="11" style="stroke: #A80036; stroke-width: 1.0;"/><path d="M101.2188,155.6094 Q100.6406,155.9063 100,156.0547 Q99.3594,156.2031 98.6563,156.2031 Q96.1563,156.2031 94.8359,154.5547 Q93.5156,152.9063 93.5156,149.7813 Q93.5156,146.6563 94.8359,145 Q96.1563,143.3438 98.6563,143.3438 Q99.3594,143.3438 100.0078,143.5 Q100.6563,143.6563 101.2188,143.9531 L101.2188,146.6719 Q100.5938,146.0938 100,145.8203 Q99.4063,145.5469 98.7813,145.5469 Q97.4375,145.5469 96.75,146.6172 Q96.0625,147.6875 96.0625,149.7813 Q96.0625,151.875 96.75,152.9453 Q97.4375,154.0156 98.7813,154.0156 Q99.4063,154.0156 100,153.7422 Q100.5938,153.4688 101.2188,152.8906 L101.2188,155.6094 Z "/><text fill="#000000" font-family="sans-serif" font-size="12" font-style="italic" lengthAdjust="spacingAndGlyphs" textLength="70" x="116.75" y="147.1387">«template»</text><text fill="#000000" font-family="sans-serif" font-size="12" lengthAdjust="spacingAndGlyphs" textLength="61" x="121.25" y="161.1074">NaivePool</text><line style="stroke: #A80036; stroke-width: 1.5;" x1="7" x2="264" y1="168.9375" y2="168.9375"/><text fill="#000000" font-family="sans-serif" font-size="11" lengthAdjust="spacingAndGlyphs" textLength="84" x="12" y="183.1479">-thePools: T[][]</text><text fill="#000000" font-family="sans-serif" font-size="11" lengthAdjust="spacingAndGlyphs" textLength="82" x="12" y="195.9526">-numPools: int</text><text fill="#000000" font-family="sans-serif" font-size="11" lengthAdjust="spacingAndGlyphs" textLength="105" x="12" y="208.7573">-blocksPerPool: int</text><text fill="#000000" font-family="sans-serif" font-size="11" lengthAdjust="spacingAndGlyphs" textLength="168" x="12" y="221.562">-nextAvailBlock: pair&lt;int, int&gt;</text><line style="stroke: #A80036; stroke-width: 1.5;" x1="7" x2="264" y1="228.1563" y2="228.1563"/><text fill="#000000" font-family="sans-serif" font-size="11" lengthAdjust="spacingAndGlyphs" textLength="247" x="12" y="242.3667">+NaivePool(bSize: int = 8, preAlloc: int = 1)</text><text fill="#000000" font-family="sans-serif" font-size="11" lengthAdjust="spacingAndGlyphs" textLength="81" x="12" y="255.1714">+~NaivePool()</text><text fill="#000000" font-family="sans-serif" font-size="11" lengthAdjust="spacingAndGlyphs" textLength="94" x="12" y="267.9761">+getNext() -&gt; T*</text><text fill="#000000" font-family="sans-serif" font-size="11" lengthAdjust="spacingAndGlyphs" textLength="81" x="12" y="280.7808">-reserveNext()</text><!--class LinkedList::Iterator--><rect fill="#FEFECE" filter="url(#fvw5wufzw8a7g)" height="32" id="LinkedList::Iterator" style="stroke: #A80036; stroke-width: 1.5;" width="148" x="609.25" y="8"/><ellipse cx="624.25" cy="24" fill="#ADD1B2" rx="11" ry="11" style="stroke: #A80036; stroke-width: 1.0;"/><path d="M627.2188,29.6406 Q626.6406,29.9375 626,30.0859 Q625.3594,30.2344 624.6563,30.2344 Q622.1563,30.2344 620.8359,28.5859 Q619.5156,26.9375 619.5156,23.8125 Q619.5156,20.6875 620.8359,19.0313 Q622.1563,17.375 624.6563,17.375 Q625.3594,17.375 626.0078,17.5313 Q626.6563,17.6875 627.2188,17.9844 L627.2188,20.7031 Q626.5938,20.125 626,19.8516 Q625.4063,19.5781 624.7813,19.5781 Q623.4375,19.5781 622.75,20.6484 Q622.0625,21.7188 622.0625,23.8125 Q622.0625,25.9063 622.75,26.9766 Q623.4375,28.0469 624.7813,28.0469 Q625.4063,28.0469 626,27.7734 Q626.5938,27.5 627.2188,26.9219 L627.2188,29.6406 Z "/><text fill="#000000" font-family="sans-serif" font-size="12" lengthAdjust="spacingAndGlyphs" textLength="116" x="638.25" y="28.1543">LinkedList::Iterator</text><!--link NaivePool to Node--><path d="M237.732,130.759 C264.518,114.428 294.315,99.577 324.25,91 C386.682,73.111 559.873,84.072 615.25,118 C634.939,130.063 650.842,150.125 662.303,168.347 " fill="none" id="NaivePool-&gt;Node" style="stroke: #0000FF; stroke-width: 1.0;"/><polygon fill="#0000FF" points="665.121,172.935,663.8181,163.1727,662.5037,168.6747,657.0017,167.3604,665.121,172.935" style="stroke: #0000FF; stroke-width: 1.0;"/><text fill="#000000" font-family="sans-serif" font-size="13" lengthAdjust="spacingAndGlyphs" textLength="131" x="325.25" y="83.0669">handles allocation of</text><!--link NaivePool to LinkedList--><path d="M264.728,209 C316.124,209 374.03,209 420.906,209 " fill="none" id="NaivePool-&gt;LinkedList" style="stroke: #0000FF; stroke-width: 1.0;"/><polygon fill="#0000FF" points="425.985,209,416.985,205,420.985,209,416.985,213,425.985,209" style="stroke: #0000FF; stroke-width: 1.0;"/><text fill="#000000" font-family="sans-serif" font-size="13" lengthAdjust="spacingAndGlyphs" textLength="123" x="283" y="201.0669">allocates Nodes for</text><!--reverse link LinkedList to Node--><path d="M611.963,209 C619.552,209 627.141,209 634.73,209 " fill="none" id="LinkedList&lt;-Node" style="stroke: #A80036; stroke-width: 1.0;"/><polygon fill="#FFFFFF" points="598.752,209,604.752,213,610.752,209,604.752,205,598.752,209" style="stroke: #A80036; stroke-width: 1.0;"/><!--link LinkedList::Iterator to Node--><path d="M683.25,40.288 C683.25,67.993 683.25,127.342 683.25,167.476 " fill="none" id="LinkedList::Iterator-&gt;Node" style="stroke: #A80036; stroke-width: 1.0;"/><polygon fill="#A80036" points="683.25,172.761,687.25,163.761,683.25,167.761,679.25,163.761,683.25,172.761" style="stroke: #A80036; stroke-width: 1.0;"/><!--reverse link LinkedList::Iterator to LinkedList--><path d="M652.998,43.117 C641.513,50.699 628.695,60.059 618.25,70 C603.15,84.371 588.49,101.02 575.129,117.676 " fill="none" id="LinkedList::Iterator&lt;-LinkedList" style="stroke: #A80036; stroke-width: 1.0;"/><polygon fill="#A80036" points="657.493,40.195,647.7671,41.7467,653.3009,42.9202,652.1275,48.454,657.493,40.195" style="stroke: #A80036; stroke-width: 1.0;"/><text fill="#000000" font-family="sans-serif" font-size="13" lengthAdjust="spacingAndGlyphs" textLength="54" x="619.25" y="83.0669">provides</text><!--link LinkedList::Iterator to Iterator--><path d="M698.351,40.147 C714.309,57.325 738.49,86.998 748.25,118 C772.541,195.156 776.034,224.033 748.25,300 C732.557,342.907 696.539,381.582 669.157,406.4266 " fill="none" id="LinkedList::Iterator-&gt;Iterator" style="stroke: #008000; stroke-width: 1.0; stroke-dasharray: 7.0,7.0;"/><polygon fill="none" points="673.558,411.8756,653.867,419.7034,664.379,401.3047,673.558,411.8756" style="stroke: #008000; stroke-width: 1.0;"/><text fill="#000000" font-family="sans-serif" font-size="13" lengthAdjust="spacingAndGlyphs" textLength="50" x="769.25" y="213.0669">partially</text><!--link LinkedList to Container--><path d="M512.25,300.22 C512.25,335.018 512.25,372.778 512.25,399.4541 " fill="none" id="LinkedList-&gt;Container" style="stroke: #008000; stroke-width: 1.0; stroke-dasharray: 7.0,7.0;"/><polygon fill="none" points="519.25,399.6897,512.25,419.6897,505.25,399.6896,519.25,399.6897" style="stroke: #008000; stroke-width: 1.0;"/><text fill="#000000" font-family="sans-serif" font-size="13" lengthAdjust="spacingAndGlyphs" textLength="50" x="513.25" y="343.0669">partially</text><!--link NaivePool to Allocator--><path d="M221.622,287.117 C267.694,328.254 321.638,376.417 355.132,406.3229 " fill="none" id="NaivePool-&gt;Allocator" style="stroke: #008000; stroke-width: 1.0; stroke-dasharray: 7.0,7.0;"/><polygon fill="none" points="359.964,401.2531,370.22,419.795,350.64,411.6963,359.964,401.2531" style="stroke: #008000; stroke-width: 1.0;"/><text fill="#000000" font-family="sans-serif" font-size="13" lengthAdjust="spacingAndGlyphs" textLength="34" x="285.25" y="343.0669">fakes</text><!--
@startuml
skinparam classAttributeIconSize 0
hide empty members

class Node <<template>> {
    + data: T
    + next: Node*
}

class LinkedList <<template>> {
    - head: Node*
    - tail: Node*
    - currentSize: int

    + push_back(date: T) -> void
    + size() -> int

    + begin() -> iterator
    + end() -> iterator
    + begin() -> const_iterator
    + end() -> const_iterator
}

class NaivePool <<template>> {
    - thePools: T[][]
    - numPools: int
    - blocksPerPool: int
    - nextAvailBlock: pair<int, int>

    + NaivePool(bSize: int = 8, preAlloc: int = 1)
    + ~NaivePool()
    + getNext() -> T*
    - reserveNext()
}

class LinkedList::Iterator {

}

package std {
    Interface Iterator {

    }

    Interface Container {

    }

    Interface Allocator {

    }
}

NaivePool -[#blue]> Node: "handles allocation of"
NaivePool -[#blue]> LinkedList: "allocates Nodes for"
LinkedList o-Node

LinkedList::Iterator - -> Node
LinkedList::Iterator <- - LinkedList: "provides"

LinkedList::Iterator .[#green].|> Iterator: "partially"
LinkedList .[#green].|> Container: "partially"

NaivePool .[#green].|> Allocator: "fakes"

@enduml

PlantUML version 1.2019.09(Mon Aug 26 12:19:51 EDT 2019)
(GPL source distribution)
Java Runtime: Java(TM) SE Runtime Environment
JVM: Java HotSpot(TM) 64-Bit Server VM
Java Version: 1.8.0_191-b12
Operating System: Linux
OS Version: 4.2.0-35-generic
Default Encoding: UTF-8
Language: en
Country: US
--></g></svg>