<?xml version="1.0" encoding="UTF-8" standalone="no"?><svg xmlns="http://www.w3.org/2000/svg" xmlns:xlink="http://www.w3.org/1999/xlink" contentScriptType="application/ecmascript" contentStyleType="text/css" height="403px" preserveAspectRatio="none" style="width:408px;height:403px;" version="1.1" viewBox="0 0 408 403" width="408px" zoomAndPan="magnify"><defs><filter height="300%" id="f7k32lqnbxeol" width="300%" x="-1" y="-1"><feGaussianBlur result="blurOut" stdDeviation="2.0"/><feColorMatrix in="blurOut" result="blurOut2" type="matrix" values="0 0 0 0 0 0 0 0 0 0 0 0 0 0 0 0 0 0 .4 0"/><feOffset dx="4.0" dy="4.0" in="blurOut2" result="blurOut3"/><feBlend in="SourceGraphic" in2="blurOut3" mode="normal"/></filter></defs><g><!--class Shape--><rect fill="#FEFECE" filter="url(#f7k32lqnbxeol)" height="200.1953" id="Shape" style="stroke: #A80036; stroke-width: 1.5;" width="182" x="50" y="8"/><ellipse cx="118.75" cy="24" fill="#ADD1B2" rx="11" ry="11" style="stroke: #A80036; stroke-width: 1.0;"/><path d="M121.5156,19.875 Q121.6719,19.6563 121.8594,19.5469 Q122.0469,19.4375 122.2656,19.4375 Q122.6406,19.4375 122.875,19.6953 Q123.1094,19.9531 123.1094,20.5625 L123.1094,22.0156 Q123.1094,22.625 122.875,22.8906 Q122.6406,23.1563 122.2656,23.1563 Q121.9219,23.1563 121.7188,22.9531 Q121.5156,22.7656 121.4063,22.25 Q121.3594,21.8906 121.1719,21.7031 Q120.8438,21.3281 120.2344,21.1094 Q119.625,20.8906 119,20.8906 Q118.2344,20.8906 117.6016,21.2188 Q116.9688,21.5469 116.4766,22.2969 Q115.9844,23.0469 115.9844,24.0781 L115.9844,25.1719 Q115.9844,26.4063 116.875,27.2266 Q117.7656,28.0469 119.3594,28.0469 Q120.2969,28.0469 120.9531,27.7969 Q121.3438,27.6406 121.7656,27.2031 Q122.0313,26.9375 122.1797,26.8594 Q122.3281,26.7813 122.5313,26.7813 Q122.8594,26.7813 123.1172,27.0391 Q123.375,27.2969 123.375,27.6406 Q123.375,27.9844 123.0313,28.3906 Q122.5313,28.9688 121.7344,29.2969 Q120.6563,29.75 119.3594,29.75 Q117.8438,29.75 116.6406,29.125 Q115.6563,28.625 114.9688,27.5547 Q114.2813,26.4844 114.2813,25.2031 L114.2813,24.0469 Q114.2813,22.7188 114.8984,21.5703 Q115.5156,20.4219 116.6094,19.8047 Q117.7031,19.1875 118.9375,19.1875 Q119.6719,19.1875 120.3203,19.3516 Q120.9688,19.5156 121.5156,19.875 Z "/><text fill="#000000" font-family="sans-serif" font-size="12" lengthAdjust="spacingAndGlyphs" textLength="36" x="139.25" y="28.9102">Shape</text><line style="stroke: #A80036; stroke-width: 1.5;" x1="51" x2="231" y1="40" y2="40"/><text fill="#000000" font-family="sans-serif" font-size="11" lengthAdjust="spacingAndGlyphs" textLength="95" x="56" y="55.4189">#_name : std::string</text><line style="stroke: #A80036; stroke-width: 1.5;" x1="51" x2="231" y1="61.8359" y2="61.8359"/><text fill="#000000" font-family="sans-serif" font-size="11" lengthAdjust="spacingAndGlyphs" textLength="161" x="56" y="77.2549">#name( _name : std::string) : void</text><text fill="#000000" font-family="sans-serif" font-size="11" lengthAdjust="spacingAndGlyphs" textLength="45" x="56" y="91.0908">+Shape()</text><text fill="#000000" font-family="sans-serif" font-size="11" lengthAdjust="spacingAndGlyphs" textLength="122" x="56" y="104.9268">+Shape(std::string name)</text><text fill="#000000" font-family="sans-serif" font-size="11" lengthAdjust="spacingAndGlyphs" textLength="51" x="56" y="118.7627">+~Shape()</text><text fill="#000000" font-family="sans-serif" font-size="11" lengthAdjust="spacingAndGlyphs" textLength="97" x="56" y="132.5986">+name() : std::string</text><text fill="#000000" font-family="sans-serif" font-size="11" font-style="italic" lengthAdjust="spacingAndGlyphs" textLength="116" x="56" y="146.4346">+double area() : double</text><text fill="#000000" font-family="sans-serif" font-size="11" font-style="italic" lengthAdjust="spacingAndGlyphs" textLength="104" x="56" y="160.2705">+perimeter() : double</text><text fill="#000000" font-family="sans-serif" font-size="11" font-style="italic" lengthAdjust="spacingAndGlyphs" textLength="115" x="56" y="174.1064">+clone() const : Shape*</text><text fill="#000000" font-family="sans-serif" font-size="11" font-style="italic" lengthAdjust="spacingAndGlyphs" textLength="170" x="56" y="187.9424">+display(std::ostream&amp; outs) : void</text><text fill="#000000" font-family="sans-serif" font-size="11" font-style="italic" lengthAdjust="spacingAndGlyphs" textLength="168" x="56" y="201.7783">+void read(std::istream&amp; ins) :void</text><!--class Circle--><rect fill="#FEFECE" filter="url(#f7k32lqnbxeol)" height="32" id="Circle" style="stroke: #A80036; stroke-width: 1.5;" width="64" x="6" y="268"/><ellipse cx="21" cy="284" fill="#ADD1B2" rx="11" ry="11" style="stroke: #A80036; stroke-width: 1.0;"/><path d="M23.7656,279.875 Q23.9219,279.6563 24.1094,279.5469 Q24.2969,279.4375 24.5156,279.4375 Q24.8906,279.4375 25.125,279.6953 Q25.3594,279.9531 25.3594,280.5625 L25.3594,282.0156 Q25.3594,282.625 25.125,282.8906 Q24.8906,283.1563 24.5156,283.1563 Q24.1719,283.1563 23.9688,282.9531 Q23.7656,282.7656 23.6563,282.25 Q23.6094,281.8906 23.4219,281.7031 Q23.0938,281.3281 22.4844,281.1094 Q21.875,280.8906 21.25,280.8906 Q20.4844,280.8906 19.8516,281.2188 Q19.2188,281.5469 18.7266,282.2969 Q18.2344,283.0469 18.2344,284.0781 L18.2344,285.1719 Q18.2344,286.4063 19.125,287.2266 Q20.0156,288.0469 21.6094,288.0469 Q22.5469,288.0469 23.2031,287.7969 Q23.5938,287.6406 24.0156,287.2031 Q24.2813,286.9375 24.4297,286.8594 Q24.5781,286.7813 24.7813,286.7813 Q25.1094,286.7813 25.3672,287.0391 Q25.625,287.2969 25.625,287.6406 Q25.625,287.9844 25.2813,288.3906 Q24.7813,288.9688 23.9844,289.2969 Q22.9063,289.75 21.6094,289.75 Q20.0938,289.75 18.8906,289.125 Q17.9063,288.625 17.2188,287.5547 Q16.5313,286.4844 16.5313,285.2031 L16.5313,284.0469 Q16.5313,282.7188 17.1484,281.5703 Q17.7656,280.4219 18.8594,279.8047 Q19.9531,279.1875 21.1875,279.1875 Q21.9219,279.1875 22.5703,279.3516 Q23.2188,279.5156 23.7656,279.875 Z "/><text fill="#000000" font-family="sans-serif" font-size="12" lengthAdjust="spacingAndGlyphs" textLength="32" x="35" y="288.9102">Circle</text><!--class Square--><rect fill="#FEFECE" filter="url(#f7k32lqnbxeol)" height="32" id="Square" style="stroke: #A80036; stroke-width: 1.5;" width="72" x="105" y="268"/><ellipse cx="120" cy="284" fill="#ADD1B2" rx="11" ry="11" style="stroke: #A80036; stroke-width: 1.0;"/><path d="M122.7656,279.875 Q122.9219,279.6563 123.1094,279.5469 Q123.2969,279.4375 123.5156,279.4375 Q123.8906,279.4375 124.125,279.6953 Q124.3594,279.9531 124.3594,280.5625 L124.3594,282.0156 Q124.3594,282.625 124.125,282.8906 Q123.8906,283.1563 123.5156,283.1563 Q123.1719,283.1563 122.9688,282.9531 Q122.7656,282.7656 122.6563,282.25 Q122.6094,281.8906 122.4219,281.7031 Q122.0938,281.3281 121.4844,281.1094 Q120.875,280.8906 120.25,280.8906 Q119.4844,280.8906 118.8516,281.2188 Q118.2188,281.5469 117.7266,282.2969 Q117.2344,283.0469 117.2344,284.0781 L117.2344,285.1719 Q117.2344,286.4063 118.125,287.2266 Q119.0156,288.0469 120.6094,288.0469 Q121.5469,288.0469 122.2031,287.7969 Q122.5938,287.6406 123.0156,287.2031 Q123.2813,286.9375 123.4297,286.8594 Q123.5781,286.7813 123.7813,286.7813 Q124.1094,286.7813 124.3672,287.0391 Q124.625,287.2969 124.625,287.6406 Q124.625,287.9844 124.2813,288.3906 Q123.7813,288.9688 122.9844,289.2969 Q121.9063,289.75 120.6094,289.75 Q119.0938,289.75 117.8906,289.125 Q116.9063,288.625 116.2188,287.5547 Q115.5313,286.4844 115.5313,285.2031 L115.5313,284.0469 Q115.5313,282.7188 116.1484,281.5703 Q116.7656,280.4219 117.8594,279.8047 Q118.9531,279.1875 120.1875,279.1875 Q120.9219,279.1875 121.5703,279.3516 Q122.2188,279.5156 122.7656,279.875 Z "/><text fill="#000000" font-family="sans-serif" font-size="12" lengthAdjust="spacingAndGlyphs" textLength="40" x="134" y="288.9102">Square</text><!--class Triangle--><rect fill="#FEFECE" filter="url(#f7k32lqnbxeol)" height="32" id="Triangle" style="stroke: #A80036; stroke-width: 1.5;" width="77" x="212.5" y="268"/><ellipse cx="227.5" cy="284" fill="#ADD1B2" rx="11" ry="11" style="stroke: #A80036; stroke-width: 1.0;"/><path d="M230.2656,279.875 Q230.4219,279.6563 230.6094,279.5469 Q230.7969,279.4375 231.0156,279.4375 Q231.3906,279.4375 231.625,279.6953 Q231.8594,279.9531 231.8594,280.5625 L231.8594,282.0156 Q231.8594,282.625 231.625,282.8906 Q231.3906,283.1563 231.0156,283.1563 Q230.6719,283.1563 230.4688,282.9531 Q230.2656,282.7656 230.1563,282.25 Q230.1094,281.8906 229.9219,281.7031 Q229.5938,281.3281 228.9844,281.1094 Q228.375,280.8906 227.75,280.8906 Q226.9844,280.8906 226.3516,281.2188 Q225.7188,281.5469 225.2266,282.2969 Q224.7344,283.0469 224.7344,284.0781 L224.7344,285.1719 Q224.7344,286.4063 225.625,287.2266 Q226.5156,288.0469 228.1094,288.0469 Q229.0469,288.0469 229.7031,287.7969 Q230.0938,287.6406 230.5156,287.2031 Q230.7813,286.9375 230.9297,286.8594 Q231.0781,286.7813 231.2813,286.7813 Q231.6094,286.7813 231.8672,287.0391 Q232.125,287.2969 232.125,287.6406 Q232.125,287.9844 231.7813,288.3906 Q231.2813,288.9688 230.4844,289.2969 Q229.4063,289.75 228.1094,289.75 Q226.5938,289.75 225.3906,289.125 Q224.4063,288.625 223.7188,287.5547 Q223.0313,286.4844 223.0313,285.2031 L223.0313,284.0469 Q223.0313,282.7188 223.6484,281.5703 Q224.2656,280.4219 225.3594,279.8047 Q226.4531,279.1875 227.6875,279.1875 Q228.4219,279.1875 229.0703,279.3516 Q229.7188,279.5156 230.2656,279.875 Z "/><text fill="#000000" font-family="sans-serif" font-size="12" lengthAdjust="spacingAndGlyphs" textLength="45" x="241.5" y="288.9102">Triangle</text><!--class RightTriangle--><rect fill="#FEFECE" filter="url(#f7k32lqnbxeol)" height="32" id="RightTriangle" style="stroke: #A80036; stroke-width: 1.5;" width="106" x="120" y="360"/><ellipse cx="135" cy="376" fill="#ADD1B2" rx="11" ry="11" style="stroke: #A80036; stroke-width: 1.0;"/><path d="M137.7656,371.875 Q137.9219,371.6563 138.1094,371.5469 Q138.2969,371.4375 138.5156,371.4375 Q138.8906,371.4375 139.125,371.6953 Q139.3594,371.9531 139.3594,372.5625 L139.3594,374.0156 Q139.3594,374.625 139.125,374.8906 Q138.8906,375.1563 138.5156,375.1563 Q138.1719,375.1563 137.9688,374.9531 Q137.7656,374.7656 137.6563,374.25 Q137.6094,373.8906 137.4219,373.7031 Q137.0938,373.3281 136.4844,373.1094 Q135.875,372.8906 135.25,372.8906 Q134.4844,372.8906 133.8516,373.2188 Q133.2188,373.5469 132.7266,374.2969 Q132.2344,375.0469 132.2344,376.0781 L132.2344,377.1719 Q132.2344,378.4063 133.125,379.2266 Q134.0156,380.0469 135.6094,380.0469 Q136.5469,380.0469 137.2031,379.7969 Q137.5938,379.6406 138.0156,379.2031 Q138.2813,378.9375 138.4297,378.8594 Q138.5781,378.7813 138.7813,378.7813 Q139.1094,378.7813 139.3672,379.0391 Q139.625,379.2969 139.625,379.6406 Q139.625,379.9844 139.2813,380.3906 Q138.7813,380.9688 137.9844,381.2969 Q136.9063,381.75 135.6094,381.75 Q134.0938,381.75 132.8906,381.125 Q131.9063,380.625 131.2188,379.5547 Q130.5313,378.4844 130.5313,377.2031 L130.5313,376.0469 Q130.5313,374.7188 131.1484,373.5703 Q131.7656,372.4219 132.8594,371.8047 Q133.9531,371.1875 135.1875,371.1875 Q135.9219,371.1875 136.5703,371.3516 Q137.2188,371.5156 137.7656,371.875 Z "/><text fill="#000000" font-family="sans-serif" font-size="12" lengthAdjust="spacingAndGlyphs" textLength="74" x="149" y="380.9102">RightTriangle</text><!--class EquilateralTriangle--><rect fill="#FEFECE" filter="url(#f7k32lqnbxeol)" height="32" id="EquilateralTriangle" style="stroke: #A80036; stroke-width: 1.5;" width="136" x="261" y="360"/><ellipse cx="276" cy="376" fill="#ADD1B2" rx="11" ry="11" style="stroke: #A80036; stroke-width: 1.0;"/><path d="M278.7656,371.875 Q278.9219,371.6563 279.1094,371.5469 Q279.2969,371.4375 279.5156,371.4375 Q279.8906,371.4375 280.125,371.6953 Q280.3594,371.9531 280.3594,372.5625 L280.3594,374.0156 Q280.3594,374.625 280.125,374.8906 Q279.8906,375.1563 279.5156,375.1563 Q279.1719,375.1563 278.9688,374.9531 Q278.7656,374.7656 278.6563,374.25 Q278.6094,373.8906 278.4219,373.7031 Q278.0938,373.3281 277.4844,373.1094 Q276.875,372.8906 276.25,372.8906 Q275.4844,372.8906 274.8516,373.2188 Q274.2188,373.5469 273.7266,374.2969 Q273.2344,375.0469 273.2344,376.0781 L273.2344,377.1719 Q273.2344,378.4063 274.125,379.2266 Q275.0156,380.0469 276.6094,380.0469 Q277.5469,380.0469 278.2031,379.7969 Q278.5938,379.6406 279.0156,379.2031 Q279.2813,378.9375 279.4297,378.8594 Q279.5781,378.7813 279.7813,378.7813 Q280.1094,378.7813 280.3672,379.0391 Q280.625,379.2969 280.625,379.6406 Q280.625,379.9844 280.2813,380.3906 Q279.7813,380.9688 278.9844,381.2969 Q277.9063,381.75 276.6094,381.75 Q275.0938,381.75 273.8906,381.125 Q272.9063,380.625 272.2188,379.5547 Q271.5313,378.4844 271.5313,377.2031 L271.5313,376.0469 Q271.5313,374.7188 272.1484,373.5703 Q272.7656,372.4219 273.8594,371.8047 Q274.9531,371.1875 276.1875,371.1875 Q276.9219,371.1875 277.5703,371.3516 Q278.2188,371.5156 278.7656,371.875 Z "/><text fill="#000000" font-family="sans-serif" font-size="12" lengthAdjust="spacingAndGlyphs" textLength="104" x="290" y="380.9102">EquilateralTriangle</text><!--link Shape to Circle--><path d="M71.9527,225.643 C62.1036,242.281 53.227,257.277 47.0222,267.759 " fill="none" id="Shape-Circle" style="stroke: #A80036; stroke-width: 1.0;"/><polygon fill="none" points="66.0673,221.843,82.279,208.199,78.1148,228.975,66.0673,221.843" style="stroke: #A80036; stroke-width: 1.0;"/><!--link Shape to Square--><path d="M141,228.242 C141,243.839 141,257.825 141,267.759 " fill="none" id="Shape-Square" style="stroke: #A80036; stroke-width: 1.0;"/><polygon fill="none" points="134,228.199,141,208.199,148,228.198,134,228.199" style="stroke: #A80036; stroke-width: 1.0;"/><!--link Shape to Triangle--><path d="M214.409,225.12 C225.059,241.967 234.669,257.167 241.365,267.759 " fill="none" id="Shape-Triangle" style="stroke: #A80036; stroke-width: 1.0;"/><polygon fill="none" points="208.482,228.844,203.712,208.199,220.316,221.363,208.482,228.844" style="stroke: #A80036; stroke-width: 1.0;"/><!--link Triangle to RightTriangle--><path d="M224.37,315.7267 C211.431,330.657 196.464,347.9257 186.036,359.9582 " fill="none" id="Triangle-RightTriangle" style="stroke: #A80036; stroke-width: 1.0;"/><polygon fill="none" points="219.38,310.7966,237.768,300.2673,229.96,319.9656,219.38,310.7966" style="stroke: #A80036; stroke-width: 1.0;"/><!--link Triangle to EquilateralTriangle--><path d="M277.63,315.7267 C290.569,330.657 305.536,347.9257 315.964,359.9582 " fill="none" id="Triangle-EquilateralTriangle" style="stroke: #A80036; stroke-width: 1.0;"/><polygon fill="none" points="272.04,319.9656,264.232,300.2673,282.62,310.7966,272.04,319.9656" style="stroke: #A80036; stroke-width: 1.0;"/><!--
@startuml
skinparam classAttributeIconSize 0
hide empty members

class Shape {
    # _name : std::string 
    # name( _name : std::string) : void
    + Shape()
    + Shape(std::string name)
    + ~Shape()
    + name() : std::string 
    + {abstract} double area() : double
    + {abstract} perimeter() : double
    + {abstract} clone() const : Shape*
    + {abstract} display(std::ostream& outs) : void
    + {abstract} void read(std::istream& ins) :void
}


Shape <|- - Circle
Shape <|- - Square
Shape <|- - Triangle
Triangle <|- - RightTriangle
Triangle <|- - EquilateralTriangle 
@enduml

PlantUML version 1.2018.12(Sun Oct 21 06:15:15 EDT 2018)
(GPL source distribution)
Java Runtime: Java(TM) SE Runtime Environment
JVM: Java HotSpot(TM) 64-Bit Server VM
Java Version: 1.8.0_172-b11
Operating System: Windows 10
OS Version: 10.0
Default Encoding: Cp1252
Language: en
Country: US
--></g></svg>