<?xml version="1.0" encoding="UTF-8" standalone="yes"?><svg xmlns="http://www.w3.org/2000/svg" xmlns:xlink="http://www.w3.org/1999/xlink" height="1041px" style="width:1045px;height:1041px;" version="1.1" viewBox="0 0 1045 1041" width="1045px"><defs><filter height="300%" id="f1" width="300%" x="-1" y="-1"><feGaussianBlur result="blurOut" stdDeviation="2.0"/><feColorMatrix in="blurOut" result="blurOut2" type="matrix" values="0 0 0 0 0 0 0 0 0 0 0 0 0 0 0 0 0 0 .4 0"/><feOffset dx="4.0" dy="4.0" in="blurOut2" result="blurOut3"/><feBlend in="SourceGraphic" in2="blurOut3" mode="normal"/></filter></defs><g><rect fill="#FEFECE" filter="url(#f1)" height="240.0703" style="stroke: #A80036; stroke-width: 1.5;" width="217" x="6" y="473"/><ellipse cx="93.25" cy="489" fill="#ADD1B2" rx="11" ry="11" style="stroke: #A80036; stroke-width: 1.0;"/><path d="M96.2188,494.6406 Q95.6406,494.9375 95,495.0859 Q94.3594,495.2344 93.6563,495.2344 Q91.1563,495.2344 89.8359,493.5859 Q88.5156,491.9375 88.5156,488.8125 Q88.5156,485.6875 89.8359,484.0313 Q91.1563,482.375 93.6563,482.375 Q94.3594,482.375 95.0078,482.5313 Q95.6563,482.6875 96.2188,482.9844 L96.2188,485.7031 Q95.5938,485.125 95,484.8516 Q94.4063,484.5781 93.7813,484.5781 Q92.4375,484.5781 91.75,485.6484 Q91.0625,486.7188 91.0625,488.8125 Q91.0625,490.9063 91.75,491.9766 Q92.4375,493.0469 93.7813,493.0469 Q94.4063,493.0469 95,492.7734 Q95.5938,492.5 96.2188,491.9219 L96.2188,494.6406 Z "/><text fill="#000000" font-family="sans-serif" font-size="12" lengthAdjust="spacingAndGlyphs" textLength="34" x="113.75" y="493.1543">Circle</text><line style="stroke: #A80036; stroke-width: 1.5;" x1="7" x2="222" y1="505" y2="505"/><text fill="#000000" font-family="sans-serif" font-size="11" lengthAdjust="spacingAndGlyphs" textLength="96" x="12" y="519.2104">-_radius : double</text><text fill="#000000" font-family="sans-serif" font-size="11" lengthAdjust="spacingAndGlyphs" text-decoration="underline" textLength="95" x="12" y="532.0151">-PI :const double</text><line style="stroke: #000000; stroke-width: 1.0;" x1="12" x2="107" y1="534.0151" y2="534.0151"/><text fill="#000000" font-family="sans-serif" font-size="11" lengthAdjust="spacingAndGlyphs" text-decoration="underline" textLength="107" x="12" y="544.8198">-TAU :const double</text><line style="stroke: #000000; stroke-width: 1.0;" x1="12" x2="119" y1="546.8198" y2="546.8198"/><line style="stroke: #A80036; stroke-width: 1.5;" x1="7" x2="222" y1="551.4141" y2="551.4141"/><text fill="#000000" font-family="sans-serif" font-size="11" lengthAdjust="spacingAndGlyphs" textLength="49" x="12" y="565.6245">+Circle()</text><text fill="#000000" font-family="sans-serif" font-size="11" lengthAdjust="spacingAndGlyphs" textLength="96" x="12" y="578.4292">+Circle(double r)</text><text fill="#000000" font-family="sans-serif" font-size="11" lengthAdjust="spacingAndGlyphs" textLength="148" x="12" y="591.2339">+Circle(const Circle&amp; src)</text><text fill="#000000" font-family="sans-serif" font-size="11" lengthAdjust="spacingAndGlyphs" textLength="58" x="12" y="604.0386">+~Circle()</text><text fill="#000000" font-family="sans-serif" font-size="11" lengthAdjust="spacingAndGlyphs" textLength="101" x="12" y="616.8433">+clone() : Shape*</text><text fill="#000000" font-family="sans-serif" font-size="11" lengthAdjust="spacingAndGlyphs" textLength="93" x="12" y="629.6479">+area() : double</text><text fill="#000000" font-family="sans-serif" font-size="11" lengthAdjust="spacingAndGlyphs" textLength="118" x="12" y="642.4526">+diameter() : double</text><text fill="#000000" font-family="sans-serif" font-size="11" lengthAdjust="spacingAndGlyphs" textLength="123" x="12" y="655.2573">+perimeter() : double</text><text fill="#000000" font-family="sans-serif" font-size="11" lengthAdjust="spacingAndGlyphs" textLength="103" x="12" y="668.062">+radius() : double</text><text fill="#000000" font-family="sans-serif" font-size="11" lengthAdjust="spacingAndGlyphs" textLength="205" x="12" y="680.8667">+display(std::ostream&amp; outs) : void</text><text fill="#000000" font-family="sans-serif" font-size="11" lengthAdjust="spacingAndGlyphs" textLength="135" x="12" y="693.6714">+radius(double r) : void</text><text fill="#000000" font-family="sans-serif" font-size="11" lengthAdjust="spacingAndGlyphs" textLength="179" x="12" y="706.4761">+read(std::istream&amp; ins) : void</text><rect fill="#FEFECE" filter="url(#f1)" height="201.6563" style="stroke: #A80036; stroke-width: 1.5;" width="308" x="347.5" y="811"/><ellipse cx="438.75" cy="827" fill="#ADD1B2" rx="11" ry="11" style="stroke: #A80036; stroke-width: 1.0;"/><path d="M441.7188,832.6406 Q441.1406,832.9375 440.5,833.0859 Q439.8594,833.2344 439.1563,833.2344 Q436.6563,833.2344 435.3359,831.5859 Q434.0156,829.9375 434.0156,826.8125 Q434.0156,823.6875 435.3359,822.0313 Q436.6563,820.375 439.1563,820.375 Q439.8594,820.375 440.5078,820.5313 Q441.1563,820.6875 441.7188,820.9844 L441.7188,823.7031 Q441.0938,823.125 440.5,822.8516 Q439.9063,822.5781 439.2813,822.5781 Q437.9375,822.5781 437.25,823.6484 Q436.5625,824.7188 436.5625,826.8125 Q436.5625,828.9063 437.25,829.9766 Q437.9375,831.0469 439.2813,831.0469 Q439.9063,831.0469 440.5,830.7734 Q441.0938,830.5 441.7188,829.9219 L441.7188,832.6406 Z "/><text fill="#000000" font-family="sans-serif" font-size="12" lengthAdjust="spacingAndGlyphs" textLength="117" x="459.25" y="831.1543">EquilateralTriangle</text><line style="stroke: #A80036; stroke-width: 1.5;" x1="348.5" x2="654.5" y1="843" y2="843"/><text fill="#000000" font-family="sans-serif" font-size="11" lengthAdjust="spacingAndGlyphs" text-decoration="underline" textLength="167" x="353.5" y="857.2104">-ROOT_3_DIV_4 :const double</text><line style="stroke: #000000; stroke-width: 1.0;" x1="353.5" x2="520.5" y1="859.2104" y2="859.2104"/><line style="stroke: #A80036; stroke-width: 1.5;" x1="348.5" x2="654.5" y1="863.8047" y2="863.8047"/><text fill="#000000" font-family="sans-serif" font-size="11" lengthAdjust="spacingAndGlyphs" textLength="123" x="353.5" y="878.0151">+EquilateralTriangle()</text><text fill="#000000" font-family="sans-serif" font-size="11" lengthAdjust="spacingAndGlyphs" textLength="189" x="353.5" y="890.8198">+EquilateralTriangle(double side)</text><text fill="#000000" font-family="sans-serif" font-size="11" lengthAdjust="spacingAndGlyphs" textLength="296" x="353.5" y="903.6245">+EquilateralTriangle(const EquilateralTriangle&amp; src)</text><text fill="#000000" font-family="sans-serif" font-size="11" lengthAdjust="spacingAndGlyphs" textLength="132" x="353.5" y="916.4292">+~EquilateralTriangle()</text><text fill="#000000" font-family="sans-serif" font-size="11" lengthAdjust="spacingAndGlyphs" textLength="101" x="353.5" y="929.2339">+clone() : Shape*</text><text fill="#000000" font-family="sans-serif" font-size="11" lengthAdjust="spacingAndGlyphs" textLength="93" x="353.5" y="942.0386">+area() : double</text><text fill="#000000" font-family="sans-serif" font-size="11" lengthAdjust="spacingAndGlyphs" textLength="102" x="353.5" y="954.8433">+height() : double</text><text fill="#000000" font-family="sans-serif" font-size="11" lengthAdjust="spacingAndGlyphs" textLength="91" x="353.5" y="967.6479">+side() : double</text><text fill="#000000" font-family="sans-serif" font-size="11" lengthAdjust="spacingAndGlyphs" textLength="205" x="353.5" y="980.4526">+display(std::ostream&amp; outs) : void</text><text fill="#000000" font-family="sans-serif" font-size="11" lengthAdjust="spacingAndGlyphs" textLength="179" x="353.5" y="993.2573">+read(std::istream&amp; ins) : void</text><text fill="#000000" font-family="sans-serif" font-size="11" lengthAdjust="spacingAndGlyphs" textLength="125" x="353.5" y="1006.062">+side(double s) : void</text><rect fill="#FEFECE" filter="url(#f1)" height="240.0703" style="stroke: #A80036; stroke-width: 1.5;" width="345" x="691" y="792"/><ellipse cx="818.25" cy="808" fill="#ADD1B2" rx="11" ry="11" style="stroke: #A80036; stroke-width: 1.0;"/><path d="M821.2188,813.6406 Q820.6406,813.9375 820,814.0859 Q819.3594,814.2344 818.6563,814.2344 Q816.1563,814.2344 814.8359,812.5859 Q813.5156,810.9375 813.5156,807.8125 Q813.5156,804.6875 814.8359,803.0313 Q816.1563,801.375 818.6563,801.375 Q819.3594,801.375 820.0078,801.5313 Q820.6563,801.6875 821.2188,801.9844 L821.2188,804.7031 Q820.5938,804.125 820,803.8516 Q819.4063,803.5781 818.7813,803.5781 Q817.4375,803.5781 816.75,804.6484 Q816.0625,805.7188 816.0625,807.8125 Q816.0625,809.9063 816.75,810.9766 Q817.4375,812.0469 818.7813,812.0469 Q819.4063,812.0469 820,811.7734 Q820.5938,811.5 821.2188,810.9219 L821.2188,813.6406 Z "/><text fill="#000000" font-family="sans-serif" font-size="12" lengthAdjust="spacingAndGlyphs" textLength="82" x="838.75" y="812.1543">RightTriangle</text><line style="stroke: #A80036; stroke-width: 1.5;" x1="692" x2="1035" y1="824" y2="824"/><text fill="#000000" font-family="sans-serif" font-size="11" lengthAdjust="spacingAndGlyphs" text-decoration="underline" textLength="142" x="697" y="838.2104">-ONE_HALF :const double</text><line style="stroke: #000000; stroke-width: 1.0;" x1="697" x2="839" y1="840.2104" y2="840.2104"/><line style="stroke: #A80036; stroke-width: 1.5;" x1="692" x2="1035" y1="844.8047" y2="844.8047"/><text fill="#000000" font-family="sans-serif" font-size="11" lengthAdjust="spacingAndGlyphs" textLength="91" x="697" y="859.0151">+RightTriangle()</text><text fill="#000000" font-family="sans-serif" font-size="11" lengthAdjust="spacingAndGlyphs" textLength="246" x="697" y="871.8198">+RightTriangle(double base, double height)</text><text fill="#000000" font-family="sans-serif" font-size="11" lengthAdjust="spacingAndGlyphs" textLength="232" x="697" y="884.6245">+RightTriangle(const RightTriangle&amp; src)</text><text fill="#000000" font-family="sans-serif" font-size="11" lengthAdjust="spacingAndGlyphs" textLength="100" x="697" y="897.4292">+~RightTriangle()</text><text fill="#000000" font-family="sans-serif" font-size="11" lengthAdjust="spacingAndGlyphs" textLength="101" x="697" y="910.2339">+clone() : Shape*</text><text fill="#000000" font-family="sans-serif" font-size="11" lengthAdjust="spacingAndGlyphs" textLength="93" x="697" y="923.0386">+area() : double</text><text fill="#000000" font-family="sans-serif" font-size="11" lengthAdjust="spacingAndGlyphs" textLength="95" x="697" y="935.8433">+base() : double</text><text fill="#000000" font-family="sans-serif" font-size="11" lengthAdjust="spacingAndGlyphs" text-decoration="underline" textLength="333" x="697" y="948.6479">-computeHypotenuse(double base, double height) : double</text><line style="stroke: #000000; stroke-width: 1.0;" x1="697" x2="1030" y1="950.6479" y2="950.6479"/><text fill="#000000" font-family="sans-serif" font-size="11" lengthAdjust="spacingAndGlyphs" textLength="102" x="697" y="961.4526">+height() : double</text><text fill="#000000" font-family="sans-serif" font-size="11" lengthAdjust="spacingAndGlyphs" textLength="133" x="697" y="974.2573">+hypotenuse() : double</text><text fill="#000000" font-family="sans-serif" font-size="11" lengthAdjust="spacingAndGlyphs" textLength="146" x="697" y="987.062">+base(double side) : void</text><text fill="#000000" font-family="sans-serif" font-size="11" lengthAdjust="spacingAndGlyphs" textLength="205" x="697" y="999.8667">+display(std::ostream&amp; outs) : void</text><text fill="#000000" font-family="sans-serif" font-size="11" lengthAdjust="spacingAndGlyphs" textLength="153" x="697" y="1012.6714">+height(double side) : void</text><text fill="#000000" font-family="sans-serif" font-size="11" lengthAdjust="spacingAndGlyphs" textLength="179" x="697" y="1025.4761">+read(std::istream&amp; ins) : void</text><rect fill="#FEFECE" filter="url(#f1)" height="214.4395" style="stroke: #A80036; stroke-width: 1.5;" width="217" x="258" y="180"/><ellipse cx="344.75" cy="196" fill="#A9DCDF" rx="11" ry="11" style="stroke: #A80036; stroke-width: 1.0;"/><path d="M344.8594,191.3438 L343.7031,196.4219 L346.0313,196.4219 L344.8594,191.3438 Z M343.375,189.1094 L346.3594,189.1094 L349.7188,201.5 L347.2656,201.5 L346.5,198.4375 L343.2188,198.4375 L342.4688,201.5 L340.0313,201.5 L343.375,189.1094 Z "/><text fill="#000000" font-family="sans-serif" font-size="12" font-style="italic" lengthAdjust="spacingAndGlyphs" textLength="35" x="365.25" y="200.4209">Shape</text><line style="stroke: #A80036; stroke-width: 1.5;" x1="259" x2="474" y1="212" y2="212"/><text fill="#000000" font-family="sans-serif" font-size="11" lengthAdjust="spacingAndGlyphs" text-decoration="underline" textLength="141" x="264" y="226.2104">#WIDTH_LABEL :const int</text><line style="stroke: #000000; stroke-width: 1.0;" x1="264" x2="405" y1="228.2104" y2="228.2104"/><text fill="#000000" font-family="sans-serif" font-size="11" lengthAdjust="spacingAndGlyphs" text-decoration="underline" textLength="142" x="264" y="239.0151">#WIDTH_VALUE :const int</text><line style="stroke: #000000; stroke-width: 1.0;" x1="264" x2="406" y1="241.0151" y2="241.0151"/><text fill="#000000" font-family="sans-serif" font-size="11" lengthAdjust="spacingAndGlyphs" textLength="118" x="264" y="251.8198">#_name : std::string</text><line style="stroke: #A80036; stroke-width: 1.5;" x1="259" x2="474" y1="258.4141" y2="258.4141"/><text fill="#000000" font-family="sans-serif" font-size="11" lengthAdjust="spacingAndGlyphs" textLength="53" x="264" y="272.6245">+Shape()</text><text fill="#000000" font-family="sans-serif" font-size="11" lengthAdjust="spacingAndGlyphs" textLength="148" x="264" y="285.4292">+Shape(std::string name)</text><text fill="#000000" font-family="sans-serif" font-size="11" lengthAdjust="spacingAndGlyphs" textLength="62" x="264" y="298.2339">+~Shape()</text><text fill="#000000" font-family="sans-serif" font-size="11" font-style="italic" lengthAdjust="spacingAndGlyphs" textLength="92" x="264" y="311.2803">+clone() : Shape*</text><text fill="#000000" font-family="sans-serif" font-size="11" font-style="italic" lengthAdjust="spacingAndGlyphs" textLength="86" x="264" y="324.0796">+area() : double</text><text fill="#000000" font-family="sans-serif" font-size="11" font-style="italic" lengthAdjust="spacingAndGlyphs" textLength="115" x="264" y="336.8789">+perimeter() : double</text><text fill="#000000" font-family="sans-serif" font-size="11" lengthAdjust="spacingAndGlyphs" textLength="120" x="264" y="349.4365">+name() : std::string</text><text fill="#000000" font-family="sans-serif" font-size="11" lengthAdjust="spacingAndGlyphs" textLength="205" x="264" y="362.2412">+display(std::ostream&amp; outs) : void</text><text fill="#000000" font-family="sans-serif" font-size="11" lengthAdjust="spacingAndGlyphs" textLength="185" x="264" y="375.0459">#name(std::string _name) : void</text><text fill="#000000" font-family="sans-serif" font-size="11" font-style="italic" lengthAdjust="spacingAndGlyphs" textLength="163" x="264" y="388.0923">+read(std::istream&amp; ins) : void</text><rect fill="#FEFECE" filter="url(#f1)" height="112.0234" style="stroke: #A80036; stroke-width: 1.5;" width="250" x="537.5" y="8"/><ellipse cx="615.25" cy="24" fill="#ADD1B2" rx="11" ry="11" style="stroke: #A80036; stroke-width: 1.0;"/><path d="M618.2188,29.6406 Q617.6406,29.9375 617,30.0859 Q616.3594,30.2344 615.6563,30.2344 Q613.1563,30.2344 611.8359,28.5859 Q610.5156,26.9375 610.5156,23.8125 Q610.5156,20.6875 611.8359,19.0313 Q613.1563,17.375 615.6563,17.375 Q616.3594,17.375 617.0078,17.5313 Q617.6563,17.6875 618.2188,17.9844 L618.2188,20.7031 Q617.5938,20.125 617,19.8516 Q616.4063,19.5781 615.7813,19.5781 Q614.4375,19.5781 613.75,20.6484 Q613.0625,21.7188 613.0625,23.8125 Q613.0625,25.9063 613.75,26.9766 Q614.4375,28.0469 615.7813,28.0469 Q616.4063,28.0469 617,27.7734 Q617.5938,27.5 618.2188,26.9219 L618.2188,29.6406 Z "/><text fill="#000000" font-family="sans-serif" font-size="12" lengthAdjust="spacingAndGlyphs" textLength="86" x="635.75" y="28.1543">ShapeFactory</text><line style="stroke: #A80036; stroke-width: 1.5;" x1="538.5" x2="786.5" y1="40" y2="40"/><text fill="#000000" font-family="sans-serif" font-size="11" lengthAdjust="spacingAndGlyphs" text-decoration="underline" textLength="160" x="543.5" y="54.2104">-_known_shapes :ShapePair</text><line style="stroke: #000000; stroke-width: 1.0;" x1="543.5" x2="703.5" y1="56.2104" y2="56.2104"/><line style="stroke: #A80036; stroke-width: 1.5;" x1="538.5" x2="786.5" y1="60.8047" y2="60.8047"/><text fill="#000000" font-family="sans-serif" font-size="11" lengthAdjust="spacingAndGlyphs" text-decoration="underline" textLength="238" x="543.5" y="75.0151">+createShape(std::string name) : Shape*</text><line style="stroke: #000000; stroke-width: 1.0;" x1="543.5" x2="781.5" y1="77.0151" y2="77.0151"/><text fill="#000000" font-family="sans-serif" font-size="11" lengthAdjust="spacingAndGlyphs" text-decoration="underline" textLength="195" x="543.5" y="87.8198">+isKnown(std::string name) : bool</text><line style="stroke: #000000; stroke-width: 1.0;" x1="543.5" x2="738.5" y1="89.8198" y2="89.8198"/><text fill="#000000" font-family="sans-serif" font-size="11" lengthAdjust="spacingAndGlyphs" text-decoration="underline" textLength="124" x="543.5" y="100.6245">+numberKnown() : int</text><line style="stroke: #000000; stroke-width: 1.0;" x1="543.5" x2="667.5" y1="102.6245" y2="102.6245"/><text fill="#000000" font-family="sans-serif" font-size="11" lengthAdjust="spacingAndGlyphs" text-decoration="underline" textLength="219" x="543.5" y="113.4292">+listKnown(std::ostream&amp; outs) : void</text><line style="stroke: #000000; stroke-width: 1.0;" x1="543.5" x2="762.5" y1="115.4292" y2="115.4292"/><rect fill="#FEFECE" filter="url(#f1)" height="112.0234" style="stroke: #A80036; stroke-width: 1.5;" width="271" x="231" y="8"/><ellipse cx="283.25" cy="24" fill="#ADD1B2" rx="11" ry="11" style="stroke: #A80036; stroke-width: 1.0;"/><path d="M286.2188,29.6406 Q285.6406,29.9375 285,30.0859 Q284.3594,30.2344 283.6563,30.2344 Q281.1563,30.2344 279.8359,28.5859 Q278.5156,26.9375 278.5156,23.8125 Q278.5156,20.6875 279.8359,19.0313 Q281.1563,17.375 283.6563,17.375 Q284.3594,17.375 285.0078,17.5313 Q285.6563,17.6875 286.2188,17.9844 L286.2188,20.7031 Q285.5938,20.125 285,19.8516 Q284.4063,19.5781 283.7813,19.5781 Q282.4375,19.5781 281.75,20.6484 Q281.0625,21.7188 281.0625,23.8125 Q281.0625,25.9063 281.75,26.9766 Q282.4375,28.0469 283.7813,28.0469 Q284.4063,28.0469 285,27.7734 Q285.5938,27.5 286.2188,26.9219 L286.2188,29.6406 Z "/><text fill="#000000" font-family="sans-serif" font-size="12" lengthAdjust="spacingAndGlyphs" textLength="158" x="303.75" y="28.1543">ShapeFactory::ShapePair</text><line style="stroke: #A80036; stroke-width: 1.5;" x1="232" x2="501" y1="40" y2="40"/><text fill="#000000" font-family="sans-serif" font-size="11" lengthAdjust="spacingAndGlyphs" textLength="104" x="237" y="54.2104">+_model : Shape*</text><text fill="#000000" font-family="sans-serif" font-size="11" lengthAdjust="spacingAndGlyphs" textLength="118" x="237" y="67.0151">+_name : std::string</text><line style="stroke: #A80036; stroke-width: 1.5;" x1="232" x2="501" y1="73.6094" y2="73.6094"/><text fill="#000000" font-family="sans-serif" font-size="11" lengthAdjust="spacingAndGlyphs" textLength="75" x="237" y="87.8198">+ShapePair()</text><text fill="#000000" font-family="sans-serif" font-size="11" lengthAdjust="spacingAndGlyphs" textLength="259" x="237" y="100.6245">+ShapePair(std::string name, Shape* shape)</text><text fill="#000000" font-family="sans-serif" font-size="11" lengthAdjust="spacingAndGlyphs" textLength="84" x="237" y="113.4292">+~ShapePair()</text><rect fill="#FEFECE" filter="url(#f1)" height="201.6563" style="stroke: #A80036; stroke-width: 1.5;" width="217" x="258" y="492"/><ellipse cx="339.75" cy="508" fill="#ADD1B2" rx="11" ry="11" style="stroke: #A80036; stroke-width: 1.0;"/><path d="M342.7188,513.6406 Q342.1406,513.9375 341.5,514.0859 Q340.8594,514.2344 340.1563,514.2344 Q337.6563,514.2344 336.3359,512.5859 Q335.0156,510.9375 335.0156,507.8125 Q335.0156,504.6875 336.3359,503.0313 Q337.6563,501.375 340.1563,501.375 Q340.8594,501.375 341.5078,501.5313 Q342.1563,501.6875 342.7188,501.9844 L342.7188,504.7031 Q342.0938,504.125 341.5,503.8516 Q340.9063,503.5781 340.2813,503.5781 Q338.9375,503.5781 338.25,504.6484 Q337.5625,505.7188 337.5625,507.8125 Q337.5625,509.9063 338.25,510.9766 Q338.9375,512.0469 340.2813,512.0469 Q340.9063,512.0469 341.5,511.7734 Q342.0938,511.5 342.7188,510.9219 L342.7188,513.6406 Z "/><text fill="#000000" font-family="sans-serif" font-size="12" lengthAdjust="spacingAndGlyphs" textLength="45" x="360.25" y="512.1543">Square</text><line style="stroke: #A80036; stroke-width: 1.5;" x1="259" x2="474" y1="524" y2="524"/><text fill="#000000" font-family="sans-serif" font-size="11" lengthAdjust="spacingAndGlyphs" textLength="84" x="264" y="538.2104">-_side : double</text><line style="stroke: #A80036; stroke-width: 1.5;" x1="259" x2="474" y1="544.8047" y2="544.8047"/><text fill="#000000" font-family="sans-serif" font-size="11" lengthAdjust="spacingAndGlyphs" textLength="58" x="264" y="559.0151">+Square()</text><text fill="#000000" font-family="sans-serif" font-size="11" lengthAdjust="spacingAndGlyphs" textLength="107" x="264" y="571.8198">+Square(double s)</text><text fill="#000000" font-family="sans-serif" font-size="11" lengthAdjust="spacingAndGlyphs" textLength="166" x="264" y="584.6245">+Square(const Square&amp; src)</text><text fill="#000000" font-family="sans-serif" font-size="11" lengthAdjust="spacingAndGlyphs" textLength="67" x="264" y="597.4292">+~Square()</text><text fill="#000000" font-family="sans-serif" font-size="11" lengthAdjust="spacingAndGlyphs" textLength="101" x="264" y="610.2339">+clone() : Shape*</text><text fill="#000000" font-family="sans-serif" font-size="11" lengthAdjust="spacingAndGlyphs" textLength="93" x="264" y="623.0386">+area() : double</text><text fill="#000000" font-family="sans-serif" font-size="11" lengthAdjust="spacingAndGlyphs" textLength="123" x="264" y="635.8433">+perimeter() : double</text><text fill="#000000" font-family="sans-serif" font-size="11" lengthAdjust="spacingAndGlyphs" textLength="91" x="264" y="648.6479">+side() : double</text><text fill="#000000" font-family="sans-serif" font-size="11" lengthAdjust="spacingAndGlyphs" textLength="205" x="264" y="661.4526">+display(std::ostream&amp; outs) : void</text><text fill="#000000" font-family="sans-serif" font-size="11" lengthAdjust="spacingAndGlyphs" textLength="179" x="264" y="674.2573">+read(std::istream&amp; ins) : void</text><text fill="#000000" font-family="sans-serif" font-size="11" lengthAdjust="spacingAndGlyphs" textLength="125" x="264" y="687.062">+side(double s) : void</text><rect fill="#FEFECE" filter="url(#f1)" height="278.4844" style="stroke: #A80036; stroke-width: 1.5;" width="345" x="510" y="454"/><ellipse cx="653.25" cy="470" fill="#ADD1B2" rx="11" ry="11" style="stroke: #A80036; stroke-width: 1.0;"/><path d="M656.2188,475.6406 Q655.6406,475.9375 655,476.0859 Q654.3594,476.2344 653.6563,476.2344 Q651.1563,476.2344 649.8359,474.5859 Q648.5156,472.9375 648.5156,469.8125 Q648.5156,466.6875 649.8359,465.0313 Q651.1563,463.375 653.6563,463.375 Q654.3594,463.375 655.0078,463.5313 Q655.6563,463.6875 656.2188,463.9844 L656.2188,466.7031 Q655.5938,466.125 655,465.8516 Q654.4063,465.5781 653.7813,465.5781 Q652.4375,465.5781 651.75,466.6484 Q651.0625,467.7188 651.0625,469.8125 Q651.0625,471.9063 651.75,472.9766 Q652.4375,474.0469 653.7813,474.0469 Q654.4063,474.0469 655,473.7734 Q655.5938,473.5 656.2188,472.9219 L656.2188,475.6406 Z "/><text fill="#000000" font-family="sans-serif" font-size="12" lengthAdjust="spacingAndGlyphs" textLength="50" x="673.75" y="474.1543">Triangle</text><line style="stroke: #A80036; stroke-width: 1.5;" x1="511" x2="854" y1="486" y2="486"/><text fill="#000000" font-family="sans-serif" font-size="11" lengthAdjust="spacingAndGlyphs" textLength="102" x="516" y="500.2104">#_side_a : double</text><text fill="#000000" font-family="sans-serif" font-size="11" lengthAdjust="spacingAndGlyphs" textLength="102" x="516" y="513.0151">#_side_b : double</text><text fill="#000000" font-family="sans-serif" font-size="11" lengthAdjust="spacingAndGlyphs" textLength="101" x="516" y="525.8198">#_side_c : double</text><line style="stroke: #A80036; stroke-width: 1.5;" x1="511" x2="854" y1="532.4141" y2="532.4141"/><text fill="#000000" font-family="sans-serif" font-size="11" lengthAdjust="spacingAndGlyphs" textLength="63" x="516" y="546.6245">+Triangle()</text><text fill="#000000" font-family="sans-serif" font-size="11" lengthAdjust="spacingAndGlyphs" textLength="333" x="516" y="559.4292">+Triangle(double _side_a, double _side_b, double _side_c)</text><text fill="#000000" font-family="sans-serif" font-size="11" lengthAdjust="spacingAndGlyphs" textLength="176" x="516" y="572.2339">+Triangle(const Triangle&amp; src)</text><text fill="#000000" font-family="sans-serif" font-size="11" lengthAdjust="spacingAndGlyphs" textLength="72" x="516" y="585.0386">+~Triangle()</text><text fill="#000000" font-family="sans-serif" font-size="11" lengthAdjust="spacingAndGlyphs" textLength="101" x="516" y="597.8433">+clone() : Shape*</text><text fill="#000000" font-family="sans-serif" font-size="11" lengthAdjust="spacingAndGlyphs" textLength="93" x="516" y="610.6479">+area() : double</text><text fill="#000000" font-family="sans-serif" font-size="11" lengthAdjust="spacingAndGlyphs" textLength="123" x="516" y="623.4526">+perimeter() : double</text><text fill="#000000" font-family="sans-serif" font-size="11" lengthAdjust="spacingAndGlyphs" textLength="98" x="516" y="636.2573">+sideA() : double</text><text fill="#000000" font-family="sans-serif" font-size="11" lengthAdjust="spacingAndGlyphs" textLength="99" x="516" y="649.062">+sideB() : double</text><text fill="#000000" font-family="sans-serif" font-size="11" lengthAdjust="spacingAndGlyphs" textLength="99" x="516" y="661.8667">+sideC() : double</text><text fill="#000000" font-family="sans-serif" font-size="11" lengthAdjust="spacingAndGlyphs" textLength="205" x="516" y="674.6714">+display(std::ostream&amp; outs) : void</text><text fill="#000000" font-family="sans-serif" font-size="11" lengthAdjust="spacingAndGlyphs" textLength="179" x="516" y="687.4761">+read(std::istream&amp; ins) : void</text><text fill="#000000" font-family="sans-serif" font-size="11" lengthAdjust="spacingAndGlyphs" textLength="149" x="516" y="700.2808">+sideA(double side) : void</text><text fill="#000000" font-family="sans-serif" font-size="11" lengthAdjust="spacingAndGlyphs" textLength="150" x="516" y="713.0854">+sideB(double side) : void</text><text fill="#000000" font-family="sans-serif" font-size="11" lengthAdjust="spacingAndGlyphs" textLength="150" x="516" y="725.8901">+sideC(double side) : void</text><path d="M265.393,409.971 C248.24,430.663 230.445,452.129 213.351,472.751 " fill="none" style="stroke: #A80036; stroke-width: 1.0;"/><polygon fill="none" points="260.21,405.255,278.363,394.324,270.988,414.189,260.21,405.255" style="stroke: #A80036; stroke-width: 1.0;"/><path d="M366.5,414.7 C366.5,440.446 366.5,467.189 366.5,491.86 " fill="none" style="stroke: #A80036; stroke-width: 1.0;"/><polygon fill="none" points="359.5,414.324,366.5,394.324,373.5,414.324,359.5,414.324" style="stroke: #A80036; stroke-width: 1.0;"/><path d="M489.868,406.683 C505.962,422.166 522.561,438.135 538.951,453.902 " fill="none" style="stroke: #A80036; stroke-width: 1.0;"/><polygon fill="none" points="484.809,411.53,475.249,392.62,494.516,401.441,484.809,411.53" style="stroke: #A80036; stroke-width: 1.0;"/><path d="M593.652,749.607 C581.732,770.484 569.773,791.427 558.605,810.988 " fill="none" style="stroke: #A80036; stroke-width: 1.0;"/><polygon fill="none" points="587.641,746.016,603.637,732.119,599.799,752.958,587.641,746.016" style="stroke: #A80036; stroke-width: 1.0;"/><path d="M771.506,749.883 C779.535,763.946 787.58,778.035 795.388,791.71 " fill="none" style="stroke: #A80036; stroke-width: 1.0;"/><polygon fill="none" points="765.201,752.958,761.363,732.119,777.359,746.016,765.201,752.958" style="stroke: #A80036; stroke-width: 1.0;"/><path d="M366.5,133.368 C366.5,148.109 366.5,164.027 366.5,179.826 " fill="none" style="stroke: #A80036; stroke-width: 1.0;"/><polygon fill="none" points="366.5,120.198,362.5,126.198,366.5,132.198,370.5,126.198,366.5,120.198" style="stroke: #A80036; stroke-width: 1.0;"/></g></svg>